<svg xmlns="http://www.w3.org/2000/svg" width="780" height="765" viewBox="0 0 780 765">
    <g fill="none" fill-rule="evenodd">
        <path fill="#B9B8F1" d="M308.69 557.34h150.558v72.844H308.69z"/>
        <path fill="#121F55" d="M121.938 220.85h524.544c14.764 0 26.84 12.078 26.84 26.838v285.45c0 14.76-12.076 26.838-26.84 26.838H121.938c-14.76 0-26.836-12.078-26.836-26.838v-285.45c0-14.76 12.076-26.838 26.836-26.838z"/>
        <path fill="#566CD3" d="M112.912 236.504h542.6v275.544h-542.6z"/>
        <g fill="#E5E9FF" fill-rule="nonzero" opacity=".5">
            <path d="M561.13 261.082h54.22v72.444h-54.22zM153.074 261.082h390.938v72.444H153.074zM153.074 356.166H261.51v72.446H153.074zM281.484 398.176H615.35v30.436H281.484zM281.484 356.166H615.35v30.432H281.484zM153.074 442.764h462.278v44.708H153.074z"/>
        </g>
        <g fill-rule="nonzero">
            <path fill="#F7B75D" d="M622.68 511.406H215.016v-45.774H622.68z"/>
            <path fill="#2143AF" d="M251.976 465.632h4.566v16.56h-4.566zM236.124 465.632h4.568v23.804h-4.568zM283.73 465.632h4.568v16.56h-4.568zM267.878 465.632h4.566v23.804h-4.566zM315.482 465.632h4.568v16.56h-4.568zM299.632 465.632h4.568v23.804h-4.568zM347.238 465.632h4.568v16.56h-4.568zM331.384 465.632h4.568v23.804h-4.568zM378.992 465.632h4.568v16.56h-4.568zM363.14 465.632h4.566v23.804h-4.566zM410.746 465.632h4.566v16.56h-4.566zM394.894 465.632h4.568v23.804h-4.568zM442.5 465.632h4.568v16.56H442.5zM426.646 465.632h4.568v23.804h-4.568zM474.252 465.632h4.568v16.56h-4.568zM458.402 465.632h4.568v23.804h-4.568zM506.008 465.632h4.568v16.56h-4.568zM490.158 465.632h4.566v23.804h-4.566zM537.76 465.632h4.568v16.56h-4.568zM521.91 465.632h4.566v23.804h-4.566zM569.516 465.632h4.566v16.56h-4.566zM553.664 465.632h4.568v23.804h-4.568zM601.27 465.632h4.568v16.56h-4.568zM585.416 465.632h4.568v23.804h-4.568z"/>
        </g>
        <path fill="#121F55" d="M232.03 623.732h291.622c6.284 0 11.426 5.14 11.426 11.426 0 6.286-5.142 11.428-11.426 11.428H232.03c-6.286 0-11.428-5.142-11.428-11.428 0-6.284 5.142-11.426 11.428-11.426z"/>
        <g fill-rule="nonzero" transform="translate(239 16)">
            <path fill="#F2F2F2" d="M1.182.586h189.456v33.422H1.182z"/>
            <path fill="#B9B8F1" d="M184.636.586h42.382v33.422h-42.382z"/>
            <path fill="#FFF" d="M217.778 26.87l-6.906-7.05c2.608-3.72 2.286-8.884-1.01-12.25-3.72-3.796-9.812-3.856-13.608-.138-3.796 3.718-3.86 9.808-.14 13.608 3.286 3.354 8.418 3.79 12.19 1.286l6.914 7.056c.684.7 1.808.71 2.51.026l.026-.026c.7-.688.712-1.812.024-2.512zm-20.08-7.382c-2.86-2.92-2.81-7.62.106-10.478 2.918-2.858 7.618-2.81 10.478.108 2.86 2.92 2.808 7.622-.108 10.478-2.92 2.858-7.62 2.81-10.476-.108z"/>
            <circle cx="17.922" cy="23.706" r="4.856" fill="#B9B8F1"/>
            <circle cx="38.526" cy="23.706" r="4.856" fill="#B9B8F1"/>
            <circle cx="59.124" cy="23.706" r="4.856" fill="#B9B8F1"/>
            <circle cx="79.728" cy="23.706" r="4.856" fill="#B9B8F1"/>
            <circle cx="100.328" cy="23.706" r="4.856" fill="#B9B8F1"/>
        </g>
        <g fill="#B9B8F1" fill-rule="nonzero">
            <path d="M721.332 276.534H676.2a3.904 3.904 0 0 1-3.906-3.902v-45.136a3.91 3.91 0 0 1 3.906-3.908h45.132a3.91 3.91 0 0 1 3.906 3.908v45.136a3.905 3.905 0 0 1-3.906 3.902zm-41.228-7.812h37.32V231.4h-37.32v37.322z"/>
            <path d="M717.988 224.577l5.52 5.522-44.691 44.68-5.52-5.523z"/>
            <path d="M721.332 231.4H676.2a3.906 3.906 0 0 1-3.906-3.906v-45.132a3.908 3.908 0 0 1 3.906-3.906h45.132a3.906 3.906 0 0 1 3.906 3.906v45.132a3.908 3.908 0 0 1-3.906 3.906zm-41.228-7.814h37.32v-37.32h-37.32v37.32z"/>
            <path d="M678.943 179.827l44.685 44.685-5.522 5.523-44.686-44.686zM721.332 366.83H676.2a3.905 3.905 0 0 1-3.906-3.904v-45.134a3.908 3.908 0 0 1 3.906-3.908h45.132a3.907 3.907 0 0 1 3.906 3.908v45.134a3.906 3.906 0 0 1-3.906 3.904zm-41.228-7.81h37.32v-37.322h-37.32v37.322z"/>
            <path d="M718.138 314.792l5.52 5.519-44.678 44.692-5.52-5.519z"/>
            <path d="M721.332 321.698H676.2a3.906 3.906 0 0 1-3.906-3.906V272.66a3.908 3.908 0 0 1 3.906-3.906h45.132a3.906 3.906 0 0 1 3.906 3.906v45.132a3.908 3.908 0 0 1-3.906 3.906zm-41.228-7.816h37.32v-37.32h-37.32v37.32z"/>
            <path d="M678.945 270.126l44.685 44.685-5.522 5.523-44.686-44.686zM721.332 457.1H676.2a3.905 3.905 0 0 1-3.906-3.906V408.06a3.906 3.906 0 0 1 3.906-3.904h45.132a3.905 3.905 0 0 1 3.906 3.904v45.134a3.906 3.906 0 0 1-3.906 3.906zm-41.228-7.81h37.32v-37.326h-37.32v37.326z"/>
            <path d="M718.04 405.113l5.52 5.524-44.698 44.673-5.52-5.524z"/>
            <path d="M721.332 411.962H676.2a3.905 3.905 0 0 1-3.906-3.904v-45.132a3.908 3.908 0 0 1 3.906-3.906h45.132a3.906 3.906 0 0 1 3.906 3.906v45.132a3.906 3.906 0 0 1-3.906 3.904zm-41.228-7.808h37.32V366.83h-37.32v37.324z"/>
            <path d="M678.98 360.38l44.686 44.685-5.52 5.52-44.685-44.686zM721.332 547.396H676.2a3.906 3.906 0 0 1-3.906-3.906v-45.134a3.908 3.908 0 0 1 3.906-3.906h45.132a3.906 3.906 0 0 1 3.906 3.906v45.134a3.908 3.908 0 0 1-3.906 3.906zm-41.228-7.81h37.32V502.26h-37.32v37.326z"/>
            <path d="M718.04 495.41l5.52 5.523-44.698 44.673-5.52-5.524z"/>
            <path d="M721.332 502.26H676.2a3.905 3.905 0 0 1-3.906-3.904V453.22a3.905 3.905 0 0 1 3.906-3.902h45.132a3.904 3.904 0 0 1 3.906 3.902v45.134a3.906 3.906 0 0 1-3.906 3.906zm-41.228-7.81h37.32v-37.32h-37.32v37.32z"/>
            <path d="M678.983 450.68l44.686 44.686-5.52 5.52-44.685-44.686zM721.332 637.668H676.2a3.908 3.908 0 0 1-3.906-3.906v-45.136a3.906 3.906 0 0 1 3.906-3.906h45.132a3.905 3.905 0 0 1 3.906 3.906v45.136a3.909 3.909 0 0 1-3.906 3.906zm-41.228-7.814h37.32v-37.322h-37.32v37.322z"/>
            <path d="M718.039 585.677l5.52 5.524-44.697 44.673-5.521-5.524z"/>
            <path d="M721.332 592.532H676.2a3.908 3.908 0 0 1-3.906-3.906v-45.134a3.907 3.907 0 0 1 3.906-3.904h45.132a3.906 3.906 0 0 1 3.906 3.904v45.134a3.909 3.909 0 0 1-3.906 3.906zm-41.228-7.814h37.32v-37.322h-37.32v37.322z"/>
            <path d="M678.953 540.964l44.686 44.685-5.523 5.523-44.686-44.686z"/>
            <g>
                <path d="M721.332 186.266H676.2a3.906 3.906 0 0 1-3.906-3.904v-43.768a3.908 3.908 0 0 1 3.906-3.906h45.132a3.906 3.906 0 0 1 3.906 3.906v43.768a3.907 3.907 0 0 1-3.906 3.904zm-41.228-7.81h37.32v-35.958h-37.32v35.958z"/>
                <path d="M718.041 135.188l5.521 5.524-44.695 44.67-5.52-5.524z"/>
            </g>
            <g>
                <path d="M721.332 142.498H676.2a3.906 3.906 0 0 1-3.906-3.904V93.46a3.907 3.907 0 0 1 3.906-3.904h45.132a3.906 3.906 0 0 1 3.906 3.904v45.134a3.907 3.907 0 0 1-3.906 3.904zm-41.228-7.81h37.32V97.364h-37.32v37.324z"/>
                <path d="M678.881 90.494l44.683 44.682-5.522 5.523-44.683-44.683z"/>
            </g>
            <g>
                <path d="M721.332 97.364H676.2a3.906 3.906 0 0 1-3.906-3.904V48.326a3.905 3.905 0 0 1 3.906-3.902h45.132a3.904 3.904 0 0 1 3.906 3.902V93.46a3.907 3.907 0 0 1-3.906 3.904zm-41.228-7.81h37.32V52.232h-37.32v37.322z"/>
                <path d="M717.993 45.851l5.52 5.522-44.692 44.68-5.52-5.522z"/>
            </g>
            <g>
                <path d="M721.332 52.232H676.2a3.905 3.905 0 0 1-3.906-3.908V4.556A3.907 3.907 0 0 1 676.2.652h45.132a3.906 3.906 0 0 1 3.906 3.904v43.768c0 2.16-1.75 3.908-3.906 3.908zm-41.228-7.81h37.32V8.464h-37.32v35.958z"/>
                <path d="M678.91 1.11l44.684 44.683-5.523 5.523-44.684-44.684z"/>
            </g>
            <g>
                <path d="M676.2 97.364h-45.136a3.906 3.906 0 0 1-3.906-3.904V48.326a3.904 3.904 0 0 1 3.906-3.902H676.2a3.905 3.905 0 0 1 3.906 3.902V93.46a3.908 3.908 0 0 1-3.906 3.904zm-41.23-7.81h37.324V52.232H634.97v37.322z"/>
                <path d="M634.185 45.818l44.684 44.684-5.524 5.524-44.684-44.684z"/>
            </g>
            <g>
                <path d="M631.062 97.364h-43.764a3.905 3.905 0 0 1-3.904-3.904V48.326a3.904 3.904 0 0 1 3.904-3.902h43.764a3.907 3.907 0 0 1 3.908 3.902V93.46a3.909 3.909 0 0 1-3.908 3.904zm-39.858-7.81h35.954V52.232h-35.954v37.322z"/>
                <path d="M628.759 45.755l5.523 5.522-44.68 44.693-5.524-5.522z"/>
            </g>
            <g>
                <path d="M587.298 97.364h-45.134a3.905 3.905 0 0 1-3.904-3.904V48.326a3.905 3.905 0 0 1 3.904-3.902h45.134a3.905 3.905 0 0 1 3.906 3.902V93.46a3.907 3.907 0 0 1-3.906 3.904zm-41.228-7.81h37.324V52.232H546.07v37.322z"/>
                <path d="M544.823 45.818l44.684 44.684-5.524 5.524L539.3 51.342z"/>
            </g>
            <path d="M753.7 97.364h-32.368a3.907 3.907 0 0 1-3.906-3.904V48.326a3.905 3.905 0 0 1 3.906-3.902H753.7c14.472 0 26.248 11.772 26.248 26.246v.452c0 14.47-11.776 26.242-26.248 26.242zm-28.462-7.81H753.7c10.164 0 18.436-8.272 18.436-18.436v-.452c0-10.166-8.272-18.436-18.436-18.436h-28.462v37.324zM485.406 89.554h190.108v7.808H485.406z"/>
            <path d="M542.164 97.364h-42.398a3.908 3.908 0 0 1-3.908-3.904V70.918a3.91 3.91 0 0 1 2.124-3.476l42.4-21.756a3.88 3.88 0 0 1 3.818.142 3.9 3.9 0 0 1 1.87 3.332v44.3a3.906 3.906 0 0 1-3.906 3.904zm-38.494-7.81h34.59V55.552L503.67 73.3v16.254z"/>
        </g>
        <g fill-rule="nonzero">
            <path fill="#F2F2F2" d="M163.294 32.97v.65c0 17.848-14.468 32.316-32.316 32.316h-71.05V.65h71.05c17.848.002 32.316 14.472 32.316 32.32z"/>
            <path fill="#B9B8F1" d="M59.928.652v65.286H32.4C14.552 65.938.084 51.47.084 33.622v-.65C.084 15.122 14.552.654 32.4.654h27.528V.652z"/>
            <g fill="#546AD0">
                <path d="M13.88 38.382v10.146h32.252V38.382c0-6.108-4.948-11.052-11.05-11.052H24.934c-6.104 0-11.054 4.946-11.054 11.052zM36.648 19.048a7.514 7.514 0 0 0-7.516-7.514h-.152a7.51 7.51 0 0 0-7.51 7.514v.15a7.513 7.513 0 0 0 7.51 7.512h.152a7.516 7.516 0 0 0 7.516-7.512v-.15z"/>
            </g>
            <path fill="#546AD0" d="M72.986 8.47h23.938v6.124H72.986zM106.82 8.47h15.718v6.124H106.82zM72.986 45.464h32.502v6.126H72.986zM118.926 45.464h21.348v6.126h-21.348zM72.986 18.682h71.812v6.124H72.986zM72.986 30.232h71.812v6.126H72.986z"/>
        </g>
        <path fill="#B9B8F1" fill-rule="nonzero" d="M417.85 695.456h346.174c7.476 0 13.538 6.06 13.538 13.538 0 7.476-6.062 13.54-13.538 13.54H417.85c-7.402 0-13.404-6.002-13.404-13.402v-.272c.002-7.402 6.002-13.404 13.404-13.404zM637.53 637.668h126.496c7.476 0 13.538 6.058 13.538 13.538 0 7.474-6.062 13.536-13.538 13.536H637.53c-7.402 0-13.402-6-13.402-13.402v-.272c-.002-7.402 5.998-13.4 13.402-13.4zM13.488 731.956h234.294c7.478 0 13.54 6.06 13.54 13.536 0 7.478-6.062 13.538-13.54 13.538H13.488c-7.402 0-13.402-6-13.402-13.4v-.27c0-7.406 6-13.404 13.402-13.404zM316.256 731.956h41.06c7.476 0 13.536 6.06 13.536 13.536 0 7.478-6.06 13.538-13.536 13.538h-41.06c-7.404 0-13.402-6-13.402-13.4v-.27c0-7.406 5.998-13.404 13.402-13.404zM207.858 646.586H554.03c7.478 0 13.54 6.06 13.54 13.538 0 7.476-6.062 13.538-13.54 13.538H207.858c-7.402 0-13.402-6-13.402-13.402v-.274c0-7.402 6.002-13.4 13.402-13.4z"/>
        <g fill-rule="nonzero">
            <path fill="#2143AF" d="M613.438 168.528h-20.922c-10.852 0-19.734-8.88-19.734-19.732 0-10.858 8.882-19.734 19.734-19.734h20.922c10.854 0 19.734 8.876 19.734 19.734 0 10.85-8.88 19.732-19.734 19.732z"/>
            <path fill="#121F55" d="M603.848 168.528h-11.332c-10.852 0-19.734-8.88-19.734-19.732 0-10.858 8.882-19.734 19.734-19.734h11.332v39.466z"/>
            <path fill="#FFF" d="M616.404 149.206l-21.152 12.21V136.99z"/>
        </g>
        <g fill-rule="nonzero" transform="translate(245 102)">
            <path fill="#121F55" d="M54.302 100.808c-1.984 7.216 3.47 14.394 12.18 16.038 8.712 1.642 17.382-2.874 19.368-10.088 1.984-7.212-3.472-14.394-12.182-16.04-8.71-1.64-17.382 2.878-19.366 10.09z"/>
            <path fill="#2143AF" d="M30.176 153.892c-2.594-1.208-5.092.506-5.662 1.062-3.122 3.07-4.738 7.154-10.4 12.166-3.86 3.42-5.932 3.438-8.908 6.306-2.554 2.458-.326 4.876 2.932 5.252 1.276.148 8.87 1.912 11.8-3.354 2.142-3.846 3.254-7.06 6.254-9.754 2.998-2.692 3.062-.246 2.924.982-.102.878-.312 3.44-.36 4.246a.565.565 0 0 0 .494.584h.012a.551.551 0 0 0 .618-.532c.026-.956.72-3.948 2.236-7.44 1.854-4.274.412-8.418-1.94-9.518z"/>
            <path fill="#F99AB6" d="M17.828 170.878c3.032-2.384 9.736-11.086 10.03-13.63.342-2.988-4.734-5.904-6.23-3.84-2.568 3.544-4.514 11.07-11.462 16.584-.6 2.088 4.132 3.664 7.662.886z"/>
            <path fill="#121F55" d="M72.452 117.032l-41.984-2.11 7.208-5.926-8.86 47.082a5.268 5.268 0 0 1-6.146 4.202c-2.728-.516-4.562-3.064-4.256-5.778l5.466-47.594a6.717 6.717 0 0 1 6.902-5.94l.31.014 42.004 1.636a7.213 7.213 0 1 1-.562 14.416c-.014.002-.07-.002-.082-.002z"/>
            <ellipse cx="61.409" cy="21.091" fill="#2143AF" rx="12.902" ry="8.098" transform="rotate(90.212 61.41 21.09)"/>
            <path fill="#2143AF" d="M100.738 40.07c-5.208-2.996-10.978-10.482-8.776-17.082C97.108 7.568 85.086 2.05 79.136.912c-5.952-1.138-11.202.376-14.51 3.028-5.382 4.312-3.772 11.734-.774 17.716-3.256 1.876-4.82 5.91-2.948 8.91 4.082 6.546.568 15.354-1.862 20.586-3.91 8.418 1.542 18.874 11.03 23.64 9.486 4.77 21.844 4.262 31.37-.004 4.732-2.118 8.996-5.212 11.15-9.32 4.654-8.862-2.066-19.77-11.854-25.398z"/>
            <path fill="#F99AB6" d="M35.402 99.068a63.019 63.019 0 0 1-7.134.592 3.305 3.305 0 0 1-3.394-3.212 3.293 3.293 0 0 1 3.21-3.394c11.592-.318 20.262-3.736 25.772-10.154 8.406-9.796 6.81-23.42 6.79-23.554-.226-1.81 1.078-3.448 2.868-3.694a3.304 3.304 0 0 1 3.69 2.872c.084.672 1.962 16.686-8.332 28.684-5.526 6.436-13.402 10.412-23.47 11.86z"/>
            <path fill="#F7B75D" d="M63.148 53.26c-3.09.444-5.29 3.308-4.902 6.376.014.126 1.41 12.792-6.224 21.69-3.73 4.344-9.16 7.182-16.126 8.486 2.012 3.426 2.354 7.866.75 11.49 10.222-1.64 18.33-5.836 24.062-12.522 10.99-12.804 8.988-29.846 8.898-30.562-.396-3.13-3.262-5.36-6.458-4.958z"/>
            <path fill="#F99AB6" d="M64.056 58.878c-1.694-.86-3.066-3.43-1.04-5.782 1.998-2.31 5.074-3.598 8.372-3.722l.856-.032c2.92-.112 5.572 1.164 7.334 3.228-1.398 4.346-10.934 8.064-15.522 6.308z"/>
            <path fill="#F99AB6" d="M69.646 42.734l-.076 3.734-.136 7.008 5.382.094.168-8.958.074-3.472c-1.626 1.096-3.482 1.682-5.412 1.594z"/>
            <path fill="#F99AB6" d="M69.646 43.626l-.076 3.73c1.91-.284 4.226-1.134 5.428-2.542l.06-2.784c-1.626 1.096-3.482 1.68-5.412 1.596z"/>
            <path fill="#F99AB6" d="M70.984 45.55c5.098-.048 9.6-2.538 12.414-6.35a15.536 15.536 0 0 0 3.046-9.43l-.06-6.136a15.6 15.6 0 0 0-4.99-11.29A15.577 15.577 0 0 0 70.606 8.17a15.581 15.581 0 0 0-7.568 2.04c-4.764 2.714-7.956 7.864-7.896 13.738l.064 6.14c.056 5.652 3.108 10.572 7.63 13.27a15.53 15.53 0 0 0 8.148 2.192z"/>
            <path fill="#FFFEFF" d="M69.954 37.426a4.183 4.183 0 0 1-4.07 3.45 4.18 4.18 0 0 1-4.138-3.364l8.208-.086z"/>
            <path fill="#F7B75D" d="M56.182 61.362c-1.014 2.792 1.81 5.614 4.764 5.936a5.384 5.384 0 0 0 5.94-4.764c.322-2.954-4.084-9.43-5.746-6.962-1.582 2.344-4.09 3.396-4.958 5.79z"/>
            <path fill="#F7B75D" d="M79.582 52.572a9.162 9.162 0 0 1 2.192 5.524s-1.332 24.348 5.344 35.562L58.734 96.03l.76-33.7c-.17-3.576 1.206-6.858 3.524-9.232.134 5.432 11.308-1.102 16.564-.526z"/>
            <path fill="#2143AF" d="M55.788 168.282c-2.86.14-4.268 2.824-4.512 3.582-1.332 4.17-.856 8.54-3.526 15.612-1.82 4.824-3.644 5.808-4.936 9.732-1.112 3.37 1.988 4.468 5.042 3.28 1.196-.464 8.74-2.444 8.874-8.468.1-4.404-.416-7.766.978-11.546 1.398-3.78 2.598-1.646 3.046-.494.322.824 1.33 3.188 1.664 3.92.122.27.432.396.708.29l.012-.006a.548.548 0 0 0 .298-.756c-.424-.86-1.206-3.828-1.494-7.626-.352-4.652-3.562-7.646-6.154-7.52z"/>
            <path fill="#F99AB6" d="M52.792 189.066c1.57-3.522 3.438-14.348 2.51-16.734-1.09-2.806-6.942-3.016-7.3-.492-.62 4.334 1.17 11.9-2.404 20.018.444 2.126 5.36 1.312 7.194-2.792z"/>
            <path fill="#121F55" d="M75.124 115.876l-38.12 17.72 3.614-8.604 14.124 45.778a5.264 5.264 0 0 1-3.478 6.582c-2.648.818-5.46-.58-6.458-3.124l-17.366-44.65a6.707 6.707 0 0 1 3.334-8.47l.278-.132L68.97 102.83a7.211 7.211 0 0 1 9.618 3.392 7.212 7.212 0 0 1-3.392 9.622c-.012.006-.06.03-.072.032z"/>
            <path fill="#F99AB6" d="M78.488 99.65a52.554 52.554 0 0 1-5.412.61 3.298 3.298 0 0 1-3.51-3.082c-.118-1.824 1.272-3.386 3.086-3.512 6.118-.394 13.832-1.898 15.806-6.828 3.114-7.776-7.626-21.934-11.63-26.282a3.306 3.306 0 0 1 4.862-4.48c1.87 2.03 18.12 20.198 12.904 33.218C92.412 94.746 87 98.216 78.488 99.65z"/>
            <path fill="#F7B75D" d="M83.468 54.44a5.715 5.715 0 0 0-5.166-1.768c-1.3.22-2.484.88-3.368 1.89-1.936 2.212-1.71 5.626.268 7.798 4.564 5.02 13.412 17.58 11.01 23.578-.418 1.042-1.276 1.882-2.372 2.556-2.044 1.256-3.18 3.58-2.718 5.936.008.04.016.08.022.12.704 3.754 4.898 5.866 8.214 3.962 3.57-2.048 6.078-4.822 7.48-8.318 5.65-14.104-10.148-32.26-13.37-35.754z"/>
            <path fill="#F99AB6" d="M58.982 96.474a7.914 7.914 0 0 0 2.302 4.962l12.074-.992a7.9 7.9 0 0 0 1.46-5.27 7.946 7.946 0 0 0-8.566-7.272 7.953 7.953 0 0 0-7.27 8.572zM17.852 97.958a7.908 7.908 0 0 0 2.092 5.056l12.106-.482a7.894 7.894 0 0 0 1.682-5.204 7.945 7.945 0 0 0-8.252-7.626c-4.384.172-7.8 3.872-7.628 8.256z"/>
            <ellipse cx="74.657" cy="15.478" fill="#2143AF" rx="15.254" ry="9.572" transform="rotate(19.335 74.657 15.478)"/>
            <g>
                <path fill="#121F55" d="M80.7 101.026a1.988 1.988 0 0 0-1.988-1.988H6.728c-1.508 0-2.742.894-2.742 1.988 0 1.096 1.234 1.99 2.742 1.99h71.984a1.99 1.99 0 0 0 1.988-1.99z"/>
                <path fill="#FFF" d="M83.524 101.026c0 1.096-.964 1.99-2.142 1.99H54.046c-1.176 0-2.14-.894-2.14-1.99 0-1.094.964-1.988 2.14-1.988h27.336c1.176 0 2.142.894 2.142 1.988z"/>
                <path fill="#FFF" d="M4.098 61.79v36.298a2.927 2.927 0 0 0 2.928 2.93h47.892a2.927 2.927 0 0 0 2.928-2.93V61.79a2.93 2.93 0 0 0-2.928-2.93H7.026a2.93 2.93 0 0 0-2.928 2.93z"/>
                <path fill="#2143AF" d="M1.862 61.79v36.298a2.929 2.929 0 0 0 2.93 2.93h47.892a2.927 2.927 0 0 0 2.928-2.93V61.79a2.93 2.93 0 0 0-2.928-2.93H4.792a2.932 2.932 0 0 0-2.93 2.93z"/>
                <path fill="#FFF" d="M36.636 79.938a3.085 3.085 0 0 0-3.086-3.084h-9.624a3.087 3.087 0 0 0 0 6.172h9.624a3.09 3.09 0 0 0 3.086-3.088z"/>
            </g>
        </g>
        <g fill-rule="nonzero">
            <path fill="#2143AF" d="M454.778 674.806c-1.842 0-3.66-.85-4.83-2.452l-20.682-28.31a5.976 5.976 0 0 1 .208-7.322l27.032-32.826a5.974 5.974 0 0 1 9.224 7.594l-24.082 29.25 17.946 24.566a5.976 5.976 0 0 1-4.816 9.5zM494.474 674.752a5.974 5.974 0 0 1-4.816-9.506l18.024-24.626-23.988-29.166a5.974 5.974 0 0 1 .818-8.412c2.55-2.1 6.316-1.724 8.412.818l26.934 32.748a5.974 5.974 0 0 1 .208 7.326L499.3 672.31a5.97 5.97 0 0 1-4.826 2.442z"/>
            <path fill="#B9B8F1" d="M458.866 567.298c0 9.522 7.718 17.242 17.24 17.242 9.518 0 17.238-7.72 17.238-17.242 0-9.522-7.718-13.848-17.238-13.848-9.522.002-17.24 4.328-17.24 13.848z"/>
            <path fill="#F99AB6" d="M469.78 588.48l.044 16.394.038 10.72 12.566-.03-.634-26.208-.18-7.46z"/>
            <path fill="#2143AF" d="M456.544 614.172c.042-5.118 4.462-10.066 9.042-12.448 6.854-3.566 17.426-1.086 20.796.92 5.736 3.41 9.152 10.346 8.75 17.472l.402 38.232H454.93c0 .002 1.518-32.546 1.614-44.176z"/>
            <path fill="#F99AB6" d="M484.236 601.67c-5.002-2.102-12.052-2.796-17.748-.352l4.218 4.218a6.832 6.832 0 0 0 9.662 0c1.288-1.288 2.576-2.578 3.868-3.866zM472.834 557.438h6.542c5.778 0 11.188 4.73 10.462 10.464-.528 4.174 0 7.304 0 13.502 0 5.198-6.086 15.274-11.278 15.274h-4.914c-5.192 0-11.278-10.076-11.278-15.274 0-6.198.528-9.328 0-13.502-.722-5.734 4.686-10.464 10.466-10.464z"/>
            <path fill="#FFFEFF" d="M481.404 587.338a5.395 5.395 0 0 1-5.298 4.4 5.392 5.392 0 0 1-5.298-4.4h10.596z"/>
            <path fill="#566CD3" d="M481.756 694.918H468.71c-9.374 0-16.402-8.574-14.564-17.766l.786-18.802h40.604l.782 18.802c1.84 9.192-5.19 17.766-14.562 17.766z"/>
            <path fill="#566CD3" d="M415.82 673.94l55.436-5.286 1.584 16.606-55.434 5.284a8.254 8.254 0 0 1-9.002-7.434l-.016-.166a8.257 8.257 0 0 1 7.432-9.004z"/>
            <path fill="#566CD3" d="M526.486 673.94l-55.432-5.286-1.584 16.606 55.436 5.284a8.255 8.255 0 0 0 9.002-7.434l.014-.166a8.257 8.257 0 0 0-7.436-9.004z"/>
            <path fill="#FFF" d="M496.93 685.212h-43.398a4.04 4.04 0 0 1-4.038-4.04V652.4a4.038 4.038 0 0 1 4.038-4.036h43.398c2.23 0 4.04 1.806 4.04 4.036v28.772a4.04 4.04 0 0 1-4.04 4.04z"/>
            <path fill="#B9B8F1" d="M496.93 686.918h-43.398a4.039 4.039 0 0 1-4.038-4.04V654.11a4.039 4.039 0 0 1 4.038-4.04h43.398c2.23 0 4.04 1.806 4.04 4.04v28.768a4.039 4.039 0 0 1-4.04 4.04z"/>
            <path fill="#FFF" d="M481.176 671.562H469.29a3.038 3.038 0 0 1-3.04-3.036v-.062a3.04 3.04 0 0 1 3.04-3.04h11.886a3.04 3.04 0 0 1 3.038 3.04v.062c0 1.68-1.36 3.036-3.038 3.036zM453.38 702.146l16.156-.974-.05.3a1.514 1.514 0 0 0 1.536 1.762 1.518 1.518 0 0 0 1.456-1.268l.16-.978 1.816-.108-.076.46a1.518 1.518 0 0 0 2.994.492l.186-1.142 10.162-.61a2.76 2.76 0 0 0 .626-.328 9.019 9.019 0 0 0 1.19-.33 9 9 0 0 0 5.402-11.526 9.001 9.001 0 0 0-11.528-5.404c-.036.014-.066.03-.1.042-.018.008-.036.008-.036.008l-32.088 11.612c-.508.184-.952.5-1.34.904-2.62 2.744-.252 7.316 3.534 7.088z"/>
            <g transform="translate(447 684)">
                <circle cx="39.53" cy="9.162" r="9.004" fill="#F7B75D"/>
                <path fill="#F7B75D" d="M4.244 12.354L36.314.752a6.526 6.526 0 0 1 8.36 3.916c1.228 3.39-.506 12.388-3.896 13.616L6.44 20.346c-3.786.228-6.156-4.342-3.536-7.084.388-.408.832-.722 1.34-.908z"/>
                <path fill="#FFF" d="M29.458 14.834a1.514 1.514 0 0 1 1.536 1.764l-.564 3.44a1.517 1.517 0 0 1-2.992-.494l.564-3.438c.118-.722.73-1.25 1.456-1.272zM24.564 14.966c.954-.026 1.69.82 1.536 1.76l-.564 3.442a1.517 1.517 0 0 1-1.458 1.268 1.512 1.512 0 0 1-1.536-1.76l.566-3.442c.12-.718.732-1.25 1.456-1.268z"/>
            </g>
            <path fill="#F99AB6" d="M523.112 677.438l-37.452 10.076a6.749 6.749 0 0 0-4.764 8.272l.036.132a6.752 6.752 0 0 0 8.272 4.764l37.452-10.074a6.75 6.75 0 0 0 4.766-8.274l-.036-.134a6.752 6.752 0 0 0-8.274-4.762z"/>
            <path fill="#FFF" d="M488.928 702.146l-16.156-.974.05.3a1.516 1.516 0 1 1-2.992.494l-.162-.978-1.818-.108.078.46a1.515 1.515 0 0 1-1.538 1.762 1.512 1.512 0 0 1-1.454-1.27l-.19-1.142-10.16-.61a2.76 2.76 0 0 1-.626-.328 8.852 8.852 0 0 1-1.19-.33 9 9 0 0 1-5.402-11.526 9.002 9.002 0 0 1 11.53-5.404c.032.014.066.03.098.042.02.008.036.008.052.016l32.072 11.604c.508.184.952.5 1.34.904 2.624 2.744.254 7.316-3.532 7.088z"/>
            <g transform="translate(445 684)">
                <circle cx="10.778" cy="9.162" r="9.002" fill="#F7B75D"/>
                <path fill="#F7B75D" d="M46.066 12.354L13.992.752a6.525 6.525 0 0 0-8.358 3.916c-1.226 3.39.506 12.388 3.898 13.616l34.338 2.062c3.784.228 6.156-4.342 3.536-7.084-.39-.408-.832-.722-1.34-.908z"/>
                <path fill="#FFF" d="M20.852 14.834a1.52 1.52 0 0 0-1.54 1.764l.568 3.44a1.517 1.517 0 0 0 2.992-.494l-.568-3.438a1.515 1.515 0 0 0-1.452-1.272zM25.744 14.966a1.512 1.512 0 0 0-1.536 1.76l.566 3.442c.118.714.726 1.25 1.456 1.268.95.028 1.69-.82 1.536-1.76l-.568-3.442a1.514 1.514 0 0 0-1.454-1.268z"/>
            </g>
            <path fill="#F99AB6" d="M419.198 677.438l37.45 10.076a6.747 6.747 0 0 1 4.764 8.272l-.036.132a6.751 6.751 0 0 1-8.272 4.764l-37.452-10.074a6.753 6.753 0 0 1-4.766-8.274l.036-.134a6.753 6.753 0 0 1 8.276-4.762z"/>
            <path fill="#B9B8F1" d="M477.142 550.766c15.712 0 15.432 16.85 15.432 16.85-16.468 3.154-22.794-8.522-22.794-10.796 0-.002 1.728-6.054 7.362-6.054z"/>
            <path fill="#B9B8F1" d="M466.042 556.042c-6.392 1.234-6.77 13.236-6.77 13.236 8.284-1.6 13.184-8.336 12.896-9.826l-6.126-3.41z"/>
        </g>
        <g fill="#B9B8F1" fill-rule="nonzero">
            <path d="M493.02 763.832l14.914-10.372c.474-.064.92-.318 1.214-.738.242-.344.332-.746.308-1.136a1.772 1.772 0 0 0-.308-1.134 1.743 1.743 0 0 0-1.214-.736l-14.914-10.372a1.78 1.78 0 0 0-2.482.448 1.777 1.777 0 0 0 .446 2.47l13.416 9.324-13.416 9.328a1.774 1.774 0 0 0-.446 2.468 1.785 1.785 0 0 0 2.482.45z"/>
            <path d="M477.056 763.832l14.914-10.372a1.758 1.758 0 0 0 1.526-1.874 1.75 1.75 0 0 0-1.526-1.87l-14.914-10.372a1.77 1.77 0 0 0-2.472.448 1.768 1.768 0 0 0 .44 2.47l13.424 9.324-13.424 9.328a1.766 1.766 0 0 0-.44 2.468 1.774 1.774 0 0 0 2.472.45z"/>
            <path d="M461.104 764.516l14.91-10.368a1.776 1.776 0 0 0 1.216-.742c.242-.346.334-.744.306-1.136a1.741 1.741 0 0 0-1.522-1.87l-14.91-10.37a1.78 1.78 0 1 0-2.038 2.918l13.42 9.322-13.42 9.326a1.776 1.776 0 0 0-.444 2.47 1.786 1.786 0 0 0 2.482.45z"/>
            <path d="M445.138 764.516l14.92-10.368a1.794 1.794 0 0 0 1.214-.742c.236-.346.332-.744.304-1.136a1.78 1.78 0 0 0-.304-1.134 1.754 1.754 0 0 0-1.214-.736l-14.92-10.37a1.777 1.777 0 1 0-2.03 2.918l13.416 9.322-13.416 9.326a1.774 1.774 0 0 0-.448 2.47 1.784 1.784 0 0 0 2.478.45z"/>
        </g>
        <g fill="#B9B8F1" fill-rule="nonzero">
            <path d="M80.814 102.444l14.912-10.37a1.75 1.75 0 0 0 1.214-.74c.242-.344.332-.744.31-1.134a1.777 1.777 0 0 0-.31-1.132 1.74 1.74 0 0 0-1.214-.74l-14.912-10.37a1.786 1.786 0 0 0-2.482.446 1.775 1.775 0 0 0 .448 2.47L92.196 90.2 78.78 99.528a1.78 1.78 0 0 0-.448 2.472 1.789 1.789 0 0 0 2.482.444z"/>
            <path d="M64.848 102.444l14.916-10.37a1.778 1.778 0 0 0 1.218-.74c.24-.344.334-.744.308-1.134a1.775 1.775 0 0 0-.308-1.132 1.764 1.764 0 0 0-1.218-.74l-14.916-10.37a1.775 1.775 0 0 0-2.472.446 1.77 1.77 0 0 0 .44 2.47L76.24 90.2l-13.424 9.328a1.778 1.778 0 0 0 2.032 2.916z"/>
            <path d="M48.898 103.126l14.91-10.366a1.761 1.761 0 0 0 1.214-.744c.246-.344.336-.744.308-1.136a1.753 1.753 0 0 0-1.522-1.87l-14.91-10.37a1.782 1.782 0 0 0-2.482.446 1.775 1.775 0 0 0 .444 2.472l13.422 9.322-13.422 9.326a1.773 1.773 0 0 0-.444 2.47 1.782 1.782 0 0 0 2.482.45z"/>
            <path d="M32.932 103.126L47.85 92.76c.476-.066.92-.322 1.216-.744.236-.344.334-.744.304-1.136a1.778 1.778 0 0 0-.304-1.132 1.77 1.77 0 0 0-1.216-.738L32.932 78.64a1.782 1.782 0 0 0-2.48.446 1.78 1.78 0 0 0 .45 2.472L44.32 90.88l-13.418 9.326a1.78 1.78 0 0 0-.45 2.47 1.783 1.783 0 0 0 2.48.45z"/>
        </g>
        <g fill="#B9B8F1" fill-rule="nonzero">
            <path d="M695.052 763.832l14.914-10.372a1.766 1.766 0 0 0 1.216-.738c.24-.344.33-.746.306-1.136a1.743 1.743 0 0 0-1.522-1.87l-14.914-10.372a1.781 1.781 0 0 0-2.482.448 1.774 1.774 0 0 0 .45 2.47l13.414 9.324-13.414 9.328a1.775 1.775 0 0 0-.45 2.468 1.785 1.785 0 0 0 2.482.45z"/>
            <path d="M679.088 763.832l14.914-10.372a1.778 1.778 0 0 0 1.22-.738c.238-.344.334-.746.306-1.136a1.782 1.782 0 0 0-.306-1.134 1.754 1.754 0 0 0-1.22-.736l-14.914-10.372a1.77 1.77 0 0 0-2.472.448 1.768 1.768 0 0 0 .44 2.47l13.422 9.324-13.422 9.328a1.766 1.766 0 0 0-.44 2.468 1.774 1.774 0 0 0 2.472.45z"/>
            <path d="M663.136 764.516l14.912-10.368a1.768 1.768 0 0 0 1.214-.742c.244-.346.334-.744.308-1.136a1.748 1.748 0 0 0-1.522-1.87l-14.912-10.37a1.78 1.78 0 1 0-2.036 2.918l13.42 9.322-13.42 9.326a1.775 1.775 0 0 0-.446 2.47 1.787 1.787 0 0 0 2.482.45z"/>
            <path d="M647.172 764.516l14.918-10.368a1.794 1.794 0 0 0 1.214-.742c.236-.346.332-.744.302-1.136a1.779 1.779 0 0 0-.302-1.134 1.758 1.758 0 0 0-1.214-.736l-14.918-10.37a1.777 1.777 0 1 0-2.03 2.918l13.418 9.322-13.418 9.326a1.776 1.776 0 0 0-.45 2.47 1.786 1.786 0 0 0 2.48.45z"/>
        </g>
        <g fill-rule="nonzero">
            <path fill="#F7B75D" d="M162.73 117.442h-42.77c-9.76 0-17.674 7.914-17.674 17.676v15.196c0 9.764 7.916 17.676 17.674 17.676h23.682v19.47l19.086-19.47h.176c9.664 0 17.5-7.832 17.5-17.498v-15.374c.002-9.762-7.912-17.676-17.674-17.676z"/>
            <path fill="#121F55" d="M119.848 143.636a2.535 2.535 0 0 1-.748-1.804c0-.682.268-1.324.75-1.804l7.22-7.224 3.614 3.61-5.422 5.42 5.594 5.598-3.606 3.604-7.402-7.4zM154.906 147.73l5.728-5.724-5.728-5.728 3.606-3.608 7.532 7.534c.476.474.748 1.132.748 1.802a2.53 2.53 0 0 1-.75 1.806l-7.53 7.532-3.606-3.614zM150.924 130.402l-11.187 25.168-4.662-2.073 11.187-25.167z"/>
        </g>
        <path fill="#B9B8F1" d="M377.44 72.134c8.522 0 15.43 5.958 15.43 13.308 0 4.418-2.492 8.326-6.326 10.748l2.172 5.496-5.324-3.958a17.469 17.469 0 0 1-5.954 1.028c-8.52 0-15.43-5.958-15.43-13.312.002-7.35 6.912-13.31 15.432-13.31z"/>
        <g fill="#E5E9FF">
            <circle cx="3.188" cy="3.708" r="2.092" transform="translate(381 82)"/>
            <circle cx="2.44" cy="3.708" r="2.092" transform="translate(375 82)"/>
            <circle cx="3.694" cy="3.708" r="2.092" transform="translate(367 82)"/>
        </g>
        <g fill-rule="nonzero" transform="translate(11 390)">
            <path fill="#F2F2F2" d="M.782 1.894H233.02v340.06H.782z"/>
            <path fill="#E5E9FF" d="M.782 241.576H233.02v78.526H.782z"/>
            <path fill="#B9B8F1" d="M.782 1.894H233.02V67.58H.782z"/>
            <circle cx="43.022" cy="119.108" r="27.554" fill="#566CD3"/>
            <circle cx="43.022" cy="199.974" r="27.554" fill="#F7B75D"/>
            <path fill="#FFF" d="M70.576 280.836c0 15.22-12.336 27.556-27.552 27.556S15.47 296.056 15.47 280.836c0-15.212 12.336-27.548 27.554-27.548 15.218 0 27.552 12.336 27.552 27.548zM216.024 51.094l-8.04-8.658.026-.024-3.096-3.332a12.322 12.322 0 0 0 1.434-2.402 11.903 11.903 0 0 0 .758-2.248 12.34 12.34 0 0 0-.636-7.542 12.252 12.252 0 0 0-2.326-3.598 12.521 12.521 0 0 0-.612-.608c-.046-.046-.09-.09-.138-.134-.212-.192-.43-.376-.652-.55l-.004-.006c-.226-.18-.458-.346-.696-.506l-.106-.07c-4.616-3.068-10.896-2.706-15.138 1.232-4.966 4.614-5.252 12.376-.642 17.344a12.222 12.222 0 0 0 4.796 3.182l.03.012c.152.054.304.108.458.154l.036.012a12.16 12.16 0 0 0 2.486.504c.138.014.278.024.416.034a58.438 58.438 0 0 0 .518.022 11.94 11.94 0 0 0 .532 0c.052 0 .104-.004.158-.006a8.2 8.2 0 0 0 .5-.028c.412-.032.822-.084 1.23-.156.074-.016.15-.026.222-.042.1-.018.198-.04.296-.062.084-.02.166-.04.25-.058.092-.024.184-.046.28-.072.086-.024.174-.046.264-.074.086-.026.174-.05.262-.078.092-.034.186-.062.278-.096.084-.03.164-.056.246-.086.104-.042.208-.078.312-.122.068-.03.14-.054.206-.084.17-.072.334-.146.5-.224.046-.024.094-.046.142-.07.124-.062.246-.124.366-.188.064-.036.128-.07.192-.108.102-.056.206-.118.308-.176.066-.042.132-.084.198-.124l.206-.13 3.092 3.332.028-.026 8.042 8.662a2.062 2.062 0 0 0 2.91.106 2.054 2.054 0 0 0 .108-2.908zm-27.302-26.378c.172-.158.35-.308.53-.452l.112-.09a9.306 9.306 0 0 1 1.16-.77c.028-.016.052-.032.082-.046.194-.106.392-.202.59-.294.038-.02.078-.036.118-.052a9.219 9.219 0 0 1 2.016-.636c.022-.002.046-.008.07-.012.218-.04.442-.076.662-.1l.02-.004c.23-.024.458-.042.688-.05.024-.002.048-.002.074-.002a9.305 9.305 0 0 1 2.134.17l.012.002c.47.094.936.222 1.392.384 0 0 .014.01.024.012a9.391 9.391 0 0 1 3.674 2.438c3.546 3.818 3.324 9.81-.492 13.358-3.34 3.1-8.344 3.316-11.918.772a9.836 9.836 0 0 1-1.084-.904l-.014-.014a9.356 9.356 0 0 1-.34-.35c-3.55-3.824-3.326-9.814.49-13.36z"/>
            <path fill="#546AD0" d="M17.226 50.422h169.452v4.13H17.226z"/>
            <g fill="#B9B8F1">
                <path d="M79.876 105.22h144.72v8.008H79.876zM79.876 124.984h103.002v8.006H79.876z"/>
            </g>
            <g fill="#B9B8F1">
                <path d="M79.876 186.088h144.72v8.008H79.876zM79.876 205.85h103.002v8.008H79.876z"/>
            </g>
            <g fill="#546AD0">
                <path d="M79.876 266.956h144.72v8.008H79.876zM79.876 286.714h103.002v8.01H79.876z"/>
            </g>
        </g>
        <path fill="#2143AF" fill-rule="nonzero" d="M604.422 330.968c.052.36.09.724.086 1.098l.002 54.582c-.002 4.05-3.286 7.34-7.338 7.338l-33.392-.002a7.338 7.338 0 0 1-7.338-7.334v-54.584c0-.376.042-.738.094-1.098-19.684 8.596-33.348 27.454-33.348 49.338.002 21.556 13.26 43.28 32.472 53.784l-.002 236.508c.002 13.704 11.114 24.816 24.816 24.816h.002c13.71.006 24.82-11.114 24.818-24.816l.002-236.508c19.21-10.508 32.468-32.224 32.468-53.784-.002-21.884-13.662-40.744-33.342-49.338zm-23.946 352.314a9.61 9.61 0 0 1-9.608-9.612c0-5.304 4.302-9.606 9.606-9.606 5.31 0 9.612 4.3 9.608 9.608.004 5.306-4.3 9.612-9.606 9.61z"/>
        <g fill-rule="nonzero">
            <path fill="#546AD0" d="M632.938 652.152v18.25c0 13.816 11.2 25.012 25.012 25.012 13.816 0 25.014-11.196 25.014-25.012v-18.25h-50.026z"/>
            <path fill="#2143AF" d="M674.932 558.674v-22.032h-33.964v22.032a8.028 8.028 0 0 0-8.03 8.028v85.452h50.026v-85.452a8.03 8.03 0 0 0-8.032-8.028z"/>
            <path fill="#121F55" d="M670.182 331.324H645.82c-6.646 0-12.084 5.438-12.084 12.084v50.532c0 6.822 5.584 12.406 12.408 12.406h.126v107.648h23.364V406.346h.448c6.646 0 12.084-5.436 12.084-12.084v-50.958c-.002-6.59-5.394-11.98-11.984-11.98z"/>
            <path fill="#121F55" d="M679.852 536.642h-43.806a5.22 5.22 0 0 1-5.22-5.22v-14.62a5.221 5.221 0 0 1 5.22-5.22h43.806a5.22 5.22 0 0 1 5.22 5.22v14.62a5.217 5.217 0 0 1-5.22 5.22z"/>
        </g>
        <g fill-rule="nonzero" transform="translate(33 174)">
            <path fill="#8EDEF2" d="M39.204 60.912c2.21 4.694 18.62 35.638 65.938 34.844l-.144-8.626c-44.102.74-57.56-28.888-58.116-30.17l-7.926 3.41c.036.08.118.264.248.542z"/>
            <path fill="#F99AB6" d="M114.598 84.318a8.387 8.387 0 0 1 3.476 4.654l-7.03 10.786a8.386 8.386 0 0 1-5.662-1.294 8.444 8.444 0 0 1-2.464-11.684 8.44 8.44 0 0 1 11.68-2.462zM26.662 186.292c.704-1.872 17.266-46.134 17.266-73.232h-9.832c0 25.302-16.47 69.324-16.634 69.768l9.2 3.464zM75.678 157.13l18.424-26.342a4.919 4.919 0 0 0-1.43-6.99l-25.38-15.782-5.19 8.346 20.972 13.042-15.45 22.09 8.054 5.636z"/>
            <path fill="#121F55" d="M22.106 13.6s6.486-7.832 9.42-10.352c5.374-4.62 9.806.486 9.806.486C68.074-.374 73.1 37.82 60.918 47.34c-9.872 7.716-18.11 2.398-18.11 2.398S37.24 53.89 28.712 55.2c-5.276.81-11.654-2.654-11.654-2.654S9.594 57.88 3.876 49.988c-5.72-7.886 2.74-16.254 7.234-16.336 0 0-5.382-6.48 1.998-10.78 2.91-1.696 8.998-9.272 8.998-9.272z"/>
            <path fill="#F99AB6" d="M55.18 61.058c1.804-.916 3.258-3.644 1.106-6.14-2.124-2.458-5.394-3.824-8.898-3.958l-.908-.036c-3.106-.118-5.92 1.236-7.794 3.43 1.488 4.618 11.62 8.572 16.494 6.704z"/>
            <path fill="#F99AB6" d="M49.768 43.906l.08 3.964.146 7.448-5.722.1-.174-9.514-.078-3.692c1.728 1.164 3.698 1.786 5.748 1.694z"/>
            <path fill="#F99AB6" d="M49.768 43.906l.08 3.964c-2.028-.302-4.488-1.208-5.766-2.706l-.062-2.954c1.728 1.166 3.698 1.788 5.748 1.696z"/>
            <path fill="#F99AB6" d="M52.96 43.9c-4.838 2.436-10.304 2.278-14.812.052a16.523 16.523 0 0 1-7.47-7.422l-2.934-5.828a16.538 16.538 0 0 1-.786-13.084 16.536 16.536 0 0 1 8.154-9.198 16.527 16.527 0 0 1 8.136-1.762c5.824.242 11.344 3.55 14.148 9.126l2.932 5.83c2.698 5.364 2.214 11.494-.744 16.244A16.492 16.492 0 0 1 52.96 43.9z"/>
            <path fill="#121F55" d="M34.632 26.718c11.906 1.938 13.218-10.9 12.54-16.184C45.752-.51 31.326 1.618 26.278 7.112c-3.128 3.406-8.686 12.63-6.288 24.09 2.396 11.458 14.092 18.58 14.092 18.58 12.85-9.422-.428-18.452-.428-18.452l.978-4.612z"/>
            <circle cx="45.084" cy="104.374" r="15.748" fill="#8EDEF2"/>
            <path fill="#FFFEFF" d="M51.648 34.864a4.433 4.433 0 1 0 7.788-3.918l-7.788 3.918z"/>
            <path fill="#8EDEF2" d="M72.048 108.872c-20.808 18.046-46.616 26.894-46.616 26.894 5.048-10.798-6.596-24.01 5.342-37.84 4.93-5.71 30.06 2.604 30.06 2.604l11.214 8.342zM63.546 63.696c1.078 2.968-1.92 5.962-5.062 6.304a5.717 5.717 0 0 1-6.308-5.058c-.344-3.142 4.336-10.02 6.102-7.4 1.682 2.496 4.344 3.61 5.268 6.154z"/>
            <path fill="#8EDEF2" d="M38.686 54.356c-1.398 1.55-2.22 3.62-2.324 5.87 0 0 1.412 25.868-5.682 37.784-3.05 5.124 30.242 4.98 30.242 4.98l-.892-38.264c.18-3.8-1.282-7.288-3.744-9.806-.144 5.768-14.65-3.828-17.6-.564z"/>
            <path fill="#8EDEF2" d="M44.02 63.486c5.348.516 41.558 2.318 65.916-40.182l-7.75-4.442C79.484 58.476 46.004 54.744 44.572 54.564l-1.166 8.854c.092.012.3.036.614.068z"/>
            <path fill="#F99AB6" d="M104.984 9.59a8.406 8.406 0 0 1 5.778-.602l5.672 11.556a8.383 8.383 0 0 1-4.014 4.202 8.442 8.442 0 0 1-7.436-15.156z"/>
            <g fill="#121F55" transform="translate(62 150)">
                <circle cx="6.716" cy="7.624" r="6.41"/>
                <path d="M31.132 13.956l-24.282.076A4.643 4.643 0 0 1 2.19 9.4c-.01-2.566 3.312-8.182 5.878-8.188l23.508 6.86c2.592.758 3.084 4.39.668 5.6a2.548 2.548 0 0 1-1.112.284z"/>
            </g>
            <g fill="#121F55" transform="translate(14 180)">
                <circle cx="6.982" cy="7.824" r="6.41"/>
                <path d="M22.356 27.818L3.152 12.96a4.644 4.644 0 0 1-.832-6.518c1.568-2.028 7.64-4.42 9.67-2.85L26.324 23.45c1.582 2.19-.262 5.358-2.912 4.826a2.47 2.47 0 0 1-1.056-.458z"/>
            </g>
            <path fill="#8EDEF2" d="M50.402 99.824c2.514 0 5.23-.242 8.084-.86l-.296-1.374c-13.44 2.892-23.9-2.854-24.002-2.914l-.69 1.224c.352.202 7.118 3.924 16.904 3.924z"/>
            <path fill="#2143AF" d="M2.058 184.36h2v15.832h-2zM12.054 192.792h2v21.646h-2zM12.054 166.158h2v12.55h-2z"/>
        </g>
        <g fill-rule="nonzero">
            <g fill="#2143AF">
                <path d="M369.102 723.73h-3.63a2.42 2.42 0 1 1 0-4.84h1.21v-1.208a2.421 2.421 0 1 1 4.84 0v3.628a2.418 2.418 0 0 1-2.42 2.42zM351.846 723.73h-8.176a2.42 2.42 0 0 1 0-4.84h8.176a2.42 2.42 0 0 1 0 4.84zm-21.806 0h-8.176a2.42 2.42 0 1 1 0-4.84h8.176a2.42 2.42 0 1 1 0 4.84zM308.232 723.73h-3.63a2.418 2.418 0 0 1-2.42-2.42v-3.628a2.42 2.42 0 1 1 4.838 0v1.208h1.21a2.42 2.42 0 0 1 .002 4.84zM304.602 706.47a2.418 2.418 0 0 1-2.42-2.42v-8.176a2.42 2.42 0 1 1 4.838 0v8.176a2.415 2.415 0 0 1-2.418 2.42zm0-21.804a2.419 2.419 0 0 1-2.42-2.422v-8.176a2.42 2.42 0 1 1 4.838 0v8.176a2.416 2.416 0 0 1-2.418 2.422zM304.602 662.858a2.419 2.419 0 0 1-2.42-2.422v-3.628a2.418 2.418 0 0 1 2.42-2.42h3.63a2.42 2.42 0 1 1 0 4.84h-1.21v1.208a2.419 2.419 0 0 1-2.42 2.422zM351.844 659.226h-8.178a2.418 2.418 0 0 1-2.42-2.42 2.418 2.418 0 0 1 2.42-2.42h8.178a2.418 2.418 0 0 1 2.418 2.42c0 1.338-1.08 2.42-2.418 2.42zm-21.806 0h-8.178a2.42 2.42 0 1 1 0-4.84h8.178a2.42 2.42 0 1 1 0 4.84zM369.102 662.858a2.42 2.42 0 0 1-2.42-2.422v-1.208h-1.21a2.42 2.42 0 1 1 0-4.84h3.63a2.418 2.418 0 0 1 2.42 2.42v3.628a2.419 2.419 0 0 1-2.42 2.422zM369.102 706.468a2.42 2.42 0 0 1-2.42-2.42v-8.176a2.42 2.42 0 1 1 4.84 0v8.176a2.418 2.418 0 0 1-2.42 2.42zm0-21.806a2.418 2.418 0 0 1-2.42-2.42v-8.176c0-1.34 1.084-2.42 2.42-2.42 1.338 0 2.42 1.08 2.42 2.42v8.176c0 1.34-1.082 2.42-2.42 2.42z"/>
            </g>
            <path fill="#8EDEF2" d="M316.86 669.064h39.984v39.986H316.86z"/>
            <path fill="#2143AF" d="M375.326 664.086h-12.442a1.055 1.055 0 0 1-1.056-1.056v-12.442c0-.584.472-1.056 1.056-1.056h12.442c.584 0 1.056.472 1.056 1.056v12.442c0 .584-.472 1.056-1.056 1.056zM310.824 664.086h-12.442a1.055 1.055 0 0 1-1.056-1.056v-12.442c0-.584.472-1.056 1.056-1.056h12.442c.584 0 1.056.472 1.056 1.056v12.442c0 .584-.472 1.056-1.056 1.056zM375.326 728.586h-12.442a1.055 1.055 0 0 1-1.056-1.054v-12.444c0-.582.472-1.054 1.056-1.054h12.442c.584 0 1.056.472 1.056 1.054v12.444c0 .582-.472 1.054-1.056 1.054zM310.824 728.586h-12.442a1.055 1.055 0 0 1-1.056-1.054v-12.444c0-.582.472-1.054 1.056-1.054h12.442c.584 0 1.056.472 1.056 1.054v12.444c0 .582-.472 1.054-1.056 1.054z"/>
        </g>
        <g fill-rule="nonzero">
            <path fill="#8EDEF2" d="M629.654 274.868l-7.722 29.566-25.318 10.554 3.574 8.57 27.44-11.44a4.647 4.647 0 0 0 2.704-3.112l8.304-31.794a4.598 4.598 0 0 0-3.282-5.608l-.09-.024a4.6 4.6 0 0 0-5.61 3.288z"/>
            <path fill="#F7B75D" d="M619.38 364.802a5.459 5.459 0 0 0 .57-7.034s-.912-1.266-2.55-3.45c-1.652-2.166-3.96-5.306-6.828-8.996a900.654 900.654 0 0 0-8.644-11.052c3.008.176 5.97.34 8.838.488 2.912.136 5.728.274 8.398.402 2.67.114 5.196.216 7.526.314 4.664.182 8.55.26 11.27.35 2.724.068 4.278.082 4.278.082a7.442 7.442 0 0 0 7.512-7.376c.036-3.924-2.998-7.166-6.842-7.488 0 0-1.552-.126-4.268-.302-2.718-.154-6.598-.428-11.258-.662-2.33-.112-4.854-.236-7.526-.366-2.67-.112-5.488-.226-8.402-.348-5.828-.228-12.046-.414-18.266-.582l-2.332-.062-.584-.014-.292-.004-.074-.002-.596-.002h-.036l-.144.008a8.956 8.956 0 0 0-5.972 2.598 9.013 9.013 0 0 0-2.63 5.458c-.25 2.068.342 4.358 1.508 6.01.796 1.09.696.866.862 1.084l.384.432.766.858c2.052 2.272 4.072 4.512 6.026 6.678a899.73 899.73 0 0 0 10.812 11.73c3.178 3.422 5.91 6.204 7.782 8.184a221.64 221.64 0 0 0 2.996 3.068 5.46 5.46 0 0 0 7.716-.004z"/>
            <g transform="translate(603 352)">
                <circle cx="13.012" cy="7.548" r="7.456" fill="#121F55"/>
                <path fill="#121F55" d="M7.18 36.298l12.462-25.342a5.406 5.406 0 0 0-2.466-7.236c-2.68-1.316-10.244-.708-11.558 1.97L.804 33.766c-.532 3.094 3.016 5.46 5.512 3.55.366-.278.666-.616.864-1.018z"/>
                <path fill="#FFF" d="M5.668 16.092a1.256 1.256 0 0 0-1.776-.768l-2.574 1.31a1.26 1.26 0 0 0-.636 1.468 1.257 1.257 0 0 0 1.778.768l2.57-1.312c.54-.27.806-.886.638-1.466zM6.796 19.984a1.257 1.257 0 0 0-1.776-.77l-2.572 1.314a1.255 1.255 0 0 0 1.14 2.236l2.574-1.312c.534-.274.804-.89.634-1.468z"/>
                <circle cx="13.01" cy="7.546" r="4.47" fill="#2747B3"/>
            </g>
            <path fill="#2747B3" d="M643.5 255.834l.828 6.15 1.35-.434a2.485 2.485 0 0 0 1.724-2.364c0-.73.322-1.422.876-1.892l3.464-3.548c1.446-1.478 2.456-3.348 2.778-5.388.236-1.524.132-3.188-.856-4.474-1.366-1.782 3.294-6.662-.02-10.76-1.494-1.85-3.842-3.214-4.808-5.2-3.232-6.642-8.086-6.126-11.478-3.734-3.02 2.128-4.336-2.188-10.266-1.448-4.618.574-6.464 3.876-6.086 6.618 0 0-7.87.314-7.87 9.112 0 8.794 9.29 9.892 9.29 9.892l21.074 7.47z"/>
            <path fill="#F99AB6" d="M633.942 249.24l1.304 14.862.862 9.714 11.39-.996-2.598-23.714-.738-6.746z"/>
            <path fill="#F99AB6" d="M642.98 256.656v2.374c-1.846 2.332-4.776 4.128-7.734 5.072l-.652-7.446h8.386z"/>
            <path fill="#F99AB6" d="M630.856 263.604h-1.848c-4.034 0-8.76-7.83-8.76-11.866 0-4.812.412-7.246 0-10.488-.562-4.454 3.64-8.126 8.13-8.126h9.094a6.193 6.193 0 0 1 6.194 6.192v14.758c-.002 5.262-7.548 9.53-12.81 9.53z"/>
            <path fill="#2747B3" d="M629.72 233.124s-.816 6.718 10.532 6.306c0 0-.334 13.268 5.634 14.222l1.056-4.464s2.468-14.554-3.042-17.024c-5.508-2.466-14.18.96-14.18.96z"/>
            <path fill="#F99AB6" d="M649.69 266.494a6.32 6.32 0 0 0-4.318-.87l-5.026.79a14.446 14.446 0 0 0-6.468 2.736c5.284 1.316 11.568.54 15.812-2.656z"/>
            <path fill="#8EDEF2" d="M657.638 275.42c-.424-3.954-4.108-7.766-7.948-8.926-4.244 3.196-10.528 3.972-15.812 2.656-4.138 3.12-6.466 8.362-5.606 13.84l5.332 30.066 27.124-3.678s-2.116-24.974-3.09-33.958z"/>
            <path fill="#F7B75D" d="M557.334 361.542s1.042-1.17 2.91-3.174c1.878-1.988 4.514-4.88 7.764-8.26 3.234-3.396 21.106-21.492 21.106-21.492l.402-.37c.272-.238.552-.466.842-.69.58-.438 1.184-.842 1.816-1.202a15.951 15.951 0 0 1 4.06-1.602c.356-.084.714-.162 1.076-.218.162-.032 30.476-2.866 33.084-3.5 4.596-1.126 2.892-9.776 2.892-9.776l27.244-4.18c.198 3.9 2.716 7.688 3.4 10.228 1.09 4.066.43 8.198-1.524 11.572a15.193 15.193 0 0 1-9.254 7.122 15.157 15.157 0 0 1-5.92.396c-.73.066-1.83.16-3.268.278-2.726.198-6.618.534-11.29.84-2.34.152-4.872.31-7.548.484-2.68.154-5.506.314-8.426.484-2.926.146-5.948.302-9.016.458l-8.056.356c-.1.008-.2.034-.3.064-.05.018-.096.042-.146.062l-.072.04c-.014.004-.022.014-.022.014l-.034.018-.094.086c-1.154 1.046-2.298 2.086-3.44 3.12-2.29 2.056-4.54 4.078-6.718 6.036a894.517 894.517 0 0 1-12.034 10.572c-3.534 3.082-6.552 5.572-8.63 7.35a255.363 255.363 0 0 1-3.31 2.75 5.453 5.453 0 0 1-7.056-.174 5.444 5.444 0 0 1-.438-7.692z"/>
            <g transform="translate(527 356)">
                <circle cx="33.024" cy="11.272" r="7.454" fill="#121F55"/>
                <path fill="#121F55" d="M3.748 9.412l26.802 8.89a5.403 5.403 0 0 0 6.834-3.426c.942-2.834-.694-10.244-3.528-11.184L5.388 2.746C2.25 2.638.39 6.474 2.618 8.688c.328.33.704.584 1.13.724z"/>
                <path fill="#FFF" d="M24.562 6.798c.788 0 1.382-.718 1.232-1.492l-.542-2.836a1.254 1.254 0 1 0-2.466.474l.544 2.836a1.248 1.248 0 0 0 1.232 1.018zM20.508 6.798c.79 0 1.38-.718 1.234-1.492l-.546-2.836a1.255 1.255 0 1 0-2.466.474l.542 2.836a1.26 1.26 0 0 0 1.236 1.018z"/>
                <circle cx="33.024" cy="11.27" r="4.47" fill="#2747B3"/>
            </g>
            <path fill="#FFFEFF" d="M633.242 256.35a4.189 4.189 0 0 1-8.232 0h8.232z"/>
            <path fill="#F99AB6" d="M581.112 310.372a7.93 7.93 0 0 0 4.796-2.666l-1.878-12.008a7.94 7.94 0 0 0-5.38-1.076 7.973 7.973 0 0 0-6.64 9.11c.678 4.348 4.752 7.318 9.102 6.64z"/>
            <path fill="#8EDEF2" d="M656.838 311.11a4.643 4.643 0 0 0 2.942-5.762l-10.44-33.916-8.872 2.732 9.028 29.332-21.958 5.982 2.44 8.958 26.586-7.244c.094-.028.184-.054.274-.082z"/>
            <path fill="#61C8E0" d="M651.842 275.788l7.802 27.57-1.278.361-7.802-27.57zM647.322 295.346l-4.576-16.282-1.584.21 4.576 16.28z"/>
            <path fill="#F99AB6" d="M616.394 313.104a7.93 7.93 0 0 0 1.194 5.356l12.048 1.61a7.963 7.963 0 0 0 2.56-4.854c.582-4.364-2.482-8.376-6.844-8.956a7.968 7.968 0 0 0-8.958 6.844z"/>
            <path fill="#121F55" d="M637.896 319.106a1.985 1.985 0 0 0-1.988-1.984h-71.982c-1.508 0-2.742.892-2.742 1.984 0 1.098 1.234 1.99 2.742 1.99h71.982c1.098 0 1.988-.89 1.988-1.99z"/>
            <path fill="#FFF" d="M640.72 319.106c0 1.098-.962 1.99-2.144 1.99h-27.334c-1.176 0-2.14-.892-2.14-1.99 0-1.092.964-1.984 2.14-1.984h27.334c1.182 0 2.144.892 2.144 1.984z"/>
            <path fill="#FFF" d="M561.294 279.872v36.298a2.93 2.93 0 0 0 2.928 2.93h47.892a2.929 2.929 0 0 0 2.928-2.93v-36.298a2.93 2.93 0 0 0-2.928-2.932h-47.892a2.93 2.93 0 0 0-2.928 2.932z"/>
            <path fill="#2143AF" d="M559.062 279.872v36.298a2.927 2.927 0 0 0 2.926 2.93h47.894a2.927 2.927 0 0 0 2.926-2.93v-36.298a2.927 2.927 0 0 0-2.926-2.932h-47.894a2.927 2.927 0 0 0-2.926 2.932z"/>
            <path fill="#FFF" d="M593.83 298.022a3.083 3.083 0 0 0-3.084-3.088h-9.624a3.086 3.086 0 1 0 0 6.174h9.624a3.086 3.086 0 0 0 3.084-3.086z"/>
        </g>
        <g fill-rule="nonzero">
            <path fill="#2143AF" d="M543.862 246.878c2.974-1.824 5.744-2.48 6.462-2.984 1.178-.824-.434-7.156 2.782-9.592 4.4-3.334 1.822-9.998 1.524-11.136-.758-2.908-3.238-4.62-5.142-1.984-2.218 3.066-1.97 4.948-4.578 8.89-3.818 5.78-7.314 7.774-9.698 10.998-.432.588-1.666 3.074-.236 5.272 1.296 1.996 5.242 2.772 8.886.536z"/>
            <path fill="#F99AB6" d="M548.796 232.958c-1.772 3.058-8.806 10.258-11.076 10.85-2.67.7-5.968-3.534-4.288-5.158 2.888-2.788 9.466-5.52 13.576-12.53 1.818-.814 3.854 3.276 1.788 6.838z"/>
            <path fill="#F7B75D" d="M445.288 202.56s5.986 1.322 14.93 3.444c4.464 1.09 9.674 2.358 15.254 3.72 5.566 1.424 11.502 2.944 17.44 4.466l2.226.568.556.142.14.034.614.182.27.094 1.084.378 2.15.77.132.048.524.2.066.032.258.118.514.242 1.028.474c2.738 1.268 5.43 2.518 8.038 3.726 2.602 1.22 5.14 2.35 7.504 3.512 2.376 1.144 4.62 2.224 6.694 3.22 4.154 1.972 7.568 3.72 9.974 4.91 2.394 1.216 3.762 1.914 3.762 1.914l-3.396 7.792-3.962-1.456c-2.51-.952-6.114-2.268-10.386-3.968-2.142-.838-4.462-1.746-6.916-2.708-2.46-.944-5.014-2.032-7.68-3.11-2.66-1.086-5.408-2.208-8.198-3.352l-1.05-.43-.528-.214-.262-.108-.066-.028c-.11-.042.846.326.424.166l-.034-.01-.134-.042-2.176-.694-1.088-.354-.272-.092-.036-.008c-.116-.038.88.254.442.126l-.07-.018-.14-.03-.56-.132-2.236-.526c-5.968-1.4-11.932-2.798-17.526-4.114-5.578-1.376-10.782-2.664-15.244-3.766a1126.71 1126.71 0 0 1-14.83-3.856l2.766-11.262z"/>
            <path fill="#566CD3" d="M459.038 148.666c1.452-2.102-.522-5.61.708-9.774 3.716-12.58-.64-18.056-.64-18.056.07-4.622-3.808-8.668-9.602-10.806-2.718-.998-5.852-1.578-9.2-1.6-5.062-.036-9.682 1.216-13.122 3.284-3.684 2.212-6.36 5.374-6.064 8.874.208 2.48 2.872 5.758.16 9.944-6.688 10.328-3.786 16.286-.23 18.136 3.272 1.706 7.04 1.844 8.966 2.946 9.854 5.626 23.876 4.512 29.024-2.948z"/>
            <path fill="#F99AB6" d="M489.948 194.704a61.497 61.497 0 0 0 7.05-1.228 3.3 3.3 0 0 0 2.476-3.96 3.295 3.295 0 0 0-3.964-2.476c-11.296 2.618-20.552 1.496-27.5-3.324-10.606-7.358-12.494-20.946-12.51-21.08-.236-1.808-1.914-3.062-3.706-2.85a3.302 3.302 0 0 0-2.848 3.706c.086.676 2.308 16.642 15.298 25.656 6.97 4.836 15.596 6.698 25.704 5.556z"/>
            <path fill="#121F55" d="M457.058 167.688c.646 0 1.25.068 1.82.184-1.11-3.142-1.456-5.442-1.464-5.488-.336-2.598-2.584-4.556-5.22-4.556-.208 0-.418.012-.65.042a5.241 5.241 0 0 0-4.514 5.872c.042.334.596 4.168 2.534 9.12 1.026-2.884 3.52-5.174 7.494-5.174z"/>
            <path fill="#F99AB6" d="M450.832 164.9c1.694-.856 3.066-3.428 1.04-5.776-2-2.314-5.076-3.602-8.376-3.726l-.854-.03a9.162 9.162 0 0 0-7.336 3.226c1.404 4.346 10.936 8.066 15.526 6.306z"/>
            <path fill="#F99AB6" d="M445.242 148.758l.076 3.732.14 7.01-5.386.098-.166-8.958-.074-3.474c1.626 1.094 3.48 1.68 5.41 1.592z"/>
            <path fill="#F99AB6" d="M445.242 149.65l.076 3.73c-1.908-.284-4.222-1.134-5.426-2.542l-.06-2.784c1.626 1.096 3.48 1.684 5.41 1.596z"/>
            <path fill="#F99AB6" d="M443.906 151.576c-5.098-.05-9.602-2.542-12.416-6.348a15.539 15.539 0 0 1-3.046-9.428l.062-6.142a15.577 15.577 0 0 1 4.99-11.288 15.57 15.57 0 0 1 10.788-4.176c2.752.03 5.332.766 7.564 2.04 4.766 2.716 7.958 7.866 7.898 13.738l-.064 6.144c-.056 5.648-3.108 10.568-7.63 13.268a15.556 15.556 0 0 1-8.146 2.192z"/>
            <path fill="#F7B75D" d="M460.674 202.382c1.814 7.982-8.072 15.926-16.052 17.744-7.982 1.818-15.928-3.182-17.746-11.164-1.816-7.98 3.178-15.926 11.162-17.744 7.984-1.816 20.816 3.18 22.636 11.164z"/>
            <path fill="#FFFEFF" d="M444.936 143.454a4.17 4.17 0 0 0 4.066 3.444 4.173 4.173 0 0 0 4.138-3.364l-8.204-.08z"/>
            <path fill="#121F55" d="M459.634 168.522c1.016 2.796-1.8 6.206-4.754 6.53-2.956.322-6.552-3.538-6.876-6.492-.324-2.956 4.082-9.428 5.746-6.966 1.582 2.35 5.016 4.536 5.884 6.928z"/>
            <path fill="#121F55" d="M435.308 158.596a9.142 9.142 0 0 0-2.19 5.522s4.806 23.262-5.346 35.564c0 0 18.326 10.986 33.05 3.564 0-10.538-6.444-17.814-5.426-34.892.212-3.574-1.208-6.86-3.524-9.228-.138 5.428-11.306-1.106-16.564-.53z"/>
            <path fill="#2143AF" d="M451.026 276.566c.35 3.472-.26 6.252-.12 7.118.23 1.418 6.634 2.718 7.432 6.674 1.092 5.412 8.212 5.984 9.366 6.212 2.95.58 5.568-.91 4.024-3.77-1.8-3.334-3.602-3.926-6.022-7.986-3.544-5.952-3.82-9.964-5.692-13.516-.34-.644-2.046-2.838-4.646-2.504-2.358.304-4.772 3.52-4.342 7.772z"/>
            <path fill="#F99AB6" d="M461.418 287.058c-1.984-2.922-5.412-12.386-4.958-14.688.532-2.708 5.776-3.84 6.506-1.622 1.256 3.81.86 10.926 5.388 17.672-.058 1.99-4.626 2.046-6.936-1.362z"/>
            <path fill="#F7B75D" d="M476.086 223.75l-.26-.122-35-16.074a6.608 6.608 0 1 0-5.46 12.036l30.132 13.436-10.654 36.568 9.154 3.028 15.266-41.158a6.15 6.15 0 0 0-3.178-7.714z"/>
            <path fill="#F99AB6" d="M443.938 203.706c1.708 0 3.518-.098 5.438-.294a3.302 3.302 0 0 0 2.948-3.626c-.186-1.814-1.814-3.126-3.626-2.95-6.102.628-13.958.426-16.722-4.106-4.362-7.152 3.876-22.896 7.104-27.85a3.3 3.3 0 0 0-.964-4.57 3.305 3.305 0 0 0-4.574.96c-1.506 2.31-14.512 22.928-7.208 34.898 3.058 5.01 8.97 7.538 17.604 7.538z"/>
            <path fill="#566CD3" d="M426.736 131.354s11.074 3.958 17.992-.852c6.916-4.812 10.076-12.23 7.054-16.572-3.02-4.34-11.074-3.958-17.992.852-6.916 4.812-7.054 16.572-7.054 16.572z"/>
            <path fill="#121F55" d="M442.524 209.9a1.99 1.99 0 0 1 1.99-1.988h71.982c1.508 0 2.744.894 2.744 1.988 0 1.096-1.234 1.986-2.744 1.986h-71.982c-1.1 0-1.99-.886-1.99-1.986z"/>
            <path fill="#FFF" d="M439.702 209.9c0 1.096.962 1.986 2.142 1.986h27.334c1.178 0 2.138-.89 2.138-1.986 0-1.094-.96-1.988-2.138-1.988h-27.334c-1.18 0-2.142.894-2.142 1.988z"/>
            <path fill="#FFF" d="M519.126 170.664v36.298a2.93 2.93 0 0 1-2.93 2.932h-47.888c-1.62 0-2.93-1.31-2.93-2.932v-36.298a2.93 2.93 0 0 1 2.93-2.93h47.888a2.93 2.93 0 0 1 2.93 2.93z"/>
            <path fill="#2143AF" d="M521.36 170.664v36.298a2.929 2.929 0 0 1-2.928 2.932H470.54a2.926 2.926 0 0 1-2.928-2.932v-36.298c0-1.618 1.31-2.93 2.928-2.93h47.892a2.93 2.93 0 0 1 2.928 2.93z"/>
            <path fill="#FFF" d="M486.588 188.812a3.086 3.086 0 0 1 3.086-3.086h9.622a3.086 3.086 0 0 1 0 6.174h-9.622a3.087 3.087 0 0 1-3.086-3.088z"/>
            <path fill="#121F55" d="M429.82 167.124c3.906 0 6.372 2.216 7.432 5.024 1.206-2.478 2.446-4.672 3.452-6.208 1.576-2.418.89-5.672-1.532-7.254a5.224 5.224 0 0 0-2.856-.848 5.231 5.231 0 0 0-4.392 2.376 75.575 75.575 0 0 0-4.062 7.124 9.176 9.176 0 0 1 1.958-.214z"/>
            <path fill="#F99AB6" d="M463.708 197.524a7.922 7.922 0 0 1 .354 5.474l-11.116 4.914a7.909 7.909 0 0 1-3.814-3.944 7.966 7.966 0 0 1 4.064-10.51 7.968 7.968 0 0 1 10.512 4.066z"/>
        </g>
        <g fill-rule="nonzero" transform="translate(111 496)">
            <path fill="#F7B75D" d="M26.47 122.984c-1.8 0-3.576-.83-4.718-2.392l-20.2-27.648a5.832 5.832 0 0 1 .208-7.148l26.398-32.058a5.834 5.834 0 0 1 8.212-.796 5.832 5.832 0 0 1 .796 8.212l-23.52 28.562 17.528 23.994a5.835 5.835 0 0 1-1.27 8.154 5.798 5.798 0 0 1-3.434 1.12zM65.238 122.93a5.834 5.834 0 0 1-4.702-9.282l17.602-24.05L54.71 61.114a5.832 5.832 0 0 1 .802-8.212 5.832 5.832 0 0 1 8.212.8l26.304 31.98a5.836 5.836 0 0 1 .204 7.156l-20.28 27.706a5.835 5.835 0 0 1-4.714 2.386z"/>
            <circle cx="46.444" cy="17.996" r="16.836" fill="#F7B75D"/>
            <path fill="#F99AB6" d="M52.622 38.68l-.044 16.012-.036 10.464-12.27-.028.618-25.594.174-7.282z"/>
            <path fill="#F7B75D" d="M28.196 63.77c.04-4.998 4.358-9.83 8.83-12.158 6.692-3.48 17.02-1.054 20.31.902 5.6 3.33 8.938 10.102 8.542 17.06l.392 37.34H26.62s1.482-31.784 1.576-43.144z"/>
            <path fill="#E5E9FF" d="M47.042 75.034c2.912-8.952 6.11-15.208 8.986-23.166-8.814-3.326-17.35-1.468-19.166 0 2.878 7.958 6.074 14.214 8.984 23.166.15.646.586 1.688.598 1.672.012.016.024.048.034.062.03-.106.416-1.088.564-1.734z"/>
            <path fill="#2747B3" d="M47.5 52.5h-2.108l-1.988 12.104 1.4 7.364 1.642 4.738 1.638-4.738 1.406-7.364z"/>
            <path fill="#F99AB6" d="M49.64 8.364h-6.386c-5.644 0-10.926 4.622-10.22 10.22.512 4.076 0 7.136 0 13.186 0 5.072 5.942 14.918 11.016 14.918h4.794c5.072 0 11.014-9.846 11.014-14.918 0-6.048-.514-9.11 0-13.186.706-5.6-4.574-10.22-10.218-10.22z"/>
            <path fill="#FFFEFF" d="M41.27 37.564a5.269 5.269 0 0 0 5.176 4.296 5.27 5.27 0 0 0 5.176-4.296H41.27z"/>
            <path fill="#121F55" d="M52.816 142.626h-12.74c-9.154 0-16.018-8.376-14.222-17.35l.766-18.362h39.652l.766 18.362c1.796 8.974-5.068 17.35-14.222 17.35z"/>
            <path fill="#B8B9F1" d="M64.592 129.93h-42.38a3.94 3.94 0 0 1-3.942-3.942V97.892a3.943 3.943 0 0 1 3.942-3.946h42.38a3.946 3.946 0 0 1 3.944 3.946v28.096a3.94 3.94 0 0 1-3.944 3.942z"/>
            <path fill="#566CD3" d="M64.592 131.6h-42.38a3.943 3.943 0 0 1-3.942-3.946V99.56a3.942 3.942 0 0 1 3.942-3.946h42.38a3.945 3.945 0 0 1 3.944 3.946v28.094a3.942 3.942 0 0 1-3.944 3.946z"/>
            <path fill="#FFF" d="M49.208 116.604H37.596a2.967 2.967 0 0 1-2.966-2.964v-.062a2.967 2.967 0 0 1 2.966-2.964h11.612a2.967 2.967 0 0 1 2.966 2.964v.062a2.967 2.967 0 0 1-2.966 2.964z"/>
            <path fill="#F7B75D" d="M46.116 1.16c-11.204 0-20.908 11.808-20.908 11.808 13.962 8.544 23.784 2.272 27.166-.494.982-.802 2.982-2.492 2.982-4.714l-9.24-6.6z"/>
            <path fill="#B8B9F1" d="M48.016 53.19c-.602.548-2.744.49-3.312-.094-.546-.558-.73-3.09-.73-3.09l4.944.138c-.002 0-.326 2.518-.902 3.046z"/>
            <path fill="#FFF" d="M41.212 56.324l-4.174-5.032 3.48-4.474 5.928 3.222zM51.678 56.324l4.178-5.032-3.482-4.474-5.928 3.222zM52.088 220.706l-.092-15.8.288.062a1.477 1.477 0 0 0 1.798-1.406 1.48 1.48 0 0 0-1.16-1.486l-.946-.208-.01-1.778.45.098a1.478 1.478 0 0 0 .634-2.888l-1.104-.248-.056-9.938a2.839 2.839 0 0 0-.286-.628 8.385 8.385 0 0 0-.258-1.174c-1.402-4.648-6.308-7.284-10.956-5.878-4.648 1.398-7.28 6.306-5.878 10.954.01.038.024.066.036.102.006.016.006.034.01.05l9.618 31.886c.154.506.438.956.812 1.358 2.536 2.696 7.12.626 7.1-3.078z"/>
            <g transform="translate(36 178)">
                <circle cx="9.082" cy="9.908" r="8.794" fill="#F7B75D"/>
                <path fill="#F7B75D" d="M10.328 44.484L.712 12.596a6.377 6.377 0 0 1 4.26-7.946c3.372-1.016 12.052 1.152 13.07 4.522l.196 33.594c.022 3.706-4.562 5.774-7.096 3.072-.378-.396-.664-.848-.814-1.354z"/>
                <path fill="#FFF" d="M14.08 20.03c.026-.93.89-1.608 1.798-1.408l3.324.734a1.477 1.477 0 0 1 1.16 1.488 1.478 1.478 0 0 1-1.798 1.404l-3.326-.732a1.483 1.483 0 0 1-1.158-1.486zM13.948 24.804a1.482 1.482 0 0 1 1.8-1.404l3.324.732a1.482 1.482 0 0 1-.636 2.894l-3.326-.736a1.48 1.48 0 0 1-1.162-1.486z"/>
            </g>
            <path fill="#121F55" d="M55.794 130.856l-17.27 51.568 16.926.802 15.792-47.198a8.062 8.062 0 0 0-5.084-10.204l-.158-.05c-4.22-1.416-8.79.862-10.206 5.082z"/>
            <g>
                <path fill="#FFF" d="M53.042 192.394l4.07-15.272-.298-.012a1.48 1.48 0 0 1 .11-2.958l.966.036.458-1.716-.458-.014a1.485 1.485 0 0 1-1.388-1.816c.16-.69.788-1.172 1.498-1.144l1.13.042 2.558-9.606c.116-.19.262-.372.434-.536.158-.364.334-.724.546-1.072a8.794 8.794 0 0 1 12.084-2.932 8.79 8.79 0 0 1 2.93 12.082c-.02.03-.042.054-.06.088 0 0-.014.032-.024.046l-17.334 28.44c-.278.452-.664.814-1.13 1.108-3.128 1.97-7.044-1.186-6.092-4.764z"/>
                <g transform="translate(50 152)">
                    <circle cx="18.084" cy="10.416" r="8.792" fill="#F7B75D"/>
                    <path fill="#F7B75D" d="M8.17 43.562l17.338-28.44a6.376 6.376 0 0 0-2.126-8.76C20.376 4.53 11.428 4.44 9.594 7.446L.948 39.908c-.952 3.578 2.962 6.736 6.092 4.762.468-.292.858-.654 1.13-1.108z"/>
                    <path fill="#FFF" d="M10.698 18.954a1.484 1.484 0 0 0-1.388-1.816l-3.402-.126a1.48 1.48 0 1 0-.114 2.958l3.404.126a1.48 1.48 0 0 0 1.5-1.142zM9.62 23.608a1.48 1.48 0 0 0-1.386-1.812L4.83 21.67a1.479 1.479 0 1 0-.11 2.958l3.404.128a1.479 1.479 0 0 0 1.496-1.148z"/>
                </g>
            </g>
            <path fill="#121F55" d="M26.776 121.766l44.196 31.69L57.07 165.38l-39.786-30.376a8.061 8.061 0 0 1-1.856-11.248l.096-.136a8.063 8.063 0 0 1 11.252-1.854z"/>
        </g>
        <path fill="#B9B8F1" fill-rule="nonzero" d="M241.118 143.278a3.028 3.028 0 0 1-3.028-3.022 3.035 3.035 0 0 1 3.028-3.028 3.025 3.025 0 1 1 0 6.05zm-6.06-7.652c-.452 0-.848-.162-1.18-.484a1.656 1.656 0 0 1-.482-1.17c0-.442.172-.858.482-1.172a10.193 10.193 0 0 1 7.244-2.996 10.12 10.12 0 0 1 7.228 2.996c.32.312.49.722.49 1.172 0 .444-.172.86-.486 1.17a1.635 1.635 0 0 1-1.168.484c-.444 0-.864-.172-1.176-.484a6.876 6.876 0 0 0-4.886-2.024c-1.85 0-3.584.716-4.888 2.024a1.673 1.673 0 0 1-1.178.484zm17.384-5.282c-.492 0-.952-.192-1.3-.542-2.672-2.676-6.232-4.144-10.026-4.144a14.08 14.08 0 0 0-10.026 4.144c-.348.35-.81.542-1.302.542-.488 0-.952-.192-1.3-.542a1.842 1.842 0 0 1 0-2.588c3.368-3.374 7.854-5.228 12.632-5.228 4.776 0 9.26 1.856 12.626 5.222.708.71.712 1.876 0 2.594a1.826 1.826 0 0 1-1.304.542zm5.184-5.182c-.492 0-.956-.196-1.298-.544-4.058-4.054-9.458-6.286-15.21-6.286-5.752 0-11.152 2.232-15.208 6.29-.346.35-.808.542-1.302.542s-.956-.196-1.3-.544a1.834 1.834 0 0 1 .002-2.59c4.75-4.75 11.076-7.366 17.81-7.366 6.732 0 13.054 2.616 17.802 7.364.348.348.538.806.538 1.296s-.19.95-.538 1.298c-.348.348-.806.54-1.296.54z"/>
    </g>
</svg>
