<svg xmlns="http://www.w3.org/2000/svg" xmlns:xlink="http://www.w3.org/1999/xlink" width="899" height="710" viewBox="0 0 899 710">
    <defs>
        <path id="a" d="M0 0h1800v1200H0z"/>
    </defs>
    <g fill="none" fill-rule="evenodd" transform="translate(-727 -283)">
        <mask id="b" fill="#fff">
            <use xlink:href="#a"/>
        </mask>
        <g mask="url(#b)">
            <path fill="#B9B8F1" fill-rule="nonzero" d="M1035.376 967.79h245.988c6.728 0 12.184 5.456 12.184 12.184v.244c0 6.728-5.456 12.184-12.184 12.184h-245.988c-6.73 0-12.184-5.456-12.184-12.184v-.244c0-6.73 5.454-12.184 12.184-12.184zM1367.744 918.818h245.988c6.73 0 12.184 5.456 12.184 12.184v.246c0 6.728-5.456 12.184-12.184 12.184h-245.988c-6.728 0-12.184-5.456-12.184-12.184v-.246c0-6.728 5.454-12.184 12.184-12.184zM1335.968 945.886h144.59c6.73 0 12.184 5.456 12.184 12.184v.246c0 6.728-5.454 12.184-12.184 12.184h-144.59c-6.728 0-12.184-5.456-12.184-12.184v-.246c0-6.728 5.456-12.184 12.184-12.184z"/>
            <path fill="#B9B8F1" fill-rule="nonzero" d="M813.99 943.88h297.28c6.728 0 12.184 5.456 12.184 12.184v.244c0 6.73-5.456 12.184-12.184 12.184H813.99c-6.73 0-12.184-5.454-12.184-12.184v-.244c0-6.728 5.454-12.184 12.184-12.184zM808.012 861.884h797.726c6.73 0 12.184 5.456 12.184 12.184v.248c0 6.728-5.456 12.184-12.184 12.184H808.012c-6.728 0-12.184-5.456-12.184-12.184v-.248c.002-6.728 5.456-12.184 12.184-12.184zM1149.958 370.03h17.414c-.564 8.532-7.648 15.286-16.322 15.286-9.044 0-16.378-7.332-16.378-16.376 0-8.678 6.752-15.76 15.286-16.322v17.412z"/>
            <g fill-rule="nonzero">
                <path fill="#B9B8F1" d="M1534.532 397.882h2.894v34.422h-2.894zM1567.04 397.882h2.894v34.422h-2.894zM1562.346 445.626h38.338v2.896h-38.338zM1551.152 427.894v-17.4h-8.67v-12.612h2.896v9.718h8.668v20.294zM1570.674 431.898v-2.894h17.4v-8.67h12.612v2.894h-9.716v8.67zM1572.594 508.366v-5.414h-5.11V491.14h2.896v8.916h5.112v8.31zM1518.462 419.202v-12.678h8.282v-8.642h2.894v11.538h-8.282v9.782zM1495.064 480.894v-8.278h-9.782v-2.898h12.678v8.28h17.804v2.896zM1485.282 456.58v-2.892h9.782v-8.282h20.7v2.894h-17.804v8.28zM1597.792 471.64v-7.386c-2.234.014-6.598.032-10.172.032-2.942 0-4.758-.014-5.402-.038l-.74-.03.106-2.89.742.026c.686.028 2.76.036 5.232.036 4.98 0 11.558-.036 11.672-.036l1.458-.006v10.292h-2.896zM1530.486 508.224v-2.896h3.682c-.02-4.008-.058-13.824.006-15.574l.028-.738 2.894.11-.028.738c-.044 1.202-.044 7.248 0 16.592l.008 1.77h-6.59v-.002zM1551.1 508.224l.006-1.456c0-.138.078-14.852 0-16.908l-.026-.74 2.894-.104.028.738c.06 1.69.026 10.932.006 15.572h7.384v2.896H1551.1v.002zM1576.068 477.798h24.618v2.894h-24.618zM1485.282 429.038h32.408v2.896h-32.408zM1485.282 461.542h24.62v2.896h-24.62zM1518.462 483.606h2.896v24.62h-2.896z"/>
                <path fill="#121F55" d="M1514.972 417.5h9.506v5.83h-9.506zM1531.226 417.5h9.504v5.83h-9.504zM1547.48 417.5h9.504v5.83h-9.504zM1563.732 417.5h9.504v5.83h-9.504zM1514.972 486.4h9.506v5.83h-9.506zM1531.226 486.4h9.504v5.83h-9.504zM1547.48 486.4h9.504v5.83h-9.504zM1563.732 486.4h9.504v5.83h-9.504zM1575.642 425.732h5.828v9.506h-5.828zM1575.642 441.986h5.828v9.504h-5.828zM1575.642 458.238h5.828v9.506h-5.828zM1575.642 474.492h5.828v9.506h-5.828zM1506.742 425.732h5.828v9.506h-5.828zM1506.742 441.986h5.828v9.504h-5.828zM1506.742 458.238h5.828v9.506h-5.828zM1506.742 474.492h5.828v9.506h-5.828z"/>
                <path fill="#121F55" d="M1509.654 420.416h68.9v68.9h-68.9z"/>
                <path fill="#F7B75D" d="M1516.722 427.482h54.766v54.766h-54.766z"/>
                <g fill="#121F55">
                    <path d="M1522.346 432.862h6.708v6.708h-6.708zM1531.548 432.862h6.708v6.708h-6.708zM1540.75 432.862h6.708v6.708h-6.708zM1549.954 432.862h6.708v6.708h-6.708zM1559.156 432.862h6.708v6.708h-6.708z"/>
                    <g>
                        <path d="M1522.346 442.186h6.708v6.708h-6.708zM1531.548 442.186h6.708v6.708h-6.708zM1540.75 442.186h6.708v6.708h-6.708zM1549.954 442.186h6.708v6.708h-6.708zM1559.156 442.186h6.708v6.708h-6.708z"/>
                    </g>
                    <g>
                        <path d="M1522.346 451.512h6.708v6.708h-6.708zM1531.548 451.512h6.708v6.708h-6.708zM1540.75 451.512h6.708v6.708h-6.708zM1549.954 451.512h6.708v6.708h-6.708zM1559.156 451.512h6.708v6.708h-6.708z"/>
                    </g>
                    <g>
                        <path d="M1522.346 460.836h6.708v6.708h-6.708zM1531.548 460.836h6.708v6.708h-6.708zM1540.75 460.836h6.708v6.708h-6.708zM1549.954 460.836h6.708v6.708h-6.708zM1559.156 460.836h6.708v6.708h-6.708z"/>
                    </g>
                    <g>
                        <path d="M1522.346 470.16h6.708v6.708h-6.708zM1531.548 470.16h6.708v6.708h-6.708zM1540.75 470.16h6.708v6.708h-6.708zM1549.954 470.16h6.708v6.708h-6.708zM1559.156 470.16h6.708v6.708h-6.708z"/>
                    </g>
                </g>
            </g>
            <path fill="#B9B8F1" d="M1099.336 757.898h145.858v91.562h-145.858z"/>
            <path fill="#2143AF" d="M918.416 442.41h508.168c14.302 0 26 11.7 26 26v276.536c0 14.3-11.698 26.004-26 26.004H918.416c-14.3 0-25.998-11.704-25.998-26.004V468.41c-.002-14.3 11.698-26 25.998-26z"/>
            <path fill="#566CD3" d="M909.672 457.576h525.654V724.52H909.672z"/>
            <path fill="#2143AF" d="M1003.67 836.394h325.312c7.01 0 12.75 5.734 12.75 12.744s-5.738 12.746-12.75 12.746H1003.67c-7.01 0-12.746-5.736-12.746-12.746 0-7.01 5.738-12.744 12.746-12.744z"/>
            <g fill="#E5E9FF" fill-rule="nonzero">
                <path d="M934.13 608.784h160.1v5.768h-160.1zM934.13 593.444h160.1v5.768h-160.1zM934.13 578.104h160.1v5.768h-160.1z"/>
            </g>
            <path fill="#E5E9FF" fill-rule="nonzero" d="M1115.804 510.886h113.39v5.768h-113.39zM1115.804 495.8h113.39v5.768h-113.39zM1115.804 480.714h113.39v5.768h-113.39zM1115.804 556.148h113.39v5.768h-113.39zM1115.804 541.06h113.39v5.77h-113.39zM1115.804 525.972h113.39v5.77h-113.39zM1115.804 601.406h113.39v5.77h-113.39zM1115.804 586.32h113.39v5.77h-113.39zM1115.804 571.234h113.39v5.768h-113.39zM1115.804 646.668h113.39v5.768h-113.39zM1115.804 631.582h113.39v5.768h-113.39z"/>
            <g fill="#E5E9FF" fill-rule="nonzero">
                <path d="M1274.082 704.578h113.388v5.77h-113.388zM1274.082 689.492h113.388v5.77h-113.388zM1274.082 673.912h113.388v5.77h-113.388zM1274.082 658.33h113.388v5.768h-113.388z"/>
            </g>
            <path fill="#E5E9FF" fill-rule="nonzero" d="M1115.804 616.492h113.39v5.772h-113.39z"/>
            <g fill="#E5E9FF" fill-rule="nonzero">
                <path d="M934.13 646.668h160.1v5.768h-160.1zM934.13 631.328h160.1v5.768h-160.1z"/>
            </g>
            <g fill-rule="nonzero">
                <path fill="#F7B75D" d="M951.86 492.418l18.496-9.002 17.73 9.096h17.73l17.986-8.912 18.24 17.82 17.73-8.908 17.986-8.912 16.472 8.184v72.84h-160.1v-83.91z"/>
                <path fill="#B9B8F1" d="M951.604 510.954l18.496-18.536 21.26 20.71 33.998-11.336 16.43 19.384 17.984-19.756 18.24 9.188 16.218-8.066v62.082h-160.1v-62.832z"/>
                <path fill="#FFF" d="M952.116 501.42l17.728 9.004 17.01 19.812 19.218-10.624 17.984-8.878 17.986 26.938 17.986-9.15 17.984 9.408 16.218-8.522v35.216h-160.1v-52.378z"/>
                <path fill="#121F55" d="M951.86 532.934l17.984-13.14 17.732 18.006 18.24-9.002 10.55 15.454 38.486 3.512 22.906-19.15 16.472 8.292v27.718h-160.1V526.86z"/>
            </g>
            <g fill-rule="nonzero">
                <path fill="#121F55" d="M953.77 690.688l-18.672-6.078c2.678-8.262 10-13.586 18.672-13.586v19.664z"/>
                <path fill="#B9B8F1" d="M953.77 690.688l18.678 6.07c-3.35 10.326-14.432 15.98-24.746 12.624-10.312-3.354-15.958-14.446-12.604-24.772l18.672 6.078z"/>
                <path fill="#F7B75D" d="M953.77 690.688l11.546-15.908c7.018 5.104 9.812 13.72 7.132 21.978l-18.678-6.07z"/>
                <path fill="#E5E9FF" d="M953.77 690.688v-19.664c4.34 0 8.034 1.206 11.546 3.756l-11.546 15.908z"/>
            </g>
            <g fill-rule="nonzero">
                <path fill="#121F55" d="M1021.962 690.7l-17.5 8.906c-3.946-7.734-2.538-16.676 3.596-22.81l13.904 13.904z"/>
                <path fill="#B9B8F1" d="M1021.962 690.7l17.5-8.91c4.934 9.668 1.094 21.5-8.572 26.418-9.664 4.922-21.5 1.072-26.43-8.602l17.502-8.906z"/>
                <path fill="#F7B75D" d="M1021.962 690.7l-3.084-19.412c8.572-1.354 16.64 2.766 20.586 10.502l-17.502 8.91z"/>
                <path fill="#E5E9FF" d="M1021.962 690.7l-13.904-13.904c3.068-3.068 6.534-4.826 10.82-5.508l3.084 19.412z"/>
            </g>
            <g fill-rule="nonzero">
                <path fill="#121F55" d="M1090.178 690.698l8.906 17.502c-7.734 3.948-16.676 2.538-22.81-3.596l13.904-13.906z"/>
                <path fill="#B9B8F1" d="M1090.178 690.698l-8.914-17.5c9.67-4.932 21.502-1.094 26.42 8.574 4.922 9.664 1.072 21.5-8.602 26.428l-8.904-17.502z"/>
                <path fill="#F7B75D" d="M1090.178 690.698l-19.414 3.086c-1.354-8.572 2.766-16.64 10.5-20.586l8.914 17.5z"/>
                <path fill="#E5E9FF" d="M1090.178 690.698l-13.904 13.906c-3.068-3.068-4.828-6.532-5.508-10.82l19.412-3.086z"/>
            </g>
            <g fill-rule="nonzero">
                <path fill="#121F55" d="M1158.37 690.686l18.672 6.078c-2.68 8.258-10 13.584-18.672 13.584v-19.662z"/>
                <path fill="#B9B8F1" d="M1158.37 690.686l-18.678-6.074c3.348-10.326 14.43-15.978 24.746-12.62 10.312 3.354 15.96 14.446 12.606 24.772l-18.674-6.078z"/>
                <path fill="#F7B75D" d="M1158.37 690.686l-11.544 15.906c-7.02-5.104-9.812-13.718-7.132-21.98l18.676 6.074z"/>
                <path fill="#E5E9FF" d="M1158.37 690.686v19.662c-4.34 0-8.032-1.204-11.544-3.756l11.544-15.906z"/>
            </g>
            <g fill-rule="nonzero">
                <path fill="#121F55" d="M1226.516 690.688l-18.672-6.078c2.678-8.262 10-13.586 18.672-13.586v19.664z"/>
                <path fill="#B9B8F1" d="M1226.516 690.688l18.678 6.07c-3.352 10.326-14.43 15.98-24.746 12.624-10.312-3.354-15.96-14.446-12.604-24.772l18.672 6.078z"/>
                <path fill="#F7B75D" d="M1226.516 690.688l11.546-15.908c7.018 5.104 9.81 13.72 7.132 21.978l-18.678-6.07z"/>
                <path fill="#E5E9FF" d="M1226.516 690.688v-19.664c4.34 0 8.034 1.206 11.546 3.756l-11.546 15.908z"/>
            </g>
            <g fill-rule="nonzero">
                <path fill="#FFF" d="M1321.656 566.258h54.2c-1.758 26.554-23.802 47.58-50.802 47.58-28.148 0-50.972-22.822-50.972-50.974 0-27.012 21.012-49.052 47.574-50.802v54.196z"/>
                <path fill="#F7B75D" d="M1328.456 557.484v-42.082c16.288 1.16 30.324 10.554 37.982 24.032l-37.982 18.05z"/>
                <path fill="#B9B8F1" d="M1372.508 559.46h-32.384l29.264-13.9a46.794 46.794 0 0 1 3.12 13.9z"/>
            </g>
            <g fill-rule="nonzero">
                <path fill="#E5E9FF" d="M1399.097 468.608l19.726 20.137-26.182 25.647-19.726-20.137z"/>
                <path fill="#F7B75D" d="M1475.44 432.862c5.468-5.36 5.558-14.126.202-19.6-5.356-5.464-14.128-5.556-19.598-.202l-58.942 57.742c-5.468 5.352-5.558 14.126-.202 19.59 5.354 5.472 14.132 5.562 19.598.202l58.942-57.732z"/>
                <path fill="#B9B8F1" d="M1238.184 560.49h25.188c2.22-31.552 28.804-54.51 60.016-55.91 6.542-.292 12.884.714 18.85 2.736l7.324-25.196c-8.22-2.65-16.964-4.126-26.062-4.134-46.204-.05-83.828 36.652-85.316 82.504z"/>
                <path fill="#121F55" d="M1263.21 564.986h-25.068c.446 22.82 9.87 43.416 24.872 58.474l16.984-17.446c-10.28-11.12-16.726-25.906-16.788-41.028z"/>
                <path fill="#B9B8F1" d="M1323.388 624.95c-15.264.686-29.464-5.606-40.234-15.73l-16.928 17.386c15.108 13.656 35.124 21.984 57.092 22.01 46.582.046 84.458-37.252 85.362-83.628h-25.114c-.12 33.626-27.642 58.504-60.178 59.962z"/>
                <path fill="#121F55" d="M1346.454 508.924c20.222 8.766 35.192 29.494 36.932 51.566h25.286c-1.14-35.174-23.582-64.962-54.854-76.896l-7.364 25.33z"/>
            </g>
            <g fill-rule="nonzero">
                <path fill="#FFF" d="M738.494 656.526v8.838c0 7.316 12.206 13.254 27.27 13.254 15.058 0 27.262-5.938 27.262-13.254v-8.838h-54.532z"/>
                <path fill="#B9B8F1" d="M765.764 681.09c-16.958 0-29.746-6.758-29.746-15.726v-11.312h59.48v11.312c0 8.968-12.784 15.726-29.734 15.726zm-24.796-15.726c0 5.09 10.602 10.78 24.794 10.78 14.186 0 24.788-5.69 24.788-10.78V659h-49.582v6.364z"/>
                <path fill="#FFF" d="M738.494 645.818v8.84c0 7.314 12.206 13.254 27.27 13.254 15.058 0 27.262-5.94 27.262-13.254v-8.84h-54.532z"/>
                <path fill="#B9B8F1" d="M765.764 670.386c-16.958 0-29.746-6.764-29.746-15.728v-11.314h59.48v11.314c0 8.966-12.784 15.728-29.734 15.728zm-24.796-15.728c0 5.088 10.602 10.78 24.794 10.78 14.186 0 24.788-5.692 24.788-10.78v-6.364h-49.582v6.364z"/>
                <path fill="#FFF" d="M738.494 635.114v8.84c0 7.314 12.206 13.252 27.27 13.252 15.058 0 27.262-5.938 27.262-13.252v-8.84h-54.532z"/>
                <path fill="#B9B8F1" d="M765.764 659.682c-16.958 0-29.746-6.762-29.746-15.726V632.64h59.48v11.316c0 8.964-12.784 15.726-29.734 15.726zm-24.796-15.726c0 5.086 10.602 10.776 24.794 10.776 14.186 0 24.788-5.69 24.788-10.776v-6.368h-49.582v6.368z"/>
                <g>
                    <path fill="#FFF" d="M738.494 624.408v8.838c0 7.316 12.206 13.254 27.27 13.254 15.058 0 27.262-5.938 27.262-13.254v-8.838h-54.532z"/>
                    <path fill="#B9B8F1" d="M765.764 648.972c-16.958 0-29.746-6.758-29.746-15.726v-11.312h59.48v11.312c0 8.968-12.784 15.726-29.734 15.726zm-24.796-15.726c0 5.088 10.602 10.778 24.794 10.778 14.186 0 24.788-5.69 24.788-10.778v-6.364h-49.582v6.364z"/>
                </g>
                <g>
                    <path fill="#FFF" d="M738.494 611.494v11.046c0 7.314 12.206 13.254 27.27 13.254 15.058 0 27.262-5.94 27.262-13.254v-11.046h-54.532z"/>
                    <path fill="#B9B8F1" d="M765.764 638.27c-16.958 0-29.746-6.764-29.746-15.728V609.02h59.48v13.522c0 8.964-12.784 15.728-29.734 15.728zm-24.796-15.728c0 5.088 10.602 10.78 24.794 10.78 14.186 0 24.788-5.692 24.788-10.78v-8.572h-49.582v8.572z"/>
                    <g>
                        <path fill="#FFF" d="M793.026 611.494c0 7.322-12.204 13.254-27.262 13.254-15.064 0-27.27-5.932-27.27-13.254 0-7.32 12.206-13.256 27.27-13.256 15.058 0 27.262 5.936 27.262 13.256z"/>
                        <path fill="#B9B8F1" d="M765.764 627.222c-16.958 0-29.746-6.762-29.746-15.728 0-8.968 12.788-15.73 29.746-15.73 16.952 0 29.734 6.762 29.734 15.73 0 8.966-12.784 15.728-29.734 15.728zm0-26.51c-14.83 0-24.794 5.574-24.794 10.782 0 5.206 9.964 10.782 24.794 10.782 14.828 0 24.788-5.576 24.788-10.782-.002-5.088-10.602-10.782-24.788-10.782z"/>
                    </g>
                </g>
            </g>
            <path fill="#B9B8F1" fill-rule="nonzero" d="M913.44 440.548h-31.064v-32.972h7.994v16.96h13.668v6.624l10.814-9.3-10.814-8.43v6.638h-9.376v-12.476h16.786v-.276c10.888-1.85 18.414-12.446 18.998-23.248-.702-13.302-10.19-22.78-23.51-23.494-.248-.014-.494 0-.744 0a26.75 26.75 0 0 0 .57-3.988c-.67-12.316-9.448-21.078-21.764-21.748-7.236-.392-13.248 3.306-17.124 8.69-3.856-5.078-9.866-8.294-17.13-8.69-12.288-.668-21.136 10.44-21.746 21.748-.08 1.458.032 2.854.26 4.208a29.79 29.79 0 0 0-2.36-.218c-13.288-.726-22.85 11.268-23.508 23.494-.67 12.506 9.9 21.704 21.338 23.306v.202h18.562v12.114h-9.376v-6.624L823.1 422.37l10.814 8.428v-6.624h13.67v-16.598h7.564v32.972h-38.34v-6.622l-10.812 9.3 10.812 8.428v-6.622h42.66v-37.458h6.764v62.32h-6.624l9.3 10.814 8.43-10.814h-6.624v-62.32h7.368v37.458h35.358v6.622l10.814-9.302-10.814-8.426v6.622z"/>
            <g fill-rule="nonzero">
                <path fill="#F7B75D" d="M1381.258 634.616h230.794v284.072h-230.794z"/>
                <path fill="#2143AF" d="M1599.544 679.574v-33.108h-205.786v33.108h10.094v14.464h-10.094v33.108h205.786V694.04h-11.636v-14.464h11.636v-.002zm-169.078 33.992h-14.292v-13.98h14.292v13.98zm0-19.956h-14.292v-13.98h14.292v13.98zm0-19.584h-14.292v-14.008h14.292v14.008zm21.16 39.54h-14.296v-13.98h14.296v13.98zm0-19.956h-14.296v-13.98h14.296v13.98zm0-19.584h-14.296v-14.008h14.296v14.008zm20.81 39.54h-14.292v-13.98h14.292v13.98zm0-19.956h-14.292v-13.98h14.292v13.98zm0-19.584h-14.292v-14.008h14.292v14.008zm20.612 39.54h-14.266v-13.98h14.266v13.98zm0-19.956h-14.266v-13.98h14.266v13.98zm0-19.584h-14.266v-14.008h14.266v14.008zm21.156 39.54h-14.292v-13.98h14.292v13.98zm0-19.956h-14.292v-13.98h14.292v13.98zm0-19.584h-14.292v-14.008h14.292v14.008zm20.842 39.54h-14.294v-13.98h14.294v13.98zm0-19.956h-14.294v-13.98h14.294v13.98zm0-19.584h-14.294v-14.008h14.294v14.008zm31.994 39.138h-18.44v-8.518h18.44v8.518zm-9.292-23.93c-8.15 0-14.754-6.602-14.754-14.75s6.604-14.752 14.754-14.752c8.12 0 14.722 6.604 14.722 14.752s-6.604 14.75-14.722 14.75z"/>
                <path fill="#FFF" d="M1548.598 704.646h18.44v8.518h-18.44zM1572.47 674.484c0 8.148-6.604 14.75-14.722 14.75-8.15 0-14.754-6.602-14.754-14.75s6.604-14.752 14.754-14.752c8.118 0 14.722 6.604 14.722 14.752zM1416.174 660.018h14.292v14.008h-14.292zM1437.33 660.018h14.296v14.008h-14.296zM1458.144 660.018h14.292v14.008h-14.292zM1478.784 660.018h14.266v14.008h-14.266zM1499.912 660.018h14.292v14.008h-14.292zM1520.752 660.018h14.294v14.008h-14.294zM1520.752 679.628h14.294v13.98h-14.294zM1499.912 679.628h14.292v13.98h-14.292zM1478.784 679.628h14.266v13.98h-14.266zM1458.144 679.628h14.292v13.98h-14.292zM1437.33 679.628h14.296v13.98h-14.296zM1416.174 679.628h14.292v13.98h-14.292zM1416.174 699.586h14.292v13.98h-14.292zM1437.33 699.586h14.296v13.98h-14.296zM1458.144 699.586h14.292v13.98h-14.292zM1478.784 699.586h14.266v13.98h-14.266zM1499.912 699.586h14.292v13.98h-14.292zM1520.752 699.586h14.294v13.98h-14.294z"/>
                <g>
                    <path fill="#2143AF" d="M1599.544 858.68v-33.106h-205.786v33.106h10.094v14.464h-10.094v33.108h205.786v-33.108h-11.636V858.68h11.636zm-169.078 33.992h-14.292v-13.978h14.292v13.978zm0-19.954h-14.292v-13.982h14.292v13.982zm0-19.586h-14.292v-14.008h14.292v14.008zm21.16 39.54h-14.296v-13.978h14.296v13.978zm0-19.954h-14.296v-13.982h14.296v13.982zm0-19.586h-14.296v-14.008h14.296v14.008zm20.81 39.54h-14.292v-13.978h14.292v13.978zm0-19.954h-14.292v-13.982h14.292v13.982zm0-19.586h-14.292v-14.008h14.292v14.008zm20.612 39.54h-14.266v-13.978h14.266v13.978zm0-19.954h-14.266v-13.982h14.266v13.982zm0-19.586h-14.266v-14.008h14.266v14.008zm21.156 39.54h-14.292v-13.978h14.292v13.978zm0-19.954h-14.292v-13.982h14.292v13.982zm0-19.586h-14.292v-14.008h14.292v14.008zm20.842 39.54h-14.294v-13.978h14.294v13.978zm0-19.954h-14.294v-13.982h14.294v13.982zm0-19.586h-14.294v-14.008h14.294v14.008zm31.994 39.142h-18.44v-8.522h18.44v8.522zm-9.292-23.93c-8.15 0-14.754-6.604-14.754-14.754 0-8.146 6.604-14.75 14.754-14.75 8.12 0 14.722 6.604 14.722 14.75 0 8.15-6.604 14.754-14.722 14.754z"/>
                    <path fill="#FFF" d="M1548.598 883.752h18.44v8.522h-18.44zM1572.47 853.59c0 8.15-6.604 14.754-14.722 14.754-8.15 0-14.754-6.604-14.754-14.754 0-8.146 6.604-14.75 14.754-14.75 8.118 0 14.722 6.604 14.722 14.75zM1416.174 839.126h14.292v14.008h-14.292zM1437.33 839.126h14.296v14.008h-14.296zM1458.144 839.126h14.292v14.008h-14.292zM1478.784 839.126h14.266v14.008h-14.266zM1499.912 839.126h14.292v14.008h-14.292zM1520.752 839.126h14.294v14.008h-14.294zM1520.752 858.736h14.294v13.982h-14.294zM1499.912 858.736h14.292v13.982h-14.292zM1478.784 858.736h14.266v13.982h-14.266zM1458.144 858.736h14.292v13.982h-14.292zM1437.33 858.736h14.296v13.982h-14.296zM1416.174 858.736h14.292v13.982h-14.292zM1416.174 878.694h14.292v13.978h-14.292zM1437.33 878.694h14.296v13.978h-14.296zM1458.144 878.694h14.292v13.978h-14.292zM1478.784 878.694h14.266v13.978h-14.266zM1499.912 878.694h14.292v13.978h-14.292zM1520.752 878.694h14.294v13.978h-14.294z"/>
                </g>
                <g>
                    <path fill="#2143AF" d="M1599.544 769.126V736.02h-205.786v33.108h10.094v14.464h-10.094V816.7h205.786v-33.108h-11.636v-14.464h11.636v-.002zm-169.078 33.994h-14.292v-13.98h14.292v13.98zm0-19.956h-14.292v-13.982h14.292v13.982zm0-19.584h-14.292v-14.008h14.292v14.008zm21.16 39.54h-14.296v-13.98h14.296v13.98zm0-19.956h-14.296v-13.982h14.296v13.982zm0-19.584h-14.296v-14.008h14.296v14.008zm20.81 39.54h-14.292v-13.98h14.292v13.98zm0-19.956h-14.292v-13.982h14.292v13.982zm0-19.584h-14.292v-14.008h14.292v14.008zm20.612 39.54h-14.266v-13.98h14.266v13.98zm0-19.956h-14.266v-13.982h14.266v13.982zm0-19.584h-14.266v-14.008h14.266v14.008zm21.156 39.54h-14.292v-13.98h14.292v13.98zm0-19.956h-14.292v-13.982h14.292v13.982zm0-19.584h-14.292v-14.008h14.292v14.008zm20.842 39.54h-14.294v-13.98h14.294v13.98zm0-19.956h-14.294v-13.982h14.294v13.982zm0-19.584h-14.294v-14.008h14.294v14.008zm31.994 39.136h-18.44V794.2h18.44v8.516zm-9.292-23.924c-8.15 0-14.754-6.606-14.754-14.754 0-8.146 6.604-14.752 14.754-14.752 8.12 0 14.722 6.606 14.722 14.752 0 8.148-6.604 14.754-14.722 14.754z"/>
                    <path fill="#FFF" d="M1548.598 794.2h18.44v8.518h-18.44zM1572.47 764.038c0 8.148-6.604 14.754-14.722 14.754-8.15 0-14.754-6.606-14.754-14.754 0-8.146 6.604-14.752 14.754-14.752 8.118 0 14.722 6.604 14.722 14.752zM1416.174 749.572h14.292v14.008h-14.292zM1437.33 749.572h14.296v14.008h-14.296zM1458.144 749.572h14.292v14.008h-14.292zM1478.784 749.572h14.266v14.008h-14.266zM1499.912 749.572h14.292v14.008h-14.292zM1520.752 749.572h14.294v14.008h-14.294zM1520.752 769.182h14.294v13.982h-14.294zM1499.912 769.182h14.292v13.982h-14.292zM1478.784 769.182h14.266v13.982h-14.266zM1458.144 769.182h14.292v13.982h-14.292zM1437.33 769.182h14.296v13.982h-14.296zM1416.174 769.182h14.292v13.982h-14.292zM1416.174 789.138h14.292v13.98h-14.292zM1437.33 789.138h14.296v13.98h-14.296zM1458.144 789.138h14.292v13.98h-14.292zM1478.784 789.138h14.266v13.98h-14.266zM1499.912 789.138h14.292v13.98h-14.292zM1520.752 789.138h14.294v13.98h-14.294z"/>
                </g>
            </g>
            <g fill-rule="nonzero">
                <path fill="#F7B75D" d="M1474.182 935.334v-73.226c0-2.294-.916-4.26-2.372-5.794-1.348-1.422-3.16-2.468-5.166-3.052a13.28 13.28 0 0 0-3.702-.54h-67.864v-4.438c0-1.61-.448-3.072-1.204-4.352-1.912-3.24-5.852-5.274-9.924-5.274h-31.758c-5.68 0-9.85 3.946-9.85 9.626v87.05c0 5.68 4.17 10.552 9.85 10.552h110.75c1.728 0 3.442-.458 4.998-1.244 3.55-1.802 6.242-5.354 6.242-9.308z"/>
                <path fill="#FFF" d="M1457.344 939.542h-21.364a2.691 2.691 0 0 1-2.69-2.692v-21.366a2.691 2.691 0 0 1 2.69-2.692h21.364a2.692 2.692 0 0 1 2.692 2.692v21.366a2.69 2.69 0 0 1-2.692 2.692zM1427.702 939.542h-28.388a2.46 2.46 0 0 1 0-4.92h28.388a2.46 2.46 0 1 1 0 4.92zM1427.702 932.266h-20.654a2.46 2.46 0 1 1 0-4.918h20.654a2.458 2.458 0 1 1 0 4.918z"/>
            </g>
            <g fill-rule="nonzero">
                <path fill="#FFF" d="M834.766 881.312h81.158v62.568h-81.158z"/>
                <path fill="#B9B8F1" d="M915.904 881.322h-81.13l-95.438-124.974h272.008z"/>
                <path fill="#121F55" d="M1023.6 744.72c0-6.476-5.25-11.722-11.722-11.722H738.8c-6.474 0-11.722 5.246-11.722 11.722 0 6.472 5.248 11.72 11.722 11.72h273.078c6.474.002 11.722-5.246 11.722-11.72z"/>
                <g fill="#FFF">
                    <path d="M833.414 672.948a3.511 3.511 0 0 1 3.51 3.512v7.022a3.511 3.511 0 1 1-7.022 0v-7.022a3.512 3.512 0 0 1 3.512-3.512zm0 24.578a3.512 3.512 0 0 1 3.51 3.514v7.02a3.512 3.512 0 0 1-7.022 0v-7.02a3.512 3.512 0 0 1 3.512-3.514zm0 24.58a3.51 3.51 0 0 1 3.51 3.512v7.024a3.512 3.512 0 0 1-7.022 0v-7.024a3.51 3.51 0 0 1 3.512-3.512zm0 24.578a3.511 3.511 0 0 1 3.51 3.512v7.024a3.512 3.512 0 0 1-7.022 0v-7.024a3.512 3.512 0 0 1 3.512-3.512zM873.274 649.832a3.51 3.51 0 0 1 3.51 3.512v7.024a3.51 3.51 0 0 1-7.022 0v-7.024a3.51 3.51 0 0 1 3.512-3.512zm0 24.578a3.51 3.51 0 0 1 3.51 3.512v7.024a3.51 3.51 0 0 1-7.022 0v-7.024a3.51 3.51 0 0 1 3.512-3.512zm0 24.578a3.511 3.511 0 0 1 3.51 3.512v7.024a3.51 3.51 0 0 1-3.51 3.51 3.51 3.51 0 0 1-3.512-3.51V702.5a3.512 3.512 0 0 1 3.512-3.512zm0 24.578a3.512 3.512 0 0 1 3.51 3.514v7.022a3.511 3.511 0 1 1-7.022 0v-7.022a3.512 3.512 0 0 1 3.512-3.514zm0 24.58a3.51 3.51 0 0 1 3.51 3.512v7.024a3.51 3.51 0 0 1-7.022 0v-7.024a3.51 3.51 0 0 1 3.512-3.512zm0 24.578a3.51 3.51 0 0 1 3.51 3.512v7.024a3.51 3.51 0 0 1-7.022 0v-7.024a3.51 3.51 0 0 1 3.512-3.512zM917.266 646.554a3.51 3.51 0 0 1 3.51 3.51v.352a3.512 3.512 0 0 1-7.022 0v-.352a3.51 3.51 0 0 1 3.512-3.51zm0 17.908a3.511 3.511 0 0 1 3.51 3.512v7.024a3.512 3.512 0 0 1-7.022 0v-7.024a3.512 3.512 0 0 1 3.512-3.512zm0 24.58a3.511 3.511 0 0 1 3.51 3.512v7.024a3.51 3.51 0 0 1-7.022 0v-7.024a3.51 3.51 0 0 1 3.512-3.512zm0 24.578a3.512 3.512 0 0 1 3.51 3.514v7.022a3.512 3.512 0 0 1-7.022 0v-7.022a3.51 3.51 0 0 1 3.512-3.514zm0 24.58a3.51 3.51 0 0 1 3.51 3.512v7.024a3.512 3.512 0 0 1-7.022 0v-7.024a3.509 3.509 0 0 1 3.512-3.512zm0 24.578a3.512 3.512 0 0 1 3.51 3.512v7.024a3.512 3.512 0 0 1-7.022 0v-7.024a3.512 3.512 0 0 1 3.512-3.512z"/>
                </g>
            </g>
            <g>
                <path fill="#B9B8F1" fill-rule="nonzero" d="M819.28 504.492l5.456-1.28-2.7-11.514-5.456 1.278a32.309 32.309 0 0 0-7.844-10.916l2.952-4.766-10.052-6.236-2.952 4.766a32.307 32.307 0 0 0-13.16-2.178c-.038 0-.078.008-.114.008l-1.272-5.462-11.516 2.7 1.28 5.462a32.065 32.065 0 0 0-10.924 7.842l-4.766-2.954-6.228 10.046 4.758 2.952a32.324 32.324 0 0 0-2.172 13.274l-5.454 1.28 2.698 11.516 5.458-1.282a32.166 32.166 0 0 0 7.844 10.924l-2.952 4.76 10.046 6.234 2.958-4.766a32.08 32.08 0 0 0 13.27 2.172l1.28 5.462 11.508-2.7-1.278-5.458a32.201 32.201 0 0 0 10.922-7.842l4.768 2.952 6.228-10.052-4.758-2.952a32.366 32.366 0 0 0 2.172-13.27zM798.92 526.7a23.73 23.73 0 0 1-6.538 2.586c-12.856 3.018-25.728-4.962-28.744-17.82-2.46-10.508 2.41-21.01 11.29-26.156a23.709 23.709 0 0 1 6.538-2.588 23.912 23.912 0 0 1 4.056-.592c.94-.06 1.884-.06 2.81-.006 10.292.606 19.404 7.868 21.878 18.426 2.46 10.5-2.412 21.002-11.29 26.15z"/>
            </g>
            <g fill-rule="nonzero">
                <path fill="#F7B75D" d="M1274.864 886.236c-17.694-2.936-33.734-13.458-40.968-18.806a6.805 6.805 0 0 0-8.104 0c-7.232 5.348-23.274 15.872-40.966 18.806-3.222.536-5.692 3.162-5.818 6.426-.702 18.164 1.176 73.83 48.746 89.486a6.731 6.731 0 0 0 4.182 0c47.57-15.656 49.448-71.322 48.748-89.486-.128-3.264-2.598-5.89-5.82-6.426z"/>
                <path fill="#8EDEF2" d="M1228.416 965.964c-15.808-6.416-26.334-19.956-31.286-40.242-1.746-7.154-2.74-14.91-2.958-23.054l-.08-2.986 2.882-.786c9.978-2.71 20.62-7.69 30.772-14.396l2.094-1.382 2.096 1.382c10.152 6.708 20.792 11.686 30.772 14.396l2.882.786-.082 2.986c-.214 8.144-1.212 15.902-2.958 23.054-4.95 20.288-15.474 33.826-31.284 40.242l-1.43.58-1.42-.58z"/>
                <path fill="#FFFAD1" d="M1225.656 945.994l-18.472-17.11a4.253 4.253 0 0 1-.23-6.008h.002a4.245 4.245 0 0 1 6.004-.228l13.14 12.17c.9.834 2.334.672 3.022-.344l19.49-28.614a4.25 4.25 0 0 1 7.026 4.784l-23.582 34.622a4.248 4.248 0 0 1-6.4.728z"/>
            </g>
            <g fill-rule="nonzero">
                <path fill="#566CD3" d="M1343.446 350.718h12.964v42.396h-12.964z"/>
                <path fill="#121F55" d="M1369.372 334.716h12.964v58.398h-12.964z"/>
                <path fill="#B9B8F1" d="M1395.298 345.144h12.964v47.97h-12.964z"/>
                <path fill="#566CD3" d="M1421.224 323.596h12.966v69.52h-12.966z"/>
                <path fill="#121F55" d="M1447.152 304.126h12.964v88.988h-12.964z"/>
                <path fill="#B9B8F1" d="M1473.08 283.966h12.962v109.148h-12.962z"/>
            </g>
            <g fill-rule="nonzero" transform="translate(1052 830)">
                <path fill="#2143AF" d="M45.334 123.382a5.812 5.812 0 0 1-4.708-2.39L20.458 93.386a5.823 5.823 0 0 1 .206-7.138l26.358-32.01a5.826 5.826 0 0 1 8.994 7.406l-23.482 28.52 17.5 23.958a5.826 5.826 0 0 1-1.268 8.142 5.808 5.808 0 0 1-3.432 1.118zM84.044 123.33a5.826 5.826 0 0 1-4.696-9.268l17.576-24.016-23.39-28.44a5.825 5.825 0 0 1 .798-8.202 5.825 5.825 0 0 1 8.198.796l26.264 31.934a5.83 5.83 0 0 1 .202 7.144l-20.25 27.666a5.802 5.802 0 0 1-4.702 2.386z"/>
                <circle cx="65.282" cy="18.552" r="16.81" fill="#F7B75D"/>
                <path fill="#F99AB6" d="M71.446 39.206l-.04 15.986-.036 10.452-12.252-.03.616-25.556.176-7.272z"/>
                <path fill="#2143AF" d="M47.06 64.256c.042-4.988 4.35-9.814 8.816-12.136 6.684-3.478 16.994-1.056 20.282.898 5.59 3.328 8.922 10.086 8.53 17.036l.39 37.284h-39.59c-.002-.002 1.48-31.738 1.572-43.082z"/>
                <path fill="#F99AB6" d="M74.06 52.068c-4.876-2.05-11.752-2.728-17.308-.346l4.118 4.116a6.66 6.66 0 0 0 9.42 0c1.256-1.256 2.512-2.514 3.77-3.77zM68.47 8.936h-6.378c-5.636 0-10.91 4.614-10.204 10.204.514 4.072 0 7.126 0 13.168 0 5.066 5.932 14.892 10.998 14.892h4.788c5.064 0 10.998-9.826 10.998-14.892 0-6.042-.514-9.096 0-13.168.706-5.592-4.566-10.204-10.202-10.204z"/>
                <path fill="#FFFEFF" d="M60.114 38.092c.46 2.442 2.594 4.292 5.166 4.292 2.574 0 4.71-1.85 5.17-4.292H60.114z"/>
                <path fill="#566CD3" d="M71.642 142.994H58.92c-9.138 0-15.992-8.364-14.198-17.324l.762-18.334h39.59l.764 18.334c1.796 8.96-5.056 17.324-14.196 17.324z"/>
                <path fill="#566CD3" d="M7.35 122.538l54.054-5.154 1.542 16.19-54.054 5.154a8.047 8.047 0 0 1-8.776-7.25l-.016-.162a8.048 8.048 0 0 1 7.25-8.778z"/>
                <path fill="#566CD3" d="M115.26 122.538l-54.054-5.154-1.544 16.19 54.056 5.154a8.047 8.047 0 0 0 8.776-7.25l.018-.162a8.051 8.051 0 0 0-7.252-8.778z"/>
                <path fill="#FFF" d="M86.44 133.528H44.122a3.937 3.937 0 0 1-3.936-3.938v-28.054a3.936 3.936 0 0 1 3.936-3.936H86.44a3.937 3.937 0 0 1 3.938 3.936v28.054a3.938 3.938 0 0 1-3.938 3.938z"/>
                <path fill="#B9B8F1" d="M86.44 135.194H44.122a3.937 3.937 0 0 1-3.936-3.938v-28.054a3.94 3.94 0 0 1 3.936-3.94H86.44a3.94 3.94 0 0 1 3.938 3.94v28.054a3.938 3.938 0 0 1-3.938 3.938z"/>
                <path fill="#FFF" d="M71.078 120.22h-11.59a2.962 2.962 0 0 1-2.962-2.962v-.06a2.962 2.962 0 0 1 2.962-2.962h11.59a2.962 2.962 0 0 1 2.962 2.962v.06a2.962 2.962 0 0 1-2.962 2.962zM43.974 150.042l15.752-.948-.048.292a1.48 1.48 0 0 0 2.918.48l.158-.956 1.77-.106-.074.452a1.478 1.478 0 1 0 2.916.482l.186-1.116 9.908-.596c.208-.074.412-.184.61-.318a8.546 8.546 0 0 0 1.158-.322 8.777 8.777 0 1 0-5.972-16.508c-.036.014-.064.028-.096.042-.018.006-.036.006-.052.014l-31.272 11.312c-.498.182-.928.49-1.306.884-2.558 2.674-.246 7.132 3.444 6.912z"/>
                <g transform="translate(38 132)">
                    <circle cx="38.298" cy="9.28" r="8.778" fill="#F7B75D"/>
                    <path fill="#F7B75D" d="M3.89 12.392L35.162 1.078a6.368 6.368 0 0 1 8.152 3.82c1.196 3.306-.494 12.078-3.8 13.276L6.03 20.188c-3.69.22-6-4.236-3.448-6.91.378-.396.812-.706 1.308-.886z"/>
                    <path fill="#FFF" d="M28.478 14.812c.928-.028 1.648.8 1.498 1.716l-.552 3.356a1.479 1.479 0 0 1-2.918-.48l.552-3.356a1.478 1.478 0 0 1 1.42-1.236zM23.706 14.94c.928-.026 1.65.8 1.5 1.718l-.552 3.354c-.116.7-.71 1.218-1.42 1.236a1.477 1.477 0 0 1-1.498-1.716l.552-3.354c.114-.7.71-1.22 1.418-1.238z"/>
                </g>
                <path fill="#F99AB6" d="M111.968 125.946l-36.52 9.826a6.586 6.586 0 0 0-4.648 8.066l.038.128a6.577 6.577 0 0 0 8.066 4.644l36.518-9.822a6.585 6.585 0 0 0 4.648-8.066l-.034-.128a6.587 6.587 0 0 0-8.068-4.648z"/>
                <path fill="#FFF" d="M78.636 150.042l-15.752-.948.05.292a1.477 1.477 0 0 1-1.5 1.716 1.478 1.478 0 0 1-1.418-1.236l-.156-.956-1.77-.106.074.452c.15.918-.57 1.746-1.498 1.718a1.481 1.481 0 0 1-1.42-1.236l-.182-1.116-9.908-.596a2.695 2.695 0 0 1-.61-.318 8.546 8.546 0 0 1-1.158-.322 8.777 8.777 0 1 1 5.972-16.508l.096.042c.018.006.034.006.052.014l31.272 11.312c.496.182.928.49 1.306.884 2.552 2.674.24 7.132-3.45 6.912z"/>
                <g transform="translate(36 132)">
                    <circle cx="10.312" cy="9.28" r="8.778" fill="#F7B75D"/>
                    <path fill="#F7B75D" d="M44.72 12.392L13.446 1.078a6.366 6.366 0 0 0-8.15 3.82c-1.196 3.306.494 12.078 3.8 13.276l33.484 2.014c3.692.22 6-4.236 3.448-6.91-.38-.396-.812-.706-1.308-.886z"/>
                    <path fill="#FFF" d="M20.132 14.812a1.476 1.476 0 0 0-1.498 1.716l.552 3.356a1.479 1.479 0 0 0 2.918-.48l-.552-3.356a1.48 1.48 0 0 0-1.42-1.236zM24.904 14.94c-.928-.026-1.65.8-1.5 1.718l.552 3.354c.116.7.71 1.218 1.42 1.236.928.026 1.648-.8 1.498-1.716l-.552-3.354a1.474 1.474 0 0 0-1.418-1.238z"/>
                </g>
                <path fill="#F99AB6" d="M10.642 125.946l36.52 9.826a6.58 6.58 0 0 1 4.644 8.066l-.034.128a6.577 6.577 0 0 1-8.066 4.644l-36.52-9.822a6.583 6.583 0 0 1-4.646-8.066l.034-.128a6.586 6.586 0 0 1 8.068-4.648z"/>
                <path fill="#F7B75D" d="M64.954 1.742c-11.19 0-20.878 11.792-20.878 11.792 13.944 8.532 23.75 2.27 27.126-.492.982-.802 2.978-2.49 2.978-4.708l-9.226-6.592z"/>
            </g>
            <g fill-rule="nonzero" transform="translate(978 338)">
                <ellipse cx="55.309" cy="19.23" fill="#2143AF" rx="11.73" ry="7.36" transform="rotate(90.212 55.309 19.23)"/>
                <path fill="#2143AF" d="M91.07 36.486c-4.734-2.724-9.98-9.53-7.976-15.53C87.77 6.938 76.842 1.922 71.434.888 66.024-.148 61.25 1.23 58.242 3.64c-4.892 3.92-3.428 10.668-.702 16.106-2.96 1.706-4.382 5.374-2.682 8.102 3.71 5.952.516 13.958-1.692 18.712-3.554 7.654 1.4 17.156 10.024 21.49 8.626 4.338 19.86 3.876 28.52-.002 4.3-1.926 8.176-4.738 10.136-8.472 4.23-8.056-1.878-17.974-10.776-23.09z"/>
                <path fill="#F99AB6" d="M31.672 90.122a57.4 57.4 0 0 1-6.484.538 3.003 3.003 0 0 1-3.084-2.92 2.997 2.997 0 0 1 2.92-3.086c10.538-.29 18.42-3.396 23.428-9.23 7.642-8.906 6.188-21.292 6.172-21.414-.208-1.646.98-3.132 2.606-3.358a3.005 3.005 0 0 1 3.356 2.608c.078.614 1.784 15.172-7.576 26.078-5.022 5.854-12.184 9.466-21.338 10.784z"/>
                <path fill="#8EDEF2" d="M56.896 48.476c-2.808.402-4.808 3.008-4.456 5.796.014.114 1.282 11.628-5.658 19.714-3.39 3.952-8.328 6.53-14.66 7.716 1.828 3.116 2.14 7.15.678 10.444 9.296-1.488 16.666-5.302 21.878-11.38 9.99-11.64 8.17-27.132 8.088-27.784-.356-2.844-2.962-4.87-5.87-4.506z"/>
                <path fill="#F99AB6" d="M57.724 53.584c-1.54-.78-2.788-3.118-.946-5.254 1.816-2.102 4.616-3.272 7.612-3.384l.778-.028a8.32 8.32 0 0 1 6.668 2.934c-1.274 3.948-9.942 7.33-14.112 5.732z"/>
                <path fill="#F99AB6" d="M62.804 38.908l-.068 3.392-.126 6.374 4.894.086.152-8.142.066-3.158c-1.478.996-3.162 1.528-4.918 1.448z"/>
                <path fill="#F99AB6" d="M62.804 39.718l-.068 3.39c1.736-.258 3.84-1.032 4.934-2.31l.054-2.53c-1.48.996-3.164 1.528-4.92 1.45z"/>
                <path fill="#F99AB6" d="M64.018 41.468c4.636-.044 8.73-2.308 11.288-5.772a14.143 14.143 0 0 0 2.77-8.572l-.056-5.58a14.171 14.171 0 0 0-4.536-10.262 14.164 14.164 0 0 0-9.81-3.796c-2.5.028-4.846.698-6.876 1.856-4.332 2.468-7.232 7.148-7.178 12.488l.056 5.584a14.195 14.195 0 0 0 6.94 12.06 14.105 14.105 0 0 0 7.402 1.994z"/>
                <circle cx="66.362" cy="90.648" r="13.476" fill="#F7B75D"/>
                <path fill="#FFFEFF" d="M63.082 34.082a3.79 3.79 0 0 1-3.698 3.134 3.795 3.795 0 0 1-3.762-3.056l7.46-.078z"/>
                <path fill="#8EDEF2" d="M50.566 55.842c-.922 2.54 1.646 5.104 4.332 5.396a4.89 4.89 0 0 0 5.396-4.33c.294-2.686-3.71-8.572-5.22-6.332-1.442 2.134-3.72 3.09-4.508 5.266z"/>
                <path fill="#8EDEF2" d="M71.836 47.852a8.32 8.32 0 0 1 1.992 5.02s-1.208 22.134 4.86 32.332L52.884 87.36l.692-30.636c-.154-3.252 1.096-6.234 3.204-8.392.122 4.936 10.276-1.004 15.056-.48z"/>
                <path fill="#121F55" d="M52.434 150.758c-2.62.128-3.912 2.586-4.136 3.284-1.218 3.822-.784 7.824-3.232 14.306-1.666 4.42-3.338 5.326-4.524 8.922-1.018 3.086 1.822 4.096 4.624 3.004 1.096-.426 8.008-2.242 8.132-7.764.09-4.034-.382-7.118.898-10.58 1.278-3.464 2.38-1.51 2.792-.454.294.756 1.216 2.92 1.526 3.594.112.246.394.36.646.262l.01-.004a.505.505 0 0 0 .274-.694c-.388-.788-1.104-3.506-1.368-6.986-.324-4.262-3.266-7.006-5.642-6.89z"/>
                <path fill="#F99AB6" d="M49.686 169.806c1.44-3.228 3.154-13.148 2.302-15.338-1-2.57-6.364-2.764-6.692-.452-.57 3.972 1.074 10.908-2.204 18.346.408 1.95 4.916 1.206 6.594-2.556z"/>
                <path fill="#F7B75D" d="M70.158 102.726l-34.938 16.24 3.31-7.886 12.944 41.958a4.82 4.82 0 0 1-3.188 6.032c-2.428.75-5.006-.532-5.916-2.86l-15.918-40.924a6.158 6.158 0 0 1 3.054-7.768l.256-.12 34.752-16.63a6.609 6.609 0 0 1 8.818 3.108 6.611 6.611 0 0 1-3.108 8.818c-.012.006-.056.026-.066.032z"/>
                <path fill="#121F55" d="M28.96 137.57c-2.378-1.108-4.668.462-5.188.972-2.862 2.814-4.344 6.558-9.534 11.15-3.538 3.132-5.438 3.152-8.164 5.78-2.34 2.254-.298 4.472 2.688 4.816 1.168.132 8.13 1.752 10.816-3.072 1.962-3.53 2.982-6.476 5.73-8.944 2.748-2.468 2.808-.224 2.678.9-.092.806-.286 3.152-.326 3.89a.507.507 0 0 0 .452.534l.01.002a.5.5 0 0 0 .564-.484c.024-.876.66-3.62 2.05-6.82 1.7-3.918.382-7.718-1.776-8.724z"/>
                <path fill="#F99AB6" d="M17.644 153.138c2.778-2.186 8.922-10.16 9.192-12.494.314-2.74-4.338-5.414-5.71-3.522-2.354 3.252-4.138 10.152-10.506 15.202-.548 1.914 3.788 3.358 7.024.814z"/>
                <path fill="#F7B75D" d="M67.708 103.786l-38.482-1.934 6.61-5.432-8.124 43.152a4.823 4.823 0 0 1-5.632 3.848c-2.5-.468-4.178-2.804-3.9-5.292l5.01-43.624a6.15 6.15 0 0 1 6.326-5.444l.284.012 38.498 1.502a6.607 6.607 0 0 1 6.348 6.864 6.612 6.612 0 0 1-6.864 6.348c-.014.002-.064 0-.074 0z"/>
                <path fill="#F99AB6" d="M70.842 90.65a47.58 47.58 0 0 1-4.92.554 3 3 0 0 1-3.19-2.802 3.01 3.01 0 0 1 2.804-3.192c5.564-.36 12.578-1.726 14.372-6.208 2.832-7.068-6.93-19.94-10.572-23.89a3.008 3.008 0 0 1 .172-4.246 3.012 3.012 0 0 1 4.248.172c1.7 1.846 16.472 18.362 11.73 30.2-1.986 4.954-6.902 8.11-14.644 9.412z"/>
                <path fill="#8EDEF2" d="M75.37 49.548a5.197 5.197 0 0 0-4.694-1.606c-1.182.2-2.26.8-3.064 1.718-1.758 2.012-1.554 5.114.244 7.09 4.15 4.562 12.192 15.98 10.01 21.432-.38.952-1.16 1.714-2.154 2.326-1.858 1.142-2.892 3.256-2.47 5.396l.018.106c.64 3.416 4.454 5.33 7.466 3.606 3.25-1.864 5.528-4.384 6.802-7.564 5.134-12.82-9.228-29.326-12.158-32.504z"/>
                <path fill="#F99AB6" d="M53.112 87.764a7.197 7.197 0 0 0 2.09 4.51l10.978-.9a7.19 7.19 0 0 0 1.328-4.792 7.224 7.224 0 0 0-7.788-6.61 7.224 7.224 0 0 0-6.608 7.792zM15.72 89.114a7.203 7.203 0 0 0 1.9 4.596l11.006-.438a7.19 7.19 0 0 0 1.53-4.732 7.226 7.226 0 0 0-7.502-6.932 7.226 7.226 0 0 0-6.934 7.506z"/>
                <ellipse cx="67.351" cy="14.082" fill="#2143AF" rx="13.868" ry="8.704" transform="rotate(19.33 67.351 14.082)"/>
                <g>
                    <path fill="#121F55" d="M72.854 91.9c0-.996-.808-1.806-1.808-1.806H5.608c-1.372 0-2.492.812-2.492 1.804 0 .998 1.122 1.81 2.492 1.81h65.438c.998 0 1.808-.81 1.808-1.808z"/>
                    <path fill="#FFF" d="M75.42 91.898c0 .998-.876 1.81-1.948 1.81h-24.85c-1.07 0-1.946-.812-1.946-1.81 0-.992.876-1.804 1.946-1.804h24.85c1.072 0 1.948.812 1.948 1.804z"/>
                    <path fill="#FFF" d="M3.216 56.23v33a2.662 2.662 0 0 0 2.662 2.662h43.538a2.662 2.662 0 0 0 2.662-2.662v-33a2.664 2.664 0 0 0-2.662-2.662H5.878a2.664 2.664 0 0 0-2.662 2.662z"/>
                    <path fill="#2143AF" d="M1.184 56.23v33a2.663 2.663 0 0 0 2.664 2.662h43.538a2.662 2.662 0 0 0 2.662-2.662v-33a2.664 2.664 0 0 0-2.662-2.662H3.848a2.664 2.664 0 0 0-2.664 2.662z"/>
                    <path fill="#FFF" d="M32.796 72.73a2.805 2.805 0 0 0-2.806-2.804h-8.748a2.806 2.806 0 0 0-2.806 2.804 2.807 2.807 0 0 0 2.806 2.806h8.748a2.804 2.804 0 0 0 2.806-2.806z"/>
                </g>
            </g>
            <g fill-rule="nonzero">
                <g transform="translate(1002 926)">
                    <circle cx="9.166" cy="11.304" r="8.208" fill="#2143AF"/>
                    <path fill="#2143AF" d="M41.464 10.624l-29.906 8.534a5.951 5.951 0 0 1-7.356-4.09C3.3 11.906 5.442 3.832 8.604 2.93l31.366.288c3.458.034 5.326 4.338 2.772 6.67-.38.34-.804.6-1.278.736z"/>
                    <path fill="#FFF" d="M18.682 6.778a1.384 1.384 0 0 1-1.286-1.698l.73-3.096A1.386 1.386 0 0 1 19.53.92c.868.04 1.486.856 1.288 1.702l-.73 3.096a1.382 1.382 0 0 1-1.406 1.06zM23.142 6.966a1.384 1.384 0 0 1-1.288-1.698l.73-3.096a1.388 1.388 0 0 1 1.406-1.064c.866.04 1.488.856 1.288 1.7l-.732 3.096a1.383 1.383 0 0 1-1.404 1.062z"/>
                </g>
                <path fill="#8EDEF2" d="M1002.166 879.684l-.154-.082-43.504-25.646-13.006 14.104 45.646 24.198 2.138 8.916 1.51 6.3c.518 2.106.95 4.186 1.43 6.278l5.628 25.104.324-.056 12.23-11.084-3.184-17.108c-.41-2.144-.782-4.322-1.224-6.442l-1.286-6.384-2.574-12.776c-.456-2.184-1.85-4.196-3.974-5.322z"/>
                <g transform="translate(900 936)">
                    <circle cx="9.184" cy="8.744" r="8.208" fill="#2143AF"/>
                    <path fill="#2143AF" d="M34.404 28.936L5.986 16.306a5.953 5.953 0 0 1-3.022-7.858c1.334-3.004 8.158-7.824 11.164-6.49L38.01 22.294c2.632 2.242 1.302 6.746-2.15 6.894a3.266 3.266 0 0 1-1.456-.252z"/>
                    <path fill="#FFF" d="M19.39 11.376a1.383 1.383 0 0 1 .102-2.13l2.544-1.904a1.38 1.38 0 0 1 1.76.086 1.38 1.38 0 0 1-.104 2.128l-2.544 1.902a1.38 1.38 0 0 1-1.758-.082zM22.69 14.378a1.383 1.383 0 0 1 .1-2.128l2.546-1.902a1.38 1.38 0 1 1 1.656 2.212l-2.542 1.904c-.534.4-1.27.362-1.76-.086z"/>
                </g>
                <path fill="#8EDEF2" d="M964.634 842.39l-28.846-3.156c-1.794 2.034-3.964 8.328-4.604 11.158a16.698 16.698 0 0 0 2.184 12.664c2.296 3.638 5.966 6.404 10.5 7.43 2.212.502 13.152.672 18.298-4.342 7.528-7.338 2.468-23.754 2.468-23.754z"/>
                <path fill="#8EDEF2" d="M946.634 857.808h-18.568l7.132 44.178-31.332 36.508 16.258 4.572 29.9-33.538c1.468-1.662 2.234-3.974 1.852-6.336l-5.242-45.384z"/>
                <path fill="#121F55" d="M1022.508 839.028l-43-.746a5.122 5.122 0 0 1-4.478-2.814l-16.856-33.514 9.132-4.594 15.468 30.754 39.91.696-.176 10.218z"/>
                <path fill="#F99AB6" d="M961.124 770.842l-1.306 27.134-12.576-.598 1.818-26.204.518-7.458z"/>
                <path fill="#F99AB6" d="M951.504 779.398s2.848 6.984 8.792 8.728l.436-9.096-9.228.368z"/>
                <path fill="#F99AB6" d="M965.22 786.912c.498-.08 1.476-.35 1.962-.482 4.678-1.286 9.296-9 9.12-13.438-.21-5.298-.77-7.958-.462-11.542.424-4.928-4.36-8.786-9.298-8.588l-10.01.398a6.82 6.82 0 0 0-6.542 7.086l.65 16.236c.23 5.794 8.858 11.238 14.58 10.33zM944.55 790.516a6.983 6.983 0 0 1 4.714-1.144l5.564.648a15.898 15.898 0 0 1 7.238 2.728c-5.754 1.678-12.704 1.098-17.516-2.232z"/>
                <path fill="#121F55" d="M935.91 801.204c.25-4.372 4.126-10.266 8.894-10.846 8.064 1.134 15.306 1.576 18.03 2.224 4.69 3.25 7.48 8.916 6.776 14.98l-.712 50.204c-15.08 10.638-42.706 6.366-42.706 6.366 0-21.678 9.222-54.332 9.718-62.928z"/>
                <path fill="#121F55" d="M992.274 838.746l-35.11.376a5.115 5.115 0 0 1-5.11-4.356l-5.78-38.648 10.112-1.512 5.12 34.246 30.66-.326.108 10.22z"/>
                <path fill="#F7B75D" d="M961.408 792.314c-2.296-.544-6.38-.684-12.876-1.472 3.606 8.458 13.326 15.492 16.204 25.4 1.506-1.65 1.362-20.678-3.328-23.928z"/>
                <path fill="#2747B3" d="M961.006 793.872c-.418-.478-1.762-1.418-1.802-1.92-1.04-.126-.87.268-2.312.13 3.936 3.642 1.658 9.644 3.212 15.13 1.976 2.798 3.68 5.754 4.632 9.03.834-.916 1.158-7.16.486-13.104-.074-.64-1.014-5.618-4.216-9.266z"/>
                <path fill="#B8B9F1" d="M961.464 794.804c-.494.646-2.61.962-3.272.49-.634-.452-1.258-2.91-1.258-2.91l4.88-.732c.002 0 .124 2.534-.35 3.152z"/>
                <path fill="#F7B75D" d="M970.102 762.72c19.376-4.218 5.422-16.532 5.422-16.532s-.388 4.594-4.14 3.09c-7.18-2.878-22.8-4.684-27.092 4.69-3.34 7.304 2.878 23.282 4.056 27.448 1.934-1.212.308-20.014 8.248-19.228 4.338.43 9.268 1.454 13.506.532z"/>
                <path fill="#FFFEFF" d="M967.166 782.864c3.958-.174 1.412-6.714-.098-6.634-1.508.078-3.856 6.81.098 6.634z"/>
                <path fill="#FFF" d="M954.458 797.03l-9.834-6.538 3.33-3.654 11.696 5.2z"/>
                <path fill="#FFF" d="M962.63 794.5l-.564-2.176-1.882-1.966-.804 1.68z"/>
                <path fill="#B8B9F1" d="M975.51 818.194h39.986v10.77H975.51z"/>
                <path fill="#546AD0" d="M1034.604 826.544v-5.936h5.632v-2.414h-24.74v10.768h24.74v-2.418z"/>
                <path fill="#E5E8FF" d="M1015.496 820.6h22.36v5.958h-22.36z"/>
                <g transform="translate(978 820)">
                    <circle cx="4.304" cy="3.578" r="2.692" fill="#121F55"/>
                    <path fill="#FFF" d="M4.302 7.006a3.433 3.433 0 0 1-3.426-3.43A3.431 3.431 0 0 1 4.302.15a3.43 3.43 0 0 1 3.426 3.426 3.43 3.43 0 0 1-3.426 3.43zm0-5.386a1.957 1.957 0 1 0 0 3.916 1.959 1.959 0 1 0 0-3.916z"/>
                </g>
                <path fill="#F7B75D" d="M975.51 796.656h39.986v10.768H975.51z"/>
                <path fill="#566CD3" d="M1034.604 805.008v-5.938h5.632v-2.414h-24.74v10.768h24.74v-2.416z"/>
                <path fill="#E5E8FF" d="M1015.496 799.06h22.36v5.958h-22.36z"/>
                <g transform="translate(978 798)">
                    <circle cx="4.304" cy="4.042" r="2.692" fill="#121F55"/>
                    <path fill="#FFF" d="M4.302 7.466A3.432 3.432 0 0 1 .876 4.038 3.433 3.433 0 0 1 4.302.61c1.89 0 3.426 1.54 3.426 3.428a3.427 3.427 0 0 1-3.426 3.428zm0-5.384a1.96 1.96 0 0 0 0 3.918 1.96 1.96 0 0 0 0-3.918z"/>
                </g>
                <g>
                    <path fill="#8EDEF2" d="M980.384 785.886h39.988v10.77h-39.988z"/>
                    <path fill="#27CDF2" d="M1039.48 794.238V788.3h5.63v-2.414h-24.736v10.77h24.736v-2.418z"/>
                    <path fill="#E5E8FF" d="M1020.374 788.292h22.356v5.958h-22.356z"/>
                    <g transform="translate(982 786)">
                        <circle cx="5.178" cy="5.272" r="2.694" fill="#121F55"/>
                        <path fill="#FFF" d="M5.18 8.7a3.432 3.432 0 0 1-3.428-3.428A3.433 3.433 0 0 1 5.18 1.844a3.433 3.433 0 0 1 3.426 3.428A3.432 3.432 0 0 1 5.18 8.7zm0-5.388a1.958 1.958 0 1 0 .001 3.917 1.958 1.958 0 0 0-.001-3.917z"/>
                    </g>
                </g>
                <g>
                    <path fill="#2143AF" d="M966.518 807.424h39.986v10.77h-39.986z"/>
                    <path fill="#121F55" d="M1025.614 815.776v-5.936h5.63v-2.416h-24.74v10.77h24.74v-2.418z"/>
                    <path fill="#E5E8FF" d="M1006.504 809.828h22.36v5.96h-22.36z"/>
                    <g transform="translate(968 808)">
                        <circle cx="5.312" cy="4.808" r="2.692" fill="#121F55"/>
                        <path fill="#FFF" d="M5.312 8.238a3.433 3.433 0 0 1-3.426-3.43 3.43 3.43 0 0 1 3.426-3.426 3.429 3.429 0 0 1 0 6.856zm0-5.388a1.958 1.958 0 1 0 .001 3.915 1.958 1.958 0 0 0-.001-3.915z"/>
                    </g>
                </g>
                <path fill="#F99AB6" d="M986.334 833.628a8.742 8.742 0 0 1 1.114-5.938l13.2-2.222a8.772 8.772 0 0 1-4.2 15.358c-4.782.806-9.312-2.416-10.114-7.198zM1014.192 831.186a8.738 8.738 0 0 1 1.604-5.822l13.34-1.112a8.722 8.722 0 0 1 2.548 5.478c.404 4.828-3.186 9.07-8.018 9.474a8.774 8.774 0 0 1-9.474-8.018z"/>
            </g>
            <g fill-rule="nonzero">
                <path fill="#566CD3" d="M1509.472 569.708c-1.318-1.91.476-5.102-.642-8.886-3.38-11.434.582-16.414.582-16.414-.066-4.2 3.46-7.88 8.73-9.822 2.468-.908 5.32-1.438 8.362-1.458 4.604-.03 8.804 1.108 11.928 2.984 3.352 2.014 5.782 4.886 5.514 8.07-.19 2.254-2.61 5.228-.146 9.036 6.08 9.39 3.444 14.804.21 16.49-2.976 1.55-6.4 1.676-8.154 2.676-8.956 5.12-21.702 4.108-26.384-2.676z"/>
                <path fill="#F99AB6" d="M1481.374 611.56a56.01 56.01 0 0 1-6.412-1.116 3.005 3.005 0 0 1-2.25-3.604 2.996 2.996 0 0 1 3.606-2.248c10.27 2.376 18.68 1.36 24.998-3.022 9.644-6.694 11.358-19.042 11.376-19.166.214-1.646 1.738-2.786 3.368-2.592a3.001 3.001 0 0 1 2.588 3.37c-.08.616-2.1 15.13-13.906 23.324-6.34 4.4-14.178 6.092-23.368 5.054z"/>
                <path fill="#121F55" d="M1511.274 587.002c-.588 0-1.138.062-1.658.164 1.012-2.854 1.326-4.946 1.332-4.988.308-2.362 2.348-4.142 4.748-4.142.188 0 .378.012.59.038a4.767 4.767 0 0 1 4.104 5.342c-.038.3-.542 3.788-2.302 8.286-.938-2.618-3.204-4.7-6.814-4.7z"/>
                <path fill="#F99AB6" d="M1516.932 584.468c-1.54-.78-2.788-3.118-.946-5.254 1.816-2.104 4.616-3.272 7.614-3.384l.774-.03a8.335 8.335 0 0 1 6.67 2.936c-1.272 3.95-9.94 7.33-14.112 5.732z"/>
                <path fill="#F99AB6" d="M1522.016 569.792l-.072 3.392-.126 6.374 4.894.086.152-8.142.064-3.158c-1.474.996-3.158 1.528-4.912 1.448z"/>
                <path fill="#F99AB6" d="M1522.016 570.602l-.072 3.392c1.736-.258 3.838-1.032 4.934-2.31l.052-2.53c-1.476.994-3.16 1.528-4.914 1.448z"/>
                <path fill="#F99AB6" d="M1523.228 572.356a14.168 14.168 0 0 0 11.288-5.774 14.143 14.143 0 0 0 2.77-8.572l-.058-5.58a14.17 14.17 0 0 0-4.534-10.262 14.155 14.155 0 0 0-9.81-3.796c-2.5.026-4.846.698-6.876 1.856a14.19 14.19 0 0 0-7.178 12.488l.056 5.584c.052 5.138 2.828 9.61 6.94 12.062a14.184 14.184 0 0 0 7.402 1.994z"/>
                <path fill="#B9B8F1" d="M1507.988 618.542c-1.652 7.256 7.334 14.478 14.592 16.13 7.258 1.652 14.478-2.892 16.13-10.148 1.654-7.256-2.89-14.48-10.148-16.132-7.258-1.65-18.924 2.894-20.574 10.15z"/>
                <path fill="#FFFEFF" d="M1522.292 564.968a3.795 3.795 0 0 1-3.7 3.132 3.795 3.795 0 0 1-3.762-3.056l7.462-.076z"/>
                <path fill="#121F55" d="M1508.93 587.76c-.92 2.542 1.636 5.64 4.324 5.934 2.686.294 5.956-3.212 6.25-5.9.296-2.686-3.71-8.572-5.22-6.332-1.442 2.134-4.566 4.124-5.354 6.298z"/>
                <path fill="#121F55" d="M1531.046 578.736a8.308 8.308 0 0 1 1.992 5.02s-4.37 21.146 4.86 32.332c0 0-16.662 9.984-30.048 3.238 0-9.58 5.858-16.194 4.934-31.718-.194-3.25 1.096-6.234 3.204-8.392.122 4.936 10.278-1.004 15.058-.48z"/>
                <path fill="#2143AF" d="M1512.808 678.918c-2.366-.302-3.914 1.69-4.224 2.278-1.702 3.224-1.95 6.876-5.176 12.286-2.198 3.692-3.836 4.23-5.472 7.26-1.404 2.6.976 3.956 3.656 3.426 1.048-.206 7.524-.728 8.516-5.648.724-3.594 6.546-4.776 6.756-6.064.126-.79-.43-3.314-.112-6.47.394-3.868-1.8-6.792-3.944-7.068z"/>
                <path fill="#F99AB6" d="M1507.308 695.522c1.802-2.658 4.92-11.262 4.51-13.356-.486-2.458-5.252-3.488-5.916-1.47-1.14 3.462-.78 9.932-4.898 16.062.052 1.81 4.204 1.862 6.304-1.236z"/>
                <path fill="#2143AF" d="M1438.696 645.388c1.656-1.712.986-4.146.7-4.744-1.568-3.294-4.344-5.676-6.752-11.494-1.644-3.968-1.098-5.606-2.546-8.728-1.246-2.678-3.756-1.582-4.936.882-.462.962-3.914 6.464-.564 10.202 2.45 2.73-.086 8.104.822 9.042.554.574 2.914 1.638 5.25 3.782 2.866 2.624 6.522 2.616 8.026 1.058z"/>
                <path fill="#F99AB6" d="M1428.672 631.054c1.054 3.034 6.086 10.678 8.012 11.598 2.26 1.086 5.934-2.124 4.716-3.862-2.092-2.986-7.494-6.562-9.946-13.53-1.482-1.04-4.008 2.26-2.782 5.794z"/>
                <path fill="#8EDEF2" d="M1493.974 637.966l.234-.108 31.82-14.616a6.007 6.007 0 0 1 7.968 2.952 6.01 6.01 0 0 1-3.014 7.996l-27.384 12.208 9.688 33.246-8.322 2.752-13.878-37.418a5.589 5.589 0 0 1 2.888-7.012z"/>
                <path fill="#F99AB6" d="M1523.198 619.744c-1.552 0-3.2-.09-4.944-.27a3.002 3.002 0 0 1-2.68-3.294c.17-1.65 1.652-2.842 3.296-2.682 5.546.572 12.69.386 15.204-3.734 3.964-6.5-3.524-20.814-6.458-25.314a3.005 3.005 0 1 1 5.032-3.284c1.372 2.102 13.196 20.84 6.554 31.726-2.78 4.556-8.154 6.852-16.004 6.852z"/>
                <path fill="#566CD3" d="M1538.838 553.97s-10.068 3.6-16.356-.776c-6.288-4.374-9.16-11.118-6.414-15.064 2.744-3.948 10.068-3.598 16.354.774 6.29 4.376 6.416 15.066 6.416 15.066z"/>
                <path fill="#8EDEF2" d="M1526.314 621.83s-5.572.146-13.922.492c-4.172.2-9.042.432-14.258.68-5.214.31-10.776.638-16.336.966l-2.086.126-.52.032-.13.008-.578.054-.258.036-1.032.15-2.052.314-.128.022-.502.09-.062.016-.25.062-.502.122-1 .248-7.818 1.936c-2.532.638-4.992 1.208-7.304 1.836-2.316.61-4.506 1.186-6.528 1.716-4.048 1.042-7.4 2.01-9.752 2.656l-3.69 1.056 1.684 7.542 3.788-.612c2.404-.418 5.848-.964 9.956-1.744 2.056-.378 4.284-.79 6.638-1.222 2.358-.418 4.828-.946 7.392-1.446 2.56-.51 5.208-1.038 7.898-1.572l1.012-.202.504-.102.254-.05.064-.012c.106-.022-.812.144-.408.074l.032-.006.128-.012 2.062-.242 1.034-.128.258-.034.032-.004c.11-.012-.83.076-.416.04l.066-.002.128-.006.522-.022 2.086-.08c5.566-.218 11.134-.438 16.354-.638 5.214-.268 10.082-.514 14.254-.724 8.344-.474 13.902-.878 13.902-.878l-.516-10.536z"/>
                <path fill="#121F55" d="M1524.484 625.376c0-.996-.808-1.806-1.806-1.806h-65.44c-1.37 0-2.494.812-2.494 1.806s1.124 1.806 2.494 1.806h65.44a1.803 1.803 0 0 0 1.806-1.806z"/>
                <path fill="#FFF" d="M1527.052 625.376c0 .994-.876 1.806-1.946 1.806h-24.85c-1.07 0-1.946-.812-1.946-1.806s.876-1.806 1.946-1.806h24.85c1.07 0 1.946.812 1.946 1.806z"/>
                <path fill="#FFF" d="M1454.848 589.708v33a2.664 2.664 0 0 0 2.662 2.664h43.538a2.665 2.665 0 0 0 2.662-2.664v-33a2.662 2.662 0 0 0-2.662-2.662h-43.538a2.66 2.66 0 0 0-2.662 2.662z"/>
                <path fill="#2143AF" d="M1452.816 589.708v33a2.664 2.664 0 0 0 2.664 2.664h43.538a2.665 2.665 0 0 0 2.662-2.664v-33a2.662 2.662 0 0 0-2.662-2.662h-43.538a2.66 2.66 0 0 0-2.664 2.662z"/>
                <path fill="#FFF" d="M1484.426 606.208a2.807 2.807 0 0 0-2.806-2.806h-8.748a2.804 2.804 0 1 0 0 5.61h8.748a2.804 2.804 0 0 0 2.806-2.804z"/>
                <path fill="#121F55" d="M1536.036 586.49c-3.552 0-5.792 2.014-6.756 4.562-1.096-2.25-2.224-4.244-3.136-5.642a4.771 4.771 0 0 1 1.39-6.594 4.743 4.743 0 0 1 2.598-.772 4.75 4.75 0 0 1 3.992 2.16 68.41 68.41 0 0 1 3.694 6.476 8.422 8.422 0 0 0-1.782-.19z"/>
                <path fill="#F99AB6" d="M1505.226 614.124a7.21 7.21 0 0 0-.32 4.978l10.106 4.468a7.21 7.21 0 0 0 3.466-3.586 7.245 7.245 0 0 0-13.252-5.86z"/>
            </g>
            <g fill-rule="nonzero">
                <path fill="#8EDEF2" d="M1299.55 415.758h-35.976a4.23 4.23 0 0 1-3.358-1.664l-20.618-27.098 6.716-5.108 19.354 25.43h33.882v8.44z"/>
                <path fill="#2747B3" d="M1277.532 456.984s.606-1.284 1.622-3.544c.998-2.266 2.484-5.484 4.158-9.386a801.483 801.483 0 0 0 5.664-13.352c1.01-2.456 2.054-4.986 3.112-7.562l.394-.968.198-.486c.078-.238.058-.018.406-1.194.492-1.77.298-3.912-.55-5.602a8.185 8.185 0 0 0-3.92-3.87 8.138 8.138 0 0 0-5.908-.396l-.126.04-.03.008-.508.186-.062.024-.248.094-.494.19-1.978.766a1438.883 1438.883 0 0 0-15.458 6.092c-2.456.998-4.832 1.96-7.084 2.874-2.246.928-4.37 1.804-6.33 2.616-3.916 1.628-7.154 3.05-9.434 4.016-2.27.98-3.56 1.564-3.56 1.564-3.196 1.454-4.796 5.158-3.564 8.504a6.768 6.768 0 0 0 8.688 4.016s1.328-.488 3.634-1.38c2.304-.908 5.608-2.166 9.542-3.752l6.348-2.57 7.064-2.92c2.41-1.004 4.896-2.05 7.416-3.122a805.156 805.156 0 0 0-4.014 12.108c-1.324 4.036-2.338 7.43-3.09 9.792a217.225 217.225 0 0 0-1.124 3.732 4.956 4.956 0 0 0 2.638 5.846 4.966 4.966 0 0 0 6.598-2.364z"/>
                <g transform="translate(1264 446)">
                    <circle cx="8.206" cy="7.81" r="6.776" fill="#F7B75D"/>
                    <path fill="#F7B75D" d="M22.002 30.636L3.574 12.76a4.92 4.92 0 0 1-.104-6.952c1.89-1.946 8.55-3.74 10.498-1.852l12.718 22.558c1.4 2.486-.91 5.596-3.628 4.728a2.612 2.612 0 0 1-1.056-.606z"/>
                    <path fill="#FFF" d="M17.108 12.876a1.145 1.145 0 0 1 1.286-1.204l2.604.336c.542.07.958.516.994 1.062a1.145 1.145 0 0 1-1.286 1.202l-2.604-.334a1.14 1.14 0 0 1-.994-1.062zM17.334 16.552a1.145 1.145 0 0 1 1.288-1.202l2.602.336a1.141 1.141 0 1 1-.292 2.264l-2.602-.336a1.14 1.14 0 0 1-.996-1.062z"/>
                    <circle cx="8.206" cy="7.81" r="4.064" fill="#2747B3"/>
                </g>
                <path fill="#2747B3" d="M1238.672 370.214l-.752 5.594-1.23-.396a2.253 2.253 0 0 1-1.568-2.148c0-.662-.29-1.292-.794-1.72l-3.15-3.224c-1.312-1.346-2.234-3.044-2.524-4.898-.214-1.384-.12-2.9.776-4.066 1.244-1.622-3.41-7.18.018-9.786 1.546-1.174 3.496-2.922 4.372-4.724 2.94-6.042 7.354-5.57 10.438-3.396 2.746 1.936 3.942-1.986 9.332-1.314 4.198.526 5.878 3.524 5.532 6.016 0 0 7.158.286 7.158 8.284 0 7.998-8.446 8.992-8.446 8.992l-19.162 6.786z"/>
                <path fill="#F99AB6" d="M1247.36 364.222l-1.188 13.51-.782 8.83-10.354-.906 2.362-21.556.672-6.136z"/>
                <path fill="#F99AB6" d="M1239.144 370.962v2.16c1.676 2.118 4.342 3.75 7.028 4.61l.594-6.77h-7.622z"/>
                <path fill="#F99AB6" d="M1250.166 377.28h1.678c3.67 0 7.964-7.118 7.964-10.786 0-4.376-.372-6.586 0-9.536.512-4.048-3.308-7.39-7.388-7.39h-8.27a5.63 5.63 0 0 0-5.628 5.63v13.416c0 4.786 6.856 8.666 11.644 8.666z"/>
                <path fill="#2747B3" d="M1251.196 349.568s.744 6.112-9.572 5.736c0 0 .302 12.062-5.122 12.93l-.962-4.062s-2.24-13.23 2.768-15.472c5.004-2.242 12.888.868 12.888.868z"/>
                <path fill="#F99AB6" d="M1233.042 379.906a5.758 5.758 0 0 1 3.922-.79l4.572.716a13.113 13.113 0 0 1 5.878 2.49c-4.8 1.198-10.514.49-14.372-2.416z"/>
                <path fill="#8EDEF2" d="M1225.816 388.02c.388-3.592 3.738-7.056 7.228-8.114 3.856 2.906 9.572 3.614 14.374 2.418a13.173 13.173 0 0 1 5.096 12.578l-4.846 27.336-23.476-3.028c-.002 0 .74-23.022 1.624-31.19z"/>
                <path fill="#2747B3" d="M1317.004 466.312s-.95-1.062-2.644-2.882c-1.708-1.808-4.106-4.44-7.06-7.512-2.94-3.086-19.188-19.54-19.188-19.54l-.366-.334a15.045 15.045 0 0 0-2.418-1.72 14.316 14.316 0 0 0-3.692-1.454 15.87 15.87 0 0 0-.974-.204c-.146-.028-27.708-2.604-30.078-3.182-4.176-1.02-2.628-8.882-2.628-8.882l-23.694-3.552c-1.544 1.618-3.542 6.738-4.166 9.052a13.783 13.783 0 0 0 1.386 10.518 13.807 13.807 0 0 0 8.416 6.474c1.808.486 3.63.586 5.38.36.664.058 1.666.146 2.974.252 2.476.182 6.012.484 10.262.766 2.126.134 4.428.284 6.862.438 2.434.14 5.004.29 7.662.442 2.658.134 5.406.274 8.196.418l7.322.32c.092.008.18.036.272.06.046.016.09.038.136.058l.064.034c.012.004.018.016.03.02l.018.012.088.076 3.126 2.836c2.08 1.868 4.126 3.708 6.108 5.484 3.97 3.55 7.708 6.828 10.938 9.614 3.214 2.8 5.958 5.064 7.848 6.682 1.902 1.606 3.01 2.498 3.01 2.498a4.957 4.957 0 0 0 6.414-.156 4.956 4.956 0 0 0 .396-6.996z"/>
                <g transform="translate(1306 462)">
                    <circle cx="8.556" cy="9.522" r="6.778" fill="#F7B75D"/>
                    <path fill="#F7B75D" d="M35.174 7.832l-24.368 8.084a4.912 4.912 0 0 1-6.21-3.118c-.854-2.574.63-9.31 3.206-10.164l25.882-.862c2.854-.094 4.544 3.392 2.518 5.404a2.688 2.688 0 0 1-1.028.656z"/>
                    <path fill="#FFF" d="M16.25 5.458a1.144 1.144 0 0 1-1.122-1.36l.494-2.576a1.143 1.143 0 0 1 2.244.43l-.498 2.578a1.14 1.14 0 0 1-1.118.928zM19.934 5.458a1.144 1.144 0 0 1-1.122-1.36l.494-2.576a1.142 1.142 0 0 1 2.244.43l-.498 2.578c-.1.538-.572.928-1.118.928z"/>
                    <circle cx="8.556" cy="9.522" r="4.066" fill="#2747B3"/>
                </g>
                <path fill="#FFFEFF" d="M1247.996 370.684a3.81 3.81 0 0 0 3.74 3.108 3.81 3.81 0 0 0 3.742-3.108h-7.482z"/>
                <path fill="#FFF" d="M1302.322 376.226l-50.79 34.102-3.58-1.718 3.734-36.39 26.844 6.566h5.68l14.682-6.148z"/>
                <path fill="#121F55" d="M1299.736 412.19l-17.652 6.566h-5.49l-25.062-6.566 3.734-36.392 25.064 6.568h5.492l17.65-6.568z"/>
                <path fill="#B8B9F1" d="M1282.084 418.756h-5.49l3.736-36.39h5.492z"/>
                <g transform="translate(1276 410)">
                    <circle cx="3.858" cy="3.794" r="1.838" fill="#121F55"/>
                    <path fill="#FFF" d="M3.858 6.026a2.233 2.233 0 0 1-2.23-2.23c0-1.228 1-2.23 2.23-2.23s2.23 1.002 2.23 2.23-1 2.23-2.23 2.23zm0-3.68a1.45 1.45 0 0 0 0 2.898 1.45 1.45 0 0 0 0-2.898z"/>
                </g>
                <path fill="#F99AB6" d="M1301.75 418.698a7.238 7.238 0 0 1-4.362-2.424l1.71-10.918a7.246 7.246 0 1 1 2.652 13.342z"/>
                <path fill="#8EDEF2" d="M1238.904 420a4.223 4.223 0 0 1-4.218-4.1l-.928-32.246 8.436-.242.802 27.888 20.652-1.274.518 8.426-25 1.538c-.088.006-.176.01-.262.01z"/>
                <path fill="#61C8E0" d="M1234.186 388.117l1.347 26.012-1.207.063-1.346-26.013zM1242.486 403.646l-.82-15.352 1.424-.282.82 15.352z"/>
                <path fill="#F99AB6" d="M1266.236 407.02a7.227 7.227 0 0 1 4.812 1.318l.936 11.01a7.234 7.234 0 0 1-4.518 2.114 7.248 7.248 0 0 1-1.23-14.442z"/>
            </g>
            <g fill-rule="nonzero" transform="translate(788 532)">
                <path fill="#F99AB6" d="M82.57 170.476c-.64-1.704-15.696-41.946-15.696-66.576h8.934c0 23 14.974 63.022 15.126 63.424l-8.364 3.152zM43.33 137.406l-14.976-25.092a4.457 4.457 0 0 1-.466-3.502 4.475 4.475 0 0 1 2.222-2.742l24.048-12.646 4.16 7.908-19.874 10.454 12.56 21.04-7.674 4.58z"/>
                <path fill="#121F55" d="M86.71 13.482s-5.898-7.12-8.566-9.412c-4.884-4.196-8.914.446-8.914.446C44.92.78 40.352 35.502 51.426 44.156c8.972 7.012 16.462 2.178 16.462 2.178s5.062 3.778 12.816 4.97c4.798.736 10.594-2.416 10.594-2.416s6.784 4.85 11.984-2.324c5.2-7.174-2.49-14.778-6.576-14.852 0 0 4.892-5.89-1.816-9.8-2.644-1.542-8.18-8.43-8.18-8.43z"/>
                <path fill="#F99AB6" d="M56.644 56.626c-1.638-.828-2.962-3.312-1.004-5.58 1.928-2.234 4.902-3.476 8.088-3.598l.822-.03a8.852 8.852 0 0 1 7.088 3.118c-1.356 4.194-10.564 7.786-14.994 6.09z"/>
                <path fill="#F99AB6" d="M61.564 41.034l-.072 3.604-.134 6.774 5.2.092.162-8.652.072-3.356c-1.574 1.054-3.366 1.624-5.228 1.538z"/>
                <path fill="#F99AB6" d="M61.564 41.034l-.072 3.604c1.842-.274 4.08-1.096 5.242-2.458l.056-2.686c-1.572 1.056-3.364 1.626-5.226 1.54z"/>
                <path fill="#F99AB6" d="M58.662 41.028a15.057 15.057 0 0 0 13.466.048 15.04 15.04 0 0 0 6.792-6.744l2.666-5.298a15.05 15.05 0 0 0 .716-11.896 15.04 15.04 0 0 0-7.414-8.362 15.022 15.022 0 0 0-7.396-1.6c-5.294.22-10.312 3.228-12.862 8.296l-2.664 5.296c-2.454 4.876-2.014 10.454.674 14.772a15.013 15.013 0 0 0 6.022 5.488z"/>
                <path fill="#121F55" d="M75.322 25.408C64.496 27.17 63.306 15.5 63.922 10.7 65.212.658 78.328 2.59 82.916 7.588c2.842 3.096 7.896 11.48 5.716 21.898-2.18 10.416-12.808 16.89-12.808 16.89-11.686-8.564.386-16.772.386-16.772l-.888-4.196z"/>
                <circle cx="65.82" cy="96.002" r="14.316" fill="#F7B75D"/>
                <path fill="#FFFEFF" d="M59.854 32.814a4.033 4.033 0 0 1-5.018 1.158 4.035 4.035 0 0 1-2.062-4.72l7.08 3.562z"/>
                <path fill="#F7B75D" d="M41.308 100.096c18.916 16.402 42.376 24.45 42.376 24.45s4-24.006-4.856-34.402C74.38 84.924 51.5 92.512 51.5 92.512l-10.192 7.584zM49.038 59.024c-.98 2.702 1.748 5.422 4.602 5.734a5.2 5.2 0 0 0 5.734-4.602c.312-2.854-3.946-9.106-5.55-6.724-1.528 2.268-3.948 3.28-4.786 5.592z"/>
                <path fill="#F7B75D" d="M71.638 50.536a8.838 8.838 0 0 1 2.114 5.332s-1.286 23.52 5.166 34.352c2.774 4.658-27.494 4.528-27.494 4.528l.812-34.786c-.164-3.456 1.164-6.626 3.404-8.916.13 5.246 10.918-1.068 15.998-.51z"/>
                <path fill="#F7B75D" d="M67.084 59.114c-5.376 0-41.62-1.704-61.78-46.384l8.146-3.676c18.792 41.648 52.5 41.164 53.944 41.12l.308 8.932c-.092.002-.302.008-.618.008z"/>
                <path fill="#F99AB6" d="M13.212 1.884A7.623 7.623 0 0 0 8.038.832l-6.144 9.96a7.635 7.635 0 0 0 3.262 4.154 7.674 7.674 0 1 0 8.056-13.062z"/>
                <g fill="#121F55" transform="translate(26 132)">
                    <circle cx="24.728" cy="6.172" r="5.824"/>
                    <path d="M5.126 18.072l21.158-6.288a4.223 4.223 0 0 0 2.848-5.25C28.466 4.296 24.106.278 21.87.942L3.196 13.066c-2.058 1.336-1.536 4.626.884 5.048.358.062.712.056 1.046-.042z"/>
                </g>
                <g fill="#121F55" transform="translate(68 166)">
                    <circle cx="19.732" cy="5.868" r="5.826"/>
                    <path d="M5.754 24.044l17.46-13.504a4.227 4.227 0 0 0 .756-5.926c-1.428-1.846-6.946-4.018-8.792-2.592L2.148 20.074c-1.438 1.988.238 4.87 2.646 4.388.356-.068.686-.202.96-.418z"/>
                </g>
                <path fill="#566CD3" d="M60.988 91.872a34.84 34.84 0 0 1-7.352-.784l.272-1.248c12.216 2.63 21.726-2.598 21.822-2.648l.626 1.114c-.322.178-6.472 3.566-15.368 3.566z"/>
                <path fill="#2143AF" d="M110.038 170.736h2v14.392h-2zM86.732 186.552h2v22.892h-2zM100.95 178.4h2v19.68h-2zM100.95 154.192h2v11.41h-2z"/>
            </g>
        </g>
    </g>
</svg>
