<svg xmlns="http://www.w3.org/2000/svg" width="807" height="744" viewBox="0 0 807 744">
    <g fill="none" fill-rule="evenodd">
        <path fill="#B9B8F1" fill-rule="nonzero" d="M81.306 716.42h506.478c7.402 0 13.402 6 13.402 13.4v.274c0 7.402-6 13.402-13.402 13.402H81.306c-7.402 0-13.402-6-13.402-13.402v-.274c0-7.4 6-13.4 13.402-13.4zM543.52 679.086h233.476c7.402 0 13.402 5.998 13.402 13.402v.27c0 7.402-6 13.402-13.402 13.402H543.52c-7.402 0-13.402-6-13.402-13.402v-.27c0-7.404 6-13.402 13.402-13.402z"/>
        <path fill="#B9B8F1" fill-rule="nonzero" d="M38.418 653.656h754.718c7.402 0 13.402 6 13.402 13.402v.27c0 7.4-6 13.4-13.402 13.4H38.418c-7.402 0-13.4-6-13.4-13.4v-.27c0-7.402 5.998-13.402 13.4-13.402z"/>
        <g fill-rule="nonzero" transform="translate(301 23)">
            <path fill="#FFF" d="M.234 1.986h141.358v114.432H.234z"/>
            <path fill="#E5E9FF" d="M13.082 15.376h116.452v87.338H13.082z"/>
            <path fill="#B9B8F1" d="M108.606 73.486l-3.168 5.48-46.256-26.664-46.1 23.94V69.1L57.81 45.896a3.132 3.132 0 0 1 3.034.068l47.762 27.522z"/>
            <path fill="#B9B8F1" d="M129.534 59.064V66.6l-21.492-13.94-13.326 11.834-2.604 2.314-4.196-4.728 1.028-.91 16.696-14.828a3.118 3.118 0 0 1 3.82-.29l20.074 13.012z"/>
            <circle cx="82.88" cy="33.314" r="11.064" fill="#B9B8F1"/>
        </g>
        <g fill-rule="nonzero">
            <path fill="#B9B8F1" d="M191.004.526h-87.472c-6.128 0-11.098 4.966-11.098 11.094v48.77c0 6.128 4.968 11.1 11.098 11.1h46.962v27.332l26.794-27.332h13.716c6.128 0 11.098-4.97 11.098-11.1V11.62c0-6.128-4.968-11.094-11.098-11.094z"/>
            <path fill="#FFF" d="M125.604 48.708l-12.678-12.684a1.855 1.855 0 0 1 0-2.626l12.326-12.33 2.63 2.628-11.014 11.016 11.368 11.368-2.632 2.628zM170.364 49.33l-2.626-2.628 11.638-11.636-11.638-11.638 2.628-2.626 12.952 12.954a1.853 1.853 0 0 1-.004 2.624l-12.95 12.95zM157.209 11.575l3.397 1.506-19.983 45.085-3.397-1.506z"/>
        </g>
        <g fill-rule="nonzero">
            <path fill="#E6E6E6" d="M656.014 115.294c-6.73 0-12.188-5.458-12.188-12.186V29.76a5.304 5.304 0 0 1 5.308-5.304h13.76a5.305 5.305 0 0 1 5.308 5.304v73.348c.002 6.73-5.454 12.186-12.188 12.186z"/>
            <path fill="#566CD3" d="M668.204 91.876V29.76a5.304 5.304 0 0 0-5.308-5.304h-13.76a5.304 5.304 0 0 0-5.308 5.304v62.116h24.376z"/>
            <path fill="#E6E6E6" d="M649.922 113.66c-5.83-3.366-7.826-10.82-4.46-16.648l36.672-63.518a5.307 5.307 0 0 1 7.25-1.944l11.92 6.88a5.308 5.308 0 0 1 1.94 7.25l-36.672 63.52c-3.364 5.83-10.82 7.83-16.65 4.46z"/>
            <path fill="#8EDEF2" d="M672.186 99.476l31.058-53.794a5.308 5.308 0 0 0-1.94-7.25l-11.92-6.88a5.308 5.308 0 0 0-7.25 1.944l-31.058 53.792 21.11 12.188z"/>
            <g>
                <path fill="#E6E6E6" d="M645.462 109.2c-3.366-5.828-1.368-13.284 4.46-16.648l63.518-36.674a5.307 5.307 0 0 1 7.248 1.944l6.882 11.92a5.307 5.307 0 0 1-1.944 7.248l-63.518 36.672c-5.828 3.368-13.28 1.368-16.646-4.462z"/>
                <path fill="#F7B75D" d="M671.836 108.048l53.792-31.06a5.307 5.307 0 0 0 1.944-7.248l-6.882-11.92a5.307 5.307 0 0 0-7.248-1.944L659.65 86.934l12.186 21.114z"/>
            </g>
            <g transform="translate(643 89)">
                <path fill="#E6E6E6" d="M.826 14.11c0-6.73 5.458-12.192 12.188-12.192H86.36a5.307 5.307 0 0 1 5.306 5.306V20.99a5.304 5.304 0 0 1-5.306 5.304H13.014C6.284 26.294.826 20.838.826 14.11z"/>
                <path fill="#B9B8F1" d="M24.244 26.294H86.36a5.305 5.305 0 0 0 5.306-5.304V7.224a5.307 5.307 0 0 0-5.306-5.306H24.244v24.376z"/>
                <circle cx="11.714" cy="14.108" r="4.124" fill="#121F55"/>
            </g>
        </g>
        <path fill="#121F55" d="M351.118 542.524h128.866v95.362H351.118z"/>
        <path fill="#566CD3" d="M291.41 640.494v.256c0 7.102 5.754 12.856 12.856 12.856h222.57c7.102 0 12.856-5.754 12.856-12.856v-.256c0-7.104-5.754-12.862-12.856-12.862h-222.57c-7.102 0-12.856 5.758-12.856 12.862zM169.306 239.77h492.942c13.872 0 25.222 11.352 25.222 25.224v268.25c0 13.872-11.35 25.224-25.222 25.224H169.306c-13.87 0-25.218-11.354-25.218-25.224v-268.25c-.002-13.872 11.348-25.224 25.218-25.224z"/>
        <path fill="#8EDEF2" d="M160.824 254.484H670.73v258.944H160.824z"/>
        <g fill="#FFF" fill-rule="nonzero" opacity=".5">
            <path d="M592.7 270.762h54.216v72.444H592.7zM184.638 270.762h390.94v72.444h-390.94zM184.638 365.846h108.436v72.446H184.638zM313.05 407.856h333.866v30.436H313.05zM313.05 365.846h333.866v30.434H313.05zM184.638 452.444h462.276v44.708H184.638z"/>
        </g>
        <g fill-rule="nonzero">
            <path fill="#F7B75D" d="M585.08 514.536H251.348v-38.384H585.08z"/>
            <path fill="#FFF" d="M281.604 476.152h3.74v13.886h-3.74zM268.626 476.152h3.738v19.958h-3.738zM307.598 476.152h3.742v13.886h-3.742zM294.622 476.152h3.738v19.958h-3.738zM333.594 476.152h3.738v13.886h-3.738zM320.618 476.152h3.738v19.958h-3.738zM359.59 476.152h3.738v13.886h-3.738zM346.614 476.152h3.738v19.958h-3.738zM385.586 476.152h3.738v13.886h-3.738zM372.608 476.152h3.74v19.958h-3.74zM411.58 476.152h3.738v13.886h-3.738zM398.604 476.152h3.738v19.958h-3.738zM437.576 476.152h3.738v13.886h-3.738zM424.6 476.152h3.738v19.958H424.6zM463.572 476.152h3.738v13.886h-3.738zM450.596 476.152h3.738v19.958h-3.738zM489.568 476.152h3.738v13.886h-3.738zM476.588 476.152h3.742v19.958h-3.742zM515.562 476.152h3.74v13.886h-3.74zM502.584 476.152h3.74v19.958h-3.74zM541.558 476.152h3.738v13.886h-3.738zM528.582 476.152h3.74v19.958h-3.74zM567.554 476.152h3.738v13.886h-3.738zM554.578 476.152h3.74v19.958h-3.74z"/>
        </g>
        <g fill-rule="nonzero">
            <path fill="#F7B75D" d="M472.906 282.31H358.654c-15.72 0-28.46-12.742-28.46-28.458V208.96c0-15.718 12.74-28.46 28.46-28.46h114.252c15.718 0 28.458 12.742 28.458 28.46v44.89c0 15.718-12.74 28.46-28.458 28.46z"/>
            <g fill="#121F55">
                <path d="M383.18 237.608l9.202 2.916c-1.412 5.13-3.758 8.938-7.04 11.428-3.28 2.488-7.438 3.736-12.482 3.736-6.242 0-11.37-2.134-15.386-6.398-4.016-4.264-6.026-10.09-6.026-17.484 0-7.82 2.02-13.896 6.06-18.222 4.038-4.328 9.348-6.488 15.93-6.488 5.748 0 10.416 1.7 14.006 5.096 2.136 2.01 3.74 4.892 4.806 8.656l-9.392 2.24c-.556-2.436-1.712-4.358-3.478-5.768-1.76-1.41-3.904-2.116-6.426-2.116-3.484 0-6.31 1.252-8.474 3.748-2.174 2.5-3.256 6.552-3.256 12.15 0 5.942 1.07 10.172 3.204 12.694 2.138 2.52 4.916 3.782 8.336 3.782 2.522 0 4.692-.8 6.506-2.404 1.816-1.604 3.118-4.128 3.91-7.566zM398.12 239.596l9.23-.898c.556 3.1 1.68 5.376 3.382 6.828 1.698 1.452 3.99 2.18 6.876 2.18 3.052 0 5.354-.648 6.908-1.942 1.546-1.292 2.322-2.804 2.322-4.534 0-1.112-.326-2.058-.976-2.838-.654-.782-1.792-1.458-3.416-2.036-1.11-.384-3.642-1.068-7.592-2.052-5.088-1.258-8.658-2.808-10.708-4.648-2.882-2.582-4.326-5.734-4.326-9.454 0-2.392.678-4.634 2.034-6.718 1.356-2.082 3.312-3.666 5.868-4.756 2.552-1.09 5.634-1.634 9.246-1.634 5.9 0 10.334 1.292 13.32 3.876 2.978 2.586 4.544 6.038 4.694 10.354l-9.486.416c-.406-2.414-1.278-4.152-2.614-5.208-1.336-1.058-3.336-1.586-6.008-1.586-2.754 0-4.916.568-6.476 1.7-1.004.726-1.504 1.702-1.504 2.916 0 1.112.47 2.064 1.408 2.854 1.2 1.004 4.106 2.05 8.72 3.14 4.614 1.092 8.026 2.216 10.24 3.382 2.208 1.162 3.94 2.756 5.192 4.776 1.248 2.018 1.874 4.514 1.874 7.484 0 2.696-.746 5.214-2.244 7.564-1.496 2.352-3.614 4.096-6.346 5.24-2.736 1.142-6.144 1.714-10.224 1.714-5.94 0-10.502-1.374-13.686-4.12-3.19-2.742-5.09-6.744-5.708-12zM441.9 239.596l9.232-.898c.554 3.1 1.682 5.376 3.384 6.828 1.696 1.452 3.99 2.18 6.874 2.18 3.056 0 5.356-.648 6.91-1.942 1.546-1.292 2.322-2.804 2.322-4.534 0-1.112-.328-2.058-.976-2.838-.658-.782-1.792-1.458-3.416-2.036-1.112-.384-3.644-1.068-7.598-2.052-5.086-1.258-8.656-2.808-10.706-4.648-2.884-2.582-4.326-5.734-4.326-9.454 0-2.392.676-4.634 2.034-6.718 1.356-2.082 3.31-3.666 5.868-4.756 2.55-1.09 5.634-1.634 9.246-1.634 5.898 0 10.336 1.292 13.322 3.876 2.976 2.586 4.542 6.038 4.694 10.354l-9.488.416c-.406-2.414-1.278-4.152-2.614-5.208-1.334-1.058-3.336-1.586-6.008-1.586-2.756 0-4.914.568-6.474 1.7-1.004.726-1.508 1.702-1.508 2.916 0 1.112.47 2.064 1.412 2.854 1.196 1.004 4.102 2.05 8.718 3.14 4.616 1.092 8.028 2.216 10.246 3.382 2.208 1.162 3.938 2.756 5.192 4.776 1.246 2.018 1.872 4.514 1.872 7.484 0 2.696-.746 5.214-2.244 7.564-1.496 2.352-3.61 4.096-6.348 5.24-2.734 1.142-6.142 1.714-10.222 1.714-5.942 0-10.502-1.374-13.688-4.12-3.188-2.742-5.09-6.744-5.71-12z"/>
            </g>
        </g>
        <g fill-rule="nonzero">
            <path fill="#FFF" d="M72.376 698.942v8.814c0 4.87 3.856 8.816 8.612 8.816h321.096c4.756 0 8.612-3.948 8.612-8.816v-8.814H72.376z"/>
            <path fill="#B9B8F1" d="M394.262 698.942V512.44c0-10.372-8.216-18.784-18.354-18.784H107.164c-10.136 0-18.354 8.412-18.354 18.784v186.502h305.452z"/>
            <path fill="#8EDEF2" d="M104.82 511.46h273.43v173.054H104.82z"/>
            <g fill="#8EDEF2">
                <path d="M338.552 522.194h28.8v48.508h-28.8zM115.718 522.194h207.676v48.508H115.718zM115.718 585.862h57.602v48.508h-57.602zM183.932 585.862H361.29v48.508H183.932zM115.718 651.042h245.57v22.738h-245.57z"/>
            </g>
            <g fill="#121F55">
                <path d="M233.026 594.896h6.558v61.182h-6.558z"/>
                <path d="M233.624 631.716a3.284 3.284 0 0 1-3.28-3.282v-5.364a3.283 3.283 0 0 1 3.28-3.278h4.83a3.281 3.281 0 0 1 3.278 3.278v5.364c0 1.81-1.47 3.282-3.278 3.282h-4.83zM233.086 600.596a3.281 3.281 0 0 1-3.278-3.278v-5.368a3.28 3.28 0 0 1 3.278-3.278h5.366a3.28 3.28 0 0 1 3.278 3.278v5.368a3.282 3.282 0 0 1-3.278 3.278h-5.366zM233.624 662.838a3.283 3.283 0 0 1-3.28-3.28v-5.9c0-1.808 1.47-3.28 3.28-3.28h4.83a3.281 3.281 0 0 1 3.278 3.28v5.9c0 1.808-1.47 3.28-3.278 3.28h-4.83z"/>
                <path d="M258.402 654.164c-7.51 0-13.578-2.274-18.032-6.758-7.214-7.256-7.42-17.524-7.42-18.672V626.3l2.434-.016 4.12.024v2.406c0 .084.1 8.628 5.526 14.078 3.18 3.196 7.678 4.816 13.372 4.816h2.42v6.554h-2.42v.002zM232.95 623.146c0-1.146.208-11.414 7.42-18.674 4.454-4.484 10.52-6.76 18.032-6.76h2.42v6.56h-2.42c-5.698 0-10.2 1.624-13.38 4.822-5.43 5.464-5.516 13.98-5.516 14.066l-.006 2.394-6.548.056v-2.464h-.002z"/>
                <path d="M255.086 656.936a3.28 3.28 0 0 1-3.278-3.278v-5.902a3.28 3.28 0 0 1 3.278-3.28h5.366a3.28 3.28 0 0 1 3.278 3.28v5.902a3.281 3.281 0 0 1-3.278 3.278h-5.366zM255.622 607.036a3.28 3.28 0 0 1-3.278-3.278v-5.904a3.282 3.282 0 0 1 3.278-3.278h4.83a3.281 3.281 0 0 1 3.278 3.278v5.904a3.281 3.281 0 0 1-3.278 3.278h-4.83z"/>
            </g>
            <path fill="#566CD3" d="M281.744 576.82H213.19c-6.708 0-12.196-5.49-12.196-12.198V528.27c0-6.708 5.488-12.2 12.196-12.2h68.554c6.71 0 12.198 5.49 12.198 12.2v36.352c-.002 6.708-5.488 12.198-12.198 12.198z"/>
            <g fill="#FFF">
                <path d="M211.348 556.64v-20.384h4.114v8.022h8.066v-8.022h4.118v20.384h-4.118v-8.914h-8.066v8.914zM236.488 556.64v-16.938h-6.048v-3.448h16.202v3.448h-6.036v16.938zM249.244 556.64v-20.384h6.158l3.698 13.904 3.658-13.904h6.176v20.384h-3.824v-16.048l-4.048 16.048h-3.964l-4.032-16.048v16.048zM273.134 556.64v-20.218h4.118v16.786h10.236v3.434h-14.354z"/>
            </g>
            <g transform="translate(-1 599)">
                <path fill="#FFF" d="M237.712 26.762l-1.95 1.678-28.448 24.418S195.858 36.03 179.052 36.03V17.494c16.806 0 28.212-16.828 28.212-16.828l28.466 24.402 1.982 1.694z"/>
                <path fill="#8EDEF2" d="M237.712 26.762l-1.948 1.678h-25.196v-3.372h25.162z"/>
                <circle cx="205.582" cy="26.756" r="5.894" fill="#8EDEF2"/>
                <path fill="#2143AF" d="M26.914 12.082H16.206c-8.102 0-14.672 6.568-14.672 14.676 0 8.104 6.57 14.672 14.672 14.672h10.708V12.082z"/>
                <path fill="#566CD3" d="M138.17 36.718h40.884V16.792H138.17a4.712 4.712 0 0 0-4.71-4.71H26.916V41.43H133.46a4.712 4.712 0 0 0 4.71-4.712z"/>
            </g>
        </g>
        <path fill="#121F55" d="M557.634 662.334V551.212c0-9.212 7.538-16.752 16.752-16.752h182.726c9.21 0 16.75 7.54 16.75 16.752v111.122c0 9.212-7.54 16.752-16.75 16.752H574.386c-9.214 0-16.752-7.54-16.752-16.752z"/>
        <path fill="#566CD3" d="M578.538 542.09h175.948v129.368H578.538z"/>
        <g fill-rule="nonzero">
            <path fill="#8EDEF2" d="M710.54 630.588h-88.054c-7.626 0-13.868-6.242-13.868-13.868v-19.894c0-7.628 6.242-13.868 13.868-13.868h88.054c7.626 0 13.868 6.238 13.868 13.868v19.894c0 7.626-6.242 13.868-13.868 13.868z"/>
            <g fill="#FFF">
                <path d="M623.174 601.384h2.168v6.818c0 .888-.08 1.576-.236 2.054a2.912 2.912 0 0 1-1.144 1.51c-.556.38-1.286.57-2.19.57-1.064 0-1.878-.296-2.454-.892-.572-.596-.862-1.468-.866-2.618l2.048-.236c.028.62.114 1.052.272 1.308.236.384.59.58 1.074.58.486 0 .828-.138 1.03-.418.198-.278.298-.85.298-1.72v-6.956zM637.368 612.154h-2.366l-.94-2.446h-4.304l-.888 2.446h-2.308l4.192-10.77h2.302l4.312 10.77zm-4.004-4.262l-1.484-3.996-1.454 3.996h2.938zM640.152 612.154l-3.846-10.77h2.356l2.728 7.97 2.634-7.97h2.306l-3.854 10.77zM656.036 612.154h-2.366l-.94-2.446h-4.306l-.888 2.446h-2.306l4.196-10.77h2.3l4.31 10.77zm-4.006-4.262l-1.486-3.996-1.454 3.996h2.94zM660.258 608.648l2.114-.206c.128.708.386 1.232.776 1.566.386.332.914.5 1.574.5.702 0 1.23-.148 1.586-.448.354-.296.532-.64.532-1.038a.982.982 0 0 0-.224-.652c-.15-.178-.412-.334-.782-.464-.256-.088-.834-.244-1.744-.47-1.162-.288-1.982-.644-2.452-1.062-.662-.596-.99-1.318-.99-2.168 0-.55.156-1.064.462-1.542.312-.476.762-.84 1.346-1.09.584-.25 1.294-.376 2.118-.376 1.352 0 2.37.292 3.054.888.682.594 1.042 1.38 1.076 2.374l-2.174.096c-.09-.552-.292-.952-.6-1.198-.306-.24-.764-.36-1.376-.36-.632 0-1.128.13-1.482.39a.77.77 0 0 0-.348.666c0 .256.108.472.324.654.278.228.942.468 1.998.72 1.06.248 1.842.508 2.35.774.506.268.9.632 1.19 1.096.286.46.43 1.034.43 1.716 0 .616-.17 1.192-.516 1.73-.34.54-.824.942-1.454 1.202-.626.262-1.408.396-2.342.396-1.364 0-2.408-.316-3.138-.946-.732-.624-1.166-1.54-1.308-2.748zM677.734 608.194l2.106.668c-.32 1.178-.86 2.05-1.612 2.62-.75.572-1.704.858-2.86.858-1.432 0-2.606-.488-3.526-1.466-.922-.976-1.378-2.312-1.378-4.006 0-1.792.46-3.186 1.384-4.178.926-.99 2.144-1.486 3.654-1.486 1.316 0 2.386.388 3.208 1.168.492.46.858 1.122 1.102 1.982l-2.15.514c-.13-.558-.396-.996-.8-1.32-.404-.324-.892-.484-1.472-.484-.796 0-1.446.288-1.944.858-.496.574-.746 1.5-.746 2.788 0 1.358.248 2.328.734 2.906.492.578 1.128.87 1.91.87.58 0 1.076-.184 1.494-.552.414-.372.716-.952.896-1.74zM681.716 612.154v-10.77h4.576c1.152 0 1.988.098 2.51.292.522.194.938.538 1.25 1.032.314.494.47 1.06.47 1.696 0 .808-.238 1.478-.71 2.002-.476.526-1.186.858-2.13.996.47.274.858.576 1.164.904.304.328.72.91 1.238 1.75l1.316 2.1h-2.602l-1.572-2.346c-.558-.834-.94-1.362-1.146-1.582a1.692 1.692 0 0 0-.654-.448c-.23-.082-.592-.122-1.094-.122h-.438v4.496h-2.178zm2.176-6.216h1.606c1.042 0 1.694-.042 1.954-.13s.464-.24.61-.454c.15-.218.222-.488.222-.81 0-.364-.096-.654-.292-.878-.196-.22-.466-.362-.82-.422-.176-.024-.708-.036-1.588-.036h-1.694v2.73h.002zM692.504 612.154v-10.77h2.174v10.77zM696.752 612.154v-10.77h3.492c1.322 0 2.184.052 2.584.162.618.16 1.134.512 1.548 1.052.416.542.626 1.242.626 2.1 0 .66-.122 1.214-.362 1.664a2.881 2.881 0 0 1-.912 1.06 3.206 3.206 0 0 1-1.13.514c-.518.102-1.268.156-2.254.156h-1.418v4.06h-2.174v.002zm2.174-8.946v3.054h1.192c.858 0 1.43-.054 1.718-.166.29-.116.516-.292.68-.53.164-.242.246-.52.246-.84 0-.39-.116-.712-.344-.968a1.503 1.503 0 0 0-.874-.476c-.26-.05-.782-.074-1.566-.074h-1.052zM709.212 612.154v-8.948h-3.196v-1.822h8.558v1.822h-3.188v8.948z"/>
            </g>
        </g>
        <g fill-rule="nonzero" transform="translate(725 149)">
            <path fill="#121F55" d="M29.49 66h10.19c0-18.472 18.496-31.072 18.496-31.072L29.492 1.506.8 34.992S19.296 47.528 19.296 66H29.49z"/>
            <path fill="#566CD3" d="M27.638 1.344h3.696v30.022h-3.696z"/>
            <circle cx="29.488" cy="36.836" r="6.482" fill="#566CD3"/>
            <path fill="#121F55" d="M13.356 284.936v11.772c0 8.91 7.222 16.132 16.13 16.132 8.91 0 16.132-7.222 16.132-16.132v-11.772H13.356z"/>
            <path fill="#B9B8F1" d="M40.44 110.95V66H18.536v44.95a5.177 5.177 0 0 0-5.18 5.178v168.808H45.62V116.128a5.18 5.18 0 0 0-5.18-5.178z"/>
        </g>
        <g fill-rule="nonzero">
            <path fill="#B9B8F1" d="M53.116 433.936v11.772c0 8.91 7.222 16.132 16.132 16.132s16.13-7.222 16.13-16.132v-11.772H53.116z"/>
            <path fill="#566CD3" d="M80.2 304.228v-21.462H58.292v21.462a5.18 5.18 0 0 0-5.178 5.18v124.528h32.262V309.408a5.176 5.176 0 0 0-5.176-5.18z"/>
            <path fill="#121F55" d="M78.81 150.344H59.748c-3.366 0-6.12 2.756-6.12 6.118v35.944c0 3.478 2.848 6.326 6.328 6.326h.08c.928 0 1.676.752 1.676 1.676v66.076c0 .926.75 1.676 1.676 1.676h11.718c.926 0 1.674-.75 1.674-1.676v-66.076c0-.924.75-1.676 1.676-1.676h.29c3.364 0 6.118-2.756 6.118-6.118v-36.218c-.002-3.328-2.724-6.052-6.054-6.052z"/>
            <path fill="#121F55" d="M83.372 282.766h-28.25a3.369 3.369 0 0 1-3.368-3.37v-9.43a3.366 3.366 0 0 1 3.368-3.366h28.25a3.366 3.366 0 0 1 3.368 3.366v9.43a3.369 3.369 0 0 1-3.368 3.37z"/>
        </g>
        <g fill-rule="nonzero" transform="translate(143 77)">
            <path fill="#8EDEF2" d="M80.468 59.65c-2.21 4.698-18.622 35.64-65.938 34.846l.148-8.628c44.1.742 57.558-28.888 58.114-30.168l7.926 3.408c-.036.082-.118.266-.25.542z"/>
            <path fill="#F99AB6" d="M5.076 83.054A8.389 8.389 0 0 0 1.6 87.71l7.026 10.788a8.396 8.396 0 0 0 5.666-1.296c3.906-2.546 5.01-7.776 2.464-11.68a8.442 8.442 0 0 0-11.68-2.468zM93.012 185.03c-.706-1.872-17.266-46.136-17.266-73.23h9.832c0 25.3 16.468 69.322 16.634 69.768l-9.2 3.462zM43.996 155.87l-18.424-26.338a4.92 4.92 0 0 1 1.432-6.994l25.378-15.782 5.19 8.346L36.6 128.144l15.448 22.09-8.052 5.636z"/>
            <path fill="#121F55" d="M97.568 12.34s-6.484-7.832-9.42-10.354c-5.372-4.616-9.806.488-9.806.488C51.6-1.634 46.576 36.558 58.756 46.08c9.87 7.712 18.11 2.396 18.11 2.396s5.572 4.152 14.096 5.462c5.28.812 11.654-2.652 11.654-2.652s7.462 5.334 13.182-2.556c5.72-7.892-2.74-16.258-7.234-16.338 0 0 5.38-6.482-1.998-10.784-2.91-1.692-8.998-9.268-8.998-9.268z"/>
            <path fill="#F99AB6" d="M64.494 59.796c-1.8-.916-3.258-3.644-1.106-6.14 2.122-2.458 5.392-3.822 8.898-3.958l.908-.036c3.104-.118 5.92 1.236 7.794 3.434-1.49 4.616-11.62 8.568-16.494 6.7z"/>
            <path fill="#F99AB6" d="M69.906 42.642l-.08 3.966-.148 7.448 5.722.102.176-9.518.076-3.688c-1.726 1.162-3.696 1.784-5.746 1.69z"/>
            <path fill="#F99AB6" d="M69.906 42.642l-.08 3.966c2.026-.302 4.486-1.208 5.766-2.704l.062-2.954c-1.728 1.164-3.698 1.786-5.748 1.692z"/>
            <path fill="#F99AB6" d="M66.712 42.638c4.84 2.436 10.304 2.28 14.816.052a16.544 16.544 0 0 0 7.468-7.42l2.932-5.828a16.552 16.552 0 0 0 .788-13.086 16.544 16.544 0 0 0-8.154-9.198 16.532 16.532 0 0 0-8.138-1.76c-5.824.242-11.344 3.55-14.146 9.126l-2.932 5.828c-2.7 5.366-2.214 11.496.744 16.246a16.482 16.482 0 0 0 6.622 6.04z"/>
            <path fill="#121F55" d="M85.04 25.456c-11.906 1.94-13.216-10.898-12.54-16.18C73.918-1.77 88.346.358 93.394 5.854c3.128 3.406 8.686 12.63 6.288 24.088-2.396 11.46-14.09 18.58-14.09 18.58-12.854-9.424.426-18.45.426-18.45l-.978-4.616z"/>
            <circle cx="74.588" cy="103.112" r="15.748" fill="#8EDEF2"/>
            <path fill="#FFFEFF" d="M68.024 33.604a4.44 4.44 0 0 1-5.52 1.274 4.436 4.436 0 0 1-2.266-5.194l7.786 3.92z"/>
            <path fill="#8EDEF2" d="M47.626 107.612c20.808 18.044 46.616 26.892 46.616 26.892-5.046-10.8 6.596-24.01-5.342-37.838-4.93-5.71-30.06 2.602-30.06 2.602l-11.214 8.344zM56.126 62.436c-1.078 2.966 1.922 5.96 5.064 6.306a5.724 5.724 0 0 0 6.308-5.062c.344-3.136-4.336-10.018-6.102-7.4-1.684 2.496-4.348 3.61-5.27 6.156z"/>
            <path fill="#8EDEF2" d="M80.988 53.098c1.4 1.548 2.22 3.618 2.328 5.866 0 0-1.416 25.868 5.68 37.786 3.05 5.122-30.244 4.98-30.244 4.98l.894-38.268c-.18-3.798 1.28-7.286 3.744-9.804.142 5.768 14.648-3.828 17.598-.56z"/>
            <path fill="#8EDEF2" d="M75.654 62.224c-5.348.52-41.558 2.318-65.916-40.18l7.75-4.442c22.702 39.612 56.182 35.88 57.616 35.7l1.166 8.854a9.935 9.935 0 0 1-.616.068z"/>
            <path fill="#F99AB6" d="M14.69 8.328a8.426 8.426 0 0 0-5.782-.602L3.24 19.282a8.407 8.407 0 0 0 4.012 4.204 8.442 8.442 0 0 0 11.296-3.862A8.439 8.439 0 0 0 14.69 8.328z"/>
            <g fill="#121F55" transform="translate(22 148)">
                <circle cx="28.956" cy="8.362" r="6.41"/>
                <path d="M4.542 14.694l24.28.076a4.64 4.64 0 0 0 4.66-4.632c.01-2.564-3.314-8.18-5.88-8.188L4.096 8.81c-2.594.76-3.084 4.39-.67 5.6.358.178.73.282 1.116.284z"/>
            </g>
            <g fill="#121F55" transform="translate(78 180)">
                <circle cx="20.69" cy="6.564" r="6.408"/>
                <path d="M5.318 26.558l19.204-14.854a4.65 4.65 0 0 0 .832-6.522c-1.57-2.03-7.642-4.42-9.67-2.85L1.35 22.19c-1.582 2.19.264 5.356 2.912 4.826.392-.076.75-.224 1.056-.458z"/>
            </g>
            <path fill="#8EDEF2" d="M69.272 98.566a38.15 38.15 0 0 1-8.084-.864l.294-1.374c13.44 2.892 23.9-2.856 24.004-2.912l.688 1.224c-.352.2-7.116 3.926-16.902 3.926z"/>
            <path fill="#2143AF" d="M115.616 183.1h2v15.83h-2zM105.622 191.53h2v21.648h-2zM105.622 164.898h2v12.548h-2z"/>
        </g>
        <g fill-rule="nonzero">
            <g transform="translate(429 451)">
                <circle cx="8.702" cy="10.826" r="7.306" fill="#2143AF"/>
                <path fill="#2143AF" d="M37.45 10.218l-26.618 7.596a5.298 5.298 0 0 1-6.548-3.642C3.482 11.36 5.39 4.174 8.202 3.37l27.918.256c3.076.03 4.74 3.862 2.464 5.938a2.823 2.823 0 0 1-1.134.654z"/>
                <path fill="#FFF" d="M17.172 6.796a1.226 1.226 0 0 1-1.142-1.512l.65-2.756a1.231 1.231 0 0 1 2.394.568l-.65 2.754c-.134.576-.66.972-1.252.946zM21.142 6.964a1.232 1.232 0 0 1-1.144-1.514l.65-2.752a1.231 1.231 0 0 1 2.396.568l-.652 2.752a1.23 1.23 0 0 1-1.25.946z"/>
            </g>
            <path fill="#F7B75D" d="M429.67 410.11l-.142-.074-39.906-23.528-11.932 12.938 41.872 22.198 9.822 42.744.298-.052 11.216-10.166-7.586-39.176c-.414-2.008-1.692-3.852-3.642-4.884z"/>
            <g transform="translate(335 463)">
                <circle cx="7.61" cy="7.884" r="6.568" fill="#2143AF"/>
                <path fill="#2143AF" d="M32.602 14.512l-24.888-.056A4.765 4.765 0 0 1 2.962 9.68c.006-2.632 3.442-8.368 6.074-8.36l24.058 7.162c2.65.79 3.132 4.516.654 5.74-.37.184-.752.29-1.146.29z"/>
                <path fill="#FFF" d="M15.932 6.512a1.108 1.108 0 0 1-.614-1.592l1.248-2.218c.26-.46.814-.676 1.316-.506.66.22.952.986.612 1.59l-1.248 2.218c-.258.462-.81.676-1.314.508zM19.32 7.644a1.106 1.106 0 0 1-.612-1.592l1.25-2.218c.26-.46.81-.674 1.314-.506.66.218.956.986.614 1.59l-1.248 2.216a1.108 1.108 0 0 1-1.318.51z"/>
            </g>
            <path fill="#F7B75D" d="M395.244 375.9l-26.462-2.894c-1.644 1.864-3.636 7.636-4.224 10.234a15.345 15.345 0 0 0 2.004 11.618 15.353 15.353 0 0 0 9.63 6.816c2.03.458 12.066.616 16.786-3.982 6.908-6.732 2.266-21.792 2.266-21.792z"/>
            <path fill="#F7B75D" d="M378.732 390.042H361.7l6.542 40.528-28.742 33.488 14.914 4.192 27.426-30.76c1.348-1.528 2.052-3.648 1.7-5.812l-4.808-41.636z"/>
            <path fill="#121F55" d="M448.332 372.814l-39.444-.684a4.7 4.7 0 0 1-4.108-2.582l-15.46-30.74 8.378-4.214 14.188 28.208 36.608.638-.162 9.374z"/>
            <path fill="#F99AB6" d="M392.022 310.268l-1.196 24.892-11.536-.55 1.666-24.038.474-6.838z"/>
            <path fill="#F99AB6" d="M383.202 318.122s2.612 6.404 8.064 8.002l.398-8.342-8.462.34z"/>
            <path fill="#F99AB6" d="M395.782 325.01c.458-.072 1.354-.32 1.8-.444 4.29-1.176 8.528-8.256 8.364-12.326-.194-4.86-.704-7.296-.422-10.586.39-4.518-3.998-8.058-8.53-7.876l-9.182.366a6.25 6.25 0 0 0-6 6.498l.592 14.892c.212 5.316 8.126 10.308 13.378 9.476zM376.82 328.316a6.398 6.398 0 0 1 4.322-1.05l5.108.596a14.57 14.57 0 0 1 6.638 2.504c-5.28 1.538-11.654 1.004-16.068-2.05z"/>
            <path fill="#121F55" d="M368.894 338.122c.23-4.01 3.784-9.42 8.16-9.952 7.396 1.042 14.04 1.448 16.538 2.04 4.304 2.982 6.864 8.18 6.216 13.742l-.65 46.05c-13.834 9.76-39.176 5.84-39.176 5.84-.002-19.884 8.456-49.834 8.912-57.72z"/>
            <path fill="#121F55" d="M420.598 372.556l-32.208.348a4.69 4.69 0 0 1-4.686-3.996l-5.302-35.45 9.274-1.388 4.698 31.412 28.124-.3.1 9.374z"/>
            <path fill="#F7B75D" d="M392.282 329.966c-2.106-.5-5.852-.626-11.81-1.352 3.306 7.76 12.224 14.21 14.864 23.3 1.382-1.514 1.248-18.964-3.054-21.948z"/>
            <path fill="#2747B3" d="M391.916 331.39c-.386-.434-1.616-1.298-1.652-1.756-.954-.12-.8.242-2.122.118 3.612 3.342 1.522 8.848 2.948 13.878 1.812 2.57 3.374 5.282 4.248 8.286.766-.84 1.064-6.568.446-12.022-.07-.588-.932-5.154-3.868-8.504z"/>
            <path fill="#B8B9F1" d="M392.334 332.25c-.454.594-2.39.882-3 .452-.582-.416-1.158-2.67-1.158-2.67l4.482-.672c.002 0 .112 2.324-.324 2.89z"/>
            <path fill="#566CD3" d="M400.26 302.818c17.772-3.868 4.972-15.16 4.972-15.16s-.354 4.212-3.796 2.834c-6.586-2.64-20.916-4.296-24.852 4.302-3.064 6.698 2.642 21.352 3.722 25.174 1.772-1.112.282-18.358 7.562-17.636 3.98.39 8.502 1.334 12.392.486z"/>
            <path fill="#FFFEFF" d="M397.568 321.298c3.63-.162 1.292-6.162-.092-6.088-1.384.076-3.538 6.248.092 6.088z"/>
            <path fill="#FFF" d="M385.908 334.29l-9.022-5.996 3.056-3.352 10.728 4.768z"/>
            <path fill="#FFF" d="M393.404 331.97l-.516-1.998-1.726-1.802-.74 1.54z"/>
            <path fill="#121F55" d="M385.276 361.64c0-1.098.888-1.986 1.988-1.986h71.984c1.508 0 2.742.892 2.742 1.984 0 1.098-1.234 1.99-2.742 1.99h-71.984a1.988 1.988 0 0 1-1.988-1.988z"/>
            <path fill="#FFF" d="M382.452 361.638c0 1.098.962 1.99 2.142 1.99h27.334c1.178 0 2.142-.892 2.142-1.99 0-1.092-.964-1.984-2.142-1.984h-27.334c-1.18 0-2.142.892-2.142 1.984z"/>
            <path fill="#FFF" d="M461.876 322.404v36.3a2.929 2.929 0 0 1-2.926 2.928h-47.892a2.928 2.928 0 0 1-2.928-2.928v-36.3c0-1.62 1.31-2.928 2.928-2.928h47.892a2.926 2.926 0 0 1 2.926 2.928z"/>
            <path fill="#2143AF" d="M464.11 322.404v36.3a2.927 2.927 0 0 1-2.928 2.928H413.29a2.93 2.93 0 0 1-2.928-2.928v-36.3a2.927 2.927 0 0 1 2.928-2.928h47.892c1.62 0 2.928 1.31 2.928 2.928z"/>
            <path fill="#FFF" d="M429.34 340.554a3.086 3.086 0 0 1 3.086-3.088h9.622a3.083 3.083 0 0 1 3.086 3.088 3.086 3.086 0 0 1-3.086 3.088h-9.622a3.088 3.088 0 0 1-3.086-3.088z"/>
            <path fill="#F99AB6" d="M417.568 367.866a8.023 8.023 0 0 1 1.02-5.45l12.108-2.038a8.01 8.01 0 0 1 2.75 4.812 8.052 8.052 0 0 1-15.878 2.676zM443.122 365.626a8.02 8.02 0 0 1 1.472-5.344l12.234-1.024a8.01 8.01 0 0 1 2.34 5.028 8.053 8.053 0 0 1-7.354 8.694 8.056 8.056 0 0 1-8.692-7.354z"/>
        </g>
        <g fill-rule="nonzero" transform="translate(95 379)">
            <ellipse cx="60.454" cy="21.137" fill="#2143AF" rx="12.902" ry="8.098" transform="rotate(90.206 60.454 21.137)"/>
            <path fill="#2143AF" d="M99.794 40.134c-5.21-2.996-10.978-10.486-8.778-17.082C96.16 7.634 84.14 2.114 78.19.978c-5.95-1.138-11.202.376-14.51 3.028-5.38 4.31-3.772 11.734-.772 17.714-3.256 1.876-4.818 5.91-2.95 8.912 4.082 6.546.566 15.354-1.86 20.582-3.912 8.422 1.538 18.874 11.026 23.642 9.488 4.768 21.844 4.264 31.37-.004 4.732-2.12 8.998-5.214 11.154-9.318 4.654-8.862-2.068-19.772-11.854-25.4z"/>
            <path fill="#F99AB6" d="M34.456 99.13c-2.27.326-4.646.526-7.132.592a3.307 3.307 0 0 1-3.396-3.214 3.3 3.3 0 0 1 3.214-3.392c11.59-.318 20.262-3.732 25.77-10.15 8.408-9.798 6.808-23.422 6.792-23.554-.23-1.814 1.078-3.45 2.866-3.694a3.306 3.306 0 0 1 3.69 2.868c.084.676 1.962 16.69-8.33 28.684-5.53 6.44-13.406 10.416-23.474 11.86z"/>
            <path fill="#F7B75D" d="M62.2 53.322c-3.088.446-5.286 3.31-4.902 6.378.018.126 1.41 12.792-6.222 21.688-3.73 4.344-9.164 7.18-16.126 8.488 2.012 3.426 2.354 7.862.748 11.486 10.224-1.64 18.332-5.834 24.066-12.518C70.75 76.04 68.748 58.996 68.66 58.28c-.396-3.13-3.262-5.358-6.46-4.958z"/>
            <path fill="#F99AB6" d="M63.11 58.944c-1.694-.858-3.064-3.43-1.04-5.78 2-2.316 5.078-3.6 8.376-3.722l.852-.034a9.164 9.164 0 0 1 7.336 3.228c-1.4 4.346-10.934 8.066-15.524 6.308z"/>
            <path fill="#F99AB6" d="M68.702 42.798l-.076 3.732-.14 7.008 5.386.098.166-8.958.074-3.474c-1.626 1.096-3.482 1.68-5.41 1.594z"/>
            <path fill="#F99AB6" d="M68.702 43.69l-.076 3.732c1.906-.288 4.222-1.136 5.426-2.544l.058-2.78c-1.624 1.092-3.48 1.68-5.408 1.592z"/>
            <path fill="#F99AB6" d="M70.038 45.618c5.098-.052 9.602-2.542 12.416-6.35a15.545 15.545 0 0 0 3.046-9.43l-.06-6.142a15.579 15.579 0 0 0-4.99-11.284 15.566 15.566 0 0 0-10.788-4.176 15.506 15.506 0 0 0-7.564 2.042c-4.766 2.712-7.958 7.864-7.896 13.736l.06 6.142c.058 5.65 3.108 10.57 7.632 13.266a15.537 15.537 0 0 0 8.144 2.196z"/>
            <circle cx="72.614" cy="99.712" r="14.824" fill="#121F55"/>
            <path fill="#FFFEFF" d="M69.006 37.49a4.178 4.178 0 0 1-4.07 3.45 4.176 4.176 0 0 1-4.136-3.366l8.206-.084z"/>
            <path fill="#F7B75D" d="M55.238 61.426c-1.014 2.792 1.808 5.614 4.764 5.938A5.384 5.384 0 0 0 65.94 62.6c.324-2.958-4.084-9.43-5.746-6.964-1.584 2.346-4.088 3.398-4.956 5.79z"/>
            <path fill="#F7B75D" d="M78.634 52.636a9.133 9.133 0 0 1 2.19 5.522s-1.33 24.35 5.348 35.566l-28.386 2.372.76-33.7a12.35 12.35 0 0 1 3.524-9.232c.138 5.432 11.308-1.102 16.564-.528z"/>
            <path fill="#2143AF" d="M59.52 161.364c-2.62.128-3.914 2.584-4.136 3.284-1.22 3.82-.784 7.822-3.23 14.302-1.666 4.42-3.336 5.322-4.524 8.918-1.018 3.086 1.822 4.092 4.622 3.002 1.098-.424 8.008-2.24 8.13-7.758.092-4.034-.38-7.118.898-10.58 1.28-3.462 2.38-1.508 2.792-.454.292.756 1.214 2.922 1.524 3.594.11.242.394.36.646.262l.01-.004a.5.5 0 0 0 .274-.692c-.386-.79-1.102-3.508-1.368-6.986-.322-4.262-3.262-7.004-5.638-6.888z"/>
            <path fill="#F99AB6" d="M56.772 180.404c1.44-3.224 3.154-13.142 2.302-15.33-1-2.572-6.36-2.766-6.69-.452-.568 3.972 1.076 10.904-2.202 18.34.404 1.95 4.914 1.208 6.59-2.558z"/>
            <path fill="#121F55" d="M77.238 113.344L42.31 129.58l3.31-7.884 12.942 41.948a4.825 4.825 0 0 1-3.188 6.032c-2.428.75-5.002-.532-5.916-2.862L33.546 125.9a6.144 6.144 0 0 1 3.052-7.76l.258-.126 34.746-16.626a6.61 6.61 0 0 1 8.816 3.11 6.606 6.606 0 0 1-3.18 8.846z"/>
            <path fill="#2143AF" d="M36.052 148.178c-2.376-1.106-4.666.462-5.19.976-2.86 2.81-4.34 6.552-9.528 11.146-3.538 3.128-5.436 3.148-8.164 5.776-2.338 2.256-.296 4.468 2.686 4.816 1.17.13 8.128 1.75 10.812-3.072 1.962-3.528 2.984-6.474 5.728-8.942 2.75-2.466 2.81-.224 2.68.9-.092.806-.286 3.15-.328 3.888a.508.508 0 0 0 .45.536h.012a.502.502 0 0 0 .566-.484c.024-.876.66-3.618 2.05-6.816 1.702-3.92.382-7.72-1.774-8.724z"/>
            <path fill="#F99AB6" d="M24.738 163.742c2.78-2.184 8.922-10.156 9.188-12.49.318-2.738-4.334-5.41-5.708-3.518-2.354 3.246-4.136 10.144-10.502 15.196-.55 1.912 3.786 3.358 7.022.812z"/>
            <path fill="#121F55" d="M74.788 114.398l-38.468-1.93 6.608-5.432-8.12 43.14a4.824 4.824 0 0 1-5.634 3.85c-2.496-.47-4.178-2.804-3.9-5.292l5.01-43.612a6.148 6.148 0 0 1 6.324-5.442l.282.012 38.49 1.498a6.613 6.613 0 0 1 6.348 6.864 6.614 6.614 0 0 1-6.94 6.344z"/>
            <path fill="#F99AB6" d="M77.54 99.714a53.03 53.03 0 0 1-5.412.612 3.304 3.304 0 0 1-3.51-3.086c-.118-1.82 1.272-3.382 3.086-3.51 6.122-.392 13.834-1.896 15.808-6.828 3.114-7.776-7.624-21.934-11.63-26.28a3.304 3.304 0 0 1 .19-4.67 3.31 3.31 0 0 1 4.67.188c1.87 2.032 18.12 20.2 12.906 33.218-2.182 5.448-7.59 8.922-16.108 10.356z"/>
            <path fill="#F7B75D" d="M82.522 54.504a5.722 5.722 0 0 0-8.534.122c-1.936 2.214-1.71 5.626.266 7.8C78.82 67.444 87.666 80.004 85.266 86c-.418 1.044-1.278 1.884-2.372 2.556-2.044 1.26-3.182 3.584-2.718 5.938l.024.118c.702 3.756 4.896 5.864 8.212 3.964 3.57-2.048 6.08-4.822 7.48-8.32 5.65-14.102-10.148-32.256-13.37-35.752z"/>
            <path fill="#F99AB6" d="M58.038 96.54a7.899 7.899 0 0 0 2.302 4.962l12.076-.99a7.93 7.93 0 0 0 1.46-5.274 7.946 7.946 0 0 0-8.568-7.268c-4.376.36-7.632 4.196-7.27 8.57zM16.908 98.022a7.903 7.903 0 0 0 2.09 5.056l12.108-.48a7.918 7.918 0 0 0 1.68-5.204c-.172-4.386-3.87-7.796-8.252-7.626-4.386.178-7.8 3.87-7.626 8.254z"/>
            <ellipse cx="73.689" cy="15.509" fill="#2143AF" rx="15.256" ry="9.574" transform="rotate(19.33 73.689 15.509)"/>
            <g>
                <path fill="#121F55" d="M79.756 101.092a1.99 1.99 0 0 0-1.988-1.988H5.784c-1.51 0-2.744.894-2.744 1.986 0 1.098 1.234 1.988 2.744 1.988h71.984a1.987 1.987 0 0 0 1.988-1.986z"/>
                <path fill="#FFF" d="M82.578 101.09c0 1.098-.962 1.988-2.142 1.988H53.1c-1.176 0-2.138-.89-2.138-1.988 0-1.092.962-1.986 2.138-1.986h27.336c1.18 0 2.142.894 2.142 1.986z"/>
                <path fill="#FFF" d="M3.152 61.854v36.3a2.93 2.93 0 0 0 2.928 2.928h47.892c1.62 0 2.93-1.312 2.93-2.928v-36.3a2.929 2.929 0 0 0-2.93-2.928H6.08a2.928 2.928 0 0 0-2.928 2.928z"/>
                <path fill="#2143AF" d="M.918 61.854v36.3a2.93 2.93 0 0 0 2.928 2.928h47.892a2.93 2.93 0 0 0 2.928-2.928v-36.3a2.928 2.928 0 0 0-2.928-2.928H3.846a2.928 2.928 0 0 0-2.928 2.928z"/>
                <path fill="#FFF" d="M35.69 80.004a3.087 3.087 0 0 0-3.088-3.088h-9.62a3.088 3.088 0 0 0 0 6.176h9.62a3.089 3.089 0 0 0 3.088-3.088z"/>
            </g>
        </g>
        <g fill-rule="nonzero" transform="translate(537 95)">
            <path fill="#F7B75D" d="M28.702 135.432a6.398 6.398 0 0 1-5.18-2.626l-22.184-30.37a6.406 6.406 0 0 1 .226-7.852l28.994-35.21a6.413 6.413 0 0 1 9.02-.876 6.412 6.412 0 0 1 .874 9.024L14.62 98.892l19.25 26.354a6.41 6.41 0 0 1-1.394 8.956 6.409 6.409 0 0 1-3.774 1.23zM71.282 135.374a6.36 6.36 0 0 1-3.778-1.236 6.408 6.408 0 0 1-1.388-8.958L85.45 98.764 59.72 67.48a6.413 6.413 0 0 1 .878-9.024 6.414 6.414 0 0 1 9.022.878l28.892 35.128a6.406 6.406 0 0 1 .22 7.856L76.458 132.75a6.4 6.4 0 0 1-5.176 2.624z"/>
            <circle cx="50.644" cy="20.122" r="18.492" fill="#F7B75D"/>
            <path fill="#F99AB6" d="M57.424 42.836l-.044 17.586-.044 11.498-13.474-.034.678-28.11.19-8z"/>
            <path fill="#F7B75D" d="M30.596 70.392c.044-5.484 4.788-10.796 9.698-13.352 7.352-3.826 18.694-1.162 22.31.988 6.15 3.662 9.816 11.098 9.382 18.742l.43 41.012h-43.55c.002.002 1.63-34.908 1.73-47.39z"/>
            <path fill="#E5E9FF" d="M51.298 82.768c3.198-9.834 6.708-16.706 9.868-25.448-9.68-3.654-19.056-1.612-21.048 0 3.16 8.742 6.668 15.616 9.866 25.448.166.708.646 1.85.658 1.832.012.018.026.056.038.068.032-.114.456-1.192.618-1.9z"/>
            <path fill="#2747B3" d="M51.802 58.016H49.484L47.3 71.31l1.54 8.088 1.802 5.202 1.802-5.202 1.54-8.088z"/>
            <path fill="#F99AB6" d="M54.152 9.54h-7.016c-6.2 0-12 5.076-11.224 11.226.566 4.476 0 7.838 0 14.482 0 5.572 6.526 16.382 12.098 16.382h5.268c5.57 0 12.096-10.81 12.096-16.382 0-6.644-.564-10.006 0-14.482.776-6.15-5.026-11.226-11.222-11.226z"/>
            <path fill="#FFFEFF" d="M44.958 41.612a5.786 5.786 0 0 0 5.684 4.72c2.83 0 5.18-2.036 5.684-4.72H44.958z"/>
            <path fill="#121F55" d="M57.64 157.004H43.646c-10.052 0-17.594-9.198-15.622-19.056l.842-20.164h43.55l.842 20.164c1.974 9.858-5.564 19.056-15.618 19.056z"/>
            <path fill="#2747B3" d="M70.574 143.062H24.028a4.332 4.332 0 0 1-4.332-4.33V107.87a4.33 4.33 0 0 1 4.332-4.328h46.546a4.33 4.33 0 0 1 4.332 4.328v30.862a4.33 4.33 0 0 1-4.332 4.33z"/>
            <path fill="#B8B9F1" d="M70.574 144.896H24.028a4.335 4.335 0 0 1-4.332-4.336v-30.856a4.333 4.333 0 0 1 4.332-4.334h46.546a4.332 4.332 0 0 1 4.332 4.334v30.856a4.332 4.332 0 0 1-4.332 4.336z"/>
            <path fill="#2747B3" d="M53.676 128.426h-12.75a3.26 3.26 0 0 1-3.26-3.26v-.066c0-1.8 1.46-3.258 3.26-3.258h12.75a3.256 3.256 0 0 1 3.258 3.258v.066a3.259 3.259 0 0 1-3.258 3.26z"/>
            <path fill="#F7B75D" d="M50.282 1.626c-12.308 0-22.966 12.972-22.966 12.972 15.334 9.384 26.124 2.494 29.838-.542 1.078-.88 3.276-2.74 3.276-5.18l-10.148-7.25z"/>
            <path fill="#B8B9F1" d="M52.368 58.772c-.66.606-3.01.542-3.636-.1-.6-.614-.804-3.394-.804-3.394l5.43.15c-.002 0-.358 2.768-.99 3.344z"/>
            <path fill="#FFF" d="M44.894 62.214l-4.586-5.524 3.824-4.914 6.51 3.536zM56.39 62.214l4.586-5.524-3.822-4.914-6.512 3.536zM58.254 204.808l3.748-14.074-.272-.008a1.362 1.362 0 1 1 .102-2.724l.89.03.42-1.58-.422-.016a1.364 1.364 0 0 1 .1-2.726l1.044.04 2.356-8.852c.108-.176.244-.34.4-.494.146-.336.31-.668.506-.99a8.103 8.103 0 0 1 11.134-2.7 8.102 8.102 0 0 1 2.698 11.134c-.016.028-.036.05-.054.08-.01.014-.012.03-.022.042l-15.974 26.208c-.252.416-.612.75-1.04 1.018-2.884 1.818-6.494-1.09-5.614-4.388z"/>
            <g transform="translate(56 168)">
                <circle cx="16.112" cy="9.186" r="8.102" fill="#566CD3"/>
                <path fill="#566CD3" d="M6.978 39.728L22.95 13.524a5.873 5.873 0 0 0-1.956-8.074c-2.77-1.688-11.016-1.772-12.706.998L.32 36.362c-.876 3.298 2.73 6.206 5.616 4.388.43-.27.788-.604 1.042-1.022z"/>
                <path fill="#FFF" d="M9.306 17.05a1.367 1.367 0 0 0-1.28-1.672L4.89 15.26a1.364 1.364 0 0 0-.102 2.728l3.136.116a1.363 1.363 0 0 0 1.382-1.054zM8.314 21.34a1.362 1.362 0 0 0-1.28-1.668l-3.132-.118a1.361 1.361 0 0 0-1.38 1.054c-.194.836.42 1.64 1.28 1.67l3.134.12c.652.024 1.23-.42 1.378-1.058z"/>
            </g>
            <path fill="#121F55" d="M29.04 134.094l48.542 34.804-15.266 13.1-43.7-33.366a8.86 8.86 0 0 1-2.036-12.36l.104-.142a8.853 8.853 0 0 1 12.356-2.036z"/>
            <g>
                <path fill="#FFF" d="M54.974 227.458l.966-14.534.26.08a1.365 1.365 0 0 0 .782-2.616l-.856-.256.108-1.632.406.122a1.365 1.365 0 1 0 .778-2.616l-1-.296.608-9.14c-.044-.2-.12-.4-.22-.596a8.075 8.075 0 0 0-.16-1.098 8.095 8.095 0 0 0-9.676-6.128 8.099 8.099 0 0 0-6.13 9.678l.028.094c.002.014 0 .032.006.048l6.72 29.946c.106.474.34.906.658 1.298 2.146 2.648 6.496 1.052 6.722-2.354z"/>
                <g transform="translate(42 188)">
                    <circle cx="8.712" cy="8.848" r="8.1" fill="#F7B75D"/>
                    <path fill="#566CD3" d="M7.562 40.708L.84 10.762a5.88 5.88 0 0 1 4.446-7.02c3.164-.708 11 1.86 11.712 5.026l-2.054 30.886c-.224 3.404-4.572 5.002-6.726 2.352a3.147 3.147 0 0 1-.656-1.298z"/>
                    <path fill="#FFF" d="M12.636 18.482a1.362 1.362 0 0 1 1.746-1.172l3.006.894a1.364 1.364 0 1 1-.78 2.616l-3.008-.896a1.363 1.363 0 0 1-.964-1.442zM12.2 22.864a1.363 1.363 0 0 1 1.744-1.172l3.008.894a1.364 1.364 0 1 1-.778 2.616l-3.008-.894a1.357 1.357 0 0 1-.966-1.444z"/>
                </g>
            </g>
            <path fill="#121F55" d="M64.2 141.754l-23.004 55.124 18.478 2.218 21.036-50.454c1.884-4.512-.25-9.698-4.764-11.582l-.164-.068c-4.514-1.882-9.7.248-11.582 4.762z"/>
        </g>
        <g fill-rule="nonzero">
            <path fill="#8EDEF2" d="M699.622 472.584L691.9 502.15l-25.318 10.554 3.57 8.57 27.444-11.442a4.643 4.643 0 0 0 2.704-3.112l8.304-31.794a4.592 4.592 0 0 0-3.286-5.606l-.088-.024a4.602 4.602 0 0 0-5.608 3.288z"/>
            <path fill="#B9B8F1" d="M689.346 562.516a5.448 5.448 0 0 0 .568-7.03s-.91-1.268-2.548-3.45c-1.654-2.166-3.96-5.308-6.828-8.996a848.688 848.688 0 0 0-8.644-11.054c3.008.176 5.972.342 8.838.488 2.914.138 5.728.278 8.398.404 2.67.112 5.198.216 7.528.312 4.664.184 8.55.26 11.272.352 2.722.068 4.278.082 4.278.082a7.447 7.447 0 0 0 7.51-7.378c.036-3.924-2.998-7.166-6.844-7.484 0 0-1.55-.128-4.268-.304-2.714-.156-6.596-.426-11.256-.662-2.33-.116-4.854-.234-7.524-.366-2.67-.112-5.488-.226-8.402-.352a1627.28 1627.28 0 0 0-18.268-.58l-2.33-.062-.584-.01-.292-.01h-.074l-.592-.004-.04.002-.144.01a8.947 8.947 0 0 0-5.972 2.6 8.991 8.991 0 0 0-2.63 5.458c-.25 2.064.342 4.356 1.508 6.006.796 1.09.694.866.862 1.084l.382.43.768.86c2.052 2.274 4.072 4.512 6.026 6.68a911.782 911.782 0 0 0 10.812 11.73c3.182 3.422 5.912 6.206 7.786 8.182 1.888 1.966 2.992 3.068 2.992 3.068a5.456 5.456 0 0 0 7.712-.006z"/>
            <g transform="translate(673 549)">
                <circle cx="12.978" cy="8.264" r="7.454" fill="#F7B75D"/>
                <path fill="#F7B75D" d="M7.148 37.014l12.46-25.342a5.402 5.402 0 0 0-2.466-7.234c-2.678-1.32-10.24-.708-11.558 1.968L.77 34.482c-.532 3.094 3.016 5.458 5.51 3.552.37-.28.67-.616.868-1.02z"/>
                <path fill="#FFF" d="M5.634 16.806a1.252 1.252 0 0 0-1.776-.766l-2.572 1.31a1.256 1.256 0 0 0-.636 1.466 1.26 1.26 0 0 0 1.778.77l2.57-1.312c.538-.272.804-.888.636-1.468zM6.762 20.702a1.253 1.253 0 0 0-1.776-.768l-2.574 1.31a1.257 1.257 0 0 0 1.142 2.236l2.572-1.312a1.25 1.25 0 0 0 .636-1.466z"/>
                <circle cx="12.978" cy="8.262" r="4.472" fill="#2747B3"/>
            </g>
            <path fill="#2747B3" d="M713.466 453.548l.828 6.148 1.35-.432a2.482 2.482 0 0 0 1.724-2.366c0-.728.322-1.42.876-1.89l3.464-3.548c1.442-1.478 2.458-3.348 2.774-5.388.238-1.524.136-3.188-.85-4.472-1.372-1.782 3.292-6.662-.018-10.762-1.496-1.85-3.846-3.212-4.812-5.2-3.232-6.642-8.086-6.126-11.48-3.734-3.018 2.128-4.334-2.186-10.264-1.446-4.618.574-6.466 3.874-6.088 6.616 0 0-7.872.314-7.872 9.114 0 8.796 9.292 9.892 9.292 9.892l21.076 7.468z"/>
            <path fill="#F99AB6" d="M703.908 446.956l1.304 14.86.864 9.714 11.388-.996-2.598-23.712-.74-6.748z"/>
            <path fill="#F99AB6" d="M712.946 454.374v2.372c-1.846 2.334-4.776 4.126-7.734 5.072l-.652-7.444h8.386z"/>
            <path fill="#F99AB6" d="M700.822 461.318h-1.848c-4.034 0-8.76-7.826-8.76-11.864 0-4.812.41-7.246 0-10.49-.562-4.452 3.64-8.126 8.128-8.126h9.096a6.195 6.195 0 0 1 6.194 6.192v14.758c-.002 5.262-7.548 9.53-12.81 9.53z"/>
            <path fill="#2747B3" d="M699.688 430.838s-.816 6.72 10.53 6.308c0 0-.334 13.27 5.634 14.222l1.056-4.468s2.468-14.552-3.042-17.018c-5.508-2.468-14.178.956-14.178.956z"/>
            <path fill="#F99AB6" d="M719.658 464.208a6.351 6.351 0 0 0-4.316-.872l-5.03.792a14.446 14.446 0 0 0-6.468 2.736c5.282 1.318 11.57.538 15.814-2.656z"/>
            <path fill="#8EDEF2" d="M727.608 473.132c-.428-3.95-4.112-7.764-7.95-8.924-4.244 3.194-10.53 3.972-15.812 2.658-4.138 3.12-6.466 8.362-5.606 13.836l5.332 30.072 27.124-3.68c-.002.002-2.116-24.976-3.088-33.962z"/>
            <path fill="#B9B8F1" d="M627.3 559.254s1.044-1.166 2.91-3.17c1.878-1.99 4.514-4.884 7.766-8.262 3.234-3.394 21.106-21.492 21.106-21.492l.402-.368a15.99 15.99 0 0 1 2.662-1.892 15.692 15.692 0 0 1 5.134-1.822c.162-.03 30.476-2.864 33.084-3.502 4.596-1.122 2.89-9.772 2.89-9.772l27.246-4.178c.196 3.898 2.716 7.682 3.4 10.23 1.09 4.062.43 8.192-1.524 11.566a15.211 15.211 0 0 1-15.174 7.518c-.73.066-1.832.162-3.268.278-2.726.198-6.618.532-11.29.844-2.338.148-4.872.31-7.548.482-2.68.154-5.504.312-8.426.48l-9.016.462-8.056.352c-.1.008-.198.038-.3.068-.048.016-.096.04-.146.06l-.072.042c-.014.002-.022.016-.036.022l-.016.008-.098.086-3.438 3.122-6.72 6.032a939.345 939.345 0 0 1-12.03 10.576c-3.536 3.08-6.556 5.57-8.634 7.352-2.094 1.762-3.31 2.748-3.31 2.748a5.453 5.453 0 0 1-7.056-.174 5.446 5.446 0 0 1-.442-7.696z"/>
            <g transform="translate(597 555)">
                <circle cx="32.99" cy="9.986" r="7.454" fill="#F7B75D"/>
                <path fill="#F7B75D" d="M3.712 8.126l26.804 8.894a5.408 5.408 0 0 0 6.832-3.43c.938-2.834-.694-10.242-3.528-11.184L5.352 1.458c-3.138-.106-5 3.732-2.77 5.944.33.33.706.584 1.13.724z"/>
                <path fill="#FFF" d="M24.528 5.514c.788 0 1.38-.716 1.234-1.49l-.546-2.836a1.256 1.256 0 0 0-2.466.472l.542 2.836c.118.59.634 1.018 1.236 1.018zM20.476 5.514c.79 0 1.382-.716 1.234-1.49l-.546-2.836a1.257 1.257 0 0 0-1.232-1.02c-.788 0-1.382.72-1.234 1.492l.544 2.836a1.26 1.26 0 0 0 1.234 1.018z"/>
                <circle cx="32.99" cy="9.988" r="4.47" fill="#2747B3"/>
            </g>
            <path fill="#FFFEFF" d="M703.208 454.064a4.191 4.191 0 0 1-4.118 3.418 4.19 4.19 0 0 1-4.114-3.418h8.232z"/>
            <path fill="#F99AB6" d="M651.08 508.088a7.919 7.919 0 0 0 4.794-2.666l-1.878-12.008a7.942 7.942 0 0 0-5.38-1.074c-4.348.678-7.322 4.756-6.644 9.108.68 4.346 4.758 7.32 9.108 6.64z"/>
            <path fill="#8EDEF2" d="M726.804 508.824a4.64 4.64 0 0 0 2.944-5.762l-10.44-33.916-8.872 2.732 9.028 29.334-21.958 5.98 2.44 8.956 26.586-7.24c.092-.026.182-.054.272-.084z"/>
            <path fill="#61C8E0" d="M721.745 473.453l7.798 27.567-1.276.36-7.798-27.566zM717.29 493.06l-4.58-16.278-1.584.206 4.58 16.282z"/>
            <path fill="#F99AB6" d="M686.36 510.816a7.935 7.935 0 0 0 1.194 5.356l12.048 1.612a7.97 7.97 0 0 0-4.288-13.812 7.974 7.974 0 0 0-8.954 6.844z"/>
            <path fill="#121F55" d="M707.862 516.822a1.99 1.99 0 0 0-1.988-1.988h-71.982c-1.508 0-2.744.892-2.744 1.988 0 1.094 1.236 1.988 2.744 1.988h71.982a1.99 1.99 0 0 0 1.988-1.988z"/>
            <path fill="#FFF" d="M710.686 516.822c0 1.094-.964 1.988-2.142 1.988h-27.336c-1.178 0-2.14-.894-2.14-1.988 0-1.096.962-1.988 2.14-1.988h27.336c1.178 0 2.142.892 2.142 1.988z"/>
            <path fill="#FFF" d="M631.26 477.584v36.3c0 1.62 1.312 2.93 2.928 2.93h47.892a2.927 2.927 0 0 0 2.928-2.93v-36.3a2.93 2.93 0 0 0-2.928-2.928h-47.892a2.93 2.93 0 0 0-2.928 2.928z"/>
            <path fill="#2143AF" d="M629.026 477.584v36.3c0 1.62 1.312 2.93 2.93 2.93h47.89c1.62 0 2.93-1.31 2.93-2.93v-36.3a2.93 2.93 0 0 0-2.93-2.928h-47.89a2.929 2.929 0 0 0-2.93 2.928z"/>
            <path fill="#FFF" d="M663.798 495.734a3.085 3.085 0 0 0-3.086-3.086h-9.624a3.085 3.085 0 1 0 0 6.172h9.624a3.085 3.085 0 0 0 3.086-3.086z"/>
        </g>
        <g fill-rule="nonzero" transform="translate(419 565)">
            <path fill="#2143AF" d="M49.884 134.61a6.398 6.398 0 0 1-5.18-2.626l-22.186-30.366a6.415 6.415 0 0 1 .228-7.856l28.992-35.208a6.414 6.414 0 0 1 9.024-.876 6.41 6.41 0 0 1 .874 9.02L35.802 98.07l19.252 26.354a6.409 6.409 0 0 1-1.394 8.956 6.396 6.396 0 0 1-3.776 1.23zM92.466 134.554a6.388 6.388 0 0 1-3.782-1.24 6.409 6.409 0 0 1-1.386-8.958l19.334-26.418-25.73-31.284a6.411 6.411 0 0 1 9.9-8.146l28.89 35.126a6.412 6.412 0 0 1 .222 7.86l-22.272 30.43a6.397 6.397 0 0 1-5.176 2.63z"/>
            <circle cx="71.826" cy="19.298" r="18.49" fill="#F7B75D"/>
            <path fill="#F99AB6" d="M78.606 42.016l-.046 17.586-.04 11.496-13.478-.032.68-28.112.194-7.998z"/>
            <path fill="#2143AF" d="M51.78 69.572c.044-5.486 4.786-10.794 9.7-13.352 7.35-3.824 18.69-1.164 22.306.99 6.152 3.658 9.816 11.094 9.386 18.738l.43 41.012h-43.55c-.002 0 1.626-34.91 1.728-47.388z"/>
            <path fill="#F99AB6" d="M81.48 56.164c-5.36-2.256-12.926-3-19.038-.378l4.526 4.528a7.33 7.33 0 0 0 10.362 0l4.15-4.15zM75.332 8.72h-7.014c-6.198 0-12 5.074-11.226 11.222.568 4.48 0 7.838 0 14.484 0 5.572 6.528 16.38 12.098 16.38h5.268c5.574 0 12.098-10.808 12.098-16.38 0-6.646-.564-10.004 0-14.484.778-6.148-5.024-11.222-11.224-11.222z"/>
            <path fill="#FFFEFF" d="M66.142 40.792a5.785 5.785 0 0 0 5.684 4.718 5.786 5.786 0 0 0 5.684-4.718H66.142z"/>
            <path fill="#566CD3" d="M78.82 156.182H64.826c-10.052 0-17.592-9.198-15.62-19.054l.842-20.166H93.6l.84 20.166c1.976 9.856-5.566 19.054-15.62 19.054z"/>
            <path fill="#566CD3" d="M8.1 133.68l59.46-5.668 1.7 17.808-59.46 5.668c-4.868.466-9.194-3.106-9.656-7.972l-.018-.182c-.466-4.868 3.104-9.19 7.974-9.654z"/>
            <path fill="#566CD3" d="M126.8 133.68l-59.46-5.668-1.698 17.808 59.46 5.668c4.868.466 9.19-3.106 9.656-7.972l.018-.182c.464-4.868-3.108-9.19-7.976-9.654z"/>
            <path fill="#FFF" d="M95.098 145.77H48.552a4.33 4.33 0 0 1-4.332-4.33v-30.86a4.331 4.331 0 0 1 4.332-4.332h46.546a4.333 4.333 0 0 1 4.332 4.332v30.86c0 2.39-1.94 4.33-4.332 4.33z"/>
            <path fill="#B9B8F1" d="M95.098 147.602H48.552a4.33 4.33 0 0 1-4.332-4.334v-30.856a4.334 4.334 0 0 1 4.332-4.334h46.546a4.336 4.336 0 0 1 4.332 4.334v30.856a4.332 4.332 0 0 1-4.332 4.334z"/>
            <path fill="#FFF" d="M78.202 131.132H65.45a3.26 3.26 0 0 1-3.258-3.258v-.066c0-1.8 1.46-3.26 3.258-3.26h12.752a3.257 3.257 0 0 1 3.256 3.26v.066a3.258 3.258 0 0 1-3.256 3.258zM48.386 163.934l17.328-1.04-.052.32a1.621 1.621 0 0 0 1.646 1.888 1.63 1.63 0 0 0 1.562-1.362l.17-1.05 1.95-.116-.082.496a1.626 1.626 0 0 0 3.208.53l.202-1.226 10.9-.656c.23-.084.454-.202.67-.35a9.44 9.44 0 0 0 1.274-.356c5.016-1.812 7.61-7.35 5.794-12.364a9.654 9.654 0 0 0-12.366-5.794c-.036.016-.072.032-.106.044-.018.004-.038.008-.056.016l-34.4 12.444c-.546.196-1.02.538-1.436.97-2.808 2.948-.266 7.848 3.794 7.606z"/>
            <g transform="translate(42 144)">
                <circle cx="41.942" cy="10.298" r="9.656" fill="#F7B75D"/>
                <path fill="#F7B75D" d="M4.094 13.722l34.4-12.446a7.001 7.001 0 0 1 8.966 4.202c1.316 3.636-.544 13.288-4.178 14.604L6.45 22.294c-4.062.242-6.604-4.658-3.792-7.6.414-.434.89-.776 1.436-.972z"/>
                <path fill="#FFF" d="M31.138 16.384a1.622 1.622 0 0 1 1.648 1.888l-.606 3.69a1.627 1.627 0 0 1-3.21-.528l.608-3.69a1.623 1.623 0 0 1 1.56-1.36zM25.892 16.524a1.622 1.622 0 0 1 1.648 1.886l-.608 3.694a1.623 1.623 0 0 1-1.56 1.36 1.623 1.623 0 0 1-1.648-1.886l.606-3.692a1.625 1.625 0 0 1 1.562-1.362z"/>
            </g>
            <path fill="#F99AB6" d="M123.178 137.432L83.01 148.24a7.24 7.24 0 0 0-5.112 8.874l.038.138a7.241 7.241 0 0 0 8.874 5.112l40.168-10.806a7.24 7.24 0 0 0 5.112-8.874l-.038-.138a7.237 7.237 0 0 0-8.874-5.114z"/>
            <path fill="#FFF" d="M86.514 163.934l-17.328-1.04.052.32a1.622 1.622 0 0 1-1.646 1.888 1.63 1.63 0 0 1-1.562-1.362l-.172-1.05-1.948-.116.084.496a1.627 1.627 0 0 1-3.21.53l-.204-1.226-10.898-.656a2.94 2.94 0 0 1-.67-.35 9.549 9.549 0 0 1-1.276-.356c-5.014-1.812-7.608-7.35-5.794-12.364 1.816-5.016 7.35-7.61 12.366-5.794.038.016.072.032.108.044.016.004.036.008.054.016l34.402 12.444c.544.196 1.022.538 1.438.97 2.806 2.948.266 7.848-3.796 7.606z"/>
            <g transform="translate(40 144)">
                <circle cx="10.96" cy="10.298" r="9.656" fill="#F7B75D"/>
                <path fill="#F7B75D" d="M48.808 13.722l-34.4-12.446a7.001 7.001 0 0 0-8.966 4.202c-1.316 3.636.542 13.288 4.178 14.604l36.832 2.212c4.06.242 6.604-4.658 3.794-7.6-.416-.434-.896-.776-1.438-.972z"/>
                <path fill="#FFF" d="M21.762 16.384a1.624 1.624 0 0 0-1.65 1.888l.606 3.69a1.627 1.627 0 0 0 3.21-.528l-.608-3.69a1.614 1.614 0 0 0-1.558-1.36zM27.01 16.524a1.622 1.622 0 0 0-1.648 1.886l.608 3.694c.124.77.78 1.338 1.56 1.36a1.62 1.62 0 0 0 1.646-1.886l-.604-3.692a1.627 1.627 0 0 0-1.562-1.362z"/>
            </g>
            <path fill="#F99AB6" d="M11.72 137.432l40.17 10.808a7.241 7.241 0 0 1 5.112 8.874l-.038.138a7.243 7.243 0 0 1-8.876 5.112l-40.17-10.806a7.242 7.242 0 0 1-5.112-8.874l.04-.138c1.04-3.864 5.012-6.156 8.874-5.114z"/>
            <path fill="#F7B75D" d="M71.464.806C59.156.806 48.5 13.776 48.5 13.776c15.336 9.384 26.124 2.496 29.836-.542 1.082-.88 3.276-2.738 3.276-5.178L71.464.806z"/>
        </g>
        <path fill="#B9B8F1" d="M510.392 39.088c-11.13 0-23.244 8.614-23.244 22.982 0 21.866 23.296 44.976 23.296 44.976s23.298-23.484 23.298-44.976c.002-14.368-12.856-22.982-23.35-22.982zm5.774 32.838c-1.554.95-3.458 1.526-5.72 1.556-3.17-.044-5.644-1.158-7.42-2.876-6.53-6.052-4.042-20.038 7.47-20.038 12.458.002 14.344 16.386 5.67 21.358z"/>
    </g>
</svg>
