<svg xmlns="http://www.w3.org/2000/svg" width="1114" height="863" viewBox="0 0 1114 863">
    <defs>
        <linearGradient id="a" x1="53.539%" x2="45.735%" y1="94.585%" y2="-1.31%">
            <stop offset="0%" stop-color="#FFF"/>
            <stop offset="100%" stop-color="#FFF" stop-opacity="0"/>
        </linearGradient>
        <linearGradient id="b" x1="53.623%" x2="45.833%" y1="94.578%" y2="-1.317%">
            <stop offset="0%" stop-color="#FFF"/>
            <stop offset="100%" stop-color="#FFF" stop-opacity="0"/>
        </linearGradient>
    </defs>
    <g fill="none" fill-rule="nonzero">
        <path fill="#2B3C73" d="M22.57 537.13c-3.29.74-14 8.4-17.79 12.73-.77.86-1 2.85-1 5.21a30.82 30.82 0 0 0 7 19.11c4 5 10.09 13.56 17.28 26.88l3.9-3.53a19.74 19.74 0 0 1 20.25-3.58l.25.12c-.29-1-.63-2.09-1-3.09 0 0-17.88-24.94-16.57-33.31 1.34-8.58 3.29-22.51 3.29-22.51l-15.61 1.97z"/>
        <path fill="#101666" d="M27.92 601.18l.13-.12c-4.6-8-8.6-19.13-16.55-28.73-6.93-8.36-7.64-15-6.49-19.11 1.1-3.9 5.76-8.75 5.76-8.75-3.22.6-11.75 10.89-10.44 15.54 3.45 12.24 10.13 14 15.53 22.87 5.56 9.17 8.65 19.59 12.83 23.79 2 2 8 6.57 13.52 5.84 4.73-.64 8.17-2.92 9.63-5.49 2.2-3.88 1.82-8.52.64-12.86 1 3.83 1.32 7.87-.62 11.29-1.3 2.28-4.35 4.31-8.55 4.87-4.88.65-10.22-3.39-12-5.19a31.19 31.19 0 0 1-2.33-2.52c-.36-.44-.72-.91-1.06-1.43z"/>
        <path fill="#FFF" d="M32 597.53l-3.9 3.53-.13.12c.34.52.7 1 1 1.43a31.19 31.19 0 0 0 2.33 2.52c1.79 1.8 7.13 5.84 12 5.19 4.2-.56 7.25-2.59 8.55-4.87 1.94-3.42 1.65-7.46.62-11.29v-.09l-.25-.12A19.74 19.74 0 0 0 32 597.53zM20.79 559.67a6 6 0 0 0 8.62-1.26L41 541.86l-15.92-10.2-7 10c-4.014 5.772-2.825 13.675 2.71 18.01z"/>
        <path fill="#2B3C73" d="M37.81 449.73a29.05 29.05 0 0 0-10.75-4c-3.34.4-10.24-1.42-11.76 1.76-1.16 2.4-.79 2.87-2.29 6.16-4.32 9.5-7.36 28.15-9.78 37.31l4.6.21a17.26 17.26 0 0 1 14.78 10.22l.08.23c.467-.84.897-1.68 1.29-2.52 0 0 4.13-17.15 8-22.64 8.92-12.69 12.15-16.44 12.15-16.44l-6.32-10.29z"/>
        <path fill="#0C022F" d="M22.31 445.62z"/>
        <path fill="#101666" d="M3.07 490.92h.16c2-7.76 6.07-17.72 9.88-26.36 2.24-5.1 1.32-11.1 3-14.56 1.53-3.18 7.63-3.91 11-4.31h.26l-9.26-.83s-4.71 0-6.75 3.69c-2.84 5.17-2.33 14.87-4.45 23.68-2.2 9.08-6.71 17.42-6.7 22.59 0 2.49.93 9 4.8 11.91 3.33 2.51 6.87 3.21 9.37 2.52 3.76-1.05 6.38-4.15 8.32-7.56-1.72 3-4 5.68-7.34 6.6-2.21.61-5.36 0-8.32-2.24-3.43-2.59-4.26-8.36-4.26-10.58a28.84 28.84 0 0 1 .11-3c.034-.52.094-1.037.18-1.55z"/>
        <path fill="#FFF" d="M7.83 491.14l-4.6-.21h-.16a15.37 15.37 0 0 0-.23 1.53 28.84 28.84 0 0 0-.11 3c0 2.22.83 8 4.26 10.58 3 2.23 6.11 2.85 8.32 2.24 3.31-.92 5.62-3.6 7.34-6.6a.43.43 0 0 1 0-.07l-.08-.23a17.26 17.26 0 0 0-14.74-10.24zM50.08 462.24l-5.76 2.31a46.57 46.57 0 0 0-6.49 2.55c-3.47 1.62-8.51-.77-10.24-4.19a10.38 10.38 0 0 1 5.29-14.35l13.5-3.34a2 2 0 0 1 2.46 1.56l2.66 13.11a2 2 0 0 1-1.42 2.35z"/>
        <path fill="#2B3C73" d="M137.74 409.65c-14.09 17.18-85.7 31.13-103.2 34.32a5 5 0 0 0-4.12 4.62l-.11 1.6a24.59 24.59 0 0 0 3 13.42l3.53 6.47s107.9-19.16 128.77-37.94c16.08-14.48 17.15-96 17.15-96v-43.09l-43.35 18.09s2.63 39.41 2 56.1c-.41 7.98 1.4 36.24-3.67 42.41z"/>
        <path fill="#82FBDD" d="M35.09 465.61l-.19-1.26c1-.16 104.08-16 124.52-40.25 19.86-23.62 14.83-120.45 14.78-121.43l1.27-.07c.22 4 5.11 98.31-15.08 122.32-20.74 24.66-121.04 40.08-125.3 40.69z"/>
        <path fill="#2B3C73" d="M123.7 328.15s-15.84 94.61-27.07 124.39c-10.28 27.29-56.6 102-56.6 102h-1.41c-10.849.021-19.939-8.203-21-19 0 0 35.06-63.58 44-86.39 12-30.6 11.59-90.72 11.59-90.72a85.28 85.28 0 0 1-8.12-36.33v-4.46l58.61 10.51z"/>
        <path fill="#82FBDD" d="M84.11 363.9a86.57 86.57 0 0 1-8.18-36.6v-4.47h1.28v4.47a85.31 85.31 0 0 0 8 36.06l-1.1.54z"/>
        <path fill="#82FBDD" d="M26.93 548.47l-1.06-.7c64.32-98.7 58.25-183.25 58.18-184.09l1.27-.1c.07.84 6.17 85.82-58.39 184.89z"/>
        <path fill="#2B3C73" d="M148.64 340.11l-12.26 6.13a39.07 39.07 0 0 0-17.7 17.93l-5.32 11-4.36-63.11 50.67-20.45-11.03 48.5z"/>
        <path fill="#FFA0A8" d="M241.07 239.55l-6.11-2.88a92.32 92.32 0 0 1-50.51-68.79c-4.46-29.11-9.46-52.87-14.56-69.27a5.87 5.87 0 0 1 3.68-7.3 16.45 16.45 0 0 1 21.32 11.27c4.34 16.34 8.44 37 12.23 61.83a69.4 69.4 0 0 0 38 51.68l12.75 8.2-16.8 15.26z"/>
        <path fill="#F3FCFF" d="M207.36 143c1.63 5.19-4 11.27-12 13.8-8 2.53-15.92.37-17.54-4.81-1.62-5.18 3.59-11.44 11.66-14 8.07-2.56 16.26-.23 17.88 5.01z"/>
        <path fill="#F3FCFF" d="M197.58 105.71c-1.47-9.2-12.77-17-23.47-18.36-3.76-.48-12.11-1.56-13.53.16-3.08 3.71 5.35 14.12 6.15 19.08 1.63 10.06 9.1 40.21 10.88 42.1a16.15 16.15 0 0 0 17.31 4.15l1.72-.62a11.59 11.59 0 0 0 7.28-13.82c-1.05-4-2.15-8.48-2.78-11.76-1.34-6.93-1.6-8.73-3.56-20.93z"/>
        <path fill="#36CCE2" d="M53.72 149.72c-2.33-15.69-3-17-3-17s15.11-14 20.63-18c39.25-28.8 89.55-28.51 89.55-28.51 8.36-1.71 12.89 2.15 16.82 12.88l7.31 26a60.62 60.62 0 0 1 2.13 20.19L184 195.62l2.42 35.57A238.55 238.55 0 0 1 189 258l1.29 33a12.84 12.84 0 0 1-7.82 12.32L150 317a3.27 3.27 0 0 1-4.54-3.11l.55-17.86-9.54 26.49-41.12 17.6a12.83 12.83 0 0 1-13-1.79L65.58 325A17.88 17.88 0 0 1 59 308.7l8.58-65.41-13.86-93.57z"/>
        <path fill="#59FAD2" d="M189 258a238.55 238.55 0 0 0-2.57-26.83L184 195.62l2-30.44s-5.66 6.32-8.44 7.7c-12.32 6.12-52 22.29-52 22.29-13.138 6.52-29.013 3.462-38.79-7.47L53.9 151l13.68 92.33L59 308.7a17.88 17.88 0 0 0 6.58 16.3l16.74 13.36c1.84 1.47 6.25 2.68 6.25 2.68s4.58 0 6.75-.89l41.12-17.6 9.54-26.49-.55 17.86A3.27 3.27 0 0 0 150 317l32.45-13.72a12.84 12.84 0 0 0 7.83-12.32L189 258z"/>
        <path fill="#161E3A" d="M61.71 449.14c-1.81 4.58-4.67 10.82-8.09 17.85l-5.22 1c3.81-7.78 7-14.7 9-19.68a94.88 94.88 0 0 0 3.14-9.56c1.54-.32 3.15-.66 4.81-1a100.23 100.23 0 0 1-3.64 11.39zM96.63 452.54a239.87 239.87 0 0 0 7.31-25.11c2.83-.94 5.6-1.91 8.26-2.92-2.75 11.4-5.5 21.35-8 28-.4 1.07-.86 2.21-1.37 3.42-2.83.72-5.66 1.42-8.46 2.1.87-1.97 1.63-3.82 2.26-5.49z"/>
        <path fill="#E3F2EC" d="M102.17 94.48l13.9 20.31 20.48 38.2-15.41-10.6a13.53 13.53 0 0 0-14.58-.48L94.29 153a3.13 3.13 0 0 1-5-1.28l-8-22.82c-5.208-11.385-.262-24.84 11.08-30.14l9.8-4.28zM137.47 79.17a33.5 33.5 0 0 1 31.85 19l8 12.49a1.29 1.29 0 0 1-1.36 1.95l-5.3-1.14a10.79 10.79 0 0 0-11.45 7.4l-8.42 26-17.15-44.51 3.83-21.19z"/>
        <path fill="#FFA0A8" d="M97.67 111.41A102.54 102.54 0 0 1 136 152c3 5.79 10.77 28 13.18 21.92l1.06-23.66a8 8 0 0 0 .56-2.93V85.81l-42.92-5.56-5.91 14.84-4.94 3.74a7.6 7.6 0 0 0 .64 12.58z"/>
        <path fill="#BF787E" d="M150.76 85.81V111l-4.54 2.73a6.62 6.62 0 0 1-6.48.17L114.3 102a9.79 9.79 0 0 1-3.71-3.43 15.22 15.22 0 0 0-1.15-1.69l-5.54-6.76 3.94-9.89 42.92 5.58z"/>
        <path fill="#FFA0A8" d="M110.37 42.91l13.33 5.56 14 2.28 14.07-8.12 1.94-1.12 10-2.42-1.69 33.26-1.25 20.19c.1 2.39 1 4.68-1 5.91l-12.83 7.69a6.6 6.6 0 0 1-6.47.17L115 94.39a9.76 9.76 0 0 1-3.7-3.43 15.3 15.3 0 0 0-1.16-1.69l-13.7-16.69L94 56.33c-4-9.15 0-16.84 0-26.85l-8.83-2 25.2 15.43z"/>
        <path fill="#EA8190" d="M138.25 95.37v2.11l-12.9-5.29-1.27-2.72a38.34 38.34 0 0 0-10-13l-.71-6.35-3.23-1.18 2.36 23.51a9.83 9.83 0 0 0 2.49 1.91l25.45 11.92a6.6 6.6 0 0 0 6.47-.17l12.83-7.69c2.06-1.23 1.14-3.52 1-5.91l.82-13.28-15.32 5a11.67 11.67 0 0 0-7.99 11.14z"/>
        <path fill="#2B3C73" d="M137.16 53.79a3 3 0 0 0-2.5-3.53l-11-1.79-15.51-.44L85.1 27.5a8 8 0 0 1 1.86-5.14l10.9-13.08A27.84 27.84 0 0 1 120.5.75l12-.08a16.5 16.5 0 0 1 8.78 2.46c5.84 3.6 30.69 17.93 31.68 18.59.73.48-1.89 2.78-4.54 4.85a2.72 2.72 0 0 0 1.13 4.82l4.27.88-3.58 3.77a18.17 18.17 0 0 1-14.64 5.62l-1.9-.15-4 4.41a26.54 26.54 0 0 1-10.78 7.22l-1.76.65z"/>
        <path fill="#734A7D" d="M123.7 48.47c-7.35.12-11 12.51-10.2 19.82l-.29 5.62-2.74-1.37-.71-8.45a12.19 12.19 0 0 0-11-8.55c-2 4.44-.74 14.75 1.68 19l2.72 1.52.72 5.58H100c-4.51-8.67-9.82-19.77-11.25-29.44l-3.68-24.69 28.76 19.6 9.87 1.36z"/>
        <path fill="#FFA0A8" d="M173.08 287.9l-74.54-22.5a52.87 52.87 0 0 1-36-37.7c-2.45-9.71-5-20.61-7.45-31.82-3.94-18.4-7.33-37.61-8.6-53.69a11.45 11.45 0 0 1 11.44-12.31 11.47 11.47 0 0 1 11.43 10.58c2 25.61 10.24 61.1 15.41 81.59a30.15 30.15 0 0 0 20.41 21.4l74.55 22.49c6.06 1.833 9.488 8.229 7.66 14.29a11.46 11.46 0 0 1-14.31 7.67z"/>
        <path fill="#F3FCFF" d="M75.2 142.24a14.42 14.42 0 0 0-19-12.51 16.78 16.78 0 0 0-11.27 17.46c1.55 19.5 3.54 35.79 7.58 52.91.91 3.85 7.56 5.24 11.26 3.81l14.49-5.85a5.08 5.08 0 0 0 3.12-5.86c-3.59-15.8-4.13-23.97-6.18-49.96z"/>
        <path fill="#82FBDD" d="M77.18 121.5c-5.43 2.86-11.71 5.29-15.6 10.24-4.12 5.23-4.71 11.24-3.89 17.61 1.48 11.48 3.08 22.95 4.63 34.43.16 1.21 2 .7 1.84-.51a5436.805 5436.805 0 0 0-4.09-30.4c-.91-6.77-1.78-13 2.45-19.12 3.62-5.24 10.15-7.72 15.63-10.6 1.09-.57.12-2.22-1-1.65h.03z"/>
        <path fill="#F3FCFF" d="M80.79 190.1c1.89 6.11-3.36 12.83-11.26 15.26-7.9 2.43-15.83-.54-17.71-6.65-1.88-6.11 3-13 10.89-15.48 7.89-2.48 16.2.77 18.08 6.87z"/>
        <path fill="#FFA0A8" d="M63.4 189.39c6.7-3 13.93 0 15.33 7.18l1.89 8.46-21.06 10.64-3.27-15c-.91-5.13 2.31-9.16 7.11-11.28z"/>
        <path fill="#FFF" d="M153 156l-14.43 7.73c-1.62.87-.18 3.35 1.45 2.47l14.43-7.72c1.62-.88.18-3.35-1.45-2.48zM153.39 164.06L139 171.79c-1.62.87-.18 3.35 1.45 2.48l14.43-7.73c1.62-.87.18-3.35-1.45-2.48h-.04z"/>
        <path fill="#A3C2F4" d="M326.53 284.19a3.38 3.38 0 0 1-2 2.81l-94.36 54.48a7.6 7.6 0 0 1-1 .49l-.17.06a8.79 8.79 0 0 1-1 .29h-.19a8.16 8.16 0 0 1-1.1.19h-.17c-.375.04-.753.06-1.13.06h-.18c-.384 0-.768-.02-1.15-.06h-.2a7.56 7.56 0 0 1-.83-.14l-.68-.17c-.22-.06-.44-.12-.65-.2l-.26-.1a6.92 6.92 0 0 1-1-.45l-56.94-33.09a4.5 4.5 0 0 1-.42-.3 4.57 4.57 0 0 1-.48-.35 3.76 3.76 0 0 1-.54-.6.41.41 0 0 1-.07-.11 2.93 2.93 0 0 1-.33-.63v-.08a2.39 2.39 0 0 1-.12-.7v2.61c.007.134.023.268.05.4.014.082.038.163.07.24v.14c.052.134.112.264.18.39.037.062.077.122.12.18a1 1 0 0 0 .08.11.41.41 0 0 0 .07.11c.126.165.267.32.42.46.14.12.31.23.47.35.16.12.21.17.34.25l.09.05L220.51 344a7.05 7.05 0 0 0 1 .45l.26.1.28.11.36.09.69.17.24.06.58.08H227l.68-.12.18-.05h.19l.34-.09.61-.2.17-.06a6.43 6.43 0 0 0 1-.47l94.36-54.48a3.43 3.43 0 0 0 2-2.81v-2.59z"/>
        <path fill="#C8E7FF" d="M163.61 302.81c-2.67 1.54-2.69 4 0 5.58l56.94 33.09a10.59 10.59 0 0 0 9.65 0L324.52 287c2.67-1.54 2.69-4 0-5.59l-56.94-33.09a10.6 10.6 0 0 0-9.64 0l-94.33 54.49z"/>
        <path fill="#4864BF" d="M272.37 265.81a8.21 8.21 0 0 0-7.43 0l-72.72 42c-2.07 1.19-2.08 3.12 0 4.31l43.88 25.5c.14.08.3.14.45.21l80.1-46.25c-.12-.09-.23-.18-.36-.26l-43.92-25.51z"/>
        <path fill="#A6CEF5" d="M206.94 282.23a.58.58 0 0 0 0 1.1l11.68 6.78c.61.31 1.33.31 1.94 0L239.87 279a.59.59 0 0 0 0-1.11l-11.66-6.78a2.16 2.16 0 0 0-2 0l-19.27 11.12z"/>
        <path fill="#EFF5FC" d="M337.71 220.81h-.06l-.12-.07-.11-.05H336.29l-.24.06-.19.07h-.06l-.43.18-.36.2-95.6 55.19a8.12 8.12 0 0 0-.95.66l-.1.07-.45.38-.07.07h-.06l-.19.18-.27.28-.24.25-.2.23-.2.24-.19.23-.07.1-.07.09-.17.23-.16.23-.15.24a1.74 1.74 0 0 0-.11.18l-.15.25c0 .08-.09.17-.14.26l-.08.16v.07c0 .1-.09.2-.14.29-.05.09-.09.23-.14.34a.49.49 0 0 1 0 .11v.1a2 2 0 0 0-.08.22c-.06.187-.11.377-.15.57l-11.94 59a2.43 2.43 0 0 0 .12 1.68c.074.125.169.237.28.33l1.07.89a2 2 0 0 1-.4-2l12-59a6.26 6.26 0 0 1 .22-.79.3.3 0 0 1 0-.1c.1-.277.217-.548.35-.81a9.12 9.12 0 0 1 .48-.85c.18-.28.38-.57.59-.84.21-.27.43-.54.66-.8.22-.25.46-.48.7-.71l.06-.06c.21-.18.41-.35.62-.51a7.76 7.76 0 0 1 1-.66L336 222c.269-.156.55-.29.84-.4a3.16 3.16 0 0 1 .72-.18 1.52 1.52 0 0 1 .61 0c.175.045.339.127.48.24l-.94-.85z"/>
        <path fill="#ABCCF4" d="M336 222c2.18-1.26 3.58-.5 3.14 1.68l-12 59a10.86 10.86 0 0 1-4.74 6.24l-95.61 55.2c-2.17 1.25-3.57.5-3.13-1.69l12-59a10.87 10.87 0 0 1 4.73-6.23L336 222z"/>
        <path fill="#FFF" d="M292.79 275.34l-10.52 6.07a9.17 9.17 0 0 0-4 5.25l-2.14 10.56c-.38 1.84.81 2.48 2.64 1.42l10.52-6.07a9.22 9.22 0 0 0 4-5.26l2.14-10.55c.37-1.84-.82-2.48-2.65-1.42h.01z"/>
        <path fill="#DDEBFB" d="M292.25 275.34l-10.52 6.07a9.23 9.23 0 0 0-4 5.25l-2.14 10.56c-.37 1.84.82 2.48 2.65 1.42l10.52-6.07a9.16 9.16 0 0 0 4-5.26l2.14-10.55c.38-1.84-.81-2.48-2.64-1.42h-.01z"/>
        <path fill="#FFA0A8" d="M185.29 266.74l-17 19.53 30.84 10.07a15 15 0 0 0 16.62-5.17l4.73-6.18a6.51 6.51 0 0 0-3.58-10.27l-31.61-7.98z"/>
        <path fill="#FFA0A8" d="M199.08 261.59L181 268.35l12.26 3.89 10.2-4.93a3.06 3.06 0 0 0 0-5.52 5.62 5.62 0 0 0-4.38-.2zM250.6 221.69l-6.84 2a9.54 9.54 0 0 0-4.74 15.2l11.38 14a15 15 0 0 0 16.77 4.64l7.32-2.65a6.51 6.51 0 0 0 2.54-10.57l-19.26-20.59a7.11 7.11 0 0 0-7.17-2.03z"/>
        <path fill="#FFA0A8" d="M237.1 248.59l.3-19.33 7.76 10.24-1.22 11.27a3.06 3.06 0 0 1-5.2 1.84 5.51 5.51 0 0 1-1.64-4.02z"/>
        <path fill="#FF6796" d="M149.27 55.62l7.84 20.66a2 2 0 0 1-1.3 2.58 9.33 9.33 0 0 1-7.58-1.12l-1.66-1L144.91 58a3.25 3.25 0 0 1 1.72-3.16l.22-.11a1.72 1.72 0 0 1 2.42.89z"/>
        <path fill="#734A7D" d="M159.91 59.14L157 60.78a1.19 1.19 0 0 1-1.78-1v-7a1.21 1.21 0 0 1 .61-1l2.91-1.64a1.19 1.19 0 0 1 1.78 1v7a1.19 1.19 0 0 1-.61 1z"/>
        <path fill="#442761" d="M164.29 49.91l-13.32 6.3-.2-3.23 13.32-6.3z"/>
        <path fill="#734A7D" d="M138.59 67.42l-2.9 1.64a1.2 1.2 0 0 1-1.79-1v-7a1.21 1.21 0 0 1 .61-1l2.91-1.64a1.19 1.19 0 0 1 1.78 1v7a1.19 1.19 0 0 1-.61 1z"/>
        <path fill="#442761" d="M142.14 59.06l-13.32 6.3-.2-3.23 13.32-6.3z"/>
        <path fill="#FF6796" d="M153.72 93l-2.89.88c-.44.13-1 0-1-.3v-2c0-.12.13-.23.34-.29l2.89-.88c.43-.13 1 0 1 .29v2c-.01.11-.14.23-.34.3z"/>
        <path fill="#442761" d="M146.71 90.57a9.56 9.56 0 0 1-2.76-.41l-2.27-.69a.62.62 0 0 1-.42-.79.63.63 0 0 1 .79-.43l2.27.69a8.3 8.3 0 0 0 4.71 0l6-2.41a.91.91 0 0 1 1.18.5.37.37 0 0 1-.21.48l-6.54 2.63a9.9 9.9 0 0 1-2.75.43z"/>
        <path fill="#82FBDD" d="M105.43 58.02l27.13 6.5v2.6l-24.54-6.3z"/>
        <path fill="#82FBDD" d="M169.64 46.7a1.52 1.52 0 0 0-2.36-1.48l-12.6 6.28a4.47 4.47 0 0 0-2.13 2.85l-4.18 2a1.46 1.46 0 0 0-2.18-.64L133.58 62a4.43 4.43 0 0 0-2.23 3.76l.2 8.85c-.2 5 3.62 4.83 4.88 4.2l6.38-3.18a10.29 10.29 0 0 0 5.93-10l-.16-6.81 3.9-1.86.16 6.72c.09 3.84 2.89 5.59 6.26 3.91l8.8-4.38a4.48 4.48 0 0 0 2.24-3.78l-.3-12.73zm-26.88 26.77l-7 3.52a1.42 1.42 0 0 1-2.22-1.34l-.25-10.82a.78.78 0 0 1 .4-.67l12.6-6.27a.26.26 0 0 1 .41.25l.2 8.46a8.1 8.1 0 0 1-4.14 6.87zm23.36-11.64l-7.77 3.84c-2.31 1.15-3.76-.26-3.82-2.9l-.2-8.46a.78.78 0 0 1 .4-.66l12.59-6.27a.28.28 0 0 1 .43.26l.26 11.07a3.7 3.7 0 0 1-1.89 3.12z"/>
        <g fill="#43397B" opacity=".2">
            <path d="M94.7 687.63a73.54 73.54 0 0 0-9.35-2.29 31.24 31.24 0 0 0-9-4.34c-16.59-5.41-43.39-5.41-59.87 0-16.48 5.41-16.39 14.19.19 19.6a72.25 72.25 0 0 0 9.35 2.3 31.07 31.07 0 0 0 9 4.33c16.59 5.41 43.39 5.41 59.87 0 16.48-5.41 16.4-14.18-.19-19.6z"/>
        </g>
        <g transform="translate(645 21)">
            <path fill="#442761" d="M381.78 110.21a22.18 22.18 0 0 0-5 .59c1.3-12.94 1.93-25.12 1.93-34.89 0-41.78-21-75.66-46.88-75.66-66.23 0-46.88 33.88-46.88 75.66 0 41.78.23 115.39 55.49 118.69 9.54.57 18-2.66 23.79-19.53 4.82 5 10.93 8 17.58 8 15.56 0 28.17-16.31 28.17-36.42 0-20.11-12.64-36.44-28.2-36.44z"/>
            <path fill="#FFA0A8" d="M278.45 97.46c-3.66 28.69-6 54.42-23.31 79.34-12.82 18.48-32.43 32.83-49.11 47.68-9.2 8.2 4.35 21.68 13.52 13.52 11.48-10.23 23.31-20.17 34.46-30.78 23.11-22 36.06-51 40-82.29l3.51-27.47c.65-5.13-4.86-9.56-9.56-9.56-5.71 0-8.9 4.41-9.56 9.56h.05z"/>
            <path fill="#FFF" d="M263 144c-.48 2.06.34 4.24 2.09 6.21 2.29 2.58 6.3 4.31 11 5.39s8.77 1.3 11.93.09c2.59-1 4.4-2.64 4.9-4.78 1.1-4.76-4.7-10.16-13-12.07-8.3-1.91-15.79.39-16.92 5.16z"/>
            <path fill="#F3FCFF" d="M283.144 86.341l17.05 3.94a3.53 3.53 0 0 1 2.645 4.234l-13.11 56.745a3.23 3.23 0 0 1-3.875 2.42l-17.625-4.072a3.23 3.23 0 0 1-2.42-3.875l13.11-56.745a3.53 3.53 0 0 1 4.235-2.644l-.01-.003z"/>
            <path fill="#3F3170" d="M450.78 503.7l5.55 3.45c2.49 4 4.81 8.4 4.08 12.06a5.57 5.57 0 0 0-1.59 3.39c-1.57 8.8-5.4 29.31-8.11 35l-2.53 5.3a33.65 33.65 0 0 1-16.33 16.11 22.73 22.73 0 0 1-5-19.43l9-43 11.17-12.35a2.93 2.93 0 0 1 3.76-.53z"/>
            <path fill="#FFA0A8" d="M444.84 520.47a6 6 0 0 1-8.62-1.26l-11.63-16.54 15.92-10.2 7 10c4.012 5.762 2.841 13.651-2.67 18z"/>
            <path fill="#3F3170" d="M435.67 470.66v-60.23a4.22 4.22 0 0 1 4.22-4.22h8.79c2.26 0 6.63 2.68 6.63 4.93l-2.54 42.42c-.006 9.442-7.658 17.094-17.1 17.1z"/>
            <path fill="#FFA0A8" d="M446.47 421.59c0-7-3.83-10.45-10.8-10.45v37.06c4.18-.88 6.79-1.11 10.74.85.04-.413.06-.833.06-1.26v-26.2z"/>
            <path fill="#FFA0A8" d="M423.26 424.77l6 1.75a46.34 46.34 0 0 1 6.71 1.91c3.61 1.27 8.38-1.6 9.78-5.17 2.51-6.44-1.55-12.11-6.67-13.77l-13.75-2a2 2 0 0 0-2.31 1.79l-1.36 13.31a2 2 0 0 0 1.6 2.18z"/>
            <path fill="#8467EC" d="M327.89 370.46c13.8 16.82 82.83 30.56 102.07 34.11a6.53 6.53 0 0 1 5.33 6 26 26 0 0 1-3.13 14.24l-2.8 5.13a1.48 1.48 0 0 1-1.58.76c-11.2-2-107.11-21.18-127.71-37.75-20-16.05-2.72-138.21-2.72-138.21l47.19.82c.94.07 12.36 8.52 12.09 9.43-2.46 8.36-19.49 52.68-22.58 65.83-2.45 10.45-11.23 33.46-6.16 39.64z"/>
            <path fill="#59FAD2" d="M430.54 426.41l.19-1.26c-1-.15-104.82-15.35-124.52-40.25-14.31-18.09 8.33-123.35 8.38-124.33l-1.27-.07c-.22 4-21.74 109.35-8.08 125.22 21.02 24.43 121.04 40.05 125.3 40.69z"/>
            <path fill="#7D61DF" d="M324.82 265.69s33 117.87 44.18 147.65c10.28 27.29 56.6 102 56.6 102h1.4c10.849.021 19.939-8.203 21-19 0 0-35.06-63.58-44-86.39-6.63-16.83-9.47-42.61-10.69-62.38a140.36 140.36 0 0 1 4.54-43.45c1.77-6.91 2.68-26.78 2.68-34L399 256.76l-74.18 8.93z"/>
            <path fill="#59FAD2" d="M381.52 324.7c5.35-11.37 8.18-36.77 8.18-49.34v-4.47h-1.28v4.47c0 12.38-2.78 37.59-8.05 48.8l1.15.54z"/>
            <path fill="#59FAD2" d="M438.7 509.27l1.06-.7c-64.32-98.7-58.25-183.24-58.18-184.09l-1.27-.1c-.07.85-6.17 85.83 58.39 184.89z"/>
            <path fill="#7D61DF" d="M309.09 253.44a144 144 0 0 0 28.67 58.88c4.35 5.36 8 10.18 9.19 12.65a3.17 3.17 0 0 0 6-1.2l3.53-61.38a3.16 3.16 0 0 0-2-3.12l-42.94-17.33a3.18 3.18 0 0 0-4.28 3.65l1.83 7.85z"/>
            <path fill="#59FAD2" d="M394.06 135.46s4.52-7-15.2-15.31c-14.79-6.21-41.79-18.44-62-27.71A25.4 25.4 0 0 0 282 108l-1.47 4.67a60.62 60.62 0 0 0-2.13 20.19s5.9 47.24 11.74 61.85C300.28 220 297 249 297 249c0 6.43-.26 7.17 5.55 9.93 0 0 68.74 34.66 93.73 3.63 1.92-2.38 2.88-4.51 2.71-5.75-19.87-38.71-18.84-43.37-11.18-86.21l6.25-35.14z"/>
            <path fill="#36CCE2" d="M396.27 262.51c1.81-2.47 2.88-4.51 2.71-5.75-18.47-36-18.87-37.18-12.69-77.14l-21 21.45a19.55 19.55 0 0 1-22.41 3.93l-5.71-2.74s29.36 21.6 28.35 40.65c-.74 14-1.28 24.33-1.59 31.94 12.95.4 25.31-2.76 32.34-12.34z"/>
            <path fill="#2B3C73" d="M403.92 409.94c1.81 4.58 4.67 10.82 8.09 17.85l5.22 1c-3.81-7.78-7-14.7-9-19.68a95.73 95.73 0 0 1-3.14-9.56l-4.81-1a100.69 100.69 0 0 0 3.64 11.39zM369 413.34a239.87 239.87 0 0 1-7.31-25.11c-2.83-.93-5.6-1.91-8.26-2.92 2.75 11.41 5.5 21.35 8 28 .4 1.07.86 2.22 1.37 3.42 2.83.72 5.66 1.43 8.46 2.11-.87-1.97-1.63-3.84-2.26-5.5z" opacity=".4"/>
            <path fill="#FFA0A8" d="M343.43 131.48c-6.52 6.64-27.62 24.93-27.62 24.93s-9.25-25.91-9.48-35c-.2-8 6.36-29.22 8.39-30.77l10.21 4.48 31.43 14.71c3.57 2.74-8.51 17.17-12.93 21.65zM373.22 136.14c-3.747 29.433-7.5 58.863-11.26 88.29 1.58-2.747 3.157-5.497 4.73-8.25l-71.23 47.16c-10.21 6.76-.65 23.32 9.64 16.5l64.63-42.78c3-2 7.08-4 9.29-6.84 2.41-3.13 2.43-8.77 2.93-12.69 1.933-15.127 3.867-30.26 5.8-45.4l4.59-36c.65-5.13-4.86-9.56-9.56-9.56-5.71 0-8.9 4.41-9.56 9.56v.01z"/>
            <path fill="#59FAD2" d="M271.72 157.34c-2.93 7-1.06 15.37 4.45 20l16.42 19.56 1.64-72.28-22.51 32.72z"/>
            <path fill="#FFA0A8" d="M448.05 546.42l5.09-28.09a15 15 0 0 0-2.42-11.2l-2.75-4-10.73 14.9-7.43 37.52a14.6 14.6 0 0 1 10.89 1.64l.28.17a17.05 17.05 0 0 0 7.07-10.94z"/>
            <path fill="#3F3170" d="M456.83 413.67h-9.4v-7.46h7.23a2.17 2.17 0 0 1 2.17 2.17v5.29z"/>
            <path fill="#BF787E" d="M327.81 120.43c-6.042 0-10.94-4.898-10.94-10.94V88.58L338.74 51v58.45a10.93 10.93 0 0 1-10.93 10.98z"/>
            <path fill="#FFA0A8" d="M293 34.83l-1.86 11.2a72.48 72.48 0 0 0 4.42 39.42l5.16 12.61a4.3 4.3 0 0 0 3.8 2.67s3 1.35 9.73 0 17.42-5.13 21.78-7.93c7.7-4.94 7.7-27.24 7.7-27.24V30.48L293 34.83z"/>
            <ellipse cx="316.72" cy="30.48" fill="#442761" rx="38.73" ry="18.71"/>
            <ellipse cx="314.26" cy="20.25" fill="#5B3482" rx="28.87" ry="10.95"/>
            <path fill="#834BBC" d="M367.58 92.27a14.64 14.64 0 0 1-7.41-2.23c-20.57-12-20.8-45-20.63-51.47l6.22-3.23c-.09 3.59-.22 38.77 17.62 49.2 3.59 2.1 6.39 1.75 8.32-1 2.43-3.49 2.26-9-.34-11.14-1.64-1.34-10.29-5.37-7.47-6.64a11.15 11.15 0 0 1 11.51 1.72c5.71 4.69 5.39 14.14 1.53 19.7a11.39 11.39 0 0 1-9.35 5.09z"/>
            <path fill="#442761" d="M370.16 90a14.69 14.69 0 0 1-7.41-2.24c-20.57-12-20.79-45-20.63-51.47l6.22-3.23c-.09 3.6-.22 38.77 17.62 49.2 3.59 2.1 6.39 1.76 8.32-1 2.43-3.49 2.26-9-.34-11.14a4.8 4.8 0 0 0-4.86-.83 8.71 8.71 0 0 1-3.92.81l-3.37-.14a7.51 7.51 0 0 1 4.69-6.49 11.14 11.14 0 0 1 11.51 1.72c5.72 4.69 5.4 14.15 1.53 19.7a11.38 11.38 0 0 1-9.36 5.11z"/>
            <path fill="#FF6796" d="M310.11 91.18c0 .78-.93 1.4-2.07 1.4-1.14 0-2.07-.62-2.07-1.4 0-.78.92-1.41 2.07-1.41s2.07.63 2.07 1.41z" opacity=".77"/>
            <path fill="#442761" d="M310.41 88.18c-4.75.41-6.61-1.21-7-2a.65.65 0 0 1 .06-.86.58.58 0 0 1 .78 0c.66.69 2.36 2.06 6.06 1.62 4.23-.69 6-2.67 6.33-3.15a.59.59 0 0 1 .72-.21.59.59 0 0 1 .24.88 10.84 10.84 0 0 1-7.19 3.72z"/>
            <path fill="#FF6796" d="M308.42 65.27a1.19 1.19 0 0 0-2.22-.49l-5.11 8.77a2.8 2.8 0 0 0 2.39 4.22l3.41-.55a2.8 2.8 0 0 0 2.33-3l-.8-8.95z"/>
            <path fill="#442761" d="M316.72 68.63c2.48-.48 8.87-.7 11.13.74 2.08 1.32 1.18-1.22-.89-2.53-3.28-2.09-6.41-1.05-10-.36-2.41.46-3.7 2.61-1.29 2.15h1.05zM291.21 61.37c1.39.44 8.13 3 9.32 3.63 1 .53.46-2-2.47-3.46a29 29 0 0 0-4.65-2.11c-2.35-.75-3.9.72-1.56 1.46l-.64.48z"/>
            <path fill="#FFA0A8" d="M336.91 69.84c1.63 2.82 6 3.34 9.78 1.16 3.78-2.18 5.5-6.22 3.88-9-1.62-2.78-6-3.34-9.78-1.16-3.78 2.18-5.51 6.16-3.88 9z"/>
            <path fill="#FFF" d="M361.43 182.74c-.31 2.09.68 4.2 2.58 6 2.49 2.39 6.61 3.8 11.37 4.51 4.61.69 8.84.59 11.9-.86 2.51-1.19 4.18-3 4.5-5.15.72-4.83-5.49-9.76-13.87-11-8.38-1.24-15.76 1.67-16.48 6.5z"/>
            <path fill="#F3FCFF" d="M376.888 123.752l17.31 2.578a3.53 3.53 0 0 1 2.97 4.011l-8.577 57.605a3.23 3.23 0 0 1-3.67 2.719l-17.894-2.664a3.23 3.23 0 0 1-2.719-3.671l8.579-57.605a3.53 3.53 0 0 1 4.011-2.971l-.01-.002z"/>
            <path fill="#FFA0A8" d="M207.48 226.5l6.26 3.39a9.55 9.55 0 0 1 1.4 15.87L201.05 257a15 15 0 0 1-17.37 1l-6.59-4.14a6.51 6.51 0 0 1-.23-10.87l23.2-16a7.09 7.09 0 0 1 7.42-.49z"/>
            <path fill="#FFA0A8" d="M215 255.65l3.82-18.95-9.76 8.36-1.2 11.27a3.05 3.05 0 0 0 4.68 2.9 5.49 5.49 0 0 0 2.46-3.58zM306.66 256.17l-8.77 3.13-4.57-.5-14.63-1.58a5.57 5.57 0 0 0-4.16 1.27 3.06 3.06 0 0 0 1.36 5.34l5.94 1.21-17.12 9.29a6.52 6.52 0 0 0-.93 10.84l6.11 4.82a15 15 0 0 0 17.38.9l27.4-17.38-8.01-17.34z"/>
            <path fill="#A3C2F4" d="M125.74 270.25a3.43 3.43 0 0 0 2 2.82l94.36 54.48a6.63 6.63 0 0 0 1 .49l.17.06c.308.11.622.203.94.28h.2c.36.084.723.147 1.09.19h.17c.379.04.76.06 1.14.06h.18c.384 0 .768-.02 1.15-.06h.2l.83-.14.68-.17a6 6 0 0 0 .64-.2l.27-.1a7.53 7.53 0 0 0 1-.45l56.94-33.09a4.5 4.5 0 0 0 .42-.3c.16-.12.34-.23.48-.35a3.76 3.76 0 0 0 .54-.6l.07-.11a2.68 2.68 0 0 0 .32-.63v-.08a2.38 2.38 0 0 0 .11-.7v2.55a.13.13 0 0 1 0 .06c.015.13.015.26 0 .39 0 .09-.05.17-.07.25v.14a2.64 2.64 0 0 1-.18.38c0 .07-.09.13-.13.19l-.07.11-.08.11a3 3 0 0 1-.42.45s-.31.23-.48.35c-.17.12-.21.17-.34.25h-.08l-56.94 33.09a6.92 6.92 0 0 1-1 .45l-.26.1-.28.11c-.12 0-.25 0-.37.09l-.68.17-.25.06-.58.08h-3.08c-.22 0-.45-.07-.67-.12h-.18l-.19-.05-.34-.08a6.26 6.26 0 0 1-.61-.21H223.14a7.52 7.52 0 0 1-1-.47l-94.36-54.48a3.43 3.43 0 0 1-2-2.82l-.04-2.55z"/>
            <path fill="#E6F6FF" d="M288.67 288.87c2.67 1.55 2.69 4 0 5.59l-56.94 33.09a10.66 10.66 0 0 1-9.65 0l-94.36-54.48c-2.68-1.55-2.69-4.05 0-5.59l56.93-33.09a10.63 10.63 0 0 1 9.65 0l94.37 54.48z"/>
            <path fill="#FFA0A8" d="M206.64 227l6.26 3.39a9.56 9.56 0 0 1 1.4 15.87l-14.09 11.22a15.05 15.05 0 0 1-17.38 1l-6.59-4.15a6.51 6.51 0 0 1-.23-10.87l23.2-16a7.13 7.13 0 0 1 7.43-.46z"/>
            <path fill="#FFA0A8" d="M214.11 256.17l3.81-18.95-9.76 8.36-1.2 11.27a3.07 3.07 0 0 0 4.69 2.91 5.58 5.58 0 0 0 2.46-3.59zM305.81 256.69l-8.77 3.13-4.57-.49-14.63-1.58a5.52 5.52 0 0 0-4.16 1.26 3.07 3.07 0 0 0 1.36 5.35l5.94 1.2-17.12 9.3a6.51 6.51 0 0 0-.93 10.83l6.11 4.82a15 15 0 0 0 17.38.9L313.8 274l-7.99-17.31z"/>
            <path fill="#4864BF" d="M179.91 251.88a8.18 8.18 0 0 1 7.43 0l72.72 42c2.06 1.19 2.07 3.12 0 4.3l-43.88 25.5a4.49 4.49 0 0 1-.44.21l-80.1-46.24a3.32 3.32 0 0 1 .36-.26l43.91-25.51z"/>
            <path fill="#A6CEF5" d="M245.34 268.29a.59.59 0 0 1 0 1.11l-11.67 6.78a2.16 2.16 0 0 1-2 0L212.4 265a.59.59 0 0 1 0-1.11l11.66-6.78a2.18 2.18 0 0 1 2 0l19.28 11.18z"/>
            <path fill="#EFF5FC" d="M114.57 206.88h.06l.11-.07.12-.06H115.99l.24.06.19.07h.06l.43.19.35.19 95.61 55.2c.33.2.648.42.95.66l.09.06.45.39.08.06.06.06.19.18.27.27c.08.09.16.17.23.26l.2.23.2.24.18.23.08.1.07.1.17.23.16.23.15.24c0 .06.07.12.11.17l.14.25.15.26.08.17v.07c0 .1.09.19.13.29.04.1.1.23.14.34a.49.49 0 0 1 0 .11.42.42 0 0 1 0 .1 1.8 1.8 0 0 0 .08.21c.06.19.106.384.14.58l11.95 59a2.43 2.43 0 0 1-.13 1.68 1.09 1.09 0 0 1-.27.33l-1.07.89a2 2 0 0 0 .4-2l-12-59a6.76 6.76 0 0 0-.22-.79.36.36 0 0 1 0-.09c-.1-.27-.22-.54-.35-.82-.14-.29-.31-.57-.48-.85a9.64 9.64 0 0 0-.58-.84 8.6 8.6 0 0 0-.67-.8 9.51 9.51 0 0 0-.71-.71l-.06-.06c-.2-.18-.41-.35-.62-.52a8 8 0 0 0-1-.65l-95.6-55.2a5.82 5.82 0 0 0-.85-.4 3.1 3.1 0 0 0-.72-.17 1.75 1.75 0 0 0-.61 0 1.19 1.19 0 0 0-.48.23l1.27-.9z"/>
            <path fill="#ABCCF4" d="M116.24 208.09c-2.18-1.26-3.59-.5-3.14 1.68l11.94 59a10.92 10.92 0 0 0 4.75 6.24l95.6 55.19c2.18 1.26 3.58.51 3.14-1.68l-12-59a10.82 10.82 0 0 0-4.74-6.22l-95.55-55.21z"/>
            <path fill="#FFF" d="M159.49 261.41l10.51 6.07a9.14 9.14 0 0 1 4 5.25l2.14 10.56c.37 1.84-.81 2.48-2.65 1.42L163 278.64a9.16 9.16 0 0 1-4-5.26l-2.14-10.56c-.37-1.84.81-2.47 2.65-1.41h-.02z"/>
            <path fill="#DDEBFB" d="M160 261.41l10.52 6.07a9.17 9.17 0 0 1 4 5.25l2.14 10.56c.38 1.84-.81 2.48-2.64 1.42l-10.52-6.07a9.25 9.25 0 0 1-4-5.26l-2.14-10.56c-.37-1.84.82-2.47 2.65-1.41H160z"/>
            <g fill="#FFF" opacity=".6">
                <path d="M175.69 251.14a3.56 3.56 0 0 1-1.74-.55L100 207.9a9 9 0 0 1-4-5.25L86.79 157a2 2 0 0 1 .61-2.22c.39-.28 1.26-.62 2.77.25l73.93 42.69a9 9 0 0 1 4 5.24l9.24 45.6a2 2 0 0 1-.61 2.24 1.73 1.73 0 0 1-1.04.34zm-87.28-95.36a.48.48 0 0 0-.27.07c-.15.11-.19.48-.1.94l9.24 45.61a7.86 7.86 0 0 0 3.37 4.4l73.93 42.68c.7.41 1.2.46 1.38.32.18-.14.2-.48.1-.94l-9.23-45.61a7.84 7.84 0 0 0-3.36-4.39l-73.94-42.69a2.43 2.43 0 0 0-1.12-.39z" opacity=".8"/>
                <path d="M3.24 26.22c-1.68-1-2.77-.39-2.43 1.3l9.24 45.61a8.42 8.42 0 0 0 3.67 4.82l73.94 42.69c1.68 1 2.76.39 2.42-1.31l-9.24-45.6a8.4 8.4 0 0 0-3.66-4.82L3.24 26.22z"/>
            </g>
            <g fill="#F3FCFF" opacity=".5">
                <path d="M107.15 145.64c-1.69-1-2.78-.39-2.43 1.3l9.24 45.61a8.38 8.38 0 0 0 3.67 4.82l73.93 42.69c1.68 1 2.77.39 2.43-1.3l-9.24-45.61a8.42 8.42 0 0 0-3.67-4.82l-73.93-42.69z"/>
            </g>
            <path fill="#442761" d="M315.06 58.34c1.26-.23 8.71 2.86 11.39 3.08l-11.39-3.08z"/>
            <path fill="#442761" d="M315.06 58.82c1.75-.13 3.94 1 5.56 1.52a29.5 29.5 0 0 0 5.83 1.55c.61.07.61-.88 0-.95a35.6 35.6 0 0 1-6.62-1.86c-1.44-.47-3.22-1.33-4.77-1.22-.61 0-.62 1 0 1v-.04zM291.87 55.29c2.07.13 6.2.16 8.27.06l-8.27-.06z"/>
            <path fill="#442761" d="M291.87 55.77c2.75.15 5.52.18 8.27.06.62 0 .62-1 0-1-2.75.11-5.52.09-8.27-.07-.61 0-.61.92 0 1v.01z"/>
            <g fill="#43397B" opacity=".2">
                <path d="M456.24 649.46a71.48 71.48 0 0 0-9.35-2.29 30.86 30.86 0 0 0-9-4.34c-16.59-5.41-43.39-5.41-59.87 0-16.48 5.41-16.39 14.19.2 19.6a71.48 71.48 0 0 0 9.35 2.29 30.86 30.86 0 0 0 9 4.34c16.59 5.41 43.39 5.41 59.87 0 16.48-5.41 16.39-14.19-.2-19.6z"/>
            </g>
        </g>
        <g>
            <path fill="#2B3C73" d="M867.44 587.8c8.6 5 8.65 13 .1 18L431.43 859.24c-8.55 5-22.46 5-31.06 0l-219-126.44c-8.6-5-8.63-13-.09-18l436.11-253.44c8.55-5 22.45-5 31 0L867.44 587.8z" opacity=".3"/>
            <path fill="#2B3C73" d="M293.48 578.54c-7.53-4.35-7.56-11.39-.08-15.74l4.69-2.72c7.48-4.35 19.64-4.36 27.17 0l4.71 2.72c7.54 4.35 7.58 11.4.09 15.75l-4.68 2.72c-7.49 4.35-19.65 4.35-27.19 0l-4.71-2.72v-.01zM711 345.83l108 62.33-61.38 35.68-30.68 17.82-275.59 160.16L223 490l367.65-213.66L711 345.83zm-15.64-29.66l6.57-3.82 54.52 31.48-6.57 3.81-54.52-31.47zm163 63.7l-219-126.44c-8.6-5-22.51-5-31.06 0L172.16 506.87c-8.55 5-8.49 13 .11 18l219 126.44c8.6 5 22.5 5 31 0l436.12-253.45c8.55-5 8.5-13-.1-18l.07.01z"/>
            <path fill="#F3FCFF" d="M590.61 276.35L222.96 490.01l228.3 131.81 275.59-160.16-107.96-62.32-39.47 22.94 103.14 59.55-69.48 40.37-103.14-59.55-75.3 43.76 103.15 59.55-61.38 35.66-103.13-59.55-20.54 11.94-120.35-69.48 266.16-154.68 30.68-17.82 61.38-35.68z"/>
            <path fill="#202D56" d="M756.41 343.83l-54.52-31.48-6.57 3.82 54.52 31.47 6.57-3.81zM324.71 568l-8.42-4.86a10.19 10.19 0 0 0-9.22 0l-8.35 4.86c-2.54 1.47-2.52 3.87 0 5.34l8.41 4.85a10.18 10.18 0 0 0 9.23 0l8.36-4.86c2.53-1.47 2.5-3.87 0-5.34l-.01.01zm-26.93 5.9c-3.08-1.78-3.1-4.68 0-6.46l8.35-4.86a12.33 12.33 0 0 1 11.16 0l8.41 4.86c3.08 1.78 3.1 4.68 0 6.46l-8.35 4.85a12.33 12.33 0 0 1-11.16 0l-8.41-4.85zm32.19-11.11l-4.71-2.72c-7.53-4.35-19.69-4.34-27.17 0l-4.69 2.72c-7.48 4.35-7.45 11.39.08 15.74l4.71 2.72c7.54 4.35 19.7 4.35 27.19 0l4.68-2.72c7.49-4.35 7.45-11.4-.09-15.75v.01z"/>
            <path fill="#2B3C73" d="M298.75 573.34c-2.55-1.47-2.57-3.87 0-5.34l8.35-4.86a10.19 10.19 0 0 1 9.22 0l8.42 4.86c2.54 1.47 2.57 3.87 0 5.34l-8.36 4.86a10.18 10.18 0 0 1-9.23 0l-8.41-4.85.01-.01zm26.92-5.9l-8.41-4.86a12.33 12.33 0 0 0-11.16 0l-8.35 4.86c-3.07 1.78-3 4.68 0 6.46l8.41 4.85a12.33 12.33 0 0 0 11.16 0l8.35-4.85c3.07-1.78 3-4.68 0-6.46z"/>
            <path fill="#2FF9C7" d="M818.91 408.16l-107.95-62.32-61.39 35.67 107.96 62.33 61.38-35.68z"/>
            <path fill="#9CFFD7" d="M757.53 443.84l-107.96-62.33-30.68 17.83 107.96 62.32 30.68-17.82z"/>
            <path fill="#A7CCFF" d="M682.56 481.83l-103.14-59.55-69.48 40.37 103.14 59.55 69.48-40.37zM537.79 565.96l-103.15-59.55-61.36 35.66 103.13 59.55 61.38-35.66z"/>
            <path fill="#82FBDD" d="M386.59 425.24l7.09-4.12L459.29 459l-7.09 4.12-65.61-37.88zm22.15-12.87l7.09-4.12 65.6 37.88-7.09 4.12-65.6-37.88zm22.14-12.87l7.09-4.12 65.61 37.88-7.09 4.12-65.61-37.88zM453 386.64l7.09-4.12 65.6 37.87-7.09 4.12-65.6-37.87zm22.14-12.87l7.09-4.12 65.61 37.87-7.09 4.13-65.61-37.88zm46-13.17l3.74-2.18 44.61 25.75-3.75 2.18-44.6-25.75zm37.57 4c-12.32-7.12-12.39-18.64-.15-25.75 12.24-7.11 32.14-7.12 44.46 0s12.38 18.64.15 25.75c-12.23 7.11-32.15 7.11-44.46 0zM711 345.83l-120.35-69.48-92.06 53.5-266.2 154.68L352.74 554l20.54-11.94 61.37-35.66 75.29-43.76 69.48-40.37 39.47-22.95 30.68-17.82L711 345.83z"/>
            <path fill="#F3FCFF" d="M581 371.18c-8.28 0-16.57-1.83-22.9-5.48-6.33-3.65-9.91-8.67-9.92-14-.01-5.33 3.46-10.27 9.77-13.94 12.57-7.3 33.09-7.3 45.74 0 6.39 3.69 9.91 8.67 9.91 14s-3.46 10.28-9.76 13.94-14.57 5.48-22.84 5.48zm-.21-36.4c-7.82 0-15.62 1.72-21.56 5.17-5.49 3.19-8.51 7.35-8.5 11.73.01 4.38 3.08 8.6 8.65 11.81 11.94 6.9 31.31 6.9 43.18 0 5.48-3.19 8.5-7.36 8.5-11.73s-3.08-8.61-8.64-11.82c-5.99-3.44-13.82-5.16-21.64-5.16h.01zM569.51 384.17l-44.61-25.75-3.74 2.18 44.6 25.75 3.75-2.18zM547.87 407.52l-65.61-37.87-7.09 4.12 65.61 37.87 7.09-4.12zM525.72 420.39l-65.6-37.88-7.09 4.13 65.6 37.87 7.09-4.12zM503.58 433.26l-65.61-37.88-7.09 4.12 65.61 37.88 7.09-4.12zM481.43 446.13l-65.6-37.88-7.09 4.12 65.6 37.88 7.09-4.12zM459.29 459l-65.61-37.88-7.09 4.12 65.61 37.88 7.09-4.12z"/>
            <path fill="#82FBDD" d="M864.8 387.09c0 .23 0 .47-.08.7-.08.23-.09.37-.14.56-.05.19-.11.44-.19.65-.08.21-.15.36-.22.54-.07.18-.2.46-.32.68-.12.22-.2.33-.3.49-.1.16-.33.51-.52.76l-.35.45c-.291.35-.602.684-.93 1-.12.12-.23.24-.36.35-.13.11-.45.38-.68.56-.23.18-.39.33-.61.49-.22.16-.53.35-.8.53-.27.18-.53.36-.83.53L422.36 648.82c-.65.38-1.35.72-2.07 1l-.62.26c-.57.24-1.14.46-1.73.66l-.63.22-1.13.32-.87.23c-.4.1-.81.18-1.22.26l-.82.17c-.82.14-1.66.26-2.5.35-.26 0-.53 0-.79.06-.49 0-1 .08-1.48.1h-3.2l-1.11-.06c-.34 0-.68 0-1-.09-.32-.09-.73-.07-1.09-.12l-1-.14-1.16-.2-.91-.18-1.36-.34-.75-.2c-.81-.24-1.6-.5-2.36-.8l-.31-.13a24 24 0 0 1-3-1.42l-219-126.45c-4.32-2.5-6.48-5.77-6.47-9l-.07 24.41c0 3.27 2.15 6.55 6.48 9l219 126.44a23.27 23.27 0 0 0 3 1.43l.19.09h.12c.76.3 1.55.56 2.35.8l.19.06.57.14c.45.12.9.23 1.36.33l.36.09.55.1 1.16.2.47.08.52.06 1.09.12.52.06h.5c.367 0 .737.02 1.11.06H408.41c.5 0 1-.06 1.48-.1h.79c.84-.08 1.68-.2 2.5-.34h.12c.24 0 .47-.1.7-.15.41-.08.82-.16 1.22-.26l.87-.23c.38-.11.76-.21 1.13-.33l.24-.07.39-.14c.59-.2 1.16-.42 1.72-.66.22-.09.43-.17.63-.27a21 21 0 0 0 2.07-1L858.4 419.79l.27-.16c.21-.12.38-.25.57-.38.19-.13.54-.35.79-.53.25-.18.41-.32.61-.48.2-.16.47-.37.68-.56l.13-.11c.09-.08.15-.16.23-.24a10.9 10.9 0 0 0 .93-1l.21-.21c0-.08.09-.15.15-.23.19-.25.35-.51.51-.76.16-.25.16-.22.22-.33l.08-.16c.12-.23.22-.46.32-.69.1-.23.13-.26.18-.39a1 1 0 0 0 0-.14c.08-.22.13-.44.19-.66.06-.22.1-.29.13-.44.03-.15 0-.08 0-.12 0-.23.06-.46.08-.69.02-.23 0-.3 0-.45v-.19l.06-24.41c.11.21.08.42.06.63z"/>
            <path fill="#5D688A" d="M797.83 440.28v7.22l-57.76 33.76V474z"/>
            <path fill="#202D56" d="M262.37 587v5.34a.81.81 0 0 0 .38.69l31.2 19.08a.81.81 0 0 0 1.23-.68v-6a7 7 0 0 0-3.47-6l-25.4-14.67a2.63 2.63 0 0 0-3.94 2.24z"/>
            <path fill="#9CFFD7" d="M312.38 440.49l-140.82-70.91a5.73 5.73 0 0 1-.23-10.12l39.8-22.53 2.56 1.52-41.12 23.24a3.18 3.18 0 0 0 .13 5.61L316 439l-3.62 1.49z"/>
            <path fill="#2FF9C7" d="M830.61 456.57a6.26 6.26 0 0 1-3.06-.79l-46.92-26.15 1.24-2.23 46.92 26.15a3.73 3.73 0 0 0 3.79-.09l113.88-70.57a3.73 3.73 0 0 0-.15-6.44L888 343.81l2.34-1.61 57.25 32a6.3 6.3 0 0 1 .24 10.84l-113.88 70.57a6.34 6.34 0 0 1-3.34.96z"/>
            <path fill="#2B3C73" d="M373.84 466.88l-64.68-37.34-68.06 39.55 171.38 98.94 60.32 34.82 68.05-39.54z" opacity=".4"/>
            <path fill="#FFD33E" d="M323.91 396.4c-9.66-5.58-25.33-5.57-34.94 0v-15.58c9.6-5.58 25.27-5.58 34.94 0 .013 5.2.013 10.393 0 15.58z"/>
            <path fill="#FFD33E" d="M289 396.41c-4.77 2.77-7.15 6.41-7.16 10.05v-15.58c0-3.64 2.4-7.28 7.17-10-.007 5.16-.01 10.337-.01 15.53zM331.2 406.6c0-3.69-2.42-7.39-7.29-10.2v-15.57c4.86 2.8 7.29 6.5 7.28 10.19.04 4.67.02 10.9.01 15.58z"/>
            <path fill="#FFF" d="M327.42 391l-.05 15.58c0-3.12-2-6.24-6.16-8.62-8.16-4.71-21.41-4.71-29.53 0-4 2.35-6 5.42-6 8.5v-15.58c0-3.08 2-6.15 6.06-8.5 8.11-4.71 21.36-4.71 29.53 0 4.1 2.39 6.16 5.51 6.15 8.62z"/>
            <path fill="#FFD33E" d="M327.37 406.59c0 3.08-2 6.15-6 8.49V399.5c4-2.34 6.05-5.41 6.06-8.49-.03 4.68-.04 10.91-.06 15.58zM291.78 415.08c-4.11-2.37-6.16-5.5-6.15-8.61v-15.58c0 3.11 2 6.24 6.15 8.61.013 5.193.013 10.387 0 15.58z"/>
            <path fill="#FFD33E" d="M321.26 382.39c8.17 4.72 8.22 12.4.1 17.11-8.12 4.71-21.37 4.72-29.54 0-8.17-4.72-8.21-12.39-.09-17.11 8.12-4.72 21.36-4.71 29.53 0z"/>
            <path fill="#FFD33E" d="M321.32 415.08c-8.12 4.72-21.37 4.71-29.54 0V399.5c8.17 4.72 21.43 4.72 29.54 0 .013 5.2.013 10.393 0 15.58z"/>
            <path fill="#FFF" d="M331.24 391v15.58c0 3.64-2.4 7.28-7.17 10-9.6 5.58-25.28 5.57-34.94 0-4.87-2.8-7.29-6.5-7.28-10.18v-15.58c0 3.68 2.42 7.38 7.28 10.18 9.67 5.58 25.34 5.59 34.94 0 4.77-2.7 7.16-6.34 7.17-10z"/>
            <path fill="#FFF" d="M324 380.83c9.66 5.57 9.71 14.66.11 20.24-9.6 5.58-25.27 5.57-34.94 0-9.67-5.57-9.71-14.65-.11-20.23 9.6-5.58 25.23-5.59 34.94-.01zm-32.14 18.67c8.17 4.72 21.43 4.72 29.54 0s8.07-12.39-.1-17.11c-8.17-4.72-21.42-4.71-29.53 0s-8.07 12.39.09 17.11z"/>
            <path fill="#FFD33E" d="M372.91 389.85l-.04 15.58-68.05 39.54.04-15.58z"/>
            <path fill="#FFD33E" d="M308.23 352.5l64.68 37.35-68.05 39.54-64.68-37.34 68.05-39.55zm-19.1 48.56c9.67 5.58 25.34 5.59 34.94 0 9.6-5.59 9.55-14.67-.11-20.24-9.66-5.57-25.34-5.58-34.94 0-9.6 5.58-9.55 14.65.11 20.23v.01z"/>
            <path fill="#FFA83C" d="M304.86 429.39l-.04 15.58-64.69-37.34.05-15.58z"/>
            <g>
                <path fill="#F3FCFF" d="M375.77 404.79v15.58a5 5 0 0 0-4.5 0v-15.58a5 5 0 0 1 4.5 0zM371.26 404.79l-.04 15.58-4.49 2.61.05-15.58z"/>
                <path fill="#F3FCFF" d="M365.8 424.28V408.7a1.58 1.58 0 0 1 .93-1.3v15.58a1.58 1.58 0 0 0-.93 1.3z"/>
                <path fill="#A7CCFF" d="M365.8 424.28V408.7c.048.576.41 1.08.94 1.31v15.58a1.6 1.6 0 0 1-.94-1.31z"/>
                <path fill="#F3FCFF" d="M472.49 460.63l-.05 15.58-96.72-55.84.05-15.58z"/>
                <path fill="#A7CCFF" d="M463.51 465.85l-.05 15.58-96.71-55.84.04-15.58z"/>
                <path fill="#F3FCFF" d="M422.38 448.21l-.05 15.58-60.85-35.14.04-15.58z"/>
                <path fill="#A7CCFF" d="M417.88 450.82l-.04 15.58-60.86-35.14.05-15.58z"/>
                <path fill="#F3FCFF" d="M356 430v-15.58a1.59 1.59 0 0 1 .92-1.3 5 5 0 0 1 4.51 0v15.58a5 5 0 0 0-4.51 0 1.58 1.58 0 0 0-.92 1.3z"/>
                <path fill="#A7CCFF" d="M356 430v-15.58a1.56 1.56 0 0 0 .94 1.31v15.58A1.59 1.59 0 0 1 356 430z"/>
                <path fill="#F3FCFF" d="M413.07 453.62l-.05 15.58-60.86-35.14.05-15.58z"/>
                <path fill="#A7CCFF" d="M408.57 456.23l-.04 15.58-60.86-35.14.05-15.57z"/>
                <path fill="#F3FCFF" d="M346.73 435.36v-15.58a1.58 1.58 0 0 1 .93-1.3 5 5 0 0 1 4.51 0v15.58a5 5 0 0 0-4.51 0 1.58 1.58 0 0 0-.93 1.3z"/>
                <path fill="#A7CCFF" d="M346.73 435.36v-15.58a1.62 1.62 0 0 0 1 1.32v15.57a1.58 1.58 0 0 1-1-1.31z"/>
                <path fill="#F3FCFF" d="M403.75 459.04l-.05 15.58-60.85-35.14.04-15.58z"/>
                <path fill="#A7CCFF" d="M399.26 461.64l-.04 15.58-60.86-35.13.04-15.58z"/>
                <path fill="#F3FCFF" d="M338.35 439.47a1.58 1.58 0 0 0-.93 1.3v-15.58a1.58 1.58 0 0 1 .93-1.3 5 5 0 0 1 4.5 0v15.58a5 5 0 0 0-4.5 0z"/>
                <path fill="#A7CCFF" d="M337.42 440.77v-15.58a1.6 1.6 0 0 0 1 1.32l-.05 15.58a1.6 1.6 0 0 1-.95-1.32z"/>
                <path fill="#F3FCFF" d="M422.33 463.79c0-5.187.017-10.38.05-15.58.528.234.888.735.94 1.31v15.58a1.6 1.6 0 0 0-.99-1.31z"/>
                <path fill="#A7CCFF" d="M423.32 449.52v15.58a1.63 1.63 0 0 1-.93 1.3 5 5 0 0 1-4.51 0v-15.58a5 5 0 0 0 4.51 0 1.58 1.58 0 0 0 .93-1.3z"/>
                <path fill="#F3FCFF" d="M413 469.2v-15.58c.528.234.888.735.94 1.31v15.58a1.57 1.57 0 0 0-.94-1.31z"/>
                <path fill="#A7CCFF" d="M414 454.93v15.58a1.59 1.59 0 0 1-.92 1.3 5 5 0 0 1-4.51 0v-15.58a5 5 0 0 0 4.51 0 1.58 1.58 0 0 0 .92-1.3z"/>
                <path fill="#F3FCFF" d="M403.71 474.62v-15.58c.53.23.892.734.94 1.31v15.58a1.59 1.59 0 0 0-.94-1.31zM472.44 476.21v-15.58a1.6 1.6 0 0 1 .93 1.31v15.58a1.59 1.59 0 0 0-.93-1.31z"/>
                <path fill="#A7CCFF" d="M404.69 460.35v15.58a1.57 1.57 0 0 1-.92 1.29 4.92 4.92 0 0 1-4.51 0v-15.58a4.92 4.92 0 0 0 4.51 0 1.55 1.55 0 0 0 .92-1.29z"/>
                <path fill="#A7CCFF" d="M403.75 459c1.25.72 1.26 1.88 0 2.6a4.92 4.92 0 0 1-4.51 0l-60.85-35.13c-1.26-.73-1.26-1.89 0-2.62a5 5 0 0 1 4.5 0L403.75 459zM473.42 461.94v15.58a1.58 1.58 0 0 1-.93 1.3v-15.58a1.58 1.58 0 0 0 .93-1.3zM472.49 463.24l-.04 15.58-4.49 2.6.05-15.57z"/>
                <path fill="#A7CCFF" d="M468 465.85v15.58a5 5 0 0 1-4.5 0v-15.58a5 5 0 0 0 4.5 0z"/>
                <path fill="#FDFEFF" d="M372.91 389.85l167 96.42-68.05 39.55L411.55 491l-106.69-61.6 68.05-39.55zm95.1 76l4.48-2.61a1.38 1.38 0 0 0 0-2.61l-96.72-55.84a5 5 0 0 0-4.51 0l-4.48 2.61c-1.25.72-1.24 1.89 0 2.61l96.72 55.84a5 5 0 0 0 4.5 0h.01zm-50.13-15a5 5 0 0 0 4.51 0 1.38 1.38 0 0 0 0-2.61l-60.86-35.14a5 5 0 0 0-4.51 0 1.38 1.38 0 0 0 0 2.61l60.85 35.14h.01zm-9.31 5.41a5 5 0 0 0 4.51 0 1.38 1.38 0 0 0 0-2.61l-60.86-35.14a5 5 0 0 0-4.51 0c-1.24.73-1.24 1.89 0 2.62l60.85 35.13h.01zm-9.31 5.41a4.92 4.92 0 0 0 4.51 0c1.24-.72 1.23-1.88 0-2.6l-60.86-35.14a5 5 0 0 0-4.5 0c-1.24.73-1.24 1.89 0 2.62l60.85 35.13v-.01z"/>
                <path fill="#A7CCFF" d="M422.38 448.21a1.38 1.38 0 0 1 0 2.61 5 5 0 0 1-4.51 0L357 415.68a1.38 1.38 0 0 1 0-2.61 5 5 0 0 1 4.51 0l60.87 35.14zM413.07 453.62a1.38 1.38 0 0 1 0 2.61 5 5 0 0 1-4.51 0l-60.85-35.13c-1.26-.73-1.26-1.89 0-2.62a5 5 0 0 1 4.51 0l60.85 35.14zM472.49 460.63a1.38 1.38 0 0 1 0 2.61l-4.48 2.61a5 5 0 0 1-4.5 0L366.79 410c-1.25-.72-1.26-1.89 0-2.61l4.48-2.61a5 5 0 0 1 4.51 0l96.71 55.85z"/>
                <path fill="#E8F9FF" d="M411.55 490.99l-.04 15.58-106.69-61.6.04-15.58z"/>
                <path fill="#F3FCFF" d="M539.92 486.27l-.04 15.58-68.05 39.55.04-15.58z"/>
                <path fill="#FFD33E" d="M476.23 528.34l-.04 15.58-64.68-37.35.04-15.58z"/>
                <path fill="#E8F9FF" d="M471.87 525.82l-.04 15.58-60.32-34.83.04-15.58z"/>
                <path fill="#FFD33E" d="M544.29 488.79l-68.06 39.55-64.68-37.35 60.32 34.83 68.05-39.55z"/>
                <path fill="#FFA83C" d="M544.29 488.79l-.05 15.58-68.05 39.55.04-15.58z"/>
            </g>
            <path fill="#F3FCFF" d="M581 352.07c-8.28 0-16.57-1.83-22.9-5.48-6.33-3.65-9.91-8.67-9.92-14-.01-5.33 3.46-10.27 9.77-13.94 12.57-7.3 33.09-7.3 45.74 0 6.39 3.69 9.91 8.67 9.91 14s-3.46 10.27-9.76 13.94-14.57 5.48-22.84 5.48zm-.21-36.41c-7.82 0-15.62 1.73-21.56 5.17-5.49 3.2-8.51 7.36-8.5 11.73.01 4.37 3.08 8.61 8.65 11.82 11.94 6.9 31.31 6.9 43.18 0 5.48-3.18 8.5-7.35 8.5-11.72 0-4.37-3.08-8.61-8.64-11.82-5.99-3.45-13.82-5.18-21.64-5.18h.01z"/>
            <g fill="#F3FCFF" opacity=".48">
                <path d="M598.26 322.51c-9.66-5.58-25.27-5.57-34.87 0-9.6 5.57-9.55 14.62.12 20.2s25.26 5.58 34.87 0c9.61-5.58 9.54-14.62-.12-20.2z"/>
            </g>
            <g fill="#F3FCFF" opacity=".48">
                <path d="M590.2 327.2c-5.18-3-13.55-3-18.69 0-5.14 3-5.12 7.83.06 10.82s13.54 3 18.69 0c5.15-3 5.11-7.84-.06-10.82z"/>
            </g>
            <path fill="url(#a)" d="M412.28 187.11v143.5h5.51v-143.5z" opacity=".53" transform="translate(165 2)"/>
            <path fill="url(#b)" d="M415.03 187.11v143.5h5.52v-143.5z" opacity=".53" transform="translate(165 2)"/>
            <g fill="#F3FCFF" opacity=".48">
                <path d="M581 240.66c-6.43 0-12.87-1.42-17.78-4.26-4.91-2.84-7.6-6.62-7.6-10.68s2.65-7.81 7.48-10.62c9.76-5.67 25.69-5.67 35.51 0 4.89 2.83 7.59 6.62 7.59 10.69 0 4.07-2.65 7.81-7.47 10.61s-11.34 4.26-17.73 4.26zm-.17-28.55c-6.19 0-12.38 1.36-17.09 4.1-4.42 2.57-6.85 5.94-6.85 9.51 0 3.57 2.48 7 7 9.58 9.46 5.47 24.82 5.47 34.23 0 4.41-2.57 6.85-5.94 6.84-9.51-.01-3.57-2.48-7-7-9.58-4.75-2.74-10.96-4.1-17.16-4.1h.03z"/>
            </g>
            <g fill="#F3FCFF" opacity=".48">
                <path d="M580.93 250.35a19.6 19.6 0 0 1-9.59-2.29c-2.64-1.52-4.09-3.57-4.1-5.76-.01-2.19 1.43-4.21 4-5.72 5.26-3.06 13.85-3.06 19.15 0 2.63 1.53 4.09 3.57 4.09 5.77 0 2.2-1.43 4.21-4 5.72a19.45 19.45 0 0 1-9.55 2.28zm-.09-15.39a18.82 18.82 0 0 0-9.22 2.21c-2.38 1.39-3.69 3.21-3.69 5.13s1.34 3.77 3.75 5.17c5.11 2.94 13.39 2.94 18.46 0 2.38-1.39 3.7-3.21 3.69-5.13-.01-1.92-1.33-3.78-3.75-5.17a18.93 18.93 0 0 0-9.24-2.17v-.04z"/>
            </g>
            <g fill="#2B3C73" opacity=".4">
                <path d="M494.47 395.88l-64.68-37.34-68.05 39.55 171.37 98.94 60.32 34.83 68.05-39.55z"/>
            </g>
            <g>
                <path fill="#36CCE2" d="M445.7 312c-9.67-5.58-25.34-5.58-34.94 0v-15.58c9.6-5.58 25.28-5.58 34.94 0 .02 5.18.02 10.373 0 15.58z"/>
                <path fill="#36CCE2" d="M410.76 312c-4.77 2.77-7.16 6.41-7.17 10v-15.58c0-3.64 2.4-7.28 7.17-10.05.02 5.22.02 10.43 0 15.63zM453 322.17c0-3.69-2.42-7.38-7.28-10.19v-7.75-7.79c4.87 2.81 7.3 6.5 7.29 10.19-.01 4.63-.01 10.86-.01 15.54z"/>
                <path fill="#FFF" d="M449.21 306.58v15.58c0-3.12-2.05-6.24-6.16-8.62-8.17-4.72-21.42-4.71-29.54 0-4 2.34-6 5.41-6.06 8.49v-15.58c0-3.08 2-6.15 6.06-8.49 8.12-4.72 21.37-4.72 29.54 0 4.11 2.38 6.17 5.5 6.16 8.62z"/>
                <path fill="#36CCE2" d="M449.17 322.16c0 3.08-2 6.15-6.07 8.5 0-5.2.017-10.393.05-15.58 4-2.35 6-5.42 6.06-8.5-.01 4.67-.03 10.9-.04 15.58zM413.56 330.65c-4.11-2.37-6.16-5.49-6.15-8.61v-15.58c0 3.12 2 6.24 6.16 8.61.007 5.193.003 10.387-.01 15.58z"/>
                <path fill="#36CCE2" d="M443.1 330.66c-8.11 4.71-21.36 4.71-29.54 0v-15.58c8.17 4.72 21.42 4.72 29.54 0 .013 5.193.013 10.387 0 15.58z"/>
                <path fill="#FFF" d="M453 306.59v15.58c0 3.64-2.4 7.28-7.17 10.05-9.6 5.58-25.27 5.58-34.94 0-4.86-2.8-7.29-6.5-7.28-10.18v-15.58c0 3.68 2.42 7.38 7.29 10.19 9.67 5.58 25.33 5.58 34.94 0 4.79-2.78 7.16-6.42 7.16-10.06z"/>
                <path fill="#36CCE2" d="M430 268.08l64.69 37.34L426.64 345 362 307.62l68-39.54zm-19.09 48.56c9.67 5.58 25.33 5.58 34.94 0s9.55-14.66-.12-20.24c-9.67-5.58-25.34-5.58-34.94 0-9.6 5.58-9.55 14.66.12 20.24z"/>
                <path fill="#36CCE2" d="M443.05 298c8.18 4.72 8.22 12.4.1 17.12-8.12 4.72-21.37 4.71-29.54 0-8.17-4.71-8.21-12.39-.1-17.1 8.11-4.71 21.37-4.77 29.54-.02z"/>
                <path fill="#FFF" d="M445.74 296.4c9.67 5.58 9.72 14.66.12 20.24-9.6 5.58-25.27 5.58-34.94 0-9.67-5.58-9.72-14.66-.12-20.24 9.6-5.58 25.28-5.58 34.94 0zm-32.13 18.67c8.17 4.72 21.42 4.72 29.54 0 8.12-4.72 8.08-12.4-.1-17.12-8.18-4.72-21.42-4.71-29.54 0-8.12 4.71-8.07 12.39.1 17.1v.02z"/>
                <path fill="#36CCE2" d="M494.69 305.42l-.04 15.58-68.05 39.55.04-15.58z"/>
                <path fill="#59FAD2" d="M426.64 344.97l-.04 15.58-64.68-37.35.04-15.58z"/>
            </g>
            <g>
                <path fill="#F3FCFF" d="M497.51 335.94a5 5 0 0 0-4.51 0v-15.58a5 5 0 0 1 4.51 0v15.58z"/>
                <path fill="#F3FCFF" d="M493.04 320.36l-.04 15.58-4.48 2.61.04-15.58zM487.59 339.85v-15.58a1.58 1.58 0 0 1 .93-1.3v15.58a1.59 1.59 0 0 0-.93 1.3z"/>
                <path fill="#A7CCFF" d="M487.59 339.85v-15.58a1.59 1.59 0 0 0 .94 1.31v15.58a1.57 1.57 0 0 1-.94-1.31z"/>
                <path fill="#F3FCFF" d="M594.27 376.2l-.04 15.58-96.72-55.84.04-15.58z"/>
                <path fill="#A7CCFF" d="M585.29 381.42l-.04 15.58-96.72-55.84.04-15.58z"/>
                <path fill="#F3FCFF" d="M544.16 363.78l-.04 15.58-60.86-35.14.04-15.58z"/>
                <path fill="#A7CCFF" d="M539.67 366.39l-.05 15.58-60.85-35.13.04-15.58z"/>
                <path fill="#F3FCFF" d="M478.75 344.22a1.59 1.59 0 0 0-.92 1.3v-15.58a1.58 1.58 0 0 1 .93-1.3v0a5 5 0 0 1 4.5 0v15.58a5 5 0 0 0-4.51 0z"/>
                <path fill="#A7CCFF" d="M477.83 345.52v-15.58a1.6 1.6 0 0 0 .94 1.32v15.58a1.58 1.58 0 0 1-.94-1.32z"/>
                <path fill="#F3FCFF" d="M534.85 369.19l-.04 15.58-60.86-35.14.04-15.58z"/>
                <path fill="#A7CCFF" d="M530.36 371.8l-.05 15.58-60.86-35.13.05-15.58z"/>
                <path fill="#F3FCFF" d="M468.51 350.93v-15.58a1.57 1.57 0 0 1 .92-1.29 5 5 0 0 1 4.51 0v15.58a5 5 0 0 0-4.51 0 1.6 1.6 0 0 0-.92 1.29z"/>
                <path fill="#A7CCFF" d="M468.51 350.93v-15.58a1.6 1.6 0 0 0 .94 1.32v15.58a1.62 1.62 0 0 1-.94-1.32z"/>
                <path fill="#F3FCFF" d="M525.54 374.6l-.04 15.58-60.86-35.13.04-15.58z"/>
                <path fill="#A7CCFF" d="M521.05 377.21l-.05 15.58-60.86-35.13.05-15.58z"/>
                <path fill="#F3FCFF" d="M460.13 355.05a1.57 1.57 0 0 0-.93 1.29v-15.58a1.61 1.61 0 0 1 .93-1.29v0a5 5 0 0 1 4.51 0v15.58a5 5 0 0 0-4.51 0z"/>
                <path fill="#A7CCFF" d="M459.2 356.34v-15.58a1.62 1.62 0 0 0 1 1.32v15.58a1.6 1.6 0 0 1-1-1.32z"/>
                <path fill="#F3FCFF" d="M544.12 379.36v-15.58c.53.238.893.741.95 1.32v15.58a1.59 1.59 0 0 0-.95-1.32z"/>
                <path fill="#A7CCFF" d="M545.11 365.1v15.58a1.58 1.58 0 0 1-.93 1.29 5 5 0 0 1-4.51 0l.05-15.58a5 5 0 0 0 4.51 0 1.61 1.61 0 0 0 .88-1.29z"/>
                <path fill="#A7CCFF" d="M544.16 363.78c1.25.72 1.26 1.89 0 2.61a5 5 0 0 1-4.51 0l-60.86-35.13c-1.25-.73-1.25-1.9 0-2.62a5 5 0 0 1 4.5 0l60.87 35.14z"/>
                <path fill="#F3FCFF" d="M535.75 386.09a1.6 1.6 0 0 0-.94-1.32v-15.58c.53.237.89.742.94 1.32.03 4.67.01 10.9 0 15.58z"/>
                <path fill="#A7CCFF" d="M535.79 370.51v15.58a1.56 1.56 0 0 1-.93 1.29 5 5 0 0 1-4.51 0V371.8a5 5 0 0 0 4.51 0 1.57 1.57 0 0 0 .93-1.29z"/>
                <path fill="#A7CCFF" d="M534.85 369.19c1.25.73 1.25 1.89 0 2.61a5 5 0 0 1-4.51 0l-60.86-35.13c-1.25-.73-1.25-1.9 0-2.61a5 5 0 0 1 4.51 0l60.86 35.13z"/>
                <path fill="#F3FCFF" d="M525.5 390.18V374.6c.53.237.89.742.94 1.32v15.58a1.6 1.6 0 0 0-.94-1.32zM594.23 391.78V376.2c.53.237.89.742.94 1.32v15.58a1.62 1.62 0 0 0-.94-1.32z"/>
                <path fill="#A7CCFF" d="M526.48 375.92v15.58a1.56 1.56 0 0 1-.93 1.29 4.92 4.92 0 0 1-4.51 0v-15.58a4.92 4.92 0 0 0 4.51 0 1.57 1.57 0 0 0 .93-1.29zM595.21 377.52v15.58a1.58 1.58 0 0 1-.93 1.3v-15.58a1.58 1.58 0 0 0 .93-1.3z"/>
                <path fill="#A7CCFF" d="M594.29 378.82l-.05 15.57-4.48 2.61.04-15.58z"/>
                <path fill="#A7CCFF" d="M589.8 381.42V397a4.93 4.93 0 0 1-4.5 0v-15.58a5 5 0 0 0 4.5 0z"/>
                <path fill="#F3FCFF" d="M494.7 305.42l167 96.43-68.06 39.55-60.33-34.84L426.64 345l68.06-39.58zm95.1 76l4.48-2.6c1.25-.73 1.23-1.9 0-2.62l-96.72-55.84a5 5 0 0 0-4.51 0l-4.48 2.61c-1.25.72-1.24 1.89 0 2.61l96.72 55.84a5 5 0 0 0 4.51 0zm-50.13-15a5 5 0 0 0 4.51 0c1.24-.72 1.23-1.89 0-2.61l-60.86-35.14a5 5 0 0 0-4.5 0c-1.24.72-1.24 1.89 0 2.62l60.86 35.13h-.01zm-9.31 5.41a5 5 0 0 0 4.51 0c1.23-.72 1.23-1.88 0-2.61L474 334.06a5 5 0 0 0-4.51 0c-1.23.71-1.23 1.88 0 2.61l60.86 35.13.01.03zm-9.31 5.41a4.92 4.92 0 0 0 4.51 0c1.23-.71 1.23-1.88 0-2.61L464.7 339.5a5 5 0 0 0-4.51 0c-1.24.72-1.23 1.88 0 2.61l60.86 35.13z"/>
                <path fill="#A7CCFF" d="M525.54 374.6c1.25.73 1.25 1.9 0 2.61a4.92 4.92 0 0 1-4.51 0l-60.86-35.13c-1.25-.73-1.26-1.89 0-2.61a5 5 0 0 1 4.51 0l60.86 35.13zM594.27 376.2c1.24.72 1.26 1.89 0 2.62l-4.48 2.6a5 5 0 0 1-4.51 0l-96.72-55.84c-1.25-.72-1.26-1.89 0-2.61l4.48-2.61a5 5 0 0 1 4.51 0l96.72 55.84z"/>
                <path fill="#ACFDE9" d="M533.34 406.56l-.05 15.58-106.69-61.59.04-15.58z"/>
                <path fill="#F3FCFF" d="M661.72 401.85l-.05 15.58-68.05 39.55.04-15.58z"/>
                <path fill="#36CCE2" d="M598.02 443.91l-.05 15.58-64.68-37.35.04-15.58z"/>
                <path fill="#ACFDE9" d="M593.66 441.4l-.04 15.58-60.33-34.84.05-15.58z"/>
                <path fill="#36CCE2" d="M666.07 404.36l-68.05 39.55-64.69-37.35 60.33 34.84 68.06-39.55z"/>
                <path fill="#2FF9C7" d="M666.07 404.36l-.05 15.58-68.05 39.55.05-15.58z"/>
            </g>
            <path fill="#F3FCFF" d="M438.78 37.05A11.07 11.07 0 1 1 449.85 26c-.011 6.106-4.964 11.05-11.07 11.05zm0-20.85c-5.407 0-9.79 4.383-9.79 9.79 0 5.407 4.383 9.79 9.79 9.79 5.407 0 9.79-4.383 9.79-9.79-.006-5.405-4.385-9.784-9.79-9.79zM554.53 90.15l-13.77-11.76 11.76-13.77 13.76 11.76-11.75 13.77zm-12-11.9l11.82 10.1 10.11-11.83-11.83-10.1-10.1 11.83zM552 12.49h-11.44l5.72-9.91 5.72 9.91zm-9.24-1.27h7l-3.52-6.09-3.48 6.09zM346.1 153.34a4.16 4.16 0 1 1-.02-8.32 4.16 4.16 0 0 1 .02 8.32zm0-8.05a3.89 3.89 0 1 0-.02 7.78 3.89 3.89 0 0 0 .02-7.78zM271.8 189.17l3-6.64 4.26 5.9-7.26.74zm3.14-5l-1.83 4.08 4.45-.45-2.62-3.63zM806.94 72l3-6.65 4.27 5.91-7.27.74zm3.15-5l-1.84 4.08 4.46-.45-2.62-3.63zM496.4 205.32L484.31 195l10.33-12.1 12.1 10.33-10.34 12.09zm-10.52-10.46l10.4 8.88 8.88-10.39-10.4-8.88-8.88 10.39zM520.87 136.3l-5.66-1.34 1.34-5.65 5.66 1.34-1.34 5.65zm-5.17-1.64l4.86 1.15 1.15-4.86-4.86-1.15-1.15 4.86z"/>
        </g>
    </g>
</svg>
