<svg xmlns="http://www.w3.org/2000/svg" viewBox="0 0 70 70"><title>Asset 5</title><g id="Layer_2" data-name="Layer 2"><g id="Layer_1-2" data-name="Layer 1"><circle cx="35" cy="35" r="35" style="fill:#f68f36"/><path d="M49.58,12.89l-6.67,6.67,3.93,3.92L37.12,33.2l-1.39-1.39-18,18L37.82,69.88A35,35,0,0,0,70,35c0-.58,0-1.16,0-1.73Z" style="fill:#ea7525"/><path d="M47.94,39a17,17,0,1,1-17-17A17,17,0,0,1,47.94,39Z" style="fill:#fff"/><path d="M43.76,39A12.86,12.86,0,1,1,30.9,26.1,12.86,12.86,0,0,1,43.76,39Z" style="fill:#0976a6"/><path d="M39.42,39a8.52,8.52,0,1,1-8.52-8.52A8.52,8.52,0,0,1,39.42,39Z" style="fill:#fff"/><path d="M35.54,39a4.64,4.64,0,1,1-4.64-4.64A4.64,4.64,0,0,1,35.54,39Z" style="fill:#0976a6"/><polygon points="49.75 12.79 42.84 19.7 42.88 25.63 49.79 18.72 49.75 12.79" style="fill:#fff"/><polygon points="44.5 27.18 51.42 20.27 57.35 20.31 50.44 27.22 44.5 27.18" style="fill:#fff"/><polygon points="32.5 39.38 30.7 41.22 30.7 37.58 49.76 18.52 51.56 20.32 32.5 39.38" style="fill:#bfd154"/></g></g></svg>