<svg xmlns="http://www.w3.org/2000/svg" viewBox="0 0 70 70"><title>Asset 3</title><g id="Layer_2" data-name="Layer 2"><g id="Layer_1-2" data-name="Layer 1"><circle cx="35" cy="35" r="35" style="fill:#00989c"/><path d="M69.44,41.21,49.66,21.43,35.4,35.68l-3.79-3.79L20.39,43.1,45.64,68.35A35,35,0,0,0,69.44,41.21Z" style="fill:#047a86"/><rect x="31.24" y="38.44" width="17.19" height="6.95" transform="translate(-17.97 40.43) rotate(-45)" style="fill:#fff"/><rect x="43.33" y="16.22" width="8.89" height="18.9" transform="translate(-4.16 41.3) rotate(-45)" style="fill:#bacd32"/><rect x="14.07" y="20.28" width="17.97" height="12.16" transform="translate(-11.89 24.02) rotate(-45)" style="fill:#bacd32"/><path d="M35.68,51.75a1.71,1.71,0,0,0,1-.53,2.13,2.13,0,0,0-.2-3.16l-2.26-2.27.56-.56,2.27,2.26a2.12,2.12,0,1,0,3-3L37.8,42.25l.57-.56L40.63,44a2.12,2.12,0,1,0,3-3l-2.27-2.27.56-.56,2.27,2.27a2.13,2.13,0,0,0,3.17.19c.95-1,.49-2-.44-2.92l-1.84-1.85L31.19,21.71,18.54,34.56Z" style="fill:#ffcc05"/><path d="M47.75,39l3.55-3.51L38,22.18l-7.46,7.45,2,10.94s6.23.36,4.75-4.75c-1.11-3.89.85-5.2,1.87-5.61Z" style="fill:#fff"/><path d="M18.3,29.82a1.46,1.46,0,1,1,0-2.07A1.47,1.47,0,0,1,18.3,29.82Z" style="fill:#fff"/><path d="M23.17,43.53a1.76,1.76,0,0,1-2.45-.23h0a1.77,1.77,0,0,1-.23-2.46L22.35,39a1.77,1.77,0,0,1,2.46.23h0A1.76,1.76,0,0,1,25,41.66Z" style="fill:#fff"/><path d="M26.63,47a1.75,1.75,0,0,1-2.46-.23h0A1.75,1.75,0,0,1,24,44.3l1.86-1.86a1.76,1.76,0,0,1,2.46.22h0a1.76,1.76,0,0,1,.22,2.46Z" style="fill:#fff"/><path d="M30.08,50.43a1.75,1.75,0,0,1-2.45-.22h0a1.77,1.77,0,0,1-.23-2.46l1.86-1.86a1.76,1.76,0,0,1,2.46.23h0A1.76,1.76,0,0,1,32,48.57Z" style="fill:#fff"/><path d="M33.54,53.89a1.76,1.76,0,0,1-2.46-.22h0a1.76,1.76,0,0,1-.22-2.46l1.86-1.86a1.76,1.76,0,0,1,2.46.22h0A1.76,1.76,0,0,1,35.4,52Z" style="fill:#fff"/></g></g></svg>