<svg xmlns="http://www.w3.org/2000/svg" viewBox="0 0 70 70"><title>Asset 2</title><g id="Layer_2" data-name="Layer 2"><g id="Layer_1-2" data-name="Layer 1"><circle cx="35" cy="35" r="35" style="fill:#429bc5"/><path d="M40.48,30.05l-7-7L13.41,43.21,39.86,69.66A35,35,0,0,0,70,35c0-.69,0-1.38-.06-2.06L53.77,16.77Z" style="fill:#3a86aa"/><rect x="30.93" y="38.92" width="2.49" height="10.88" style="fill:#534e59"/><rect x="25.62" y="49.83" width="6.27" height="1.4" transform="translate(-19.09 17.5) rotate(-25.74)" style="fill:#534e59"/><rect x="34.89" y="47.4" width="1.4" height="6.27" transform="translate(-25.38 60.64) rotate(-64.26)" style="fill:#534e59"/><rect x="31.55" y="47.78" width="1.24" height="4.74" style="fill:#534e59"/><rect x="13.38" y="16.63" width="40.48" height="26.62" style="fill:#534e59"/><rect x="15.03" y="18.36" width="37.2" height="23.15" style="fill:#fff"/><polygon points="19.19 38.63 17.82 37.14 25.11 30.45 31.09 33.88 36.59 25.63 46.33 21.52 47.12 23.38 37.94 27.26 31.72 36.57 25.39 32.95 19.19 38.63" style="fill:#534e59"/><path d="M48.28,22.47A1.44,1.44,0,1,1,46.85,21,1.44,1.44,0,0,1,48.28,22.47Z" style="fill:#fbb85e"/><circle cx="37.32" cy="26.27" r="1.43" style="fill:#fbb85e"/><path d="M32.93,35.21a1.44,1.44,0,1,1-1.43-1.43A1.43,1.43,0,0,1,32.93,35.21Z" style="fill:#fbb85e"/><path d="M26.69,31.5a1.44,1.44,0,1,1-1.44-1.44A1.43,1.43,0,0,1,26.69,31.5Z" style="fill:#fbb85e"/><path d="M20.11,37.82a1.44,1.44,0,1,1-1.43-1.43A1.43,1.43,0,0,1,20.11,37.82Z" style="fill:#fbb85e"/></g></g></svg>