<svg xmlns="http://www.w3.org/2000/svg" viewBox="0 0 70 70"><title>TechAsset 2</title><g id="Layer_2" data-name="Layer 2"><g id="Layer_1-2" data-name="Layer 1"><circle cx="35" cy="35" r="35" style="fill:#20b798"/><path d="M40.88,69.5A35,35,0,0,0,68.36,45.6l-12-12L53.7,36.26,37,19.56l-9,9L13.72,28l24,24L26.37,55Z" style="fill:#289078"/><polygon points="19.34 22.66 19.29 22.66 13.21 27.89 19.29 33.13 19.34 33.13 33.85 33.13 33.85 22.66 19.34 22.66" style="fill:#fff"/><polygon points="50.66 39.27 50.7 39.27 56.79 34.03 50.7 28.8 50.66 28.8 36.15 28.8 36.15 39.27 50.66 39.27" style="fill:#f6c513"/><rect x="33.16" y="19.5" width="3.99" height="34" style="fill:#fff"/><path d="M26.2,54.94c0-2.68,4-4.85,9-4.85s9,2.17,9,4.85Z" style="fill:#fff"/></g></g></svg>