<svg xmlns="http://www.w3.org/2000/svg" viewBox="0 0 70 70"><title>Asset 6</title><g id="Layer_2" data-name="Layer 2"><g id="Layer_1-2" data-name="Layer 1"><path d="M70,35A35,35,0,1,1,35,0,35,35,0,0,1,70,35Z" style="fill:#429bc5"/><path d="M52.53,23.15l-6.07,6.07-5.57-5.56L13.16,51.39,31.6,69.83c1.12.11,2.25.17,3.4.17A35,35,0,0,0,69.61,40.23Z" style="fill:#3a86aa"/><polygon points="57.14 50.41 52.41 45.89 36.27 45.08 33.73 45.08 17.59 45.89 12.86 50.41 57.14 50.41" style="fill:#bd4a43"/><rect x="17.59" y="23.09" width="34.91" height="22.8" style="fill:#e75852"/><rect x="19.69" y="24.66" width="30.49" height="19.08" style="fill:#fff"/><rect x="12.97" y="50.18" width="44.17" height="1.16" style="fill:#fff"/></g></g></svg>