<svg xmlns="http://www.w3.org/2000/svg" viewBox="0 0 70 70"><title>Asset 1</title><g id="Layer_2" data-name="Layer 2"><g id="Layer_1-2" data-name="Layer 1"><circle cx="35" cy="35" r="35" style="fill:#455f78"/><path d="M47.43,20.18,44.15,16.9l-.29-.28-3.28-3.28-2.45,2.44-3-3,0,6L24.7,29.21l-7.77,1.28,3.28,3.28.09.1-2.19,2.19,3.28,3.28h0l.29.29h0L20.39,41l3.28,3.28.28.29,3.28,3.28,5.34,5.34-6.2,6.2L36.88,69.85h1.33a35,35,0,0,0,31.08-27.8Z" style="fill:#263b50"/><polygon points="43 59.43 34.93 53.83 26.32 59.43 26.32 31.44 43 31.44 43 59.43" style="fill:#c1d54b"/><polygon points="34.87 53.87 34.93 53.83 43 59.43 43 31.44 34.87 31.44 34.87 53.87" style="fill:#a8b442"/><polygon points="53.11 30.4 48.63 32.56 52.23 35.99 47.3 36.66 49.65 41.05 44.75 40.15 45.65 45.05 41.26 42.69 40.6 47.63 37.16 44.02 35 48.51 32.84 44.02 29.4 47.63 28.74 42.69 24.35 45.05 25.25 40.15 20.35 41.05 22.7 36.66 17.77 35.99 21.37 32.56 16.89 30.4 21.37 28.23 17.77 24.8 22.7 24.13 20.35 19.75 25.25 20.64 24.35 15.74 28.74 18.1 29.4 13.16 32.84 16.77 35 12.28 37.16 16.77 40.6 13.16 41.26 18.1 45.65 15.74 44.75 20.64 49.65 19.75 47.3 24.13 52.23 24.8 48.63 28.23 53.11 30.4" style="fill:#fff"/><polygon points="48.63 28.23 52.23 24.8 47.3 24.13 49.65 19.75 44.75 20.64 45.65 15.74 41.26 18.1 40.6 13.16 37.16 16.77 35.01 12.3 35.01 48.49 37.16 44.02 40.6 47.63 41.26 42.69 45.65 45.05 44.75 40.15 49.65 41.05 47.3 36.66 52.23 35.99 48.63 32.56 53.11 30.4 48.63 28.23" style="fill:#d2eefb"/><path d="M45.81,30.55A10.85,10.85,0,1,1,35,19.7,10.84,10.84,0,0,1,45.81,30.55Z" style="fill:#ea7525"/><path d="M35,41.39A10.85,10.85,0,0,1,35,19.7Z" style="fill:#f68f36"/><path d="M26.93,30.45a8,8,0,1,1,8,8A8,8,0,0,1,26.93,30.45Z" style="fill:#fff"/><path d="M35,22.42a8,8,0,1,1,0,16.06Z" style="fill:#d2eefb"/><path d="M34,26.7h0l-2.26,1-.34-1.1,2.84-1.24h1.51V36H34Z" style="fill:#f68f36"/></g></g></svg>