<svg xmlns="http://www.w3.org/2000/svg" viewBox="0 0 70 70"><title>TechAsset 3</title><g id="Layer_2" data-name="Layer 2"><g id="Layer_1-2" data-name="Layer 1"><path d="M70,35A35,35,0,1,1,35,0,35,35,0,0,1,70,35Z" style="fill:#1e3768"/><path d="M40.22,69.61A35,35,0,0,0,69.67,39.74L41.93,12l-1.57,1.58,1,1-.94-.85L37.87,16.6l1.63,1.46-2,2-7.72-7.72-1.57,1.57,7.71,7.72L26.36,31.2,31,35.84l-5.86,5.87,5,5L28.34,57.73Z" style="fill:#081c2e"/><rect x="29.68" y="12.59" width="1.27" height="5.1" transform="translate(-3.43 18.18) rotate(-31.69)" style="fill:#ea4562"/><rect x="37.17" y="14.51" width="5.1" height="1.27" transform="translate(5.98 40.99) rotate(-58.32)" style="fill:#ea4562"/><rect x="28.82" y="16.66" width="12.36" height="13.29" style="fill:#35aac7"/><rect x="24.11" y="26.07" width="21.78" height="16.43" rx="2.49" ry="2.49" style="fill:#fff"/><path d="M33.86,20.72a1.2,1.2,0,1,1-1.2-1.2A1.2,1.2,0,0,1,33.86,20.72Z" style="fill:#fff"/><path d="M27.51,34.84V56.06A2.49,2.49,0,0,0,30,58.56h3.28V45.91a1.11,1.11,0,0,1,1.1-1.11h1.2a1.11,1.11,0,0,1,1.11,1.11V58.56H40a2.5,2.5,0,0,0,2.49-2.5V34.84Z" style="fill:#35aac7"/><path d="M38.66,20.72a1.2,1.2,0,1,1-1.2-1.2A1.2,1.2,0,0,1,38.66,20.72Z" style="fill:#fff"/><path d="M29.17,34v24.4a2.54,2.54,0,0,0,.83.15h3.28V45.91a1.11,1.11,0,0,1,1.1-1.11h1.2a1.11,1.11,0,0,1,1.11,1.11V58.56H40a2.54,2.54,0,0,0,.83-.15V34Z" style="fill:#fff"/><path d="M30.22,13A1.25,1.25,0,1,1,29,11.72,1.24,1.24,0,0,1,30.22,13Z" style="fill:#ea4562"/><path d="M42.26,12.69a1.25,1.25,0,1,1-2.49,0,1.25,1.25,0,0,1,2.49,0Z" style="fill:#ea4562"/><path d="M35.94,32a1.25,1.25,0,1,1-1.25-1.24A1.25,1.25,0,0,1,35.94,32Z" style="fill:#ea4562"/></g></g></svg>