<svg xmlns="http://www.w3.org/2000/svg" viewBox="0 0 1001.59 148.22"><defs><style>.a,.e{fill:#ffffff;}.a,.b{stroke:#fff;stroke-miterlimit:10;stroke-width:0.25px;}.b,.c{fill:#331e85;}.d{fill:#f6b75e;}</style></defs><title>Asset 1</title><path class="a" d="M318.47,171.12v-142h51.6q17.4,0,30.5,5.6a61.31,61.31,0,0,1,35.1,37.7,84.72,84.72,0,0,1,4.4,27.5,83.26,83.26,0,0,1-4.9,29.3,62.57,62.57,0,0,1-14.1,22.4A63.55,63.55,0,0,1,399,166a78,78,0,0,1-28.9,5.1Zm93.8-71.2a60.66,60.66,0,0,0-2.8-18.8,42.19,42.19,0,0,0-8.2-14.8,36.63,36.63,0,0,0-13.3-9.6,45,45,0,0,0-17.9-3.4h-24v93.6h24a43.22,43.22,0,0,0,18.1-3.6,37.17,37.17,0,0,0,13.2-9.9,44.08,44.08,0,0,0,8.1-14.9A59.92,59.92,0,0,0,412.27,99.92Z" transform="translate(0 -25.03)"/><path class="a" d="M502.06,173.12a58.09,58.09,0,0,1-22.8-4.3,51.42,51.42,0,0,1-28.5-28.9,55.19,55.19,0,0,1-3.9-20.6,58.47,58.47,0,0,1,3.8-21.1,51.6,51.6,0,0,1,11-17.4,52.58,52.58,0,0,1,17.5-11.9,58.33,58.33,0,0,1,23.1-4.4,56.83,56.83,0,0,1,22.9,4.4,52.81,52.81,0,0,1,17.2,11.8,50.19,50.19,0,0,1,10.8,17.2,57.26,57.26,0,0,1,3.7,20.4c0,1.74,0,3.4-.1,5a19.55,19.55,0,0,1-.5,4h-81a31.06,31.06,0,0,0,3,11,26.94,26.94,0,0,0,14.8,13.4,28.23,28.23,0,0,0,10,1.8,30.89,30.89,0,0,0,15.1-3.9q7.1-3.9,9.7-10.3l23,6.4q-5.79,12-18.5,19.7T502.06,173.12Zm27.2-63.2q-1-11.79-8.7-18.9a27.3,27.3,0,0,0-37.1.1,27.45,27.45,0,0,0-5.9,8.2,29.06,29.06,0,0,0-2.7,10.6Z" transform="translate(0 -25.03)"/><path class="a" d="M616.06,173.12a58.09,58.09,0,0,1-22.8-4.3,51.42,51.42,0,0,1-28.5-28.9,55.19,55.19,0,0,1-3.9-20.6,58.47,58.47,0,0,1,3.8-21.1,51.44,51.44,0,0,1,11-17.4,52.58,52.58,0,0,1,17.5-11.9,58.33,58.33,0,0,1,23.1-4.4,56.86,56.86,0,0,1,22.9,4.4,52.81,52.81,0,0,1,17.2,11.8,50.34,50.34,0,0,1,10.8,17.2,57.26,57.26,0,0,1,3.7,20.4c0,1.74,0,3.4-.1,5a20.27,20.27,0,0,1-.5,4h-81a31.06,31.06,0,0,0,3,11,26.94,26.94,0,0,0,14.8,13.4,28.23,28.23,0,0,0,10,1.8,30.89,30.89,0,0,0,15.1-3.9q7.1-3.9,9.7-10.3l23,6.4q-5.8,12-18.5,19.7T616.06,173.12Zm27.2-63.2q-1-11.79-8.7-18.9a27.3,27.3,0,0,0-37.1.1,27.45,27.45,0,0,0-5.9,8.2,29.06,29.06,0,0,0-2.7,10.6Z" transform="translate(0 -25.03)"/><path class="b" d="M779.86,53.32h-45.2v117.8h-27.6V53.32h-45.4V29.12h118.2Z" transform="translate(0 -25.03)"/><path class="b" d="M825.66,173.12a57.42,57.42,0,0,1-23-4.4,51.58,51.58,0,0,1-17.3-11.9,52.46,52.46,0,0,1-10.9-17.3,56.54,56.54,0,0,1-3.8-20.6,57.13,57.13,0,0,1,3.8-20.8,52.56,52.56,0,0,1,10.9-17.3,51.72,51.72,0,0,1,17.3-11.9,57.59,57.59,0,0,1,23-4.4,56.86,56.86,0,0,1,22.9,4.4,52,52,0,0,1,17.2,11.9,52.56,52.56,0,0,1,10.9,17.3,57.13,57.13,0,0,1,3.8,20.8,56.54,56.54,0,0,1-3.8,20.6,53.19,53.19,0,0,1-10.8,17.3,50.56,50.56,0,0,1-17.2,11.9A57.42,57.42,0,0,1,825.66,173.12Zm-27.4-54.2a36.5,36.5,0,0,0,2.1,12.7,31,31,0,0,0,5.8,9.9,26,26,0,0,0,8.7,6.5,26.51,26.51,0,0,0,21.6,0,26,26,0,0,0,8.7-6.5,30.72,30.72,0,0,0,5.8-10,37.32,37.32,0,0,0,2.1-12.8,36.77,36.77,0,0,0-2.1-12.6,30.82,30.82,0,0,0-5.8-10,26.08,26.08,0,0,0-8.7-6.5,25.56,25.56,0,0,0-10.8-2.3,24.61,24.61,0,0,0-10.8,2.4,27.21,27.21,0,0,0-8.7,6.6,30.82,30.82,0,0,0-5.8,10A36.77,36.77,0,0,0,798.26,118.92Z" transform="translate(0 -25.03)"/><path class="b" d="M946.66,173.12a57.42,57.42,0,0,1-23-4.4,51.58,51.58,0,0,1-17.3-11.9,52.46,52.46,0,0,1-10.9-17.3,56.54,56.54,0,0,1-3.8-20.6,57.13,57.13,0,0,1,3.8-20.8,52.56,52.56,0,0,1,10.9-17.3,51.72,51.72,0,0,1,17.3-11.9,57.59,57.59,0,0,1,23-4.4,56.86,56.86,0,0,1,22.9,4.4,52,52,0,0,1,17.2,11.9,52.56,52.56,0,0,1,10.9,17.3,57.13,57.13,0,0,1,3.8,20.8,56.54,56.54,0,0,1-3.8,20.6,53.19,53.19,0,0,1-10.8,17.3,50.56,50.56,0,0,1-17.2,11.9A57.42,57.42,0,0,1,946.66,173.12Zm-27.4-54.2a36.5,36.5,0,0,0,2.1,12.7,31,31,0,0,0,5.8,9.9,26,26,0,0,0,8.7,6.5,26.51,26.51,0,0,0,21.6,0,26,26,0,0,0,8.7-6.5,30.72,30.72,0,0,0,5.8-10,37.32,37.32,0,0,0,2.1-12.8,36.77,36.77,0,0,0-2.1-12.6,30.82,30.82,0,0,0-5.8-10,26.08,26.08,0,0,0-8.7-6.5,25.56,25.56,0,0,0-10.8-2.3,24.61,24.61,0,0,0-10.8,2.4,27.21,27.21,0,0,0-8.7,6.6,30.82,30.82,0,0,0-5.8,10A36.77,36.77,0,0,0,919.26,118.92Z" transform="translate(0 -25.03)"/><path class="c" d="M220.39,95.19l.06,0c-.66-17.34-8.11-33.13-20-45.33,2.6-.48,6.37-.36,11,2,0,0-6.59-13-20.83-11.25,0,0,4.46-10.83-7.25-14.16a30.53,30.53,0,0,0-2.24,8.93C169,28.83,160,25,144.74,25c-44.42,0-85.82,32-86.43,71.7h0c-.08.48-.12.74-.12.74S118.84,116.68,161,72.15c0,0-3.19,20.23-28.63,39.71,0,0,35.2-1.83,50-33.24a31,31,0,0,1-.65,22.61,28.23,28.23,0,0,0,20-16.71,20.92,20.92,0,0,0,18.79,13S220.5,96.65,220.39,95.19Z" transform="translate(0 -25.03)"/><path class="d" d="M244.53,165.7a4.53,4.53,0,0,1-3.2-7.73l26.32-26.32-26.32-26.32a4.53,4.53,0,1,1,6.4-6.4l29.52,29.52a4.51,4.51,0,0,1,0,6.4l-29.52,29.52A4.52,4.52,0,0,1,244.53,165.7Z" transform="translate(0 -25.03)"/><path class="d" d="M34.05,165.7a4.52,4.52,0,0,1-3.2-1.33L1.33,134.85a4.51,4.51,0,0,1,0-6.4L30.85,98.93a4.53,4.53,0,1,1,6.4,6.4L10.93,131.65,37.25,158a4.53,4.53,0,0,1-3.2,7.73Z" transform="translate(0 -25.03)"/><path class="e" d="M222.32,117.73c-21.53-6.17-54-3.34-67.09,1-5,1.65-10.88,4-15.89,4s-10.9-2.34-15.89-4c-13.09-4.31-45.56-7.14-67.08-1a2.32,2.32,0,0,0-1.69,2.36l.43,7.94a2.34,2.34,0,0,0,1.9,2.15,4.45,4.45,0,0,1,3.41,3.41c1.29,4.3,4.28,22,9.75,28.92,6.8,8.59,21.43,8.92,31.33,8.5,13.32-.57,22-6.49,25.77-16.51s5.82-18.62,8.2-21.34a5.55,5.55,0,0,1,7.74,0c2.38,2.72,4.48,11.31,8.2,21.34s12.45,15.94,25.78,16.51c9.89.42,24.52.09,31.32-8.5,5.47-6.91,8.46-24.62,9.75-28.92a4.45,4.45,0,0,1,3.41-3.41,2.34,2.34,0,0,0,1.9-2.15l.43-7.94A2.33,2.33,0,0,0,222.32,117.73Zm-101,36.77c-3.58,6.73-9.59,10.16-18.61,11.31s-19.81-.62-25.25-3.87c-4.78-2.85-7.11-11.88-8.25-17.32S66,127.44,71.62,123.57s19.62-4.15,28.92-3.58c7,.43,22.19,2.29,25.06,7.73S124.2,149.05,121.3,154.5Zm88.19-9.88c-1.14,5.44-3.47,14.47-8.25,17.32-5.44,3.25-16.23,5-25.25,3.87s-15-4.58-18.61-11.31c-2.9-5.45-7.16-21.34-4.3-26.78s18-7.3,25.06-7.73c9.3-.57,23.34-.28,28.92,3.58S210.64,139.18,209.49,144.62Z" transform="translate(0 -25.03)"/></svg>