<?xml version="1.0" encoding="utf-8"?>
<!-- Generator: Adobe Illustrator 21.0.0, SVG Export Plug-In . SVG Version: 6.00 Build 0)  -->
<svg version="1.1" id="Layer_1" xmlns="http://www.w3.org/2000/svg" xmlns:xlink="http://www.w3.org/1999/xlink" x="0px" y="0px"
	 viewBox="0 0 198 112" style="enable-background:new 0 0 198 112;" xml:space="preserve">
<style type="text/css">
	.st0{fill:#FEFAD7;}
	.st1{fill:#A7B0C4;}
	.st2{fill:#FEECA8;}
	.st3{fill:#FFFFFF;}
	.st4{fill:#E2E7EF;}
	.st5{fill:#F8AB9E;}
	.st6{fill:#ADD7F3;}
	.st7{fill:#0F395A;}
	.st8{fill:#FEE279;}
	.st9{fill:#EA9AA7;}
	.st10{fill:#F9C1C7;}
	.st11{fill:#F5B445;}
	.st12{fill:#0E395A;}
	.st13{fill:#FFCA5D;}
	.st14{fill:#F8A247;}
	.st15{fill:#FEE2CB;}
	.st16{fill:#F3CDB1;}
	.st17{fill:#C7EAFB;}
	.st18{fill:#9AB5CD;}
	.st19{fill:#CAD5E3;}
	.st20{fill:#D3E2EB;}
	.st21{fill:#EDF1F9;}
	.st22{fill:#7DA3BC;}
	.st23{fill:#B0C4D8;}
	.st24{fill:#EBF4DF;}
	.st25{fill:#FCBB76;}
	.st26{fill:#D8E6BE;}
	.st27{fill:#FFCB5D;}
	.st28{fill:#71B8E5;}
	.st29{fill:#F16B56;}
	.st30{fill:#F6B545;}
	.st31{fill:#4E9CD5;}
	.st32{fill:#89C764;}
	.st33{fill:#72AF49;}
	.st34{fill:#D5E3EE;}
	.st35{fill:#F7964B;}
	.st36{fill:#CF7C32;}
	.st37{fill:#B66928;}
	.st38{fill:#FFE37C;}
	.st39{fill:#577280;}
</style>
<g>
	<g>
		<path class="st0" d="M127,49h-26c-1.1,0-2-0.9-2-2V29h30v18C129,48.1,128.1,49,127,49z"/>
		<path class="st1" d="M127,50h-26c-1.7,0-3-1.3-3-3V29c0-0.6,0.4-1,1-1h30c0.6,0,1,0.4,1,1v18C130,48.7,128.7,50,127,50z M100,30
			v17c0,0.6,0.4,1,1,1h26c0.6,0,1-0.4,1-1V30H100z"/>
	</g>
	<g>
		<path class="st2" d="M127,47h-26c-0.6,0-1-0.4-1-1v1c0,0.6,0.4,1,1,1h26c0.6,0,1-0.4,1-1v-1C128,46.6,127.6,47,127,47z"/>
	</g>
	<g>
		<path class="st0" d="M129,29H99l13.2-11.3c0.5-0.4,1.1-0.7,1.8-0.7l0,0c0.6,0,1.3,0.2,1.8,0.7L129,29z"/>
		<path class="st1" d="M129,30H99c-0.4,0-0.8-0.3-0.9-0.7c-0.1-0.4,0-0.8,0.3-1.1l13.2-11.3c1.3-1.1,3.5-1.1,4.8,0l13.2,11.3
			c0.3,0.3,0.4,0.7,0.3,1.1C129.8,29.7,129.4,30,129,30z M101.7,28h24.6l-11.2-9.6c-0.6-0.5-1.6-0.5-2.2,0L101.7,28z"/>
	</g>
	<g>
		<path class="st2" d="M99,29h30l-13.2,11.3c-0.5,0.4-1.1,0.7-1.8,0.7l0,0c-0.6,0-1.3-0.2-1.8-0.7L99,29z"/>
		<path class="st1" d="M114,42c-0.9,0-1.7-0.3-2.4-0.9L98.3,29.8c-0.3-0.3-0.4-0.7-0.3-1.1c0.1-0.4,0.5-0.7,0.9-0.7h30
			c0.4,0,0.8,0.3,0.9,0.7c0.1,0.4,0,0.8-0.3,1.1l-13.2,11.3C115.7,41.7,114.9,42,114,42z M101.7,30l11.2,9.6c0.6,0.5,1.6,0.5,2.2,0
			l11.2-9.6H101.7z"/>
	</g>
	<g>
		<path class="st1" d="M128,49c-0.3,0-0.6-0.1-0.8-0.4l-8-10c-0.3-0.4-0.3-1.1,0.2-1.4c0.4-0.3,1.1-0.3,1.4,0.2l8,10
			c0.3,0.4,0.3,1.1-0.2,1.4C128.4,48.9,128.2,49,128,49z"/>
	</g>
	<g>
		<path class="st1" d="M100,49c-0.2,0-0.4-0.1-0.6-0.2c-0.4-0.3-0.5-1-0.2-1.4l8-10c0.3-0.4,1-0.5,1.4-0.2c0.4,0.3,0.5,1,0.2,1.4
			l-8,10C100.6,48.9,100.3,49,100,49z"/>
	</g>
	<path class="st3" d="M104,9v20v4.3l8.2,7.1c0.5,0.4,1.1,0.7,1.8,0.7s1.3-0.2,1.8-0.7l8.2-7.1V19v-3.2c0-0.5-0.2-1-0.6-1.4l-4.8-4.8
		c-0.4-0.4-0.9-0.6-1.4-0.6H104z"/>
	<g>
		<path class="st4" d="M123,17l-3.8,0.9c-0.1,0-0.3,0.1-0.4,0.1l0,0c-1,0-1.8-0.8-1.8-1.8V15h6V17z"/>
	</g>
	<path class="st1" d="M124.1,13.7l-4.8-4.8C118.7,8.3,118,8,117.2,8H104c-0.6,0-1,0.4-1,1v24.3c0,0.3,0.1,0.6,0.3,0.8l8.2,7.1
		c0.7,0.6,1.5,0.9,2.4,0.9s1.7-0.3,2.4-0.9l8.2-7.1c0.2-0.2,0.3-0.5,0.3-0.8V15.8C125,15,124.7,14.3,124.1,13.7z M121.6,14H119v-2.6
		L121.6,14z M123,32.8l-7.9,6.8c-0.6,0.5-1.6,0.5-2.2,0l-7.9-6.8V10h10c1.1,0,2,0.9,2,2v3c0,0.6,0.4,1,1,1h3c1.1,0,2,0.9,2,2V32.8z"
		/>
	<g>
		<rect x="108" y="17" class="st5" width="3" height="12"/>
	</g>
	<g>
		<rect x="112" y="23" class="st5" width="3" height="6"/>
	</g>
	<g>
		<rect x="116" y="19" class="st5" width="3" height="10"/>
	</g>
	<g>
		<g>
			<path class="st1" d="M114,34h-5c-0.6,0-1-0.4-1-1s0.4-1,1-1h5c0.6,0,1,0.4,1,1S114.6,34,114,34z"/>
		</g>
	</g>
	<g>
		<g>
			<path class="st1" d="M119,34h-2c-0.6,0-1-0.4-1-1s0.4-1,1-1h2c0.6,0,1,0.4,1,1S119.6,34,119,34z"/>
		</g>
	</g>
	<g>
		<circle class="st5" cx="109.5" cy="30.5" r="0.5"/>
	</g>
	<g>
		<circle class="st5" cx="113.5" cy="30.5" r="0.5"/>
	</g>
	<g>
		<circle class="st5" cx="117.5" cy="30.5" r="0.5"/>
	</g>
</g>
<g>
	<path class="st6" d="M72,95H44c-1.1,0-2-0.9-2-2V74c0-1.1,0.9-2,2-2h28c1.1,0,2,0.9,2,2v19C74,94.1,73.1,95,72,95z"/>
	<path class="st7" d="M72,71H44c-1.7,0-3,1.3-3,3v19c0,1.7,1.3,3,3,3h28c1.7,0,3-1.3,3-3V74C75,72.3,73.7,71,72,71z M73,93
		c0,0.6-0.4,1-1,1H44c-0.6,0-1-0.4-1-1V82h30V93z M73,76H43v-2c0-0.6,0.4-1,1-1h28c0.6,0,1,0.4,1,1V76z"/>
	<g>
		<rect x="45" y="84" class="st3" width="16" height="3"/>
	</g>
	<g>
		<path class="st7" d="M50,92h-4c-0.6,0-1-0.4-1-1s0.4-1,1-1h4c0.6,0,1,0.4,1,1S50.6,92,50,92z"/>
	</g>
	<g>
		<path class="st7" d="M70,92h-9c-0.6,0-1-0.4-1-1s0.4-1,1-1h9c0.6,0,1,0.4,1,1S70.6,92,70,92z"/>
	</g>
</g>
<g>
	<circle class="st8" cx="81" cy="24" r="9"/>
	<path class="st7" d="M81,35c-6.1,0-11-4.9-11-11s4.9-11,11-11s11,4.9,11,11S87.1,35,81,35z M81,15c-5,0-9,4-9,9s4,9,9,9s9-4,9-9
		S86,15,81,15z"/>
</g>
<g>
	<g>
		<polygon class="st9" points="177,106 178,111 181,111 181,106 		"/>
		<path class="st7" d="M181,112h-3c-0.5,0-0.9-0.3-1-0.8l-1-5c-0.1-0.5,0.2-1.1,0.8-1.2c0.5-0.1,1.1,0.2,1.2,0.8l0.8,4.2h1.2v-4
			c0-0.6,0.4-1,1-1s1,0.4,1,1v5C182,111.6,181.6,112,181,112z"/>
	</g>
	<g>
		<path class="st9" d="M183,93l1-5l-3.1,1.3c-1.1,0.4-1.9,1.5-1.9,2.7l0,0L183,93z"/>
		<path class="st7" d="M183,94c-0.1,0-0.1,0-0.2,0c-0.5-0.1-0.9-0.6-0.8-1.2l0.6-3.2l-1.4,0.6c-0.7,0.3-1.2,1-1.2,1.8
			c0,0.6-0.4,1-1,1s-1-0.4-1-1c0-1.6,1-3.1,2.5-3.7l3.1-1.3c0.3-0.1,0.7-0.1,1,0.2c0.3,0.2,0.4,0.6,0.3,1l-1,5
			C183.9,93.7,183.5,94,183,94z"/>
	</g>
	<path class="st10" d="M186.3,97h-1.4c-0.6-3.4-3.6-7-7.2-7l-9.9,0c-3.4,0-6.5,2.1-7.5,5.3c-0.5,1.7-0.4,3.5,0.3,5L165,111h3v-3h8
		l4.1-0.9c2.1-0.5,3.8-2,4.5-3.9c0.3-0.7,0.9-1.2,1.7-1.2h0c1,0,1.7-0.8,1.7-1.7v-1.5C188,97.8,187.2,97,186.3,97z"/>
	<g>
		<circle class="st7" cx="180" cy="96" r="1"/>
	</g>
	<rect x="169" y="109" class="st9" width="1" height="1"/>
	<g>
		<path class="st9" d="M186.3,98H186v0.3c0,0.4-0.3,0.7-0.8,0.7c-1.1,0-2.2,0.7-2.6,1.8c-0.5,1.3-1.4,2.3-2.7,2.9
			c-0.2,0.1-0.6,0.2-1,0.3c-0.6,0.2-1,0.7-1,1.4v1.1l1.9-0.4c1.7-0.4,3.2-1.5,3.7-3.2c0.4-1.2,1.4-2,2.6-2c0.4,0,0.8-0.3,0.8-0.7
			v-1.5C187,98.3,186.7,98,186.3,98z"/>
	</g>
	<g>
		<path class="st10" d="M186.5,102h-1c-0.8,0-1.5-0.7-1.5-1.5v-2c0-0.8,0.7-1.5,1.5-1.5h1c0.8,0,1.5,0.7,1.5,1.5v2
			C188,101.3,187.3,102,186.5,102z"/>
		<path class="st7" d="M186.5,103h-1c-1.4,0-2.5-1.1-2.5-2.5v-2c0-1.4,1.1-2.5,2.5-2.5h1c1.4,0,2.5,1.1,2.5,2.5v2
			C189,101.9,187.9,103,186.5,103z M185.5,98c-0.3,0-0.5,0.2-0.5,0.5v2c0,0.3,0.2,0.5,0.5,0.5h1c0.3,0,0.5-0.2,0.5-0.5v-2
			c0-0.3-0.2-0.5-0.5-0.5H185.5z"/>
	</g>
	<g>
		<path class="st9" d="M186.5,98.5H186v2.5h0.5c0.3,0,0.5-0.2,0.5-0.5V99C187,98.7,186.8,98.5,186.5,98.5z"/>
	</g>
	<g>
		<path class="st9" d="M172.6,105c-0.9,0-1.6-0.7-1.7-1.6L170,94h-1v11c-1.7,0-3,1.3-3,3v2h1v-2c0-0.6,0.4-1,1-1h6v-2H172.6z"/>
	</g>
	<g>
		<polygon class="st10" points="174,106 175,111 178,111 178,106 		"/>
		<path class="st7" d="M178,112h-3c-0.5,0-0.9-0.3-1-0.8l-1-5c-0.1-0.5,0.2-1.1,0.8-1.2c0.5-0.1,1.1,0.2,1.2,0.8l0.8,4.2h1.2v-4
			c0-0.6,0.4-1,1-1s1,0.4,1,1v5C179,111.6,178.6,112,178,112z"/>
	</g>
	<g>
		<path class="st9" d="M177,110h-1v-1.6c0-0.9,0.4-1.8,1-2.4l0,0V110z"/>
	</g>
	<path class="st7" d="M186.3,96h-0.6c-1-3.5-4.1-7-8-7h-9.9c-3.9,0-7.4,2.5-8.4,6H159c-0.6,0-1-0.4-1-1s0.4-1,1-1c0.6,0,1-0.4,1-1
		s-0.4-1-1-1c-1.7,0-3,1.3-3,3s1.3,3,3,3h0c-0.1,1.3,0.1,2.6,0.6,3.8l4.4,10.6c0.2,0.4,0.5,0.6,0.9,0.6h3h3c0.6,0,1-0.4,1-1v-2h4
		c0.1,0,0.1,0,0.2,0l4.1-0.9c2.4-0.5,4.3-2.2,5.2-4.5c0.1-0.3,0.3-0.6,0.7-0.6c1.5,0,2.7-1.2,2.7-2.7v-1.5
		C189,97.2,187.8,96,186.3,96z M170,110h-1v-1h1V110z M187,100.3c0,0.4-0.3,0.7-0.8,0.7c-1.1,0-2.2,0.7-2.6,1.8
		c-0.6,1.7-2,2.9-3.8,3.3l-4,0.9H171h-2v-1c0-0.6-0.4-1-1-1s-1,0.4-1,1v2v2h-1.3l-4.2-10c-0.6-1.4-0.7-2.9-0.2-4.4
		c0.8-2.7,3.5-4.6,6.5-4.6h9.9c3,0,5.6,3.2,6.2,6.2c0.1,0.5,0.5,0.8,1,0.8h1.4c0.4,0,0.7,0.3,0.7,0.7V100.3z"/>
	<g>
		<path class="st10" d="M180,92l1-5l-3.1,1.3c-1.1,0.4-1.9,1.5-1.9,2.7l0,0L180,92z"/>
		<path class="st7" d="M180,93c-0.1,0-0.1,0-0.2,0c-0.5-0.1-0.9-0.6-0.8-1.2l0.6-3.2l-1.4,0.6c-0.7,0.3-1.2,1-1.2,1.8
			c0,0.6-0.4,1-1,1s-1-0.4-1-1c0-1.6,1-3.1,2.5-3.7l3.1-1.3c0.3-0.1,0.7-0.1,1,0.2c0.3,0.2,0.4,0.6,0.3,1l-1,5
			C180.9,92.7,180.5,93,180,93z"/>
	</g>
	<g>
		<path class="st7" d="M176,94h-10c-0.6,0-1-0.4-1-1s0.4-1,1-1h10c0.6,0,1,0.4,1,1S176.6,94,176,94z"/>
	</g>
	<g>
		<g>
			<circle class="st11" cx="171" cy="88" r="4"/>
			<path class="st12" d="M171,94c-3.3,0-6-2.7-6-6s2.7-6,6-6s6,2.7,6,6S174.3,94,171,94z M171,84c-2.2,0-4,1.8-4,4s1.8,4,4,4
				s4-1.8,4-4S173.2,84,171,84z"/>
		</g>
		<g>
			<path class="st13" d="M173.1,85.9c-0.5-0.5-1.3-0.9-2.1-0.9c-1.7,0-3,1.3-3,3c0,0.8,0.3,1.6,0.9,2.1L173.1,85.9z"/>
		</g>
	</g>
	<path class="st14" d="M169,91.4c0.3,0.2,0.6,0.3,1,0.4v-7.7c-0.4,0.1-0.7,0.2-1,0.4V91.4z"/>
	<path class="st11" d="M169,90l1-1v-3.8c-0.4,0.1-0.7,0.3-1,0.6V90z"/>
</g>
<g>
	<polygon class="st15" points="159,111 147,111 147,49 153,41 159,49 	"/>
	<g>
		<polygon class="st16" points="153,110 148,110 148,50 		"/>
	</g>
	<rect x="160" y="68" class="st15" width="6" height="42"/>
	<g>
		<path class="st1" d="M163,88c-0.6,0-1-0.4-1-1V72c0-0.6,0.4-1,1-1s1,0.4,1,1v15C164,87.6,163.6,88,163,88z"/>
	</g>
	<g>
		<path class="st1" d="M155,88c-0.6,0-1-0.4-1-1V72c0-0.6,0.4-1,1-1s1,0.4,1,1v15C156,87.6,155.6,88,155,88z"/>
	</g>
	<g>
		<path class="st1" d="M151,88c-0.6,0-1-0.4-1-1V72c0-0.6,0.4-1,1-1s1,0.4,1,1v15C152,87.6,151.6,88,151,88z"/>
	</g>
	<g>
		<path class="st1" d="M163,108c-0.6,0-1-0.4-1-1V92c0-0.6,0.4-1,1-1s1,0.4,1,1v15C164,107.6,163.6,108,163,108z"/>
	</g>
	<g>
		<path class="st1" d="M155,68c-0.6,0-1-0.4-1-1V52c0-0.6-0.4-1-1-1s-1,0.4-1,1v15c0,0.6-0.4,1-1,1s-1-0.4-1-1V52c0-1.7,1.3-3,3-3
			s3,1.3,3,3v15C156,67.6,155.6,68,155,68z"/>
	</g>
	<path class="st1" d="M168,66h-1h-7V50c0.6,0,1-0.4,1-1s-0.4-1-1-1h-0.5l-5.5-7.3V37c0-0.6-0.4-1-1-1s-1,0.4-1,1v3.7l-5.5,7.3H146
		c-0.6,0-1,0.4-1,1s0.4,1,1,1v61c0,0.6,0.4,1,1,1h12h8c0.6,0,1-0.4,1-1V68c0.6,0,1-0.4,1-1S168.6,66,168,66z M158,67v43h-10V49.3
		l5-6.7l5,6.7V67z M166,110h-6V68h6V110z"/>
	<g>
		<path class="st1" d="M155,108c-0.6,0-1-0.4-1-1V92c0-0.6,0.4-1,1-1s1,0.4,1,1v15C156,107.6,155.6,108,155,108z"/>
	</g>
	<g>
		<path class="st1" d="M151,108c-0.6,0-1-0.4-1-1V92c0-0.6,0.4-1,1-1s1,0.4,1,1v15C152,107.6,151.6,108,151,108z"/>
	</g>
</g>
<g>
	<polygon class="st17" points="127,111 147,111 147,32 127,40 	"/>
	<g>
		<path class="st1" d="M147,45h-20c-0.6,0-1-0.4-1-1s0.4-1,1-1h20c0.6,0,1,0.4,1,1S147.6,45,147,45z"/>
	</g>
	<path class="st1" d="M147.6,31.2c-0.3-0.2-0.6-0.2-0.9-0.1l-20,8c-0.4,0.2-0.6,0.5-0.6,0.9v71c0,0.6,0.4,1,1,1h20c0.6,0,1-0.4,1-1
		V32C148,31.7,147.8,31.4,147.6,31.2z M128,93v-3h18v3H128z M146,95v3h-18v-3H146z M128,88v-3h18v3H128z M128,83v-3h18v3H128z
		 M128,78v-3h18v3H128z M128,73v-3h18v3H128z M128,68v-3h18v3H128z M128,63v-3h18v3H128z M128,58v-3h18v3H128z M128,53v-3h18v3H128z
		 M128,100h18v3h-18V100z M146,33.5V48h-18v-7.3L146,33.5z M128,110v-5h18v5H128z"/>
	<g>
		<path class="st1" d="M143,41h-3c-0.6,0-1-0.4-1-1s0.4-1,1-1h3c0.6,0,1,0.4,1,1S143.6,41,143,41z"/>
	</g>
	<g>
		<path class="st1" d="M141,34.4c-0.4,0-0.8-0.2-0.9-0.6c-0.2-0.5,0-1.1,0.6-1.3l3.5-1.4c1.1-0.5,1.9-1.6,1.9-2.8V22
			c0-0.6,0.4-1,1-1s1,0.4,1,1v6.3c0,2.1-1.2,3.9-3.1,4.6l-3.5,1.4C141.2,34.4,141.1,34.4,141,34.4z"/>
	</g>
	<g>
		<path class="st1" d="M147,34c-0.6,0-1-0.4-1-1v-5c0-0.6,0.4-1,1-1s1,0.4,1,1v5C148,33.6,147.6,34,147,34z"/>
	</g>
</g>
<g>
	<g>
		<rect x="132" y="82" class="st18" width="35" height="28"/>
		<path class="st7" d="M168,112h-37c-0.6,0-1-0.4-1-1V81c0-0.6,0.4-1,1-1h37c0.6,0,1,0.4,1,1v30C169,111.6,168.6,112,168,112z
			 M132,110h35V82h-35V110z"/>
	</g>
	<g>
		<polygon class="st19" points="151,108 164,82 159,82 146,108 		"/>
	</g>
	<g>
		<polygon class="st19" points="143,110 140,110 154,82 157,82 		"/>
	</g>
	<rect x="136" y="86" class="st20" width="27" height="20"/>
	<path class="st7" d="M164,84h-29c-0.6,0-1,0.4-1,1v3c-0.6,0-1,0.4-1,1v4c0,0.6,0.4,1,1,1v4c-0.6,0-1,0.4-1,1v4c0,0.6,0.4,1,1,1v3
		c0,0.6,0.4,1,1,1h29c0.6,0,1-0.4,1-1V85C165,84.4,164.6,84,164,84z M163,106h-27v-2c0.6,0,1-0.4,1-1v-4c0-0.6-0.4-1-1-1v-4
		c0.6,0,1-0.4,1-1v-4c0-0.6-0.4-1-1-1v-2h27V106z"/>
	<g>
		<path class="st7" d="M161,102c-0.6,0-1-0.4-1-1V91c0-0.6,0.4-1,1-1s1,0.4,1,1v10C162,101.6,161.6,102,161,102z"/>
	</g>
	<g>
		<polygon class="st21" points="145,106 150,106 160,86 155,86 		"/>
	</g>
	<g>
		<polygon class="st21" points="140,106 143,106 153,86 150,86 		"/>
	</g>
	<g>
		<rect x="137" y="82" class="st22" width="3" height="2"/>
	</g>
	<g>
		<rect x="137" y="86" class="st23" width="3" height="20"/>
	</g>
	<g>
		<path class="st23" d="M142.9,88.6c-0.2-0.4-0.5-0.6-0.9-0.6s-0.8,0.2-0.9,0.6l-3.6,8.1c-0.3,0.7-0.5,1.5-0.5,2.3
			c0,2.4,1.7,4.4,4,4.9v2.1h2v-2.1c2.3-0.5,4-2.5,4-4.9c0-0.8-0.2-1.6-0.5-2.3L142.9,88.6z"/>
	</g>
	<g>
		<path class="st19" d="M144.3,103.4l2.6-5.3c-0.1-0.5-0.2-1-0.4-1.5l-0.9-2L141,104v2h2v-2.1C143.5,103.8,143.9,103.6,144.3,103.4z
			"/>
	</g>
	<g>
		<path class="st22" d="M137.3,110h9.5c0.1-0.7,0.2-1.3,0.2-2h-10C137,108.7,137.1,109.3,137.3,110z"/>
	</g>
	<g>
		<g>
			<path class="st23" d="M153,103c-3.3,0-6-2.7-6-6s2.7-6,6-6s6,2.7,6,6S156.3,103,153,103z M153,93c-2.2,0-4,1.8-4,4s1.8,4,4,4
				s4-1.8,4-4S155.2,93,153,93z"/>
		</g>
	</g>
	<g>
		<g>
			<path class="st19" d="M151.6,102.8l0.9-1.9c-1.7-0.2-3.1-1.5-3.4-3.1l-1.2,2.3C148.7,101.5,150,102.5,151.6,102.8z"/>
		</g>
		<g>
			<path class="st19" d="M152.5,91l-1.2,2.4c0.5-0.2,1.1-0.4,1.7-0.4c1.1,0,2.2,0.5,2.9,1.2l0.9-1.9c-1-0.9-2.4-1.4-3.8-1.4
				C152.8,91,152.7,91,152.5,91z"/>
		</g>
	</g>
	<g>
		<path class="st23" d="M155,93.6l-5.5,5.5c0.3,0.6,0.8,1.1,1.4,1.4l5.5-5.5C156.1,94.4,155.6,93.9,155,93.6z"/>
	</g>
	<path class="st7" d="M156.2,100.2c1.1-1.1,1.8-2.6,1.8-4.2s-0.7-3.1-1.8-4.2c0,0,0,0,0,0s0,0,0,0c-1.1-1.1-2.6-1.8-4.2-1.8
		s-3.1,0.7-4.2,1.8c0,0,0,0,0,0s0,0,0,0c-1.1,1.1-1.8,2.6-1.8,4.2s0.7,3.1,1.8,4.2c0,0,0,0,0,0s0,0,0,0c1.1,1.1,2.6,1.8,4.2,1.8
		S155.1,101.3,156.2,100.2C156.2,100.2,156.2,100.2,156.2,100.2C156.2,100.2,156.2,100.2,156.2,100.2z M153.9,96.5
		c0-0.2,0.1-0.3,0.1-0.5s0-0.3-0.1-0.5l1.5-1.5c0.4,0.6,0.6,1.3,0.6,2s-0.2,1.4-0.6,2L153.9,96.5z M148.6,98c-0.4-0.6-0.6-1.3-0.6-2
		s0.2-1.4,0.6-2l1.5,1.5c0,0.2-0.1,0.3-0.1,0.5s0,0.3,0.1,0.5L148.6,98z M154,92.6l-1.5,1.5c-0.2,0-0.3-0.1-0.5-0.1s-0.3,0-0.5,0.1
		l-1.5-1.5c0.6-0.4,1.3-0.6,2-0.6S153.4,92.2,154,92.6z M150,99.4l1.5-1.5c0.2,0,0.3,0.1,0.5,0.1s0.3,0,0.5-0.1l1.5,1.5
		c-0.6,0.4-1.3,0.6-2,0.6S150.6,99.8,150,99.4z"/>
</g>
<g>
	<g>
		<g>
			<path class="st3" d="M66,55H48c-1.1,0-2-0.9-2-2V30c0-1.1,0.9-2,2-2h18c1.1,0,2,0.9,2,2v23C68,54.1,67.1,55,66,55z"/>
			<path class="st1" d="M66,56H48c-1.7,0-3-1.3-3-3V30c0-1.7,1.3-3,3-3h18c1.7,0,3,1.3,3,3v23C69,54.7,67.7,56,66,56z M48,29
				c-0.6,0-1,0.4-1,1v23c0,0.6,0.4,1,1,1h18c0.6,0,1-0.4,1-1V30c0-0.6-0.4-1-1-1H48z"/>
		</g>
	</g>
	<g>
		<path class="st4" d="M66,29v23c0,0.6-0.4,1-1,1H47c0,0.6,0.4,1,1,1h18c0.6,0,1-0.4,1-1V30C67,29.4,66.6,29,66,29z"/>
	</g>
	<g>
		<rect x="51" y="33" class="st24" width="12" height="5"/>
		<path class="st1" d="M64,40H50c-0.6,0-1-0.4-1-1v-7c0-0.6,0.4-1,1-1h14c0.6,0,1,0.4,1,1v7C65,39.6,64.6,40,64,40z M51,38h12v-5H51
			V38z"/>
	</g>
	<g>
		<g>
			<path class="st19" d="M51,42L51,42c-1.1,0-2,0.9-2,2v0c0,1.1,0.9,2,2,2h0c1.1,0,2-0.9,2-2v0C53,42.9,52.1,42,51,42z"/>
		</g>
		<g>
			<path class="st19" d="M57,42L57,42c-1.1,0-2,0.9-2,2v0c0,1.1,0.9,2,2,2h0c1.1,0,2-0.9,2-2v0C59,42.9,58.1,42,57,42z"/>
		</g>
		<g>
			<path class="st19" d="M51,48L51,48c-1.1,0-2,0.9-2,2v0c0,1.1,0.9,2,2,2h0c1.1,0,2-0.9,2-2v0C53,48.9,52.1,48,51,48z"/>
		</g>
		<g>
			<path class="st25" d="M57,48L57,48c-1.1,0-2,0.9-2,2v0c0,1.1,0.9,2,2,2h0c1.1,0,2-0.9,2-2v0C59,48.9,58.1,48,57,48z"/>
		</g>
	</g>
	<g>
		<path class="st5" d="M63,42L63,42c-1.1,0-2,0.9-2,2v6c0,1.1,0.9,2,2,2h0c1.1,0,2-0.9,2-2v-6C65,42.9,64.1,42,63,42z"/>
	</g>
	<g>
		<circle class="st3" cx="63" cy="47" r="1"/>
	</g>
	<g>
		<rect x="51" y="33" class="st26" width="12" height="1"/>
	</g>
</g>
<g>
	<circle class="st27" cx="136" cy="17" r="1"/>
</g>
<g>
	<circle class="st27" cx="4" cy="103" r="1"/>
</g>
<g>
	<circle class="st27" cx="44" cy="18" r="1"/>
</g>
<g>
	<circle class="st28" cx="62" cy="20" r="1"/>
</g>
<g>
	<circle class="st28" cx="153" cy="12" r="1"/>
</g>
<g>
	<circle class="st28" cx="196" cy="87" r="1"/>
</g>
<g>
	<circle class="st28" cx="84" cy="1" r="1"/>
</g>
<g>
	<circle class="st28" cx="16" cy="21" r="1"/>
</g>
<g>
	<circle class="st29" cx="179" cy="31" r="1"/>
</g>
<g>
	<circle class="st29" cx="12" cy="33" r="1"/>
</g>
<g>
	<circle class="st29" cx="9" cy="94" r="1"/>
</g>
<g>
	<path class="st30" d="M190,83c-1.7,0-3-1.3-3-3s1.3-3,3-3s3,1.3,3,3S191.7,83,190,83z M190,79c-0.6,0-1,0.4-1,1s0.4,1,1,1
		s1-0.4,1-1S190.6,79,190,79z"/>
</g>
<g>
	<path class="st30" d="M91,8c-1.7,0-3-1.3-3-3s1.3-3,3-3s3,1.3,3,3S92.7,8,91,8z M91,4c-0.6,0-1,0.4-1,1s0.4,1,1,1s1-0.4,1-1
		S91.6,4,91,4z"/>
</g>
<g>
	<path class="st29" d="M52,15c-1.7,0-3-1.3-3-3s1.3-3,3-3s3,1.3,3,3S53.7,15,52,15z M52,11c-0.6,0-1,0.4-1,1s0.4,1,1,1s1-0.4,1-1
		S52.6,11,52,11z"/>
</g>
<g>
	<path class="st29" d="M194,71c-1.7,0-3-1.3-3-3s1.3-3,3-3s3,1.3,3,3S195.7,71,194,71z M194,67c-0.6,0-1,0.4-1,1s0.4,1,1,1
		s1-0.4,1-1S194.6,67,194,67z"/>
</g>
<g>
	<path class="st28" d="M164,32c-1.7,0-3-1.3-3-3s1.3-3,3-3s3,1.3,3,3S165.7,32,164,32z M164,28c-0.6,0-1,0.4-1,1s0.4,1,1,1
		s1-0.4,1-1S164.6,28,164,28z"/>
</g>
<path class="st30" d="M8.9,47.5l0.8-0.8c0.4-0.4,0.4-1,0-1.4s-1-0.4-1.4,0l-0.8,0.8l-0.8-0.8c-0.4-0.4-1-0.4-1.4,0s-0.4,1,0,1.4
	l0.8,0.8l-0.8,0.8c-0.4,0.4-0.4,1,0,1.4C5.5,49.9,5.7,50,6,50s0.5-0.1,0.7-0.3l0.8-0.8l0.8,0.8C8.5,49.9,8.7,50,9,50
	s0.5-0.1,0.7-0.3c0.4-0.4,0.4-1,0-1.4L8.9,47.5z"/>
<path class="st30" d="M137.9,9.5l0.8-0.8c0.4-0.4,0.4-1,0-1.4s-1-0.4-1.4,0l-0.8,0.8l-0.8-0.8c-0.4-0.4-1-0.4-1.4,0s-0.4,1,0,1.4
	l0.8,0.8l-0.8,0.8c-0.4,0.4-0.4,1,0,1.4c0.2,0.2,0.5,0.3,0.7,0.3s0.5-0.1,0.7-0.3l0.8-0.8l0.8,0.8c0.2,0.2,0.5,0.3,0.7,0.3
	s0.5-0.1,0.7-0.3c0.4-0.4,0.4-1,0-1.4L137.9,9.5z"/>
<path class="st29" d="M70.9,4.5l0.8-0.8c0.4-0.4,0.4-1,0-1.4s-1-0.4-1.4,0l-0.8,0.8l-0.8-0.8c-0.4-0.4-1-0.4-1.4,0s-0.4,1,0,1.4
	l0.8,0.8l-0.8,0.8c-0.4,0.4-0.4,1,0,1.4C67.5,6.9,67.7,7,68,7s0.5-0.1,0.7-0.3l0.8-0.8l0.8,0.8C70.5,6.9,70.7,7,71,7
	s0.5-0.1,0.7-0.3c0.4-0.4,0.4-1,0-1.4L70.9,4.5z"/>
<path class="st29" d="M171.9,16.5l0.8-0.8c0.4-0.4,0.4-1,0-1.4s-1-0.4-1.4,0l-0.8,0.8l-0.8-0.8c-0.4-0.4-1-0.4-1.4,0s-0.4,1,0,1.4
	l0.8,0.8l-0.8,0.8c-0.4,0.4-0.4,1,0,1.4c0.2,0.2,0.5,0.3,0.7,0.3s0.5-0.1,0.7-0.3l0.8-0.8l0.8,0.8c0.2,0.2,0.5,0.3,0.7,0.3
	s0.5-0.1,0.7-0.3c0.4-0.4,0.4-1,0-1.4L171.9,16.5z"/>
<path class="st28" d="M34.9,17.5l0.8-0.8c0.4-0.4,0.4-1,0-1.4s-1-0.4-1.4,0l-0.8,0.8l-0.8-0.8c-0.4-0.4-1-0.4-1.4,0s-0.4,1,0,1.4
	l0.8,0.8l-0.8,0.8c-0.4,0.4-0.4,1,0,1.4c0.2,0.2,0.5,0.3,0.7,0.3s0.5-0.1,0.7-0.3l0.8-0.8l0.8,0.8c0.2,0.2,0.5,0.3,0.7,0.3
	s0.5-0.1,0.7-0.3c0.4-0.4,0.4-1,0-1.4L34.9,17.5z"/>
<g>
	<path class="st7" d="M184,112H14c-0.6,0-1-0.4-1-1s0.4-1,1-1h170c0.6,0,1,0.4,1,1S184.6,112,184,112z"/>
</g>
<g>
	<circle class="st7" cx="197" cy="111" r="1"/>
</g>
<g>
	<path class="st7" d="M193,112h-5c-0.6,0-1-0.4-1-1s0.4-1,1-1h5c0.6,0,1,0.4,1,1S193.6,112,193,112z"/>
</g>
<g>
	<circle class="st7" cx="1" cy="111" r="1"/>
</g>
<g>
	<path class="st7" d="M10,112H5c-0.6,0-1-0.4-1-1s0.4-1,1-1h5c0.6,0,1,0.4,1,1S10.6,112,10,112z"/>
</g>
<g>
	<circle class="st7" cx="81" cy="37" r="1"/>
</g>
<g>
	<circle class="st7" cx="81" cy="40" r="1"/>
</g>
<g>
	<circle class="st7" cx="81" cy="43" r="1"/>
</g>
<g>
	<circle class="st7" cx="172" cy="72" r="1"/>
</g>
<g>
	<circle class="st7" cx="172" cy="75" r="1"/>
</g>
<g>
	<circle class="st7" cx="172" cy="78" r="1"/>
</g>
<g>
	<circle class="st7" cx="9" cy="86" r="1"/>
</g>
<g>
	<circle class="st7" cx="9" cy="83" r="1"/>
</g>
<g>
	<circle class="st7" cx="9" cy="80" r="1"/>
</g>
<g>
	<circle class="st7" cx="9" cy="71" r="1"/>
</g>
<g>
	<circle class="st7" cx="15" cy="86" r="1"/>
</g>
<g>
	<circle class="st7" cx="12" cy="86" r="1"/>
</g>
<g>
	<circle class="st7" cx="18" cy="86" r="1"/>
</g>
<g>
	<circle class="st7" cx="9" cy="77" r="1"/>
</g>
<g>
	<circle class="st7" cx="9" cy="74" r="1"/>
</g>
<g>
	<circle class="st7" cx="9" cy="65" r="1"/>
</g>
<g>
	<circle class="st7" cx="12" cy="65" r="1"/>
</g>
<g>
	<circle class="st7" cx="15" cy="65" r="1"/>
</g>
<g>
	<circle class="st7" cx="9" cy="68" r="1"/>
</g>
<g>
	<g>
		<rect x="60" y="56" class="st3" width="78" height="4"/>
		<path class="st7" d="M139,62H59c-0.6,0-1-0.4-1-1v-6c0-0.6,0.4-1,1-1h80c0.6,0,1,0.4,1,1v6C140,61.6,139.6,62,139,62z M60,60h78
			v-4H60V60z"/>
	</g>
	<g>
		<rect x="67" y="66" class="st20" width="64" height="41"/>
		<path class="st7" d="M132,109H66c-0.6,0-1-0.4-1-1V65c0-0.6,0.4-1,1-1h66c0.6,0,1,0.4,1,1v43C133,108.6,132.6,109,132,109z
			 M67,107h64V66H67V107z"/>
	</g>
	<rect x="85" y="69" class="st3" width="2" height="38"/>
	<rect x="111" y="69" class="st3" width="2" height="38"/>
	<rect x="63" y="69" class="st3" width="2" height="38"/>
	<rect x="133" y="69" class="st3" width="2" height="38"/>
	<rect x="131" y="65" class="st20" width="6" height="3"/>
	<g>
		<rect x="132" y="109" class="st20" width="4" height="1"/>
		<path class="st7" d="M138,68v-3c0-0.6-0.4-1-1-1h-6c-0.6,0-1,0.4-1,1v3c0,0.6,0.4,1,1,1v38c-0.6,0-1,0.4-1,1v3c0,0.6,0.4,1,1,1h6
			c0.6,0,1-0.4,1-1v-3c0-0.6-0.4-1-1-1V69C137.6,69,138,68.6,138,68z M132,66h4v1h-4V66z M136,110h-4v-1h4V110z M135,107h-2V69h2
			V107z"/>
	</g>
	<rect x="62" y="109" class="st20" width="4" height="1"/>
	<g>
		<rect x="68" y="109" transform="matrix(-1 -1.224647e-16 1.224647e-16 -1 150 219)" class="st20" width="14" height="1"/>
		<path class="st7" d="M83,112H67c-0.6,0-1-0.4-1-1v-3c0-0.6,0.4-1,1-1h16c0.6,0,1,0.4,1,1v3C84,111.6,83.6,112,83,112z M68,110h14
			v-1H68V110z"/>
	</g>
	<g>
		<rect x="116" y="109" transform="matrix(-1 -1.224647e-16 1.224647e-16 -1 246 219)" class="st20" width="14" height="1"/>
		<path class="st7" d="M131,112h-16c-0.6,0-1-0.4-1-1v-3c0-0.6,0.4-1,1-1h16c0.6,0,1,0.4,1,1v3C132,111.6,131.6,112,131,112z
			 M116,110h14v-1h-14V110z"/>
	</g>
	<rect x="84" y="109" class="st20" width="4" height="1"/>
	<path class="st31" d="M94,84h10v-7c0-2.8-2.2-5-5-5h0c-2.8,0-5,2.2-5,5V84z"/>
	<g>
		<rect x="63" y="62" class="st20" width="72" height="2"/>
		<path class="st7" d="M136,66H62c-0.6,0-1-0.4-1-1v-4c0-0.6,0.4-1,1-1h74c0.6,0,1,0.4,1,1v4C137,65.6,136.6,66,136,66z M63,64h72
			v-2H63V64z"/>
	</g>
	<g>
		<path class="st7" d="M99,58c-0.6,0-1-0.4-1-1v-2c0-0.6,0.4-1,1-1s1,0.4,1,1v2C100,57.6,99.6,58,99,58z"/>
	</g>
	<g>
		<path class="st7" d="M105,58c-0.6,0-1-0.4-1-1v-2c0-0.6,0.4-1,1-1s1,0.4,1,1v2C106,57.6,105.6,58,105,58z"/>
	</g>
	<g>
		<path class="st7" d="M111,58c-0.6,0-1-0.4-1-1v-2c0-0.6,0.4-1,1-1s1,0.4,1,1v2C112,57.6,111.6,58,111,58z"/>
	</g>
	<g>
		<path class="st7" d="M117,58c-0.6,0-1-0.4-1-1v-2c0-0.6,0.4-1,1-1s1,0.4,1,1v2C118,57.6,117.6,58,117,58z"/>
	</g>
	<g>
		<path class="st7" d="M123,58c-0.6,0-1-0.4-1-1v-2c0-0.6,0.4-1,1-1s1,0.4,1,1v2C124,57.6,123.6,58,123,58z"/>
	</g>
	<g>
		<path class="st7" d="M129,58c-0.6,0-1-0.4-1-1v-2c0-0.6,0.4-1,1-1s1,0.4,1,1v2C130,57.6,129.6,58,129,58z"/>
	</g>
	<g>
		<path class="st7" d="M135,58c-0.6,0-1-0.4-1-1v-2c0-0.6,0.4-1,1-1s1,0.4,1,1v2C136,57.6,135.6,58,135,58z"/>
	</g>
	<g>
		<path class="st7" d="M63,58c-0.6,0-1-0.4-1-1v-2c0-0.6,0.4-1,1-1s1,0.4,1,1v2C64,57.6,63.6,58,63,58z"/>
	</g>
	<g>
		<path class="st7" d="M69,58c-0.6,0-1-0.4-1-1v-2c0-0.6,0.4-1,1-1s1,0.4,1,1v2C70,57.6,69.6,58,69,58z"/>
	</g>
	<g>
		<path class="st7" d="M75,58c-0.6,0-1-0.4-1-1v-2c0-0.6,0.4-1,1-1s1,0.4,1,1v2C76,57.6,75.6,58,75,58z"/>
	</g>
	<g>
		<path class="st7" d="M81,58c-0.6,0-1-0.4-1-1v-2c0-0.6,0.4-1,1-1s1,0.4,1,1v2C82,57.6,81.6,58,81,58z"/>
	</g>
	<g>
		<path class="st7" d="M87,58c-0.6,0-1-0.4-1-1v-2c0-0.6,0.4-1,1-1s1,0.4,1,1v2C88,57.6,87.6,58,87,58z"/>
	</g>
	<g>
		<path class="st7" d="M93,58c-0.6,0-1-0.4-1-1v-2c0-0.6,0.4-1,1-1s1,0.4,1,1v2C94,57.6,93.6,58,93,58z"/>
	</g>
	<rect x="63" y="48" class="st20" width="72" height="6"/>
	<path class="st7" d="M138,46h-2c0-0.6-0.4-1-1-1H63c-0.6,0-1,0.4-1,1h-2c-0.6,0-1,0.4-1,1s0.4,1,1,1h1v7c0,0.6,0.4,1,1,1h74
		c0.6,0,1-0.4,1-1v-7h1c0.6,0,1-0.4,1-1S138.6,46,138,46z M135,54H63v-6h72V54z"/>
	<g>
		<g>
			<path class="st7" d="M140,107c-0.6,0-1-0.4-1-1v-7c0-0.6,0.4-1,1-1s1,0.4,1,1v7C141,106.6,140.6,107,140,107z"/>
		</g>
		<g>
			<path class="st32" d="M140,102L140,102c-2.2,0-4-1.8-4-4v0c0-0.7,0.1-1.3,0.4-1.9L140,88l3.6,8.1c0.3,0.6,0.4,1.3,0.4,1.9v0
				C144,100.2,142.2,102,140,102z"/>
			<path class="st7" d="M140,103c-2.8,0-5-2.2-5-5c0-0.8,0.2-1.6,0.5-2.3l3.6-8.1c0.2-0.4,0.5-0.6,0.9-0.6s0.8,0.2,0.9,0.6l3.6,8.1
				c0.3,0.7,0.5,1.5,0.5,2.3C145,100.8,142.8,103,140,103z M140,90.5l-2.7,6c-0.2,0.5-0.3,1-0.3,1.5c0,1.7,1.3,3,3,3s3-1.3,3-3
				c0-0.5-0.1-1-0.3-1.5L140,90.5z"/>
		</g>
		<g>
			<path class="st33" d="M142.7,96.5l-0.8-1.8c0.1,0.3,0.1,0.6,0.1,0.9c0,2.1-1.7,3.9-3.9,3.9c-0.3,0-0.5,0-0.7-0.1
				c0.5,0.9,1.5,1.5,2.6,1.5c1.7,0,3-1.3,3-3C143,97.5,142.9,97,142.7,96.5z"/>
		</g>
	</g>
	<g>
		<path class="st7" d="M105,85H93c-0.6,0-1-0.4-1-1s0.4-1,1-1h12c0.6,0,1,0.4,1,1S105.6,85,105,85z"/>
	</g>
	<g>
		<rect x="64" y="69" class="st34" width="1" height="38"/>
	</g>
	<g>
		<rect x="86" y="69" class="st34" width="1" height="38"/>
	</g>
	<g>
		<rect x="112" y="69" class="st34" width="1" height="38"/>
	</g>
	<g>
		<rect x="134" y="69" class="st34" width="1" height="38"/>
	</g>
	<g>
		<polygon class="st23" points="118,107 115,107 115,66 116,66 		"/>
	</g>
	<g>
		<polygon class="st23" points="92,107 89,107 89,66 90,66 		"/>
	</g>
	<g>
		<polygon class="st23" points="70,107 67,107 67,66 68,66 		"/>
	</g>
	<rect x="109" y="65" class="st20" width="6" height="3"/>
	<g>
		<rect x="110" y="109" class="st20" width="4" height="1"/>
		<path class="st7" d="M116,68v-3c0-0.6-0.4-1-1-1h-6c-0.6,0-1,0.4-1,1v3c0,0.6,0.4,1,1,1v38c-0.6,0-1,0.4-1,1v3c0,0.6,0.4,1,1,1h6
			c0.6,0,1-0.4,1-1v-3c0-0.6-0.4-1-1-1V69C115.6,69,116,68.6,116,68z M110,66h4v1h-4V66z M114,110h-4v-1h4V110z M113,107h-2V69h2
			V107z"/>
	</g>
	<path class="st31" d="M128,102h-10V77c0-2.8,2.2-5,5-5h0c2.8,0,5,2.2,5,5V102z"/>
	<g>
		<path class="st7" d="M129,103h-12c-0.6,0-1-0.4-1-1s0.4-1,1-1h12c0.6,0,1,0.4,1,1S129.6,103,129,103z"/>
	</g>
	<rect x="93" y="90" class="st25" width="12" height="20"/>
	<path class="st7" d="M107,88h-1H92h-1c-0.6,0-1,0.4-1,1s0.4,1,1,1v21c0,0.6,0.4,1,1,1h14c0.6,0,1-0.4,1-1V90c0.6,0,1-0.4,1-1
		S107.6,88,107,88z M93,90h5v9h-1c-0.6,0-1,0.4-1,1s0.4,1,1,1h1v9h-5V90z M105,110h-5v-9h1c0.6,0,1-0.4,1-1s-0.4-1-1-1h-1v-9h5V110z
		"/>
	<path class="st31" d="M80,102H70V77c0-2.8,2.2-5,5-5h0c2.8,0,5,2.2,5,5V102z"/>
	<g>
		<path class="st7" d="M81,103H69c-0.6,0-1-0.4-1-1s0.4-1,1-1h12c0.6,0,1,0.4,1,1S81.6,103,81,103z"/>
	</g>
	<g>
		<rect x="62" y="66" class="st20" width="4" height="1"/>
		<path class="st7" d="M68,68v-3c0-0.6-0.4-1-1-1h-6c-0.6,0-1,0.4-1,1v3c0,0.6,0.4,1,1,1v38c-0.6,0-1,0.4-1,1v3c0,0.6,0.4,1,1,1h6
			c0.6,0,1-0.4,1-1v-3c0-0.6-0.4-1-1-1V69C67.6,69,68,68.6,68,68z M62,66h4v1h-4V66z M66,110h-4v-1h4V110z M65,107h-2V69h2V107z"/>
	</g>
	<g>
		<rect x="84" y="66" class="st20" width="4" height="1"/>
		<path class="st7" d="M90,68v-3c0-0.6-0.4-1-1-1h-6c-0.6,0-1,0.4-1,1v3c0,0.6,0.4,1,1,1v38c-0.6,0-1,0.4-1,1v3c0,0.6,0.4,1,1,1h6
			c0.6,0,1-0.4,1-1v-3c0-0.6-0.4-1-1-1V69C89.6,69,90,68.6,90,68z M84,66h4v1h-4V66z M88,110h-4v-1h4V110z M85,107V69h2v38H85z"/>
	</g>
	<g>
		<rect x="68" y="66" class="st23" width="14" height="2"/>
	</g>
	<g>
		<rect x="90" y="66" class="st23" width="18" height="2"/>
	</g>
	<g>
		<rect x="116" y="66" class="st23" width="14" height="2"/>
	</g>
	<g>
		<rect x="63" y="62" class="st23" width="72" height="1"/>
	</g>
	<g>
		<rect x="112" y="66" class="st23" width="2" height="1"/>
	</g>
	<g>
		<rect x="134" y="66" class="st23" width="2" height="1"/>
	</g>
	<g>
		<rect x="64" y="66" class="st23" width="2" height="1"/>
	</g>
	<g>
		<rect x="86" y="66" class="st23" width="2" height="1"/>
	</g>
	<g>
		<rect x="112" y="109" class="st23" width="2" height="1"/>
	</g>
	<g>
		<rect x="134" y="109" class="st23" width="2" height="1"/>
	</g>
	<g>
		<rect x="64" y="109" class="st23" width="2" height="1"/>
	</g>
	<g>
		<rect x="86" y="109" class="st23" width="2" height="1"/>
	</g>
	<g>
		<rect x="116" y="109" class="st23" width="3" height="1"/>
	</g>
	<g>
		<rect x="68" y="109" class="st23" width="3" height="1"/>
	</g>
	<g>
		<rect x="90" y="109" class="st23" width="1" height="1"/>
	</g>
	<g>
		<rect x="107" y="109" class="st23" width="1" height="1"/>
	</g>
	<g>
		<polygon class="st28" points="79,84 71,89 71,87 79,82 		"/>
	</g>
	<g>
		<polygon class="st28" points="79,94 71,99 71,97 79,92 		"/>
	</g>
	<g>
		<polygon class="st28" points="79,91 71,96 71,92 79,87 		"/>
	</g>
	<g>
		<path class="st28" d="M100.7,73.4L95,77v4l7.9-4.9C102.6,74.9,101.8,73.9,100.7,73.4z"/>
	</g>
	<g>
		<polygon class="st28" points="98.2,83 103,80 103,78 95,83 		"/>
	</g>
	<g>
		<polygon class="st28" points="127,84 119,89 119,87 127,82 		"/>
	</g>
	<g>
		<polygon class="st28" points="127,94 119,99 119,97 127,92 		"/>
	</g>
	<g>
		<polygon class="st28" points="127,91 119,96 119,92 127,87 		"/>
	</g>
	<path class="st7" d="M99,71c-3.3,0-6,2.7-6,6v7c0,0.6,0.4,1,1,1h10c0.6,0,1-0.4,1-1v-7C105,73.7,102.3,71,99,71z M95,77
		c0-1.9,1.3-3.4,3-3.9V83h-3V77z M103,83h-3v-9.9c1.7,0.4,3,2,3,3.9V83z"/>
	<path class="st7" d="M123,71c-3.3,0-6,2.7-6,6v25c0,0.6,0.4,1,1,1h10c0.6,0,1-0.4,1-1V77C129,73.7,126.3,71,123,71z M119,82h3v10
		h-3V82z M124,82h3v10h-3V82z M127,77v3h-3v-6.9C125.7,73.6,127,75.1,127,77z M119,77c0-1.9,1.3-3.4,3-3.9V80h-3V77z M119,94h3v7h-3
		V94z M127,101h-3v-7h3V101z"/>
	<path class="st7" d="M75,71c-3.3,0-6,2.7-6,6v25c0,0.6,0.4,1,1,1h10c0.6,0,1-0.4,1-1V77C81,73.7,78.3,71,75,71z M71,82h3v10h-3V82z
		 M76,82h3v10h-3V82z M79,77v3h-3v-6.9C77.7,73.6,79,75.1,79,77z M71,77c0-1.9,1.3-3.4,3-3.9V80h-3V77z M71,94h3v7h-3V94z M79,101
		h-3v-7h3V101z"/>
	<g>
		<polygon class="st35" points="95,92 96,92 97,91 94,91 94,98 95,97 		"/>
	</g>
	<g>
		<polygon class="st35" points="102,92 103,92 104,91 101,91 101,98 102,97 		"/>
	</g>
	<g>
		<polygon class="st35" points="95,103 96,103 97,102 94,102 94,109 95,108 		"/>
	</g>
	<g>
		<polygon class="st35" points="102,103 103,103 104,102 101,102 101,109 102,108 		"/>
	</g>
	<g>
		<path class="st25" d="M143,111h-6l0,0c-0.7-1.3-1-2.8-1-4.2V106h8v0.8C144,108.2,143.7,109.7,143,111L143,111z"/>
		<path class="st7" d="M143,112h-6c-0.4,0-0.7-0.2-0.9-0.6c-0.7-1.4-1.1-3.1-1.1-4.7V106c0-0.6,0.4-1,1-1h8c0.6,0,1,0.4,1,1v0.8
			c0,1.6-0.4,3.2-1.1,4.7C143.7,111.8,143.4,112,143,112z M137.6,110h4.7c0.4-1,0.6-2,0.6-3h-6C137,108,137.3,109,137.6,110z"/>
	</g>
	<g>
		<path class="st35" d="M141,107c0,1-0.2,2-0.6,3h2c0.4-1,0.6-2,0.6-3H141z"/>
	</g>
	<g>
		<g>
			<path class="st7" d="M58,107c-0.6,0-1-0.4-1-1v-7c0-0.6,0.4-1,1-1s1,0.4,1,1v7C59,106.6,58.6,107,58,107z"/>
		</g>
		<g>
			<path class="st32" d="M58,102L58,102c-2.2,0-4-1.8-4-4v0c0-0.7,0.1-1.3,0.4-1.9L58,88l3.6,8.1c0.3,0.6,0.4,1.3,0.4,1.9v0
				C62,100.2,60.2,102,58,102z"/>
			<path class="st7" d="M58,103c-2.8,0-5-2.2-5-5c0-0.8,0.2-1.6,0.5-2.3l3.6-8.1c0.2-0.4,0.5-0.6,0.9-0.6s0.8,0.2,0.9,0.6l3.6,8.1
				c0.3,0.7,0.5,1.5,0.5,2.3C63,100.8,60.8,103,58,103z M58,90.5l-2.7,6C55.1,97,55,97.5,55,98c0,1.7,1.3,3,3,3s3-1.3,3-3
				c0-0.5-0.1-1-0.3-1.5L58,90.5z"/>
		</g>
		<g>
			<path class="st33" d="M60.7,96.5l-0.8-1.8c0.1,0.3,0.1,0.6,0.1,0.9c0,2.1-1.7,3.9-3.9,3.9c-0.3,0-0.5,0-0.7-0.1
				c0.5,0.9,1.5,1.5,2.6,1.5c1.7,0,3-1.3,3-3C61,97.5,60.9,97,60.7,96.5z"/>
		</g>
	</g>
	<g>
		<path class="st25" d="M61,111h-6l0,0c-0.7-1.3-1-2.8-1-4.2V106h8v0.8C62,108.2,61.7,109.7,61,111L61,111z"/>
		<path class="st7" d="M61,112h-6c-0.4,0-0.7-0.2-0.9-0.6c-0.7-1.4-1.1-3.1-1.1-4.7V106c0-0.6,0.4-1,1-1h8c0.6,0,1,0.4,1,1v0.8
			c0,1.6-0.4,3.2-1.1,4.7C61.7,111.8,61.4,112,61,112z M55.6,110h4.7c0.4-1,0.6-2,0.6-3h-6C55,108,55.3,109,55.6,110z"/>
	</g>
	<g>
		<path class="st35" d="M59,107c0,1-0.2,2-0.6,3h2c0.4-1,0.6-2,0.6-3H59z"/>
	</g>
	<g>
		<path class="st34" d="M63,102c0.6-0.8,1-1.9,1-3c0-0.8-0.2-1.6-0.5-2.3L63,95.5V102z"/>
	</g>
	<g>
		<polygon class="st3" points="132,55 66,55 99,37 		"/>
		<path class="st7" d="M132,56H66c-0.5,0-0.9-0.3-1-0.8c-0.1-0.4,0.1-0.9,0.5-1.1l33-18c0.3-0.2,0.7-0.2,1,0l33,18
			c0.4,0.2,0.6,0.7,0.5,1.1C132.9,55.7,132.5,56,132,56z M69.9,54h58.2L99,38.1L69.9,54z"/>
	</g>
	<g>
		<polygon class="st34" points="99,42.1 77.3,54 79.5,54 100.1,42.8 		"/>
	</g>
	<g>
		<polygon class="st20" points="99,41 124.7,55 132,55 99,37 66,55 73.3,55 		"/>
		<path class="st7" d="M132,56h-7.3c-0.2,0-0.3,0-0.5-0.1L99,42.1L73.8,55.9C73.7,56,73.5,56,73.3,56H66c-0.5,0-0.9-0.3-1-0.8
			c-0.1-0.4,0.1-0.9,0.5-1.1l33-18c0.3-0.2,0.7-0.2,1,0l33,18c0.4,0.2,0.6,0.7,0.5,1.1C132.9,55.7,132.5,56,132,56z M124.9,54h3.2
			L99,38.1L69.9,54h3.2l25.4-13.9c0.3-0.2,0.7-0.2,1,0L124.9,54z"/>
	</g>
	<g>
		<circle class="st28" cx="99" cy="49" r="2"/>
		<path class="st7" d="M99,53c-2.2,0-4-1.8-4-4s1.8-4,4-4c2.2,0,4,1.8,4,4S101.2,53,99,53z M99,47c-1.1,0-2,0.9-2,2s0.9,2,2,2
			c1.1,0,2-0.9,2-2S100.1,47,99,47z"/>
	</g>
	<g>
		<path class="st25" d="M109,25v6c-1.4,1.3-3.6,1.3-5,0c-1.4-1.3-3.6-1.3-5,0v-6c1.4-1.3,3.6-1.3,5,0C105.4,26.3,107.6,26.3,109,25z
			"/>
		<path class="st7" d="M109.4,24.1c-0.4-0.2-0.8-0.1-1.1,0.2c-1,1-2.6,1-3.6,0c-1.3-1.2-3.1-1.5-4.7-1V23c0-0.6-0.4-1-1-1
			s-1,0.4-1,1v2v6v6c0,0.6,0.4,1,1,1s1-0.4,1-1v-5.5c1-0.7,2.4-0.6,3.3,0.2c0.9,0.8,2,1.3,3.2,1.3s2.3-0.4,3.2-1.3
			c0.2-0.2,0.3-0.4,0.3-0.7v-6C110,24.6,109.8,24.2,109.4,24.1z M108,30.5c-1,0.7-2.4,0.6-3.3-0.3c-0.9-0.8-2-1.3-3.2-1.3
			c-0.5,0-1,0.1-1.5,0.2v-3.8c1-0.7,2.4-0.6,3.3,0.3c1.3,1.2,3.1,1.6,4.7,1V30.5z"/>
	</g>
	<g>
		<path class="st35" d="M103,29.3c0.6,0.2,1.2,0.5,1.7,1c0.1,0.1,0.2,0.2,0.3,0.2v-3.8c-0.6-0.2-1.2-0.5-1.7-1
			c-0.1-0.1-0.2-0.2-0.3-0.2V29.3z"/>
	</g>
</g>
<g>
	<g>
		<circle class="st11" cx="21" cy="104" r="6"/>
		<path class="st12" d="M21,112c-4.4,0-8-3.6-8-8s3.6-8,8-8s8,3.6,8,8S25.4,112,21,112z M21,98c-3.3,0-6,2.7-6,6s2.7,6,6,6
			s6-2.7,6-6S24.3,98,21,98z"/>
	</g>
	<g>
		<path class="st13" d="M17.5,107.5c-2-2-2-5.1,0-7.1c2-2,5.1-2,7.1,0L17.5,107.5z"/>
	</g>
</g>
<g>
	<g>
		<g>
			<g>
				<rect x="32" y="100" class="st36" width="12" height="2"/>
				<path class="st12" d="M45,104H31c-0.6,0-1-0.4-1-1v-4c0-0.6,0.4-1,1-1h14c0.6,0,1,0.4,1,1v4C46,103.6,45.6,104,45,104z M32,102
					h12v-2H32V102z"/>
			</g>
		</g>
		<g>
			<g>
				<rect x="34" y="108" class="st36" width="12" height="2"/>
				<path class="st12" d="M47,112H33c-0.6,0-1-0.4-1-1v-4c0-0.6,0.4-1,1-1h14c0.6,0,1,0.4,1,1v4C48,111.6,47.6,112,47,112z M34,110
					h12v-2H34V110z"/>
			</g>
		</g>
		<g>
			<g>
				<rect x="31" y="104" class="st36" width="12" height="2"/>
				<path class="st12" d="M44,108H30c-0.6,0-1-0.4-1-1v-4c0-0.6,0.4-1,1-1h14c0.6,0,1,0.4,1,1v4C45,107.6,44.6,108,44,108z M31,106
					h12v-2H31V106z"/>
			</g>
		</g>
		<g>
			<rect x="38" y="100" class="st37" width="1" height="2"/>
		</g>
		<g>
			<rect x="35" y="104" class="st37" width="1" height="2"/>
		</g>
		<g>
			<rect x="38" y="108" class="st37" width="1" height="2"/>
		</g>
	</g>
	<g>
		<g>
			<rect x="24" y="108" class="st11" width="12" height="2"/>
			<path class="st12" d="M37,112H23c-0.6,0-1-0.4-1-1v-4c0-0.6,0.4-1,1-1h14c0.6,0,1,0.4,1,1v4C38,111.6,37.6,112,37,112z M24,110
				h12v-2H24V110z"/>
		</g>
		<g>
			<rect x="25" y="108" class="st38" width="3" height="2"/>
		</g>
		<g>
			<rect x="33" y="108" class="st14" width="3" height="2"/>
		</g>
	</g>
	<g>
		<g>
			<rect x="21" y="104" class="st11" width="12" height="2"/>
			<path class="st12" d="M34,108H20c-0.6,0-1-0.4-1-1v-4c0-0.6,0.4-1,1-1h14c0.6,0,1,0.4,1,1v4C35,107.6,34.6,108,34,108z M21,106
				h12v-2H21V106z"/>
		</g>
		<g>
			<rect x="22" y="104" class="st38" width="3" height="2"/>
		</g>
		<g>
			<rect x="30" y="104" class="st14" width="3" height="2"/>
		</g>
	</g>
	<g>
		<g>
			<rect x="24" y="100" class="st11" width="12" height="2"/>
			<path class="st12" d="M37,104H23c-0.6,0-1-0.4-1-1v-4c0-0.6,0.4-1,1-1h14c0.6,0,1,0.4,1,1v4C38,103.6,37.6,104,37,104z M24,102
				h12v-2H24V102z"/>
		</g>
		<g>
			<rect x="25" y="100" class="st38" width="3" height="2"/>
		</g>
		<g>
			<rect x="33" y="100" class="st14" width="3" height="2"/>
		</g>
	</g>
	<g>
		<g>
			<rect x="23" y="96" class="st11" width="12" height="2"/>
			<path class="st12" d="M36,100H22c-0.6,0-1-0.4-1-1v-4c0-0.6,0.4-1,1-1h14c0.6,0,1,0.4,1,1v4C37,99.6,36.6,100,36,100z M23,98h12
				v-2H23V98z"/>
		</g>
		<g>
			<rect x="24" y="96" class="st38" width="3" height="2"/>
		</g>
		<g>
			<rect x="32" y="96" class="st14" width="3" height="2"/>
		</g>
	</g>
	<g>
		<g>
			<circle class="st11" cx="29" cy="88" r="6"/>
			<path class="st12" d="M29,96c-4.4,0-8-3.6-8-8s3.6-8,8-8s8,3.6,8,8S33.4,96,29,96z M29,82c-3.3,0-6,2.7-6,6s2.7,6,6,6s6-2.7,6-6
				S32.3,82,29,82z"/>
		</g>
		<g>
			<path class="st13" d="M25.5,91.5c-2-2-2-5.1,0-7.1c2-2,5.1-2,7.1,0L25.5,91.5z"/>
		</g>
		<g>
			<path class="st12" d="M30.4,90.4c-0.3,0-0.5-0.1-0.7-0.3l-2.8-2.8c-0.4-0.4-0.4-1,0-1.4s1-0.4,1.4,0l2.8,2.8c0.4,0.4,0.4,1,0,1.4
				C30.9,90.3,30.7,90.4,30.4,90.4z"/>
		</g>
		<g>
			<path class="st12" d="M26.9,88.3c-0.3,0-0.5-0.1-0.7-0.3c-0.4-0.4-0.4-1,0-1.4l0.7-0.7c0.4-0.4,1-0.4,1.4,0s0.4,1,0,1.4L27.6,88
				C27.4,88.2,27.1,88.3,26.9,88.3z"/>
		</g>
		<g>
			<path class="st12" d="M29.7,91.1c-0.3,0-0.5-0.1-0.7-0.3c-0.4-0.4-0.4-1,0-1.4l1.4-1.4c0.4-0.4,1-0.4,1.4,0s0.4,1,0,1.4l-1.4,1.4
				C30.2,91,30,91.1,29.7,91.1z"/>
		</g>
	</g>
</g>
<g>
	<g>
		<rect x="160" y="46" class="st32" width="28" height="14"/>
		<path class="st7" d="M189,62h-30c-0.6,0-1-0.4-1-1V45c0-0.6,0.4-1,1-1h30c0.6,0,1,0.4,1,1v16C190,61.6,189.6,62,189,62z M160,60
			h28V46h-28V60z"/>
	</g>
	<g>
		<circle class="st32" cx="174" cy="53" r="3"/>
		<path class="st7" d="M174,58c-2.8,0-5-2.2-5-5s2.2-5,5-5s5,2.2,5,5S176.8,58,174,58z M174,50c-1.7,0-3,1.3-3,3s1.3,3,3,3
			s3-1.3,3-3S175.7,50,174,50z"/>
	</g>
	<path class="st33" d="M160,46v1v12v1h28v-1V47v-1H160z M187,56c-1.7,0-3,1.3-3,3h-20c0-1.7-1.3-3-3-3v-6c1.7,0,3-1.3,3-3h20
		c0,1.7,1.3,3,3,3V56z"/>
	<g>
		<circle class="st7" cx="183" cy="53" r="1"/>
	</g>
	<g>
		<circle class="st7" cx="165" cy="53" r="1"/>
	</g>
</g>
<g>
	<g>
		<rect x="156" y="54" class="st32" width="28" height="14"/>
		<path class="st7" d="M185,70h-30c-0.6,0-1-0.4-1-1V53c0-0.6,0.4-1,1-1h30c0.6,0,1,0.4,1,1v16C186,69.6,185.6,70,185,70z M156,68
			h28V54h-28V68z"/>
	</g>
	<g>
		<circle class="st32" cx="170" cy="61" r="3"/>
		<path class="st7" d="M170,66c-2.8,0-5-2.2-5-5s2.2-5,5-5s5,2.2,5,5S172.8,66,170,66z M170,58c-1.7,0-3,1.3-3,3s1.3,3,3,3
			s3-1.3,3-3S171.7,58,170,58z"/>
	</g>
	<path class="st33" d="M156,54v1v12v1h28v-1V55v-1H156z M160,67c0-1.7-1.3-3-3-3v-6c1.7,0,3-1.3,3-3h20c0,1.7,1.3,3,3,3v6
		c-1.7,0-3,1.3-3,3H160z"/>
	<g>
		<circle class="st7" cx="179" cy="61" r="1"/>
	</g>
	<g>
		<circle class="st7" cx="161" cy="61" r="1"/>
	</g>
</g>
<g>
	<g>
		<rect x="151" y="50" class="st32" width="28" height="14"/>
		<path class="st7" d="M180,66h-30c-0.6,0-1-0.4-1-1V49c0-0.6,0.4-1,1-1h30c0.6,0,1,0.4,1,1v16C181,65.6,180.6,66,180,66z M151,64
			h28V50h-28V64z"/>
	</g>
	<g>
		<circle class="st33" cx="165" cy="57" r="3"/>
		<path class="st7" d="M165,62c-2.8,0-5-2.2-5-5s2.2-5,5-5s5,2.2,5,5S167.8,62,165,62z M165,54c-1.7,0-3,1.3-3,3s1.3,3,3,3
			s3-1.3,3-3S166.7,54,165,54z"/>
	</g>
	<path class="st33" d="M151,50v1v12v1h28v-1V51v-1H151z M155,63c0-1.7-1.3-3-3-3v-6c1.7,0,3-1.3,3-3h20c0,1.7,1.3,3,3,3v6
		c-1.7,0-3,1.3-3,3H155z"/>
	<g>
		<circle class="st7" cx="174" cy="57" r="1"/>
	</g>
	<g>
		<circle class="st7" cx="156" cy="57" r="1"/>
	</g>
</g>
<g>
	<g>
		<path class="st23" d="M21,69h22c1.1,0,2-0.9,2-2V35c0-1.1-0.9-2-2-2H21c-1.1,0-2,0.9-2,2v32C19,68.1,19.9,69,21,69z"/>
		<path class="st7" d="M43,70H21c-1.7,0-3-1.3-3-3V35c0-1.7,1.3-3,3-3h22c1.7,0,3,1.3,3,3v32C46,68.7,44.7,70,43,70z M21,34
			c-0.6,0-1,0.4-1,1v32c0,0.6,0.4,1,1,1h22c0.6,0,1-0.4,1-1V35c0-0.6-0.4-1-1-1H21z"/>
	</g>
	<g>
		<path class="st34" d="M24,69h22c1.1,0,2-0.9,2-2V35c0-1.1-0.9-2-2-2H24c-1.1,0-2,0.9-2,2v32C22,68.1,22.9,69,24,69z"/>
		<path class="st7" d="M46,70H24c-1.7,0-3-1.3-3-3V35c0-1.7,1.3-3,3-3h22c1.7,0,3,1.3,3,3v32C49,68.7,47.7,70,46,70z M24,34
			c-0.6,0-1,0.4-1,1v32c0,0.6,0.4,1,1,1h22c0.6,0,1-0.4,1-1V35c0-0.6-0.4-1-1-1H24z"/>
	</g>
	<path class="st21" d="M27,69h22c1.1,0,2-0.9,2-2V35c0-1.1-0.9-2-2-2H33.8c-0.5,0-1,0.2-1.4,0.6l-6.8,6.8c-0.4,0.4-0.6,0.9-0.6,1.4
		V67C25,68.1,25.9,69,27,69z"/>
	<g>
		<g>
			<path class="st39" d="M38,48h-9c-0.6,0-1-0.4-1-1s0.4-1,1-1h9c0.6,0,1,0.4,1,1S38.6,48,38,48z"/>
		</g>
	</g>
	<g>
		<g>
			<path class="st39" d="M41,60H29c-0.6,0-1-0.4-1-1s0.4-1,1-1h12c0.6,0,1,0.4,1,1S41.6,60,41,60z"/>
		</g>
	</g>
	<g>
		<g>
			<path class="st39" d="M38,56h-9c-0.6,0-1-0.4-1-1s0.4-1,1-1h9c0.6,0,1,0.4,1,1S38.6,56,38,56z"/>
		</g>
	</g>
	<g>
		<g>
			<path class="st39" d="M47,48h-6c-0.6,0-1-0.4-1-1s0.4-1,1-1h6c0.6,0,1,0.4,1,1S47.6,48,47,48z"/>
		</g>
	</g>
	<g>
		<g>
			<path class="st39" d="M35,52h-6c-0.6,0-1-0.4-1-1s0.4-1,1-1h6c0.6,0,1,0.4,1,1S35.6,52,35,52z"/>
		</g>
	</g>
	<g>
		<g>
			<path class="st39" d="M42,52h-4c-0.6,0-1-0.4-1-1s0.4-1,1-1h4c0.6,0,1,0.4,1,1S42.6,52,42,52z"/>
		</g>
	</g>
	<g>
		<g>
			<path class="st39" d="M44,56h-3c-0.6,0-1-0.4-1-1s0.4-1,1-1h3c0.6,0,1,0.4,1,1S44.6,56,44,56z"/>
		</g>
	</g>
	<g>
		<path class="st29" d="M44,66c-2.2,0-4-1.8-4-4s1.8-4,4-4s4,1.8,4,4S46.2,66,44,66z M44,60c-1.1,0-2,0.9-2,2s0.9,2,2,2s2-0.9,2-2
			S45.1,60,44,60z"/>
	</g>
	<g>
		<circle class="st29" cx="44" cy="62" r="1"/>
	</g>
	<g>
		<path class="st7" d="M42,43c-1.7,0-3-1.3-3-3v-3c0-0.6,0.4-1,1-1s1,0.4,1,1v3c0,0.6,0.4,1,1,1s1-0.4,1-1v-9c0-0.6-0.4-1-1-1
			s-1,0.4-1,1v2c0,0.6-0.4,1-1,1s-1-0.4-1-1v-2c0-1.7,1.3-3,3-3s3,1.3,3,3v9C45,41.7,43.7,43,42,43z"/>
	</g>
	<g>
		<path class="st23" d="M32.3,43L32.3,43c-0.2,0-0.3,0-0.5,0L26,42v-1h6l2-6l0.9,4.7c0,0.2,0.1,0.4,0.1,0.5v0
			C35,41.8,33.8,43,32.3,43z"/>
	</g>
	<path class="st7" d="M49,32H33.8c-0.8,0-1.6,0.3-2.1,0.9l-6.8,6.8C24.3,40.3,24,41,24,41.8V67c0,1.7,1.3,3,3,3h22c1.7,0,3-1.3,3-3
		V35C52,33.3,50.7,32,49,32z M32,35.4V39c0,0.6-0.4,1-1,1h-3.6L32,35.4z M50,67c0,0.6-0.4,1-1,1H27c-0.6,0-1-0.4-1-1V43
		c0-0.6,0.4-1,1-1h4c1.7,0,3-1.3,3-3v-4c0-0.6,0.4-1,1-1h14c0.6,0,1,0.4,1,1V67z"/>
</g>
<g>
	<path class="st7" d="M83,23h-4c-0.6,0-1-0.4-1-1s0.4-1,1-1h5c0.6,0,1-0.4,1-1s-0.4-1-1-1h-2v-1c0-0.6-0.4-1-1-1c-0.6,0-1,0.4-1,1
		l0,0l0,1h-1l0,0c-1.7,0-3,1.3-3,3s1.3,3,3,3h4c0.6,0,1,0.4,1,1s-0.4,1-1,1h-5c-0.6,0-1,0.4-1,1s0.4,1,1,1h2v1c0,0.6,0.4,1,1,1
		c0.6,0,1-0.4,1-1v-1h1c1.7,0,3-1.3,3-3S84.7,23,83,23z"/>
</g>
</svg>
