<?xml version="1.0" encoding="utf-8"?>
<!-- Generator: Adobe Illustrator 21.0.0, SVG Export Plug-In . SVG Version: 6.00 Build 0)  -->
<svg version="1.1" id="Layer_1" xmlns="http://www.w3.org/2000/svg" xmlns:xlink="http://www.w3.org/1999/xlink" x="0px" y="0px"
	 viewBox="0 0 198 116" style="enable-background:new 0 0 198 116;" xml:space="preserve">
<style type="text/css">
	.st0{fill:#FFFFFF;}
	.st1{fill:#A7B0C4;}
	.st2{fill:#D3E2EB;}
	.st3{fill:#E2E7EF;}
	.st4{fill:#9AB5CD;}
	.st5{fill:#0F395A;}
	.st6{fill:#4E9CD5;}
	.st7{fill:#71B8E5;}
	.st8{fill:#F48576;}
	.st9{fill:#EBF4DF;}
	.st10{fill:#D8E6BE;}
	.st11{fill:#C7EAFB;}
	.st12{fill:#AED9EC;}
	.st13{fill:#D5E3EE;}
	.st14{fill:#3E5560;}
	.st15{fill:#AFC3D7;}
	.st16{fill:#368ACA;}
	.st17{fill:#FFCB5D;}
	.st18{fill:#F16B56;}
	.st19{fill:#F6B545;}
	.st20{fill:#FEE279;}
	.st21{fill:#66869B;}
	.st22{fill:#4F6A7C;}
	.st23{fill:#577280;}
	.st24{fill:#FCBB76;}
	.st25{fill:#F7964B;}
	.st26{fill:#B0C4D8;}
	.st27{fill:#7B9FB8;}
	.st28{fill:#89C764;}
	.st29{fill:#72AF49;}
	.st30{fill:#CAD5E3;}
	.st31{fill:#ADD7F3;}
	.st32{fill:#72B7E5;}
</style>
<g>
	<g>
		<rect x="47" y="85" class="st0" width="16" height="30"/>
		<path class="st1" d="M63,116H47c-0.6,0-1-0.4-1-1V85c0-0.6,0.4-1,1-1h16c0.6,0,1,0.4,1,1v30C64,115.6,63.6,116,63,116z M48,114h14
			V86H48V114z"/>
	</g>
	<g>
		<g>
			<path class="st1" d="M51,96c-0.6,0-1-0.4-1-1v-2c0-0.6,0.4-1,1-1s1,0.4,1,1v2C52,95.6,51.6,96,51,96z"/>
		</g>
		<g>
			<path class="st1" d="M55,96c-0.6,0-1-0.4-1-1v-2c0-0.6,0.4-1,1-1s1,0.4,1,1v2C56,95.6,55.6,96,55,96z"/>
		</g>
		<g>
			<path class="st1" d="M59,96c-0.6,0-1-0.4-1-1v-2c0-0.6,0.4-1,1-1s1,0.4,1,1v2C60,95.6,59.6,96,59,96z"/>
		</g>
		<g>
			<path class="st1" d="M51,110c-0.6,0-1-0.4-1-1v-2c0-0.6,0.4-1,1-1s1,0.4,1,1v2C52,109.6,51.6,110,51,110z"/>
		</g>
		<g>
			<path class="st1" d="M55,110c-0.6,0-1-0.4-1-1v-2c0-0.6,0.4-1,1-1s1,0.4,1,1v2C56,109.6,55.6,110,55,110z"/>
		</g>
		<g>
			<path class="st1" d="M59,110c-0.6,0-1-0.4-1-1v-2c0-0.6,0.4-1,1-1s1,0.4,1,1v2C60,109.6,59.6,110,59,110z"/>
		</g>
		<g>
			<path class="st1" d="M51,103c-0.6,0-1-0.4-1-1v-2c0-0.6,0.4-1,1-1s1,0.4,1,1v2C52,102.6,51.6,103,51,103z"/>
		</g>
		<g>
			<path class="st1" d="M55,103c-0.6,0-1-0.4-1-1v-2c0-0.6,0.4-1,1-1s1,0.4,1,1v2C56,102.6,55.6,103,55,103z"/>
		</g>
		<g>
			<path class="st1" d="M59,103c-0.6,0-1-0.4-1-1v-2c0-0.6,0.4-1,1-1s1,0.4,1,1v2C60,102.6,59.6,103,59,103z"/>
		</g>
		<g>
			<rect x="46" y="85" class="st2" width="17" height="3"/>
			<path class="st1" d="M63,89H46c-0.6,0-1-0.4-1-1v-3c0-0.6,0.4-1,1-1h17c0.6,0,1,0.4,1,1v3C64,88.6,63.6,89,63,89z M47,87h15v-1
				H47V87z"/>
		</g>
	</g>
	<g>
		<rect x="48" y="89" class="st3" width="14" height="2"/>
	</g>
</g>
<g>
	<g>
		<polygon class="st2" points="42,115 38,115 39,73 41,73 		"/>
		<path class="st1" d="M42,116h-4c-0.3,0-0.5-0.1-0.7-0.3c-0.2-0.2-0.3-0.5-0.3-0.7l1-42c0-0.5,0.5-1,1-1h2c0.5,0,1,0.4,1,1l1,42
			c0,0.3-0.1,0.5-0.3,0.7C42.5,115.9,42.3,116,42,116z M39,114h2l-1-40h0L39,114z"/>
	</g>
	<g>
		<path class="st2" d="M42.7,65.1L40,57v14c1.7,0,3-1.8,3-4C43,66.3,42.9,65.7,42.7,65.1z"/>
		<path class="st1" d="M40,72c-0.6,0-1-0.4-1-1V57c0-0.5,0.4-0.9,0.8-1c0.5-0.1,1,0.2,1.1,0.7l2.7,8.1l0,0c0.2,0.7,0.4,1.5,0.4,2.2
			C44,69.8,42.2,72,40,72z M41,63.2v6.4c0.6-0.5,1-1.5,1-2.6c0-0.5-0.1-1.1-0.3-1.6L41,63.2z"/>
	</g>
	<g>
		<path class="st2" d="M45.6,79.3L54,81l-12.1-7c-0.8,1.4,0.1,3.5,2,4.6C44.4,78.9,45,79.2,45.6,79.3z"/>
		<path class="st1" d="M54,82c-0.1,0-0.1,0-0.2,0l-8.4-1.7c-0.7-0.1-1.4-0.4-2.1-0.8c-2.4-1.4-3.4-4.1-2.3-6
			c0.1-0.2,0.4-0.4,0.6-0.5c0.3-0.1,0.5,0,0.8,0.1l12.1,7c0.4,0.2,0.6,0.8,0.4,1.2C54.8,81.7,54.4,82,54,82z M42.6,75.6
			c0.2,0.8,0.8,1.6,1.7,2.2c0.5,0.3,1,0.5,1.5,0.6c0,0,0,0,0,0l2.3,0.5L42.6,75.6z"/>
	</g>
	<g>
		<path class="st2" d="M31.7,74.6L26,81l12.1-7c-0.8-1.4-3.1-1.7-5-0.6C32.6,73.7,32.1,74.1,31.7,74.6z"/>
		<path class="st1" d="M26,82c-0.3,0-0.6-0.1-0.8-0.4c-0.3-0.4-0.3-0.9,0-1.3l5.7-6.4c0.5-0.6,1.1-1,1.8-1.4c2.4-1.4,5.2-0.9,6.3,1
			c0.1,0.2,0.2,0.5,0.1,0.8c-0.1,0.3-0.2,0.5-0.5,0.6l-12.1,7C26.3,82,26.2,82,26,82z M35.6,73.7c-0.6,0-1.3,0.2-1.9,0.5
			c-0.5,0.3-0.9,0.6-1.3,1h0l-1.6,1.8l5.6-3.2C36.2,73.8,35.9,73.7,35.6,73.7z M31.7,74.6L31.7,74.6L31.7,74.6z"/>
	</g>
	<g>
		<circle class="st2" cx="40" cy="73" r="2"/>
		<path class="st1" d="M40,76c-1.7,0-3-1.3-3-3s1.3-3,3-3s3,1.3,3,3S41.7,76,40,76z M40,72c-0.6,0-1,0.4-1,1s0.4,1,1,1s1-0.4,1-1
			S40.6,72,40,72z"/>
	</g>
	<g>
		<g>
			<circle class="st1" cx="48" cy="71" r="1"/>
		</g>
		<g>
			<path class="st1" d="M51,72c-0.6,0-1-0.4-1-1c0-1.1-0.9-2-2-2c-0.6,0-1-0.4-1-1s0.4-1,1-1c2.2,0,4,1.8,4,4C52,71.6,51.6,72,51,72
				z"/>
		</g>
		<g>
			<path class="st1" d="M54,72c-0.6,0-1-0.4-1-1c0-2.8-2.2-5-5-5c-0.6,0-1-0.4-1-1s0.4-1,1-1c3.9,0,7,3.1,7,7C55,71.6,54.6,72,54,72
				z"/>
		</g>
	</g>
</g>
<g>
	<g>
		<rect x="41" y="106" class="st4" width="10" height="5"/>
		<path class="st5" d="M51,112H41c-0.6,0-1-0.4-1-1v-5c0-0.6,0.4-1,1-1h10c0.6,0,1,0.4,1,1v5C52,111.6,51.6,112,51,112z M42,110h8
			v-3h-8V110z"/>
	</g>
	<g>
		<path class="st6" d="M51,106H41v-2c0-2.2,1.8-4,4-4h6V106z"/>
		<path class="st5" d="M51,107H41c-0.6,0-1-0.4-1-1v-2c0-2.8,2.2-5,5-5h6c0.6,0,1,0.4,1,1v6C52,106.6,51.6,107,51,107z M42,105h8v-4
			h-5c-1.7,0-3,1.3-3,3V105z"/>
	</g>
	<g>
		<path class="st7" d="M47,101h-2c-1.7,0-3,1.3-3,3v1h2v-1C44,102.3,45.3,101,47,101z"/>
	</g>
	<g>
		<path class="st5" d="M47,107c-0.6,0-1-0.4-1-1v-6c0-0.6,0.4-1,1-1s1,0.4,1,1v6C48,106.6,47.6,107,47,107z"/>
	</g>
	<g>
		<rect x="51" y="95" class="st8" width="14" height="13"/>
		<path class="st5" d="M65,109H51c-0.6,0-1-0.4-1-1V95c0-0.6,0.4-1,1-1h14c0.6,0,1,0.4,1,1v13C66,108.6,65.6,109,65,109z M52,107h12
			V96H52V107z"/>
	</g>
	<g>
		<path class="st5" d="M65,101h-9c-0.6,0-1-0.4-1-1s0.4-1,1-1h9c0.6,0,1,0.4,1,1S65.6,101,65,101z"/>
	</g>
	<g>
		<path class="st5" d="M65,104h-9c-0.6,0-1-0.4-1-1s0.4-1,1-1h9c0.6,0,1,0.4,1,1S65.6,104,65,104z"/>
	</g>
	<g>
		<rect x="51" y="108" class="st4" width="14" height="3"/>
		<path class="st5" d="M65,112H51c-0.6,0-1-0.4-1-1v-3c0-0.6,0.4-1,1-1h14c0.6,0,1,0.4,1,1v3C66,111.6,65.6,112,65,112z M52,110h12
			v-1H52V110z"/>
	</g>
</g>
<g>
	<g>
		<path class="st1" d="M18,116c-0.6,0-1-0.4-1-1v-9c0-0.6,0.4-1,1-1s1,0.4,1,1v9C19,115.6,18.6,116,18,116z"/>
	</g>
	<g>
		<path class="st9" d="M18,109L18,109c-2.2,0-4-1.8-4-4v0c0-0.7,0.1-1.3,0.4-1.9L18,95l3.6,8.1c0.3,0.6,0.4,1.3,0.4,1.9v0
			C22,107.2,20.2,109,18,109z"/>
		<path class="st1" d="M18,110c-2.8,0-5-2.2-5-5c0-0.8,0.2-1.6,0.5-2.3l3.6-8.1c0.2-0.4,0.5-0.6,0.9-0.6s0.8,0.2,0.9,0.6l3.6,8.1
			c0.3,0.7,0.5,1.5,0.5,2.3C23,107.8,20.8,110,18,110z M18,97.5l-2.7,6c-0.2,0.5-0.3,1-0.3,1.5c0,1.7,1.3,3,3,3s3-1.3,3-3
			c0-0.5-0.1-1-0.3-1.5L18,97.5z"/>
	</g>
	<g>
		<path class="st10" d="M20.7,103.5l-0.8-1.8c0.1,0.3,0.1,0.6,0.1,0.9c0,2.1-1.7,3.9-3.9,3.9c-0.3,0-0.5,0-0.7-0.1
			c0.5,0.9,1.5,1.5,2.6,1.5c1.7,0,3-1.3,3-3C21,104.5,20.9,104,20.7,103.5z"/>
	</g>
</g>
<g>
	<g>
		<path class="st1" d="M179,116c-0.6,0-1-0.4-1-1v-9c0-0.6,0.4-1,1-1s1,0.4,1,1v9C180,115.6,179.6,116,179,116z"/>
	</g>
	<g>
		<path class="st9" d="M179,109L179,109c-2.2,0-4-1.8-4-4v0c0-0.7,0.1-1.3,0.4-1.9L179,95l3.6,8.1c0.3,0.6,0.4,1.3,0.4,1.9v0
			C183,107.2,181.2,109,179,109z"/>
		<path class="st1" d="M179,110c-2.8,0-5-2.2-5-5c0-0.8,0.2-1.6,0.5-2.3l3.6-8.1c0.2-0.4,0.5-0.6,0.9-0.6s0.8,0.2,0.9,0.6l3.6,8.1
			c0.3,0.7,0.5,1.5,0.5,2.3C184,107.8,181.8,110,179,110z M179,97.5l-2.7,6c-0.2,0.5-0.3,1-0.3,1.5c0,1.7,1.3,3,3,3s3-1.3,3-3
			c0-0.5-0.1-1-0.3-1.5L179,97.5z"/>
	</g>
	<g>
		<path class="st10" d="M181.7,103.5l-0.8-1.8c0.1,0.3,0.1,0.6,0.1,0.9c0,2.1-1.7,3.9-3.9,3.9c-0.3,0-0.5,0-0.7-0.1
			c0.5,0.9,1.5,1.5,2.6,1.5c1.7,0,3-1.3,3-3C182,104.5,181.9,104,181.7,103.5z"/>
	</g>
</g>
<g>
	<g>
		<rect x="120" y="58" class="st11" width="17" height="57"/>
		<path class="st1" d="M137,116h-17c-0.6,0-1-0.4-1-1V58c0-0.6,0.4-1,1-1h17c0.6,0,1,0.4,1,1v57C138,115.6,137.6,116,137,116z
			 M121,114h15V59h-15V114z"/>
	</g>
	<g>
		<polygon class="st12" points="131,108 127,108 127,71 		"/>
	</g>
	<g>
		<polygon class="st0" points="117,61 139,61 137,58 117,58 		"/>
		<path class="st1" d="M139,62h-22c-0.6,0-1-0.4-1-1v-3c0-0.6,0.4-1,1-1h20c0.3,0,0.6,0.2,0.8,0.4l2,3c0.2,0.3,0.2,0.7,0,1
			S139.4,62,139,62z M118,60h19.1l-0.7-1H118V60z"/>
	</g>
	<g>
		<path class="st0" d="M131,58h-11v-4h9c1.1,0,2,0.9,2,2V58z"/>
		<path class="st1" d="M131,59h-11c-0.6,0-1-0.4-1-1v-4c0-0.6,0.4-1,1-1h9c1.7,0,3,1.3,3,3v2C132,58.6,131.6,59,131,59z M121,57h9
			v-1c0-0.6-0.4-1-1-1h-8V57z"/>
	</g>
	<g>
		<polygon class="st0" points="117,70 139,70 137,67 117,67 		"/>
		<path class="st1" d="M139,71h-22c-0.6,0-1-0.4-1-1v-3c0-0.6,0.4-1,1-1h20c0.3,0,0.6,0.2,0.8,0.4l2,3c0.2,0.3,0.2,0.7,0,1
			S139.4,71,139,71z M118,69h19.1l-0.7-1H118V69z"/>
	</g>
	<g>
		<polygon class="st0" points="117,79 139,79 137,76 117,76 		"/>
		<path class="st1" d="M139,80h-22c-0.6,0-1-0.4-1-1v-3c0-0.6,0.4-1,1-1h20c0.3,0,0.6,0.2,0.8,0.4l2,3c0.2,0.3,0.2,0.7,0,1
			S139.4,80,139,80z M118,78h19.1l-0.7-1H118V78z"/>
	</g>
	<g>
		<polygon class="st0" points="117,88 139,88 137,85 117,85 		"/>
		<path class="st1" d="M139,89h-22c-0.6,0-1-0.4-1-1v-3c0-0.6,0.4-1,1-1h20c0.3,0,0.6,0.2,0.8,0.4l2,3c0.2,0.3,0.2,0.7,0,1
			S139.4,89,139,89z M118,87h19.1l-0.7-1H118V87z"/>
	</g>
	<g>
		<polygon class="st0" points="117,97 139,97 137,94 117,94 		"/>
		<path class="st1" d="M139,98h-22c-0.6,0-1-0.4-1-1v-3c0-0.6,0.4-1,1-1h20c0.3,0,0.6,0.2,0.8,0.4l2,3c0.2,0.3,0.2,0.7,0,1
			S139.4,98,139,98z M118,96h19.1l-0.7-1H118V96z"/>
	</g>
	<g>
		<polygon class="st0" points="117,106 139,106 137,103 117,103 		"/>
		<path class="st1" d="M139,107h-22c-0.6,0-1-0.4-1-1v-3c0-0.6,0.4-1,1-1h20c0.3,0,0.6,0.2,0.8,0.4l2,3c0.2,0.3,0.2,0.7,0,1
			S139.4,107,139,107z M118,105h19.1l-0.7-1H118V105z"/>
	</g>
	<g>
		<rect x="127" y="89" class="st12" width="9" height="1"/>
	</g>
	<g>
		<rect x="127" y="80" class="st12" width="9" height="1"/>
	</g>
	<g>
		<rect x="127" y="71" class="st12" width="9" height="1"/>
	</g>
	<g>
		<rect x="121" y="62" class="st12" width="15" height="1"/>
	</g>
	<g>
		<rect x="127" y="98" class="st12" width="9" height="1"/>
	</g>
	<g>
		<rect x="127" y="107" class="st12" width="9" height="1"/>
	</g>
	<g>
		<path class="st12" d="M129,114h3c1.1,0,2-0.9,2-2v-4h-5V114z"/>
	</g>
	<g>
		<rect x="121" y="63" class="st12" width="2" height="3"/>
	</g>
	<g>
		<rect x="121" y="55" class="st13" width="3" height="2"/>
	</g>
	<g>
		<rect x="121" y="59" class="st13" width="2" height="1"/>
	</g>
</g>
<g>
	<g>
		<polygon class="st2" points="158,115 154,115 155,73 157,73 		"/>
		<path class="st1" d="M158,116h-4c-0.3,0-0.5-0.1-0.7-0.3c-0.2-0.2-0.3-0.5-0.3-0.7l1-42c0-0.5,0.5-1,1-1h2c0.5,0,1,0.4,1,1l1,42
			c0,0.3-0.1,0.5-0.3,0.7C158.5,115.9,158.3,116,158,116z M155,114h2l-1-40h0L155,114z"/>
	</g>
	<g>
		<path class="st2" d="M158.7,65.1L156,57v14c1.7,0,3-1.8,3-4C159,66.3,158.9,65.7,158.7,65.1z"/>
		<path class="st1" d="M156,72c-0.6,0-1-0.4-1-1V57c0-0.5,0.4-0.9,0.8-1c0.5-0.1,1,0.2,1.1,0.7l2.7,8.1c0.2,0.7,0.4,1.5,0.4,2.2
			C160,69.8,158.2,72,156,72z M157,63.2v6.4c0.6-0.5,1-1.5,1-2.6c0-0.5-0.1-1.1-0.3-1.6l0,0L157,63.2z"/>
	</g>
	<g>
		<path class="st2" d="M161.6,79.3L170,81l-12.1-7c-0.8,1.4,0.1,3.5,2,4.6C160.4,78.9,161,79.2,161.6,79.3z"/>
		<path class="st1" d="M170,82c-0.1,0-0.1,0-0.2,0l-8.4-1.7c-0.7-0.1-1.4-0.4-2.1-0.8c-1.1-0.6-2-1.6-2.4-2.6
			c-0.5-1.1-0.5-2.4,0.1-3.3c0.3-0.5,0.9-0.6,1.4-0.4l12.1,7c0.4,0.2,0.6,0.8,0.4,1.2C170.8,81.7,170.4,82,170,82z M158.6,75.6
			c0,0.2,0.1,0.3,0.1,0.5c0.3,0.7,0.9,1.3,1.6,1.7c0.5,0.3,1,0.5,1.5,0.6l0,0l2.3,0.5L158.6,75.6z"/>
	</g>
	<g>
		<path class="st2" d="M147.7,74.6L142,81l12.1-7c-0.8-1.4-3.1-1.7-5-0.6C148.6,73.7,148.1,74.1,147.7,74.6z"/>
		<path class="st1" d="M142,82c-0.3,0-0.6-0.1-0.8-0.4c-0.3-0.4-0.3-0.9,0-1.3l5.7-6.4c0.5-0.6,1.1-1,1.8-1.4
			c1.1-0.6,2.4-0.9,3.5-0.8c1.2,0.1,2.3,0.8,2.8,1.7c0.3,0.5,0.1,1.1-0.4,1.4l-12.1,7C142.3,82,142.2,82,142,82z M151.6,73.7
			c-0.6,0-1.3,0.2-1.9,0.5c-0.5,0.3-0.9,0.6-1.3,1h0l-1.6,1.8l5.6-3.2c-0.2-0.1-0.3-0.1-0.5-0.1C151.8,73.7,151.7,73.7,151.6,73.7z
			 M147.7,74.6L147.7,74.6L147.7,74.6z"/>
	</g>
	<g>
		<circle class="st2" cx="156" cy="73" r="2"/>
		<path class="st1" d="M156,76c-1.7,0-3-1.3-3-3s1.3-3,3-3s3,1.3,3,3S157.7,76,156,76z M156,72c-0.6,0-1,0.4-1,1s0.4,1,1,1
			s1-0.4,1-1S156.6,72,156,72z"/>
	</g>
</g>
<g>
	<g>
		<path class="st2" d="M123,115H65c-1.7,0-3-1.3-3-3V70c0-1.7,1.3-3,3-3h58c1.7,0,3,1.3,3,3v42C126,113.7,124.7,115,123,115z"/>
		<path class="st5" d="M123,116H65c-2.2,0-4-1.8-4-4V70c0-2.2,1.8-4,4-4h58c2.2,0,4,1.8,4,4v42C127,114.2,125.2,116,123,116z M65,68
			c-1.1,0-2,0.9-2,2v42c0,1.1,0.9,2,2,2h58c1.1,0,2-0.9,2-2V70c0-1.1-0.9-2-2-2H65z"/>
	</g>
	<g>
		<rect x="67" y="72" class="st14" width="54" height="32"/>
		<path class="st5" d="M121,105H67c-0.6,0-1-0.4-1-1V72c0-0.6,0.4-1,1-1h54c0.6,0,1,0.4,1,1v32C122,104.6,121.6,105,121,105z
			 M68,103h52V73H68V103z"/>
	</g>
	<g>
		<path class="st2" d="M99,109L99,109c0,1.1-0.9,2-2,2h-6c-1.1,0-2-0.9-2-2l0,0H57v3c0,1.7,1.3,3,3,3h68c1.7,0,3-1.3,3-3v-3H99z"/>
		<path class="st5" d="M128,116H60c-2.2,0-4-1.8-4-4v-3c0-0.6,0.4-1,1-1h32c0.6,0,1,0.4,1,1c0,0.6,0.4,1,1,1h6c0.6,0,1-0.4,1-1
			c0-0.6,0.4-1,1-1h32c0.6,0,1,0.4,1,1v3C132,114.2,130.2,116,128,116z M58,110v2c0,1.1,0.9,2,2,2h68c1.1,0,2-0.9,2-2v-2H99.8
			c-0.4,1.2-1.5,2-2.8,2h-6c-1.3,0-2.4-0.8-2.8-2H58z"/>
	</g>
	<g>
		<circle class="st5" cx="94" cy="107" r="1"/>
	</g>
	<g>
		<path class="st15" d="M60,114h68c1.1,0,2-0.9,2-2H97h-6H58C58,113.1,58.9,114,60,114z"/>
	</g>
	<g>
		<path class="st15" d="M124,68.3V108h1V70C125,69.3,124.6,68.6,124,68.3z"/>
	</g>
	<g>
		<path class="st5" d="M99,110H89c-0.6,0-1-0.4-1-1s0.4-1,1-1h10c0.6,0,1,0.4,1,1S99.6,110,99,110z"/>
	</g>
</g>
<g>
	<g>
		<rect x="69" y="56" class="st6" width="16" height="47"/>
		<path class="st5" d="M85,105H68c-0.6,0-1-0.4-1-1V56c0-0.6,0.4-1,1-1h17c0.6,0,1,0.4,1,1v48C86,104.6,85.6,105,85,105z M69,103h15
			V57H69V103z"/>
	</g>
	<g>
		<rect x="68" y="53" class="st4" width="3" height="51"/>
		<path class="st5" d="M71,105h-3c-0.6,0-1-0.4-1-1V53c0-0.6,0.4-1,1-1h3c0.6,0,1,0.4,1,1v51C72,104.6,71.6,105,71,105z M69,103h1
			V54h-1V103z"/>
	</g>
	<g>
		<rect x="71" y="63" class="st4" width="14" height="3"/>
		<path class="st5" d="M85,67H71c-0.6,0-1-0.4-1-1v-3c0-0.6,0.4-1,1-1h14c0.6,0,1,0.4,1,1v3C86,66.6,85.6,67,85,67z M72,65h12v-1H72
			V65z"/>
	</g>
	<g>
		<rect x="71" y="53" class="st4" width="14" height="3"/>
		<path class="st5" d="M85,57H71c-0.6,0-1-0.4-1-1v-3c0-0.6,0.4-1,1-1h14c0.6,0,1,0.4,1,1v3C86,56.6,85.6,57,85,57z M72,55h12v-1H72
			V55z"/>
	</g>
	<g>
		<rect x="71" y="73" class="st4" width="14" height="3"/>
		<path class="st5" d="M85,77H71c-0.6,0-1-0.4-1-1v-3c0-0.6,0.4-1,1-1h14c0.6,0,1,0.4,1,1v3C86,76.6,85.6,77,85,77z M72,75h12v-1H72
			V75z"/>
	</g>
	<g>
		<rect x="71" y="83" class="st4" width="14" height="3"/>
		<path class="st5" d="M85,87H71c-0.6,0-1-0.4-1-1v-3c0-0.6,0.4-1,1-1h14c0.6,0,1,0.4,1,1v3C86,86.6,85.6,87,85,87z M72,85h12v-1H72
			V85z"/>
	</g>
	<g>
		<rect x="71" y="93" class="st4" width="14" height="3"/>
		<path class="st5" d="M85,97H71c-0.6,0-1-0.4-1-1v-3c0-0.6,0.4-1,1-1h14c0.6,0,1,0.4,1,1v3C86,96.6,85.6,97,85,97z M72,95h12v-1H72
			V95z"/>
	</g>
	<g>
		<rect x="72" y="57" class="st16" width="12" height="1"/>
	</g>
	<g>
		<rect x="72" y="97" class="st16" width="12" height="1"/>
	</g>
	<g>
		<polygon class="st7" points="77,82 74,82 77,77 80,77 		"/>
	</g>
	<g>
		<polygon class="st7" points="80,82 78,82 81,77 83,77 		"/>
	</g>
	<g>
		<polygon class="st7" points="77,92 74,92 77,87 80,87 		"/>
	</g>
	<g>
		<polygon class="st7" points="80,92 78,92 81,87 83,87 		"/>
	</g>
	<g>
		<polygon class="st7" points="77,72 74,72 77,67 80,67 		"/>
	</g>
	<g>
		<polygon class="st7" points="80,72 78,72 81,67 83,67 		"/>
	</g>
	<g>
		<polygon class="st7" points="77,62 74,62 77,57 80,57 		"/>
	</g>
	<g>
		<polygon class="st6" points="79.4,58 80,57 77,57 76.4,58 		"/>
	</g>
	<g>
		<polygon class="st7" points="80,62 78,62 81,57 83,57 		"/>
	</g>
	<g>
		<polygon class="st6" points="82.4,58 83,57 81,57 80.4,58 		"/>
	</g>
	<g>
		<rect x="72" y="67" class="st16" width="12" height="1"/>
	</g>
	<g>
		<rect x="72" y="77" class="st16" width="12" height="1"/>
	</g>
	<g>
		<rect x="72" y="87" class="st16" width="12" height="1"/>
	</g>
	<g>
		<polygon class="st6" points="79.4,68 80,67 77,67 76.4,68 		"/>
	</g>
	<g>
		<polygon class="st6" points="82.4,68 83,67 81,67 80.4,68 		"/>
	</g>
	<g>
		<polygon class="st6" points="79.4,78 80,77 77,77 76.4,78 		"/>
	</g>
	<g>
		<polygon class="st6" points="82.4,78 83,77 81,77 80.4,78 		"/>
	</g>
	<g>
		<polygon class="st6" points="79.4,88 80,87 77,87 76.4,88 		"/>
	</g>
	<g>
		<polygon class="st6" points="82.4,88 83,87 81,87 80.4,88 		"/>
	</g>
	<g>
		<rect x="72" y="57" class="st16" width="1" height="5"/>
	</g>
	<g>
		<rect x="72" y="67" class="st16" width="1" height="5"/>
	</g>
	<g>
		<rect x="72" y="77" class="st16" width="1" height="5"/>
	</g>
	<g>
		<rect x="72" y="98" class="st16" width="1" height="5"/>
	</g>
</g>
<g>
	<g>
		<polygon class="st6" points="100,104 120,104 120,45 100,53 		"/>
		<path class="st5" d="M120,105h-20c-0.6,0-1-0.4-1-1V53c0-0.4,0.2-0.8,0.6-0.9l20-8c0.3-0.1,0.7-0.1,0.9,0.1
			c0.3,0.2,0.4,0.5,0.4,0.8v59C121,104.6,120.6,105,120,105z M101,103h18V46.5l-18,7.2V103z"/>
	</g>
	<g>
		<polygon class="st16" points="107,51.3 107,103 114,103 107.3,51.2 		"/>
	</g>
	<g>
		<path class="st5" d="M120,59h-20c-0.6,0-1-0.4-1-1s0.4-1,1-1h20c0.6,0,1,0.4,1,1S120.6,59,120,59z"/>
	</g>
	<g>
		<path class="st5" d="M120,64h-20c-0.6,0-1-0.4-1-1s0.4-1,1-1h20c0.6,0,1,0.4,1,1S120.6,64,120,64z"/>
	</g>
	<g>
		<path class="st5" d="M120,69h-20c-0.6,0-1-0.4-1-1s0.4-1,1-1h20c0.6,0,1,0.4,1,1S120.6,69,120,69z"/>
	</g>
	<g>
		<path class="st5" d="M120,74h-20c-0.6,0-1-0.4-1-1s0.4-1,1-1h20c0.6,0,1,0.4,1,1S120.6,74,120,74z"/>
	</g>
	<g>
		<path class="st5" d="M120,79h-20c-0.6,0-1-0.4-1-1s0.4-1,1-1h20c0.6,0,1,0.4,1,1S120.6,79,120,79z"/>
	</g>
	<g>
		<path class="st5" d="M120,84h-20c-0.6,0-1-0.4-1-1s0.4-1,1-1h20c0.6,0,1,0.4,1,1S120.6,84,120,84z"/>
	</g>
	<g>
		<path class="st5" d="M120,89h-20c-0.6,0-1-0.4-1-1s0.4-1,1-1h20c0.6,0,1,0.4,1,1S120.6,89,120,89z"/>
	</g>
	<g>
		<path class="st5" d="M120,94h-20c-0.6,0-1-0.4-1-1s0.4-1,1-1h20c0.6,0,1,0.4,1,1S120.6,94,120,94z"/>
	</g>
	<g>
		<path class="st5" d="M120,99h-20c-0.6,0-1-0.4-1-1s0.4-1,1-1h20c0.6,0,1,0.4,1,1S120.6,99,120,99z"/>
	</g>
	<g>
		<path class="st5" d="M116,54h-3c-0.6,0-1-0.4-1-1s0.4-1,1-1h3c0.6,0,1,0.4,1,1S116.6,54,116,54z"/>
	</g>
	<g>
		<path class="st5" d="M114,47.4c-0.4,0-0.8-0.2-0.9-0.6c-0.2-0.5,0-1.1,0.6-1.3l3.5-1.4c1.1-0.5,1.9-1.6,1.9-2.8V35
			c0-0.6,0.4-1,1-1s1,0.4,1,1v6.3c0,2.1-1.2,3.9-3.1,4.6l-3.5,1.4C114.2,47.4,114.1,47.4,114,47.4z"/>
	</g>
</g>
<g>
	<circle class="st17" cx="190" cy="39" r="1"/>
</g>
<g>
	<circle class="st17" cx="165" cy="24" r="1"/>
</g>
<g>
	<circle class="st17" cx="85" cy="8" r="1"/>
</g>
<g>
	<circle class="st17" cx="54" cy="1" r="1"/>
</g>
<g>
	<circle class="st7" cx="74" cy="32" r="1"/>
</g>
<g>
	<circle class="st7" cx="122" cy="15" r="1"/>
</g>
<g>
	<circle class="st18" cx="191" cy="93" r="1"/>
</g>
<g>
	<circle class="st18" cx="16" cy="85" r="1"/>
</g>
<g>
	<circle class="st18" cx="46" cy="17" r="1"/>
</g>
<g>
	<circle class="st18" cx="157" cy="11" r="1"/>
</g>
<g>
	<circle class="st18" cx="1" cy="67" r="1"/>
</g>
<g>
	<path class="st19" d="M44,10c-1.7,0-3-1.3-3-3s1.3-3,3-3s3,1.3,3,3S45.7,10,44,10z M44,6c-0.6,0-1,0.4-1,1s0.4,1,1,1s1-0.4,1-1
		S44.6,6,44,6z"/>
</g>
<g>
	<path class="st18" d="M178,36c-1.7,0-3-1.3-3-3s1.3-3,3-3s3,1.3,3,3S179.7,36,178,36z M178,32c-0.6,0-1,0.4-1,1s0.4,1,1,1
		s1-0.4,1-1S178.6,32,178,32z"/>
</g>
<g>
	<path class="st18" d="M8,81c-1.7,0-3-1.3-3-3s1.3-3,3-3s3,1.3,3,3S9.7,81,8,81z M8,77c-0.6,0-1,0.4-1,1s0.4,1,1,1s1-0.4,1-1
		S8.6,77,8,77z"/>
</g>
<g>
	<path class="st7" d="M192,75c-1.7,0-3-1.3-3-3s1.3-3,3-3s3,1.3,3,3S193.7,75,192,75z M192,71c-0.6,0-1,0.4-1,1s0.4,1,1,1s1-0.4,1-1
		S192.6,71,192,71z"/>
</g>
<g>
	<path class="st7" d="M13,22c-1.7,0-3-1.3-3-3s1.3-3,3-3s3,1.3,3,3S14.7,22,13,22z M13,18c-0.6,0-1,0.4-1,1s0.4,1,1,1s1-0.4,1-1
		S13.6,18,13,18z"/>
</g>
<path class="st19" d="M171.9,14.5l0.8-0.8c0.4-0.4,0.4-1,0-1.4s-1-0.4-1.4,0l-0.8,0.8l-0.8-0.8c-0.4-0.4-1-0.4-1.4,0s-0.4,1,0,1.4
	l0.8,0.8l-0.8,0.8c-0.4,0.4-0.4,1,0,1.4c0.2,0.2,0.5,0.3,0.7,0.3s0.5-0.1,0.7-0.3l0.8-0.8l0.8,0.8c0.2,0.2,0.5,0.3,0.7,0.3
	s0.5-0.1,0.7-0.3c0.4-0.4,0.4-1,0-1.4L171.9,14.5z"/>
<path class="st18" d="M99.9,10.5l0.8-0.8c0.4-0.4,0.4-1,0-1.4s-1-0.4-1.4,0l-0.8,0.8l-0.8-0.8c-0.4-0.4-1-0.4-1.4,0s-0.4,1,0,1.4
	l0.8,0.8l-0.8,0.8c-0.4,0.4-0.4,1,0,1.4c0.2,0.2,0.5,0.3,0.7,0.3s0.5-0.1,0.7-0.3l0.8-0.8l0.8,0.8c0.2,0.2,0.5,0.3,0.7,0.3
	s0.5-0.1,0.7-0.3c0.4-0.4,0.4-1,0-1.4L99.9,10.5z"/>
<path class="st7" d="M139.9,12.5l0.8-0.8c0.4-0.4,0.4-1,0-1.4s-1-0.4-1.4,0l-0.8,0.8l-0.8-0.8c-0.4-0.4-1-0.4-1.4,0s-0.4,1,0,1.4
	l0.8,0.8l-0.8,0.8c-0.4,0.4-0.4,1,0,1.4c0.2,0.2,0.5,0.3,0.7,0.3s0.5-0.1,0.7-0.3l0.8-0.8l0.8,0.8c0.2,0.2,0.5,0.3,0.7,0.3
	s0.5-0.1,0.7-0.3c0.4-0.4,0.4-1,0-1.4L139.9,12.5z"/>
<g>
	<path class="st5" d="M184,116H14c-0.6,0-1-0.4-1-1s0.4-1,1-1h170c0.6,0,1,0.4,1,1S184.6,116,184,116z"/>
</g>
<g>
	<circle class="st5" cx="197" cy="115" r="1"/>
</g>
<g>
	<path class="st5" d="M193,116h-5c-0.6,0-1-0.4-1-1s0.4-1,1-1h5c0.6,0,1,0.4,1,1S193.6,116,193,116z"/>
</g>
<g>
	<circle class="st5" cx="1" cy="115" r="1"/>
</g>
<g>
	<path class="st5" d="M10,116H5c-0.6,0-1-0.4-1-1s0.4-1,1-1h5c0.6,0,1,0.4,1,1S10.6,116,10,116z"/>
</g>
<g>
	<g>
		<circle class="st20" cx="69" cy="17" r="7"/>
		<path class="st5" d="M69,26c-5,0-9-4-9-9s4-9,9-9s9,4,9,9S74,26,69,26z M69,10c-3.9,0-7,3.1-7,7s3.1,7,7,7s7-3.1,7-7
			S72.9,10,69,10z"/>
	</g>
	<g>
		<path class="st5" d="M68,22c-0.1,0-0.3,0-0.4-0.1c-0.4-0.2-0.7-0.7-0.5-1.1l0.7-2.8H67c-0.4,0-0.7-0.2-0.9-0.6s-0.1-0.7,0.1-1l3-4
			c0.3-0.4,0.8-0.5,1.2-0.3c0.4,0.2,0.7,0.7,0.5,1.1L70.3,16H71c0.4,0,0.7,0.2,0.9,0.6s0.1,0.7-0.1,1l-3,4C68.6,21.9,68.3,22,68,22z
			"/>
	</g>
</g>
<g>
	<g>
		<circle class="st2" cx="180" cy="54" r="7"/>
		<path class="st5" d="M180,63c-5,0-9-4-9-9s4-9,9-9s9,4,9,9S185,63,180,63z M180,47c-3.9,0-7,3.1-7,7s3.1,7,7,7s7-3.1,7-7
			S183.9,47,180,47z"/>
	</g>
</g>
<g>
	<circle class="st5" cx="80" cy="17" r="1"/>
</g>
<g>
	<circle class="st5" cx="83" cy="17" r="1"/>
</g>
<g>
	<circle class="st5" cx="83" cy="20" r="1"/>
</g>
<g>
	<circle class="st5" cx="83" cy="23" r="1"/>
</g>
<g>
	<circle class="st5" cx="83" cy="26" r="1"/>
</g>
<g>
	<circle class="st5" cx="83" cy="29" r="1"/>
</g>
<g>
	<circle class="st5" cx="83" cy="32" r="1"/>
</g>
<g>
	<circle class="st5" cx="83" cy="35" r="1"/>
</g>
<g>
	<circle class="st5" cx="83" cy="38" r="1"/>
</g>
<g>
	<circle class="st5" cx="111" cy="38" r="1"/>
</g>
<g>
	<circle class="st5" cx="111" cy="41" r="1"/>
</g>
<g>
	<circle class="st5" cx="111" cy="44" r="1"/>
</g>
<g>
	<g>
		<path class="st21" d="M174,115h-12c-1.1,0-2-0.9-2-2V89c0-1.1,0.9-2,2-2h12c1.1,0,2,0.9,2,2v24C176,114.1,175.1,115,174,115z"/>
		<path class="st5" d="M174,116h-12c-1.7,0-3-1.3-3-3V89c0-1.7,1.3-3,3-3h12c1.7,0,3,1.3,3,3v24C177,114.7,175.7,116,174,116z
			 M162,88c-0.6,0-1,0.4-1,1v24c0,0.6,0.4,1,1,1h12c0.6,0,1-0.4,1-1V89c0-0.6-0.4-1-1-1H162z"/>
	</g>
	<g>
		<rect x="160" y="92" class="st22" width="16" height="17"/>
		<path class="st5" d="M176,110h-16c-0.6,0-1-0.4-1-1V92c0-0.6,0.4-1,1-1h16c0.6,0,1,0.4,1,1v17C177,109.6,176.6,110,176,110z
			 M161,108h14V93h-14V108z"/>
	</g>
	<g>
		<circle class="st5" cx="168" cy="112" r="1"/>
	</g>
	<g>
		<polygon class="st23" points="168,108 165,108 175,98 175,101 		"/>
	</g>
	<g>
		<polygon class="st23" points="175,108 170,108 175,103 		"/>
	</g>
</g>
<g>
	<rect x="82" y="44" class="st24" width="24" height="42"/>
	<path class="st5" d="M106,87H82c-0.6,0-1-0.4-1-1V44c0-0.6,0.4-1,1-1h24c0.6,0,1,0.4,1,1v42C107,86.6,106.6,87,106,87z M83,85h22
		V45H83V85z"/>
</g>
<g>
	<rect x="88" y="40" class="st24" width="12" height="4"/>
	<path class="st5" d="M100,45H88c-0.6,0-1-0.4-1-1v-4c0-0.6,0.4-1,1-1h12c0.6,0,1,0.4,1,1v4C101,44.6,100.6,45,100,45z M89,43h10v-2
		H89V43z"/>
</g>
<g>
	<path class="st5" d="M94,41c-0.6,0-1-0.4-1-1V21c0-0.6,0.4-1,1-1s1,0.4,1,1v19C95,40.6,94.6,41,94,41z"/>
</g>
<g>
	<path class="st5" d="M94,41c-1.1,0-2-0.9-2-2v-4c0-1.1,0.9-2,2-2s2,0.9,2,2v4C96,40.1,95.1,41,94,41z"/>
</g>
<g>
	<rect x="83" y="91" class="st24" width="22" height="12"/>
	<path class="st5" d="M106,105H82c-0.6,0-1-0.4-1-1V90c0-0.6,0.4-1,1-1h24c0.6,0,1,0.4,1,1v14C107,104.6,106.6,105,106,105z M83,103
		h22V91H83V103z"/>
</g>
<g>
	<rect x="90" y="96" class="st6" width="8" height="7"/>
	<path class="st5" d="M99,105H89c-0.6,0-1-0.4-1-1v-9c0-0.6,0.4-1,1-1h10c0.6,0,1,0.4,1,1v9C100,104.6,99.6,105,99,105z M90,103h8
		v-7h-8V103z"/>
</g>
<g>
	<path class="st5" d="M94,105c-0.6,0-1-0.4-1-1v-9c0-0.6,0.4-1,1-1s1,0.4,1,1v9C95,104.6,94.6,105,94,105z"/>
</g>
<g>
	<rect x="85" y="86" class="st24" width="3" height="4"/>
	<path class="st5" d="M88,91h-3c-0.6,0-1-0.4-1-1v-4c0-0.6,0.4-1,1-1h3c0.6,0,1,0.4,1,1v4C89,90.6,88.6,91,88,91z M86,89h1v-2h-1V89
		z"/>
</g>
<g>
	<rect x="100" y="86" class="st24" width="3" height="4"/>
	<path class="st5" d="M103,91h-3c-0.6,0-1-0.4-1-1v-4c0-0.6,0.4-1,1-1h3c0.6,0,1,0.4,1,1v4C104,90.6,103.6,91,103,91z M101,89h1v-2
		h-1V89z"/>
</g>
<g>
	<path class="st24" d="M106,86h-3V44c0-0.8,0.7-1.5,1.5-1.5l0,0c0.8,0,1.5,0.7,1.5,1.5V86z"/>
	<path class="st5" d="M106,87h-3c-0.6,0-1-0.4-1-1V44c0-1.4,1.1-2.5,2.5-2.5s2.5,1.1,2.5,2.5v42C107,86.6,106.6,87,106,87z M104,85
		h1V44c0-0.3-0.2-0.5-0.5-0.5S104,43.7,104,44V85z"/>
</g>
<g>
	<path class="st24" d="M85,86h-3V43.5c0-0.8,0.7-1.5,1.5-1.5l0,0c0.8,0,1.5,0.7,1.5,1.5V86z"/>
	<path class="st5" d="M85,87h-3c-0.6,0-1-0.4-1-1V43.5c0-1.4,1.1-2.5,2.5-2.5s2.5,1.1,2.5,2.5V86C86,86.6,85.6,87,85,87z M83,85h1
		V43.5c0-0.3-0.2-0.5-0.5-0.5S83,43.2,83,43.5V85z"/>
</g>
<g>
	<rect x="88" y="86" class="st6" width="12" height="4"/>
	<path class="st5" d="M100,91H88c-0.6,0-1-0.4-1-1v-4c0-0.6,0.4-1,1-1h12c0.6,0,1,0.4,1,1v4C101,90.6,100.6,91,100,91z M89,89h10v-2
		H89V89z"/>
</g>
<g>
	<rect x="86" y="62" class="st6" width="16" height="6"/>
	<path class="st5" d="M103,70H85c-0.6,0-1-0.4-1-1v-8c0-0.6,0.4-1,1-1h18c0.6,0,1,0.4,1,1v8C104,69.6,103.6,70,103,70z M86,68h16v-6
		H86V68z"/>
</g>
<g>
	<rect x="86" y="74" class="st6" width="16" height="6"/>
	<path class="st5" d="M103,82H85c-0.6,0-1-0.4-1-1v-8c0-0.6,0.4-1,1-1h18c0.6,0,1,0.4,1,1v8C104,81.6,103.6,82,103,82z M86,80h16v-6
		H86V80z"/>
</g>
<g>
	<rect x="86" y="50" class="st6" width="16" height="6"/>
	<path class="st5" d="M103,58H85c-0.6,0-1-0.4-1-1v-8c0-0.6,0.4-1,1-1h18c0.6,0,1,0.4,1,1v8C104,57.6,103.6,58,103,58z M86,56h16v-6
		H86V56z"/>
</g>
<g>
	<polygon class="st7" points="95,80 92,80 95,74 98,74 	"/>
</g>
<g>
	<polygon class="st7" points="98,80 96,80 99,74 101,74 	"/>
</g>
<g>
	<polygon class="st7" points="93,68 90,68 93,62 96,62 	"/>
</g>
<g>
	<polygon class="st7" points="96,68 94,68 97,62 99,62 	"/>
</g>
<g>
	<polygon class="st7" points="96,56 93,56 96,50 99,50 	"/>
</g>
<g>
	<polygon class="st7" points="99,56 97,56 100,50 102,50 	"/>
</g>
<g>
	<rect x="86" y="45" class="st25" width="1" height="3"/>
</g>
<g>
	<rect x="86" y="58" class="st25" width="1" height="2"/>
</g>
<g>
	<rect x="86" y="87" class="st25" width="1" height="1"/>
</g>
<g>
	<rect x="101" y="87" class="st25" width="1" height="1"/>
</g>
<g>
	<rect x="89" y="87" class="st16" width="10" height="1"/>
</g>
<g>
	<path class="st5" d="M120,47c-0.6,0-1-0.4-1-1v-4c0-0.6,0.4-1,1-1s1,0.4,1,1v4C121,46.6,120.6,47,120,47z"/>
</g>
<g>
	<g>
		<g>
			<path class="st8" d="M111,21L111,21c2.2,0,4,1.8,4,4v0c0,0.7-0.1,1.3-0.4,1.9L111,35l-3.6-8.1c-0.3-0.6-0.4-1.3-0.4-1.9v0
				C107,22.8,108.8,21,111,21z"/>
			<path class="st5" d="M111,36c-0.4,0-0.8-0.2-0.9-0.6l-3.6-8.1c-0.3-0.7-0.5-1.5-0.5-2.3c0-2.8,2.2-5,5-5s5,2.2,5,5
				c0,0.8-0.2,1.6-0.5,2.3l-3.6,8.1C111.8,35.8,111.4,36,111,36z M111,22c-1.7,0-3,1.3-3,3c0,0.5,0.1,1,0.3,1.5l2.7,6l2.7-6
				c0.2-0.5,0.3-1,0.3-1.5C114,23.3,112.7,22,111,22z"/>
		</g>
	</g>
	<g>
		<circle class="st5" cx="111" cy="25" r="1"/>
	</g>
</g>
<g>
	<g>
		<g>
			<path class="st8" d="M168,69L168,69c2.2,0,4,1.8,4,4v0c0,0.7-0.1,1.3-0.4,1.9L168,83l-3.6-8.1c-0.3-0.6-0.4-1.3-0.4-1.9v0
				C164,70.8,165.8,69,168,69z"/>
			<path class="st5" d="M168,84c-0.4,0-0.8-0.2-0.9-0.6l-3.6-8.1c-0.3-0.7-0.5-1.5-0.5-2.3c0-2.8,2.2-5,5-5s5,2.2,5,5
				c0,0.8-0.2,1.6-0.5,2.3l-3.6,8.1C168.8,83.8,168.4,84,168,84z M168,70c-1.7,0-3,1.3-3,3c0,0.5,0.1,1,0.3,1.5l2.7,6l2.7-6
				c0.2-0.5,0.3-1,0.3-1.5C171,71.3,169.7,70,168,70z"/>
		</g>
	</g>
	<g>
		<circle class="st5" cx="168" cy="73" r="1"/>
	</g>
</g>
<g>
	<polygon class="st25" points="87,70 86,70 86,72 87,72 87,71 102,71 102,70 	"/>
</g>
<g>
	<rect x="87" y="58" class="st25" width="15" height="1"/>
</g>
<g>
	<polygon class="st25" points="87,82 86,82 86,85 87,85 87,83 102,83 102,82 	"/>
</g>
<g>
	<g>
		<path class="st26" d="M61,52c-0.6,0-1-0.4-1-1V41c0-0.6,0.4-1,1-1s1,0.4,1,1v10C62,51.6,61.6,52,61,52z"/>
	</g>
	<g>
		<path class="st26" d="M13,35c-0.3,0-0.5-0.1-0.7-0.3c-0.4-0.4-0.4-1,0-1.4l10-10c0.4-0.4,1-0.4,1.4,0s0.4,1,0,1.4l-10,10
			C13.5,34.9,13.3,35,13,35z"/>
	</g>
	<g>
		<path class="st26" d="M60,35c-0.1,0-0.2,0-0.3,0l-37-10c-0.5-0.1-0.8-0.7-0.7-1.2c0.1-0.5,0.7-0.9,1.2-0.7l37,10
			c0.5,0.1,0.8,0.7,0.7,1.2C60.8,34.7,60.4,35,60,35z"/>
	</g>
	<g>
		<path class="st5" d="M31,111h-8c-0.6,0-1-0.4-1-1V50c0-0.6,0.4-1,1-1h8c0.6,0,1,0.4,1,1v60C32,110.6,31.6,111,31,111z M24,109h6
			V51h-6V109z"/>
	</g>
	<g>
		<path class="st5" d="M23,111c-0.2,0-0.4-0.1-0.6-0.2c-0.4-0.3-0.5-1-0.2-1.4l8-10c0.3-0.4,1-0.5,1.4-0.2c0.4,0.3,0.5,1,0.2,1.4
			l-8,10C23.6,110.9,23.3,111,23,111z"/>
	</g>
	<g>
		<path class="st5" d="M31,111c-0.3,0-0.6-0.1-0.8-0.4l-8-10c-0.3-0.4-0.3-1.1,0.2-1.4c0.4-0.3,1.1-0.3,1.4,0.2l8,10
			c0.3,0.4,0.3,1.1-0.2,1.4C31.4,110.9,31.2,111,31,111z"/>
	</g>
	<g>
		<path class="st5" d="M23,101c-0.2,0-0.4-0.1-0.6-0.2c-0.4-0.3-0.5-1-0.2-1.4l8-10c0.3-0.4,1-0.5,1.4-0.2c0.4,0.3,0.5,1,0.2,1.4
			l-8,10C23.6,100.9,23.3,101,23,101z"/>
	</g>
	<g>
		<path class="st5" d="M31,101c-0.3,0-0.6-0.1-0.8-0.4l-8-10c-0.3-0.4-0.3-1.1,0.2-1.4c0.4-0.3,1.1-0.3,1.4,0.2l8,10
			c0.3,0.4,0.3,1.1-0.2,1.4C31.4,100.9,31.2,101,31,101z"/>
	</g>
	<g>
		<path class="st5" d="M30.2,101H23c-0.6,0-1-0.4-1-1s0.4-1,1-1h7.2c0.6,0,1,0.4,1,1S30.8,101,30.2,101z"/>
	</g>
	<g>
		<path class="st5" d="M30.2,91H23c-0.6,0-1-0.4-1-1s0.4-1,1-1h7.2c0.6,0,1,0.4,1,1S30.8,91,30.2,91z"/>
	</g>
	<g>
		<path class="st5" d="M23,91c-0.2,0-0.4-0.1-0.6-0.2c-0.4-0.3-0.5-1-0.2-1.4l8-10c0.3-0.4,1-0.5,1.4-0.2c0.4,0.3,0.5,1,0.2,1.4
			l-8,10C23.6,90.9,23.3,91,23,91z"/>
	</g>
	<g>
		<path class="st5" d="M31,91c-0.3,0-0.6-0.1-0.8-0.4l-8-10c-0.3-0.4-0.3-1.1,0.2-1.4c0.4-0.3,1.1-0.3,1.4,0.2l8,10
			c0.3,0.4,0.3,1.1-0.2,1.4C31.4,90.9,31.2,91,31,91z"/>
	</g>
	<g>
		<path class="st5" d="M23,81c-0.2,0-0.4-0.1-0.6-0.2c-0.4-0.3-0.5-1-0.2-1.4l8-10c0.3-0.4,1-0.5,1.4-0.2c0.4,0.3,0.5,1,0.2,1.4
			l-8,10C23.6,80.9,23.3,81,23,81z"/>
	</g>
	<g>
		<path class="st5" d="M31,81c-0.3,0-0.6-0.1-0.8-0.4l-8-10c-0.3-0.4-0.3-1.1,0.2-1.4c0.4-0.3,1.1-0.3,1.4,0.2l8,10
			c0.3,0.4,0.3,1.1-0.2,1.4C31.4,80.9,31.2,81,31,81z"/>
	</g>
	<g>
		<path class="st5" d="M30.2,81H23c-0.6,0-1-0.4-1-1s0.4-1,1-1h7.2c0.6,0,1,0.4,1,1S30.8,81,30.2,81z"/>
	</g>
	<g>
		<path class="st5" d="M23,71c-0.2,0-0.4-0.1-0.6-0.2c-0.4-0.3-0.5-1-0.2-1.4l8-10c0.3-0.4,1-0.5,1.4-0.2c0.4,0.3,0.5,1,0.2,1.4
			l-8,10C23.6,70.9,23.3,71,23,71z"/>
	</g>
	<g>
		<path class="st5" d="M31,71c-0.3,0-0.6-0.1-0.8-0.4l-8-10c-0.3-0.4-0.3-1.1,0.2-1.4c0.4-0.3,1.1-0.3,1.4,0.2l8,10
			c0.3,0.4,0.3,1.1-0.2,1.4C31.4,70.9,31.2,71,31,71z"/>
	</g>
	<g>
		<path class="st5" d="M23,61c-0.2,0-0.4-0.1-0.6-0.2c-0.4-0.3-0.5-1-0.2-1.4l8-10c0.3-0.4,1-0.5,1.4-0.2c0.4,0.3,0.5,1,0.2,1.4
			l-8,10C23.6,60.9,23.3,61,23,61z"/>
	</g>
	<g>
		<path class="st5" d="M31,61c-0.3,0-0.6-0.1-0.8-0.4l-8-10c-0.3-0.4-0.3-1.1,0.2-1.4c0.4-0.3,1.1-0.3,1.4,0.2l8,10
			c0.3,0.4,0.3,1.1-0.2,1.4C31.4,60.9,31.2,61,31,61z"/>
	</g>
	<g>
		<path class="st5" d="M23,35c-0.2,0-0.4-0.1-0.6-0.2c-0.4-0.3-0.5-1-0.2-1.4l4-5c0.3-0.4,1-0.5,1.4-0.2c0.4,0.3,0.5,1,0.2,1.4l-4,5
			C23.6,34.9,23.3,35,23,35z"/>
	</g>
	<g>
		<path class="st5" d="M30.2,71H23c-0.6,0-1-0.4-1-1s0.4-1,1-1h7.2c0.6,0,1,0.4,1,1S30.8,71,30.2,71z"/>
	</g>
	<g>
		<path class="st5" d="M31,61h-8c-0.6,0-1-0.4-1-1s0.4-1,1-1h8c0.6,0,1,0.4,1,1S31.6,61,31,61z"/>
	</g>
	<g>
		<path class="st5" d="M69,41H8c-0.6,0-1-0.4-1-1v-6c0-0.6,0.4-1,1-1h56c0.3,0,0.6,0.1,0.8,0.4l5,6c0.2,0.3,0.3,0.7,0.1,1.1
			C69.7,40.8,69.4,41,69,41z M9,39h57.9l-3.3-4H9V39z"/>
	</g>
	<g>
		<path class="st5" d="M31,35h-8c-0.6,0-1-0.4-1-1V23c0-0.4,0.3-0.8,0.6-0.9c0.4-0.1,0.8,0,1.1,0.3l8,9c0.2,0.2,0.3,0.4,0.3,0.7v2
			C32,34.6,31.6,35,31,35z M24,33h6v-0.6l-6-6.8V33z"/>
	</g>
	<g>
		<path class="st5" d="M20,41c-0.1,0-0.3,0-0.4-0.1l-12-6c-0.5-0.2-0.7-0.8-0.4-1.3c0.2-0.5,0.8-0.7,1.3-0.4l12,6
			c0.5,0.2,0.7,0.8,0.4,1.3C20.7,40.8,20.4,41,20,41z"/>
	</g>
	<g>
		<path class="st5" d="M8,41c-0.4,0-0.7-0.2-0.9-0.6c-0.2-0.5,0-1.1,0.4-1.3l12-6c0.5-0.2,1.1,0,1.3,0.4c0.2,0.5,0,1.1-0.4,1.3
			l-12,6C8.3,41,8.2,41,8,41z"/>
	</g>
	<g>
		<path class="st5" d="M32,41c-0.1,0-0.3,0-0.4-0.1l-12-6c-0.5-0.2-0.7-0.8-0.4-1.3c0.2-0.5,0.8-0.7,1.3-0.4l12,6
			c0.5,0.2,0.7,0.8,0.4,1.3C32.7,40.8,32.4,41,32,41z"/>
	</g>
	<g>
		<path class="st5" d="M20,41c-0.4,0-0.7-0.2-0.9-0.6c-0.2-0.5,0-1.1,0.4-1.3l12-6c0.5-0.2,1.1,0,1.3,0.4c0.2,0.5,0,1.1-0.4,1.3
			l-12,6C20.3,41,20.2,41,20,41z"/>
	</g>
	<g>
		<path class="st5" d="M44,41c-0.1,0-0.3,0-0.4-0.1l-12-6c-0.5-0.2-0.7-0.8-0.4-1.3c0.2-0.5,0.8-0.7,1.3-0.4l12,6
			c0.5,0.2,0.7,0.8,0.4,1.3C44.7,40.8,44.4,41,44,41z"/>
	</g>
	<g>
		<path class="st5" d="M32,41c-0.4,0-0.7-0.2-0.9-0.6c-0.2-0.5,0-1.1,0.4-1.3l12-6c0.5-0.2,1.1,0,1.3,0.4c0.2,0.5,0,1.1-0.4,1.3
			l-12,6C32.3,41,32.2,41,32,41z"/>
	</g>
	<g>
		<path class="st5" d="M56,41c-0.1,0-0.3,0-0.4-0.1l-12-6c-0.5-0.2-0.7-0.8-0.4-1.3c0.2-0.5,0.8-0.7,1.3-0.4l12,6
			c0.5,0.2,0.7,0.8,0.4,1.3C56.7,40.8,56.4,41,56,41z"/>
	</g>
	<g>
		<path class="st5" d="M44,41c-0.4,0-0.7-0.2-0.9-0.6c-0.2-0.5,0-1.1,0.4-1.3l12-6c0.5-0.2,1.1,0,1.3,0.4c0.2,0.5,0,1.1-0.4,1.3
			l-12,6C44.3,41,44.2,41,44,41z"/>
	</g>
	<g>
		<path class="st5" d="M68,41c-0.1,0-0.3,0-0.4-0.1l-12-6c-0.5-0.2-0.7-0.8-0.4-1.3c0.2-0.5,0.8-0.7,1.3-0.4l12,6
			c0.5,0.2,0.7,0.8,0.4,1.3C68.7,40.8,68.4,41,68,41z"/>
	</g>
	<g>
		<path class="st5" d="M56,41c-0.4,0-0.7-0.2-0.9-0.6c-0.2-0.5,0-1.1,0.4-1.3l9-4.5c0.5-0.2,1.1,0,1.3,0.4c0.2,0.5,0,1.1-0.4,1.3
			l-9,4.5C56.3,41,56.2,41,56,41z"/>
	</g>
	<g>
		<path class="st5" d="M14,46c-0.6,0-1-0.4-1-1v-5c0-0.6,0.4-1,1-1s1,0.4,1,1v5C15,45.6,14.6,46,14,46z"/>
	</g>
	<g>
		<rect x="8" y="45" class="st4" width="12" height="4"/>
		<path class="st5" d="M20,50H8c-0.6,0-1-0.4-1-1v-4c0-0.6,0.4-1,1-1h12c0.6,0,1,0.4,1,1v4C21,49.6,20.6,50,20,50z M9,48h10v-2H9V48
			z"/>
	</g>
	<g>
		<rect x="8" y="49" class="st4" width="12" height="4"/>
		<path class="st5" d="M20,54H8c-0.6,0-1-0.4-1-1v-4c0-0.6,0.4-1,1-1h12c0.6,0,1,0.4,1,1v4C21,53.6,20.6,54,20,54z M9,52h10v-2H9V52
			z"/>
	</g>
	<g>
		<rect x="8" y="53" class="st4" width="12" height="4"/>
		<path class="st5" d="M20,58H8c-0.6,0-1-0.4-1-1v-4c0-0.6,0.4-1,1-1h12c0.6,0,1,0.4,1,1v4C21,57.6,20.6,58,20,58z M9,56h10v-2H9V56
			z"/>
	</g>
	<g>
		<path class="st4" d="M36,115H18v-0.2c0-1.8,0.7-3.5,2-4.8h0h14h0c1.3,1.3,2,3,2,4.8V115z"/>
		<path class="st5" d="M36,116H18c-0.6,0-1-0.4-1-1v-0.2c0-2.1,0.8-4.1,2.3-5.5c0.2-0.2,0.4-0.3,0.7-0.3h14c0.3,0,0.5,0.1,0.7,0.3
			c1.5,1.5,2.3,3.4,2.3,5.5v0.2C37,115.6,36.6,116,36,116z M19.1,114h15.9c-0.2-1.1-0.6-2.1-1.4-3H20.4
			C19.7,111.9,19.2,112.9,19.1,114z"/>
	</g>
	<g>
		<path class="st6" d="M34,50H23V38h13v3.2c0,2.5-0.5,5-1.4,7.3L34,50z"/>
		<path class="st5" d="M34,51H23c-0.6,0-1-0.4-1-1V38c0-0.6,0.4-1,1-1h13c0.6,0,1,0.4,1,1v3.2c0,2.6-0.5,5.2-1.5,7.7l-0.6,1.5
			C34.8,50.8,34.4,51,34,51z M24,49h9.3l0.3-0.9c0.9-2.2,1.3-4.5,1.3-6.9V39H24V49z"/>
	</g>
	<g>
		<rect x="23" y="38" class="st24" width="5" height="12"/>
		<path class="st5" d="M28,51h-5c-0.6,0-1-0.4-1-1V38c0-0.6,0.4-1,1-1h5c0.6,0,1,0.4,1,1v12C29,50.6,28.6,51,28,51z M24,49h3V39h-3
			V49z"/>
	</g>
	<g>
		<path class="st5" d="M61,60c-1.7,0-3-1.3-3-3c0-1,0.5-1.9,1.2-2.4c0.3-0.2,0.8-0.7,0.8-1.3V51c0-0.6,0.4-1,1-1s1,0.4,1,1v2.3
			c0,1.1-0.6,2.2-1.6,2.9C60.1,56.4,60,56.7,60,57c0,0.6,0.4,1,1,1s1-0.4,1-1c0-0.6,0.4-1,1-1s1,0.4,1,1C64,58.7,62.7,60,61,60z"/>
	</g>
	<g>
		<path class="st5" d="M62,52h-2c-0.6,0-1-0.4-1-1s0.4-1,1-1h2c0.6,0,1,0.4,1,1S62.6,52,62,52z"/>
	</g>
	<g>
		<path class="st5" d="M62,42h-2c-0.6,0-1-0.4-1-1s0.4-1,1-1h2c0.6,0,1,0.4,1,1S62.6,42,62,42z"/>
	</g>
	<g>
		<rect x="29" y="39" class="st7" width="1" height="10"/>
	</g>
	<g>
		<rect x="26" y="39" class="st25" width="1" height="10"/>
	</g>
	<g>
		<rect x="9" y="55" class="st27" width="10" height="1"/>
	</g>
	<g>
		<rect x="9" y="51" class="st27" width="10" height="1"/>
	</g>
	<g>
		<rect x="9" y="47" class="st27" width="10" height="1"/>
	</g>
</g>
<g>
	<g>
		<path class="st5" d="M139,116c-0.6,0-1-0.4-1-1v-9c0-0.6,0.4-1,1-1s1,0.4,1,1v9C140,115.6,139.6,116,139,116z"/>
	</g>
	<g>
		<path class="st28" d="M139,109L139,109c-2.2,0-4-1.8-4-4v0c0-0.7,0.1-1.3,0.4-1.9L139,95l3.6,8.1c0.3,0.6,0.4,1.3,0.4,1.9v0
			C143,107.2,141.2,109,139,109z"/>
		<path class="st5" d="M139,110c-2.8,0-5-2.2-5-5c0-0.8,0.2-1.6,0.5-2.3l3.6-8.1c0.2-0.4,0.5-0.6,0.9-0.6s0.8,0.2,0.9,0.6l3.6,8.1
			c0.3,0.7,0.5,1.5,0.5,2.3C144,107.8,141.8,110,139,110z M139,97.5l-2.7,6c-0.2,0.5-0.3,1-0.3,1.5c0,1.7,1.3,3,3,3s3-1.3,3-3
			c0-0.5-0.1-1-0.3-1.5L139,97.5z"/>
	</g>
	<g>
		<path class="st29" d="M141.7,103.5l-0.8-1.8c0.1,0.3,0.1,0.6,0.1,0.9c0,2.1-1.7,3.9-3.9,3.9c-0.3,0-0.5,0-0.7-0.1
			c0.5,0.9,1.5,1.5,2.6,1.5c1.7,0,3-1.3,3-3C142,104.5,141.9,104,141.7,103.5z"/>
	</g>
	<g>
		<path class="st29" d="M138.2,99.4l-1.8,4.1c-0.2,0.5-0.3,1-0.3,1.5c0,1.7,1.3,3,3,3c0.8,0,1.4-0.3,2-0.8c0-0.1,0-0.2,0-0.2
			c0-0.8-0.2-1.6-0.5-2.3L138.2,99.4z"/>
	</g>
</g>
<g>
	<g>
		<polygon class="st2" points="146,115 142,115 143,73 145,73 		"/>
		<path class="st5" d="M146,116h-4c-0.3,0-0.5-0.1-0.7-0.3c-0.2-0.2-0.3-0.5-0.3-0.7l1-42c0-0.5,0.5-1,1-1h2c0.5,0,1,0.4,1,1l1,42
			c0,0.3-0.1,0.5-0.3,0.7C146.5,115.9,146.3,116,146,116z M143,114h2l-1-40h0L143,114z"/>
	</g>
	<g>
		<path class="st2" d="M146.7,65.1L144,57v14c1.7,0,3-1.8,3-4C147,66.3,146.9,65.7,146.7,65.1z"/>
		<path class="st5" d="M144,72c-0.6,0-1-0.4-1-1V57c0-0.5,0.4-0.9,0.8-1c0.5-0.1,1,0.2,1.1,0.7l2.7,8.1c0.2,0.7,0.4,1.5,0.4,2.2
			C148,69.8,146.2,72,144,72z M145,63.2v6.4c0.6-0.5,1-1.5,1-2.6c0-0.5-0.1-1.1-0.3-1.6l0,0L145,63.2z"/>
	</g>
	<g>
		<path class="st2" d="M149.6,79.3L158,81l-12.1-7c-0.8,1.4,0.1,3.5,2,4.6C148.4,78.9,149,79.2,149.6,79.3z"/>
		<path class="st5" d="M158,82c-0.1,0-0.1,0-0.2,0l-8.4-1.7c-0.7-0.1-1.4-0.4-2.1-0.8c-1.1-0.6-2-1.6-2.4-2.6
			c-0.5-1.1-0.5-2.4,0.1-3.3c0.3-0.5,0.9-0.6,1.4-0.4l12.1,7c0.4,0.2,0.6,0.8,0.4,1.2C158.8,81.7,158.4,82,158,82z M146.6,75.6
			c0,0.2,0.1,0.3,0.1,0.5c0.3,0.7,0.9,1.3,1.6,1.7c0.5,0.3,1,0.5,1.5,0.6l0,0l2.3,0.5L146.6,75.6z"/>
	</g>
	<g>
		<path class="st2" d="M135.7,74.6L130,81l12.1-7c-0.8-1.4-3.1-1.7-5-0.6C136.6,73.7,136.1,74.1,135.7,74.6z"/>
		<path class="st5" d="M130,82c-0.3,0-0.6-0.1-0.8-0.4c-0.3-0.4-0.3-0.9,0-1.3l5.7-6.4c0.5-0.6,1.1-1,1.8-1.4
			c1.1-0.6,2.4-0.9,3.5-0.8c1.2,0.1,2.3,0.8,2.8,1.7c0.3,0.5,0.1,1.1-0.4,1.4l-12.1,7C130.3,82,130.2,82,130,82z M139.6,73.7
			c-0.6,0-1.3,0.2-1.9,0.5c-0.5,0.3-0.9,0.6-1.3,1h0l-1.6,1.8l5.6-3.2c-0.2-0.1-0.3-0.1-0.5-0.1C139.8,73.7,139.7,73.7,139.6,73.7z
			 M135.7,74.6L135.7,74.6L135.7,74.6z"/>
	</g>
	<g>
		<circle class="st2" cx="144" cy="73" r="2"/>
		<path class="st5" d="M144,76c-1.7,0-3-1.3-3-3s1.3-3,3-3s3,1.3,3,3S145.7,76,144,76z M144,72c-0.6,0-1,0.4-1,1s0.4,1,1,1
			s1-0.4,1-1S144.6,72,144,72z"/>
	</g>
</g>
<g>
	<g>
		<path class="st5" d="M149,116c-0.6,0-1-0.4-1-1v-9c0-0.6,0.4-1,1-1s1,0.4,1,1v9C150,115.6,149.6,116,149,116z"/>
	</g>
	<g>
		<path class="st28" d="M149,109L149,109c-2.2,0-4-1.8-4-4v0c0-0.7,0.1-1.3,0.4-1.9L149,95l3.6,8.1c0.3,0.6,0.4,1.3,0.4,1.9v0
			C153,107.2,151.2,109,149,109z"/>
		<path class="st5" d="M149,110c-2.8,0-5-2.2-5-5c0-0.8,0.2-1.6,0.5-2.3l3.6-8.1c0.2-0.4,0.5-0.6,0.9-0.6s0.8,0.2,0.9,0.6l3.6,8.1
			c0.3,0.7,0.5,1.5,0.5,2.3C154,107.8,151.8,110,149,110z M149,97.5l-2.7,6c-0.2,0.5-0.3,1-0.3,1.5c0,1.7,1.3,3,3,3s3-1.3,3-3
			c0-0.5-0.1-1-0.3-1.5L149,97.5z"/>
	</g>
	<g>
		<path class="st29" d="M151.7,103.5l-0.8-1.8c0.1,0.3,0.1,0.6,0.1,0.9c0,2.1-1.7,3.9-3.9,3.9c-0.3,0-0.5,0-0.7-0.1
			c0.5,0.9,1.5,1.5,2.6,1.5c1.7,0,3-1.3,3-3C152,104.5,151.9,104,151.7,103.5z"/>
	</g>
</g>
<g>
	<g>
		<path class="st5" d="M134,116c-0.6,0-1-0.4-1-1v-9c0-0.6,0.4-1,1-1s1,0.4,1,1v9C135,115.6,134.6,116,134,116z"/>
	</g>
	<g>
		<path class="st28" d="M134,109L134,109c-2.2,0-4-1.8-4-4v0c0-0.7,0.1-1.3,0.4-1.9L134,95l3.6,8.1c0.3,0.6,0.4,1.3,0.4,1.9v0
			C138,107.2,136.2,109,134,109z"/>
		<path class="st5" d="M134,110c-2.8,0-5-2.2-5-5c0-0.8,0.2-1.6,0.5-2.3l3.6-8.1c0.2-0.4,0.5-0.6,0.9-0.6s0.8,0.2,0.9,0.6l3.6,8.1
			c0.3,0.7,0.5,1.5,0.5,2.3C139,107.8,136.8,110,134,110z M134,97.5l-2.7,6c-0.2,0.5-0.3,1-0.3,1.5c0,1.7,1.3,3,3,3s3-1.3,3-3
			c0-0.5-0.1-1-0.3-1.5L134,97.5z"/>
	</g>
	<g>
		<path class="st29" d="M136.7,103.5l-0.8-1.8c0.1,0.3,0.1,0.6,0.1,0.9c0,2.1-1.7,3.9-3.9,3.9c-0.3,0-0.5,0-0.7-0.1
			c0.5,0.9,1.5,1.5,2.6,1.5c1.7,0,3-1.3,3-3C137,104.5,136.9,104,136.7,103.5z"/>
	</g>
</g>
<g>
	<g>
		<path class="st5" d="M75,105c-0.6,0-1-0.4-1-1v-9c0-0.6,0.4-1,1-1s1,0.4,1,1v9C76,104.6,75.6,105,75,105z"/>
	</g>
	<g>
		<path class="st28" d="M75,98L75,98c-2.2,0-4-1.8-4-4v0c0-0.7,0.1-1.3,0.4-1.9L75,84l3.6,8.1c0.3,0.6,0.4,1.3,0.4,1.9v0
			C79,96.2,77.2,98,75,98z"/>
		<path class="st5" d="M75,99c-2.8,0-5-2.2-5-5c0-0.8,0.2-1.6,0.5-2.3l3.6-8.1c0.2-0.4,0.5-0.6,0.9-0.6s0.8,0.2,0.9,0.6l3.6,8.1
			c0.3,0.7,0.5,1.5,0.5,2.3C80,96.8,77.8,99,75,99z M75,86.5l-2.7,6C72.1,93,72,93.5,72,94c0,1.7,1.3,3,3,3s3-1.3,3-3
			c0-0.5-0.1-1-0.3-1.5L75,86.5z"/>
	</g>
	<g>
		<path class="st29" d="M77.7,92.5l-0.8-1.8c0.1,0.3,0.1,0.6,0.1,0.9c0,2.1-1.7,3.9-3.9,3.9c-0.3,0-0.5,0-0.7-0.1
			c0.5,0.9,1.5,1.5,2.6,1.5c1.7,0,3-1.3,3-3C78,93.5,77.9,93,77.7,92.5z"/>
	</g>
</g>
<g>
	<g>
		<path class="st5" d="M113,105c-0.6,0-1-0.4-1-1v-9c0-0.6,0.4-1,1-1s1,0.4,1,1v9C114,104.6,113.6,105,113,105z"/>
	</g>
	<g>
		<path class="st28" d="M113,98L113,98c-2.2,0-4-1.8-4-4v0c0-0.7,0.1-1.3,0.4-1.9L113,84l3.6,8.1c0.3,0.6,0.4,1.3,0.4,1.9v0
			C117,96.2,115.2,98,113,98z"/>
		<path class="st5" d="M113,99c-2.8,0-5-2.2-5-5c0-0.8,0.2-1.6,0.5-2.3l3.6-8.1c0.2-0.4,0.5-0.6,0.9-0.6s0.8,0.2,0.9,0.6l3.6,8.1
			c0.3,0.7,0.5,1.5,0.5,2.3C118,96.8,115.8,99,113,99z M113,86.5l-2.7,6c-0.2,0.5-0.3,1-0.3,1.5c0,1.7,1.3,3,3,3s3-1.3,3-3
			c0-0.5-0.1-1-0.3-1.5L113,86.5z"/>
	</g>
	<g>
		<path class="st29" d="M115.7,92.5l-0.8-1.8c0.1,0.3,0.1,0.6,0.1,0.9c0,2.1-1.7,3.9-3.9,3.9c-0.3,0-0.5,0-0.7-0.1
			c0.5,0.9,1.5,1.5,2.6,1.5c1.7,0,3-1.3,3-3C116,93.5,115.9,93,115.7,92.5z"/>
	</g>
</g>
<g>
	<g>
		<circle class="st5" cx="124" cy="35" r="1"/>
	</g>
	<g>
		<path class="st5" d="M127,36c-0.6,0-1-0.4-1-1c0-1.1-0.9-2-2-2c-0.6,0-1-0.4-1-1s0.4-1,1-1c2.2,0,4,1.8,4,4
			C128,35.6,127.6,36,127,36z"/>
	</g>
	<g>
		<path class="st5" d="M130,36c-0.6,0-1-0.4-1-1c0-2.8-2.2-5-5-5c-0.6,0-1-0.4-1-1s0.4-1,1-1c3.9,0,7,3.1,7,7
			C131,35.6,130.6,36,130,36z"/>
	</g>
</g>
<g>
	<g>
		<circle class="st5" cx="179" cy="85" r="1"/>
	</g>
	<g>
		<path class="st5" d="M182,86c-0.6,0-1-0.4-1-1c0-1.1-0.9-2-2-2c-0.6,0-1-0.4-1-1s0.4-1,1-1c2.2,0,4,1.8,4,4
			C183,85.6,182.6,86,182,86z"/>
	</g>
	<g>
		<path class="st5" d="M185,86c-0.6,0-1-0.4-1-1c0-2.8-2.2-5-5-5c-0.6,0-1-0.4-1-1s0.4-1,1-1c3.9,0,7,3.1,7,7
			C186,85.6,185.6,86,185,86z"/>
	</g>
</g>
<g>
	<g>
		<circle class="st5" cx="29" cy="22" r="1"/>
	</g>
	<g>
		<path class="st5" d="M32,23c-0.6,0-1-0.4-1-1c0-1.1-0.9-2-2-2c-0.6,0-1-0.4-1-1s0.4-1,1-1c2.2,0,4,1.8,4,4C33,22.6,32.6,23,32,23z
			"/>
	</g>
	<g>
		<path class="st5" d="M35,23c-0.6,0-1-0.4-1-1c0-2.8-2.2-5-5-5c-0.6,0-1-0.4-1-1s0.4-1,1-1c3.9,0,7,3.1,7,7C36,22.6,35.6,23,35,23z
			"/>
	</g>
</g>
<g>
	<path class="st3" d="M168,66c-0.6,0-1-0.4-1-1c0-22.1-17.9-40-40-40h-7c-0.6,0-1-0.4-1-1s0.4-1,1-1h7c23.2,0,42,18.8,42,42
		C169,65.6,168.6,66,168,66z"/>
</g>
<g>
	<circle class="st22" cx="48" cy="112" r="3"/>
	<path class="st5" d="M48,116c-2.2,0-4-1.8-4-4s1.8-4,4-4s4,1.8,4,4S50.2,116,48,116z M48,110c-1.1,0-2,0.9-2,2s0.9,2,2,2s2-0.9,2-2
		S49.1,110,48,110z"/>
</g>
<g>
	<rect x="42" y="107" class="st30" width="2" height="3"/>
</g>
<g>
	<g>
		<path class="st31" d="M140.9,40.4c0.7,0.1,1.3,0.7,1.5,1.4c0.2,0.5,0.3,0.9,0.6,1.4c0.3,0.6,0.3,1.4-0.1,2l-0.5,0.8
			c-0.3,0.5-0.3,1.1,0.2,1.5l0,0c0.4,0.4,1.1,0.5,1.5,0.2l0.8-0.5c0.6-0.4,1.4-0.4,2-0.1c0.4,0.2,0.9,0.4,1.4,0.6
			c0.7,0.2,1.2,0.8,1.4,1.5l0.2,0.9c0.1,0.6,0.6,1,1.2,1l0,0c0.6,0,1.1-0.4,1.2-1l0.2-0.9c0.1-0.7,0.7-1.3,1.4-1.5
			c0.5-0.2,0.9-0.3,1.4-0.6c0.6-0.3,1.4-0.3,2,0.1l0.8,0.5c0.5,0.3,1.1,0.3,1.5-0.2l0,0c0.4-0.4,0.5-1.1,0.2-1.5l-0.5-0.8
			c-0.4-0.6-0.4-1.4-0.1-2c0.2-0.4,0.4-0.9,0.6-1.4c0.2-0.7,0.8-1.2,1.5-1.4l0.9-0.2c0.6-0.1,1-0.6,1-1.2v0c0-0.6-0.4-1.1-1-1.2
			l-0.9-0.2c-0.7-0.1-1.3-0.7-1.5-1.4c-0.2-0.5-0.3-0.9-0.6-1.4c-0.3-0.6-0.3-1.4,0.1-2l0.5-0.8c0.3-0.5,0.3-1.1-0.2-1.5v0
			c-0.4-0.4-1.1-0.5-1.5-0.2l-0.8,0.5c-0.6,0.4-1.4,0.4-2,0.1c-0.4-0.2-0.9-0.4-1.4-0.6c-0.7-0.2-1.2-0.8-1.4-1.5l-0.2-0.9
			c-0.1-0.6-0.6-1-1.2-1l0,0c-0.6,0-1.1,0.4-1.2,1l-0.2,0.9c-0.1,0.7-0.7,1.3-1.4,1.5c-0.5,0.2-0.9,0.3-1.4,0.6
			c-0.6,0.3-1.4,0.3-2-0.1l-0.8-0.5c-0.5-0.3-1.1-0.3-1.5,0.2v0c-0.4,0.4-0.5,1.1-0.2,1.5l0.5,0.8c0.4,0.6,0.4,1.4,0.1,2
			c-0.2,0.4-0.4,0.9-0.6,1.4c-0.2,0.7-0.8,1.2-1.5,1.4l-0.9,0.2c-0.6,0.1-1,0.6-1,1.2v0c0,0.6,0.4,1.1,1,1.2L140.9,40.4z M151,34
			c2.8,0,5,2.2,5,5s-2.2,5-5,5s-5-2.2-5-5S148.2,34,151,34z"/>
		<path class="st5" d="M151,52c-1.1,0-2-0.8-2.2-1.8l-0.2-0.9c-0.1-0.4-0.3-0.6-0.7-0.7c-0.5-0.2-1-0.4-1.5-0.6
			c-0.3-0.2-0.7-0.2-1,0l-0.8,0.5c-0.9,0.6-2.1,0.5-2.8-0.3c-0.7-0.7-0.9-1.9-0.3-2.8l0.5-0.8c0.2-0.3,0.2-0.7,0-1
			c-0.3-0.5-0.5-1-0.6-1.5c-0.1-0.3-0.4-0.6-0.7-0.7l-0.9-0.2c-1-0.2-1.8-1.1-1.8-2.2s0.8-2,1.8-2.2l0.9-0.2
			c0.4-0.1,0.6-0.3,0.7-0.7c0.2-0.5,0.4-1,0.6-1.5c0.2-0.3,0.2-0.7,0-1l-0.5-0.8c-0.6-0.9-0.5-2.1,0.3-2.8c0.7-0.7,1.9-0.9,2.8-0.3
			l0.8,0.5c0.3,0.2,0.7,0.2,1,0c0.5-0.3,1-0.5,1.5-0.6c0.3-0.1,0.6-0.4,0.7-0.7l0.2-0.9c0.2-1,1.1-1.8,2.2-1.8s2,0.8,2.2,1.8
			l0.2,0.9c0.1,0.4,0.3,0.6,0.7,0.7c0.5,0.2,1,0.4,1.5,0.6c0.3,0.2,0.7,0.2,1,0l0.8-0.5c0.9-0.6,2.1-0.5,2.8,0.3
			c0.7,0.7,0.9,1.9,0.3,2.8l-0.5,0.8c-0.2,0.3-0.2,0.7,0,1c0.3,0.5,0.5,1,0.6,1.5c0.1,0.3,0.4,0.6,0.7,0.7l0.9,0.2
			c1,0.2,1.8,1.1,1.8,2.2s-0.8,2-1.8,2.2l-0.9,0.2c-0.4,0.1-0.6,0.3-0.7,0.7c-0.2,0.5-0.4,1-0.6,1.5c-0.2,0.3-0.2,0.7,0,1l0.5,0.8
			c0.6,0.9,0.5,2.1-0.3,2.8c-0.7,0.7-1.9,0.9-2.8,0.3l-0.8-0.5c-0.3-0.2-0.7-0.2-1,0c-0.5,0.3-1,0.5-1.5,0.6
			c-0.3,0.1-0.6,0.4-0.7,0.7l-0.2,0.9C153,51.2,152.1,52,151,52z M146,45.8c0.5,0,0.9,0.1,1.4,0.3c0.4,0.2,0.8,0.4,1.2,0.5
			c1,0.3,1.8,1.2,2,2.3l0.2,0.9c0,0.2,0.4,0.2,0.4,0l0.2-0.9c0.2-1.1,1-1.9,2-2.3c0.4-0.1,0.8-0.3,1.2-0.5c1-0.5,2.1-0.4,3,0.2
			l0.8,0.5c0.1,0.1,0.2,0,0.3,0c0.1-0.1,0.1-0.2,0-0.3l-0.5-0.8c-0.6-0.9-0.7-2.1-0.2-3c0.2-0.4,0.4-0.8,0.5-1.2
			c0.3-1,1.2-1.8,2.3-2l0.9-0.2c0.1,0,0.2-0.1,0.2-0.2s-0.1-0.2-0.2-0.2l-0.9-0.2c-1.1-0.2-1.9-1-2.3-2c-0.1-0.4-0.3-0.8-0.5-1.2
			c-0.5-1-0.4-2.1,0.2-3l0.5-0.8c0.1-0.1,0-0.2,0-0.3c-0.1-0.1-0.2-0.1-0.3,0l-0.8,0.5c-0.9,0.6-2.1,0.7-3,0.2
			c-0.4-0.2-0.8-0.4-1.2-0.5c-1-0.3-1.8-1.2-2-2.3l-0.2-0.9c0-0.2-0.4-0.2-0.4,0l-0.2,0.9c-0.2,1.1-1,1.9-2,2.3
			c-0.4,0.1-0.8,0.3-1.2,0.5c-1,0.5-2.1,0.4-3-0.2l-0.8-0.5c-0.1-0.1-0.2,0-0.3,0c-0.1,0.1-0.1,0.2,0,0.3l0.5,0.8
			c0.6,0.9,0.7,2.1,0.2,3c-0.2,0.4-0.4,0.8-0.5,1.2c-0.3,1-1.2,1.8-2.3,2l-0.9,0.2c-0.1,0-0.2,0.1-0.2,0.2s0.1,0.2,0.2,0.2l0.9,0.2
			l0,0c1.1,0.2,1.9,1,2.3,2c0.1,0.4,0.3,0.8,0.5,1.2c0.5,1,0.4,2.1-0.2,3l-0.5,0.8c-0.1,0.1,0,0.2,0,0.3c0.1,0.1,0.2,0.1,0.3,0
			l0.8-0.5C144.8,45.9,145.4,45.8,146,45.8z M151,45c-3.3,0-6-2.7-6-6s2.7-6,6-6s6,2.7,6,6S154.3,45,151,45z M151,35
			c-2.2,0-4,1.8-4,4s1.8,4,4,4s4-1.8,4-4S153.2,35,151,35z"/>
	</g>
	<g>
		<path class="st32" d="M161.8,38.8l-0.9-0.2c-1.1-0.2-1.9-1-2.3-2.1c-0.1-0.4-0.3-0.8-0.5-1.2c-0.5-1-0.4-2.1,0.2-3l0.5-0.8
			c0.1-0.1,0-0.2,0-0.3l-2.2,2.2c-0.4,0.4-0.4,0.9-0.1,1.3c1.2,1.5,1.7,3.5,1.3,5.7c-0.5,2.8-2.7,5-5.5,5.5
			c-2.1,0.4-4.2-0.2-5.7-1.3c-0.4-0.3-1-0.3-1.3,0.1l-2.2,2.2c0.1,0.1,0.2,0.1,0.3,0l0.8-0.5c0.5-0.3,1.1-0.5,1.7-0.5
			c0.5,0,0.9,0.1,1.4,0.3c0.4,0.2,0.8,0.4,1.2,0.5c1.1,0.3,1.9,1.2,2.1,2.3l0.2,0.9c0,0.2,0.4,0.2,0.4,0l0.2-0.9
			c0.2-1.1,1-1.9,2.1-2.3c0.4-0.1,0.8-0.3,1.2-0.5c1-0.5,2.1-0.4,3,0.2l0.8,0.5c0.1,0.1,0.2,0,0.3,0c0.1-0.1,0.1-0.2,0-0.3l-0.5-0.8
			c-0.6-0.9-0.7-2.1-0.2-3c0.2-0.4,0.4-0.8,0.5-1.2c0.3-1.1,1.2-1.9,2.3-2.1l0.9-0.2c0.1,0,0.2-0.1,0.2-0.2S161.9,38.8,161.8,38.8z"
			/>
	</g>
	<g>
		<path class="st32" d="M145,39c0-3.3,2.7-6,6-6c1.7,0,3.2,0.7,4.2,1.8c0,0,0.8-0.8-0.2-1.5c-1.1-0.8-2.5-1.3-4-1.3
			c-3.9,0-7,3.1-7,7c0,1.5,0.4,2.9,1.3,4c0.7,1,1.5,0.2,1.5,0.2C145.7,42.2,145,40.7,145,39z"/>
	</g>
</g>
<g>
	<path class="st5" d="M183,59h-6c-0.6,0-1-0.4-1-1v-2l0.2-0.1c1.2-0.6,2.5-0.9,3.8-0.9l0,0c1.3,0,2.6,0.3,3.8,0.9L184,56v2
		C184,58.6,183.6,59,183,59z"/>
</g>
<g>
	<path class="st5" d="M180,54L180,54c-1.1,0-2-0.9-2-2v-1c0-1.1,0.9-2,2-2l0,0c1.1,0,2,0.9,2,2v1C182,53.1,181.1,54,180,54z"/>
</g>
</svg>
