<?xml version="1.0" encoding="utf-8"?>
<!-- Generator: Adobe Illustrator 21.0.0, SVG Export Plug-In . SVG Version: 6.00 Build 0)  -->
<svg version="1.1" id="Layer_1" xmlns="http://www.w3.org/2000/svg" xmlns:xlink="http://www.w3.org/1999/xlink" x="0px" y="0px"
	 viewBox="0 0 198 112" style="enable-background:new 0 0 198 112;" xml:space="preserve">
<style type="text/css">
	.st0{fill:#CAD5E3;}
	.st1{fill:#FFFFFF;}
	.st2{fill:#A7B0C4;}
	.st3{fill:#E2E7EF;}
	.st4{fill:#FEFAD7;}
	.st5{fill:#FEECA8;}
	.st6{fill:#D5E3EE;}
	.st7{fill:#EFCAAF;}
	.st8{fill:#0F395A;}
	.st9{fill:#CDDAE4;}
	.st10{fill:#D3E2EB;}
	.st11{fill:#AFC3D7;}
	.st12{fill:#66869B;}
	.st13{fill:#4F6A7C;}
	.st14{fill:#E2B698;}
	.st15{fill:#F04E4F;}
	.st16{fill:#DB3540;}
	.st17{fill:#577280;}
	.st18{fill:#567789;}
	.st19{fill:#405C68;}
	.st20{fill:#F6B545;}
	.st21{fill:#EA9344;}
	.st22{fill:#FFCB5D;}
	.st23{fill:#FFE37B;}
	.st24{fill:#F47423;}
	.st25{fill:#EA5535;}
	.st26{fill:#FCBB76;}
	.st27{fill:#F7964B;}
	.st28{fill:#DF3540;}
	.st29{fill:#C62032;}
	.st30{fill:#F16B56;}
	.st31{fill:#F04D4E;}
	.st32{fill:#71B8E5;}
	.st33{fill:#2584C6;}
</style>
<g>
	<g>
		<path class="st0" d="M145,74h-2c-0.6,0-1-0.4-1-1s0.4-1,1-1h2c0.6,0,1-0.4,1-1v-4c0-0.6,0.4-1,1-1s1,0.4,1,1v4
			C148,72.7,146.7,74,145,74z"/>
	</g>
	<g>
		<path class="st0" d="M147,68h-2c-0.6,0-1-0.4-1-1s0.4-1,1-1h2c0.6,0,1,0.4,1,1S147.6,68,147,68z"/>
	</g>
	<g>
		<path class="st0" d="M146,77h-3c-0.6,0-1-0.4-1-1s0.4-1,1-1h3c1.7,0,3-1.3,3-3v-5c0-0.6,0.4-1,1-1h2c0.6,0,1,0.4,1,1s-0.4,1-1,1
			h-1v4C151,74.8,148.8,77,146,77z"/>
	</g>
</g>
<g>
	<g>
		<path class="st1" d="M157,52c-0.4,0-0.8,0-1.1,0.1c0.1-0.4,0.1-0.7,0.1-1.1c0-2.8-2.2-5-5-5c-2.3,0-4.1,1.5-4.8,3.6
			c-0.7-0.3-1.4-0.6-2.2-0.6c-2.8,0-5,2.2-5,5c0,0,0,0.1,0,0.1c-0.3-0.1-0.7-0.1-1-0.1c-2.8,0-5,2.2-5,5s2.2,5,5,5h19
			c3.3,0,6-2.7,6-6S160.3,52,157,52z"/>
		<path class="st2" d="M157,65h-19c-3.3,0-6-2.7-6-6c0-3.3,2.7-6.1,6.1-6c0.5-2.8,2.9-5,5.9-5c0.6,0,1.1,0.1,1.7,0.3
			c1-2,3-3.3,5.3-3.3c3.3,0,6,2.7,6,6c3.9,0,7,3.1,7,7C164,61.9,160.9,65,157,65z M138,55c-2.2,0-4,1.8-4,4c0,2.2,1.8,4,4,4h19
			c2.8,0,5-2.2,5-5c0-3.1-2.7-5.5-5.9-4.9c-0.3,0.1-0.7,0-0.9-0.3s-0.3-0.6-0.3-0.9c0.1-0.3,0.1-0.6,0.1-0.9c0-2.2-1.8-4-4-4
			c-1.8,0-3.3,1.1-3.8,2.8c-0.1,0.3-0.3,0.5-0.6,0.6c-0.3,0.1-0.6,0.1-0.8,0c-0.6-0.3-1.2-0.4-1.8-0.4c-2.2,0-4,1.8-4,3.9
			c0,0,0,0.1,0,0.1c0,0.3-0.1,0.6-0.4,0.8s-0.5,0.3-0.8,0.2C138.5,55,138.3,55,138,55z"/>
	</g>
	<g>
		<path class="st3" d="M160,54c0.6,0.8,1,1.9,1,3c0,2.8-2.2,5-5,5h-2h-18.7c0.7,0.6,1.6,1,2.6,1h18c0.2,0,0.8,0,1,0c2.8,0,5-2.2,5-5
			C162,56.4,161.2,54.9,160,54z"/>
	</g>
	<g>
		<path class="st2" d="M163,59c-0.6,0-1-0.4-1-1c0-2.8-2.2-5-5-5c-1.7,0-3.2,0.8-4.2,2.2c-0.3,0.5-0.9,0.6-1.4,0.3
			c-0.5-0.3-0.6-0.9-0.3-1.4c1.3-2,3.5-3.1,5.8-3.1c3.9,0,7,3.1,7,7C164,58.6,163.6,59,163,59z"/>
	</g>
	<g>
		<path class="st2" d="M148.6,53c-0.4,0-0.8-0.2-0.9-0.6c-0.6-1.5-2.1-2.4-3.7-2.4c-0.6,0-1-0.4-1-1s0.4-1,1-1
			c2.4,0,4.5,1.4,5.5,3.6c0.2,0.5,0,1.1-0.5,1.3C148.9,53,148.7,53,148.6,53z"/>
	</g>
	<g>
		<path class="st2" d="M142.6,58c-0.4,0-0.8-0.2-0.9-0.6c-0.6-1.5-2.1-2.4-3.7-2.4c-0.6,0-1-0.4-1-1s0.4-1,1-1
			c2.4,0,4.5,1.4,5.5,3.6c0.2,0.5,0,1.1-0.5,1.3C142.9,58,142.7,58,142.6,58z"/>
	</g>
	<g>
		<path class="st2" d="M151,65c-2.2,0-4-1.8-4-4c0-0.6,0.4-1,1-1s1,0.4,1,1c0,1.1,0.9,2,2,2c0.6,0,1,0.4,1,1S151.6,65,151,65z"/>
	</g>
</g>
<g>
	<g>
		<path class="st4" d="M74,65H48c-1.1,0-2-0.9-2-2V45h30v18C76,64.1,75.1,65,74,65z"/>
		<path class="st2" d="M74,66H48c-1.7,0-3-1.3-3-3V45c0-0.6,0.4-1,1-1h30c0.6,0,1,0.4,1,1v18C77,64.7,75.7,66,74,66z M47,46v17
			c0,0.6,0.4,1,1,1h26c0.6,0,1-0.4,1-1V46H47z"/>
	</g>
	<g>
		<path class="st5" d="M74,63H48c-0.6,0-1-0.4-1-1v1c0,0.6,0.4,1,1,1h26c0.6,0,1-0.4,1-1v-1C75,62.6,74.6,63,74,63z"/>
	</g>
	<g>
		<path class="st4" d="M76,45H46l13.2-11.3c0.5-0.4,1.1-0.7,1.8-0.7l0,0c0.6,0,1.3,0.2,1.8,0.7L76,45z"/>
		<path class="st2" d="M76,46H46c-0.4,0-0.8-0.3-0.9-0.7c-0.1-0.4,0-0.8,0.3-1.1l13.2-11.3c1.3-1.1,3.5-1.1,4.8,0l13.2,11.3
			c0.3,0.3,0.4,0.7,0.3,1.1C76.8,45.7,76.4,46,76,46z M48.7,44h24.6l-11.2-9.6c-0.6-0.5-1.6-0.5-2.2,0L48.7,44z"/>
	</g>
	<g>
		<path class="st5" d="M46,45h30L62.8,56.3C62.3,56.8,61.6,57,61,57l0,0c-0.6,0-1.3-0.2-1.8-0.7L46,45z"/>
		<path class="st2" d="M61,58c-0.9,0-1.7-0.3-2.4-0.9L45.3,45.8c-0.3-0.3-0.4-0.7-0.3-1.1c0.1-0.4,0.5-0.7,0.9-0.7h30
			c0.4,0,0.8,0.3,0.9,0.7c0.1,0.4,0,0.8-0.3,1.1L63.4,57.1C62.7,57.7,61.9,58,61,58z M48.7,46l11.2,9.6c0.6,0.5,1.6,0.5,2.2,0
			L73.3,46H48.7z"/>
	</g>
	<g>
		<path class="st2" d="M75,65c-0.3,0-0.6-0.1-0.8-0.4l-8-10c-0.3-0.4-0.3-1.1,0.2-1.4c0.4-0.3,1.1-0.3,1.4,0.2l8,10
			c0.3,0.4,0.3,1.1-0.2,1.4C75.4,64.9,75.2,65,75,65z"/>
	</g>
	<g>
		<path class="st2" d="M47,65c-0.2,0-0.4-0.1-0.6-0.2c-0.4-0.3-0.5-1-0.2-1.4l8-10c0.3-0.4,1-0.5,1.4-0.2c0.4,0.3,0.5,1,0.2,1.4
			l-8,10C47.6,64.9,47.3,65,47,65z"/>
	</g>
	<g>
		<path class="st1" d="M51,35v10v4.3l8.2,7.1c0.5,0.4,1.1,0.7,1.8,0.7s1.3-0.2,1.8-0.7l8.2-7.1V45v-4l-6-6H51z"/>
		<path class="st2" d="M61,58c-0.9,0-1.7-0.3-2.4-0.9L50.3,50c-0.2-0.2-0.3-0.5-0.3-0.8V35c0-0.6,0.4-1,1-1h14
			c0.3,0,0.5,0.1,0.7,0.3l6,6c0.2,0.2,0.3,0.4,0.3,0.7v8.3c0,0.3-0.1,0.6-0.3,0.8l-8.2,7.1C62.7,57.7,61.9,58,61,58z M52,48.8
			l7.9,6.8c0.6,0.5,1.6,0.5,2.2,0l7.9-6.8v-7.4L64.6,36H52V48.8z"/>
	</g>
	<g>
		<path class="st3" d="M70,43l-3.8,0.9c-0.1,0-0.3,0.1-0.4,0.1l0,0c-1,0-1.8-0.8-1.8-1.8V41h6V43z"/>
	</g>
	<g>
		<polygon class="st1" points="65,41 71,41 65,35 		"/>
		<path class="st2" d="M71,42h-6c-0.6,0-1-0.4-1-1v-6c0-0.4,0.2-0.8,0.6-0.9c0.4-0.2,0.8-0.1,1.1,0.2l6,6c0.3,0.3,0.4,0.7,0.2,1.1
			C71.8,41.8,71.4,42,71,42z M66,40h2.6L66,37.4V40z"/>
	</g>
	<g>
		<path class="st2" d="M66,38h-2c0-1.1-0.9-2-2-2v-2C64.2,34,66,35.8,66,38z"/>
	</g>
	<g>
		<path class="st2" d="M72,44h-2c0-1.1-0.9-2-2-2v-2C70.2,40,72,41.8,72,44z"/>
	</g>
	<g>
		<g>
			<g>
				<path class="st2" d="M67,46H55c-0.6,0-1-0.4-1-1s0.4-1,1-1h12c0.6,0,1,0.4,1,1S67.6,46,67,46z"/>
			</g>
		</g>
		<g>
			<g>
				<path class="st2" d="M67,50H55c-0.6,0-1-0.4-1-1s0.4-1,1-1h12c0.6,0,1,0.4,1,1S67.6,50,67,50z"/>
			</g>
		</g>
		<g>
			<g>
				<path class="st2" d="M67,54H55c-0.6,0,0-0.4,0-1s-0.6-1,0-1h12c0.6,0,0,0.4,0,1S67.6,54,67,54z"/>
			</g>
		</g>
	</g>
</g>
<g>
	<g>
		<path class="st3" d="M185,88h-3v-5c0-1.1-0.9-2-2-2h-18c-1.1,0-2,0.9-2,2v24c0,2.2,1.8,4,4,4h14c2.2,0,4-1.8,4-4v-3h3
			c2.8,0,5-2.2,5-5v-6C190,90.2,187.8,88,185,88z M187,99c0,1.1-0.9,2-2,2h-3V91h3c1.1,0,2,0.9,2,2V99z"/>
		<path class="st2" d="M178,112h-14c-2.8,0-5-2.2-5-5V83c0-1.7,1.3-3,3-3h18c1.7,0,3,1.3,3,3v4h2c3.3,0,6,2.7,6,6v6c0,3.3-2.7,6-6,6
			h-2v2C183,109.8,180.8,112,178,112z M162,82c-0.6,0-1,0.4-1,1v24c0,1.7,1.3,3,3,3h14c1.7,0,3-1.3,3-3v-3c0-0.6,0.4-1,1-1h3
			c2.2,0,4-1.8,4-4v-6c0-2.2-1.8-4-4-4h-3c-0.6,0-1-0.4-1-1v-5c0-0.6-0.4-1-1-1H162z M185,102h-3c-0.6,0-1-0.4-1-1V91
			c0-0.6,0.4-1,1-1h3c1.7,0,3,1.3,3,3v6C188,100.7,186.7,102,185,102z M183,100h2c0.6,0,1-0.4,1-1v-6c0-0.6-0.4-1-1-1h-2V100z"/>
	</g>
	<g>
		<path class="st2" d="M182,106c-0.6,0-1-0.4-1-1v-4c0-0.6,0.4-1,1-1s1,0.4,1,1v4C183,105.6,182.6,106,182,106z"/>
	</g>
	<g>
		<path class="st2" d="M182,92c-0.6,0-1-0.4-1-1v-4c0-0.6,0.4-1,1-1s1,0.4,1,1v4C183,91.6,182.6,92,182,92z"/>
	</g>
	<g>
		<polygon class="st6" points="185,103 183,103 183,102 184,102 		"/>
	</g>
	<g>
		<polygon class="st6" points="185,90 183,90 183,89 184,89 		"/>
	</g>
	<g>
		<circle class="st0" cx="169" cy="60" r="1"/>
	</g>
	<path class="st0" d="M182.5,66H173c-1.7,0-3-1.3-3-3c0-0.6-0.4-1-1-1s-1,0.4-1,1c0,2.8,2.2,5,5,5h3.5c0.8,0,1.5,0.7,1.5,1.5
		s-0.7,1.5-1.5,1.5H169c-3.3,0-6,2.7-6,6c0,0.6,0.4,1,1,1s1-0.4,1-1c0-2.2,1.8-4,4-4h7.5c1.9,0,3.5-1.6,3.5-3.5c0-0.5-0.1-1-0.4-1.5
		h2.9c1.4,0,2.5,1.1,2.5,2.5s-1.1,2.5-2.5,2.5H179c-2.2,0-4,1.8-4,4c0,0.6,0.4,1,1,1s1-0.4,1-1c0-1.1,0.9-2,2-2h3.5
		c2.5,0,4.5-2,4.5-4.5S185,66,182.5,66z"/>
	<g>
		<path class="st6" d="M180,82h-3v23c0,1.7-1.3,3-3,3h-12.8c0.4,1.2,1.5,2,2.8,2h14c1.7,0,3-1.3,3-3V83C181,82.4,180.6,82,180,82z"
			/>
	</g>
	<g>
		<path class="st7" d="M164,81v1c0,1.1,0.9,2,2,2h4c1.1,0,2,0.9,2,2v4c0,1.1,0.9,2,2,2l0,0c1.1,0,2-0.9,2-2v-4c0-1.1,0.9-2,2-2l0,0
			c1.1,0,2-0.9,2-2v-1H164z"/>
		<path class="st2" d="M174,93c-1.7,0-3-1.3-3-3v-4c0-0.6-0.4-1-1-1h-4c-1.7,0-3-1.3-3-3v-1c0-0.6,0.4-1,1-1h16c0.6,0,1,0.4,1,1v1
			c0,1.7-1.3,3-3,3c-0.6,0-1,0.4-1,1v4C177,91.7,175.7,93,174,93z M165,82c0,0.6,0.4,1,1,1h4c1.7,0,3,1.3,3,3v4c0,0.6,0.4,1,1,1
			s1-0.4,1-1v-4c0-1.7,1.3-3,3-3c0.6,0,1-0.4,1-1H165z"/>
	</g>
</g>
<g>
	<path class="st1" d="M115,49h21c2.2,0,4,1.8,4,4v38H64V53c0-2.2,1.8-4,4-4h21H115z"/>
	<path class="st8" d="M140,92H64c-0.6,0-1-0.4-1-1V53c0-2.8,2.2-5,5-5h21c0.6,0,1,0.4,1,1s-0.4,1-1,1H68c-1.7,0-3,1.3-3,3v37h74V53
		c0-1.7-1.3-3-3-3h-21c-0.6,0-1-0.4-1-1s0.4-1,1-1h21c2.8,0,5,2.2,5,5v38C141,91.6,140.6,92,140,92z"/>
</g>
<g>
	<path class="st9" d="M79,90h-2v-8.2v0c1.2,0.6,2,1.9,2,3.2V90z"/>
</g>
<g>
	<path class="st10" d="M140,91H64v6c0,2.2,1.8,4,4,4h68c2.2,0,4-1.8,4-4V91z"/>
	<path class="st8" d="M136,102H68c-2.8,0-5-2.2-5-5v-6c0-0.6,0.4-1,1-1h76c0.6,0,1,0.4,1,1v6C141,99.8,138.8,102,136,102z M65,92v5
		c0,1.7,1.3,3,3,3h68c1.7,0,3-1.3,3-3v-5H65z"/>
</g>
<g>
	<circle class="st8" cx="102" cy="96" r="2"/>
</g>
<g>
	<path class="st10" d="M112,111H92c1.7,0,3-1.3,3-3v-7h14v7C109,109.7,110.3,111,112,111z"/>
	<path class="st8" d="M112,112H92c-0.6,0-1-0.4-1-1s0.4-1,1-1c1.1,0,2-0.9,2-2v-7c0-0.6,0.4-1,1-1h14c0.6,0,1,0.4,1,1v7
		c0,1.1,0.9,2,2,2c0.6,0,1,0.4,1,1S112.6,112,112,112z M95.5,110h13.1c-0.3-0.6-0.5-1.3-0.5-2v-6H96v6C96,108.7,95.8,109.4,95.5,110
		z"/>
</g>
<g>
	<g>
		<path class="st8" d="M102,78c-0.6,0-1-0.4-1-1v-6c0-0.6,0.4-1,1-1s1,0.4,1,1v6C103,77.6,102.6,78,102,78z"/>
	</g>
	<g>
		<path class="st8" d="M102,85c-0.6,0-1-0.4-1-1v-3c0-0.6,0.4-1,1-1s1,0.4,1,1v3C103,84.6,102.6,85,102,85z"/>
	</g>
	<g>
		<path class="st8" d="M106,75c-0.6,0-1-0.4-1-1v-3c0-0.6,0.4-1,1-1s1,0.4,1,1v3C107,74.6,106.6,75,106,75z"/>
	</g>
	<g>
		<path class="st8" d="M98,75c-0.6,0-1-0.4-1-1v-3c0-0.6,0.4-1,1-1s1,0.4,1,1v3C99,74.6,98.6,75,98,75z"/>
	</g>
	<g>
		<path class="st8" d="M110,84c-2.8,0-5-2.2-5-5c0-0.6,0.4-1,1-1s1,0.4,1,1c0,1.7,1.3,3,3,3c0.6,0,1,0.4,1,1S110.6,84,110,84z"/>
	</g>
	<g>
		<path class="st8" d="M114,84c-0.6,0-1-0.4-1-1c0-3.9,3.1-7,7-7c0.6,0,1,0.4,1,1s-0.4,1-1,1c-2.8,0-5,2.2-5,5
			C115,83.6,114.6,84,114,84z"/>
	</g>
	<g>
		<path class="st8" d="M126,84c-0.6,0-1-0.4-1-1c0-2.8-2.2-5-5-5c-0.6,0-1-0.4-1-1s0.4-1,1-1c3.9,0,7,3.1,7,7
			C127,83.6,126.6,84,126,84z"/>
	</g>
	<g>
		<path class="st8" d="M125,87c-0.6,0-1-0.4-1-1c0-2.8,2.2-5,5-5c0.6,0,1,0.4,1,1s-0.4,1-1,1c-1.7,0-3,1.3-3,3
			C126,86.6,125.6,87,125,87z"/>
	</g>
	<g>
		<path class="st8" d="M136,86c-0.6,0-1-0.4-1-1c0-2.8,2.2-5,5-5c0.6,0,1,0.4,1,1s-0.4,1-1,1c-1.7,0-3,1.3-3,3
			C137,85.6,136.6,86,136,86z"/>
	</g>
	<g>
		<path class="st8" d="M136,85c-0.6,0-1-0.4-1-1c0-2.8-2.2-5-5-5c-0.6,0-1-0.4-1-1s0.4-1,1-1c3.9,0,7,3.1,7,7
			C137,84.6,136.6,85,136,85z"/>
	</g>
	<g>
		<path class="st8" d="M94,84c-0.6,0-1-0.4-1-1s0.4-1,1-1c1.7,0,3-1.3,3-3c0-0.6,0.4-1,1-1s1,0.4,1,1C99,81.8,96.8,84,94,84z"/>
	</g>
	<g>
		<path class="st8" d="M90,84c-0.6,0-1-0.4-1-1c0-2.8-2.2-5-5-5c-0.6,0-1-0.4-1-1s0.4-1,1-1c3.9,0,7,3.1,7,7C91,83.6,90.6,84,90,84z
			"/>
	</g>
	<g>
		<path class="st8" d="M78,84c-0.6,0-1-0.4-1-1c0-3.9,3.1-7,7-7c0.6,0,1,0.4,1,1s-0.4,1-1,1c-2.8,0-5,2.2-5,5C79,83.6,78.6,84,78,84
			z"/>
	</g>
	<g>
		<path class="st8" d="M79,87c-0.6,0-1-0.4-1-1c0-1.7-1.3-3-3-3c-0.6,0-1-0.4-1-1s0.4-1,1-1c2.8,0,5,2.2,5,5C80,86.6,79.6,87,79,87z
			"/>
	</g>
	<g>
		<path class="st8" d="M68,86c-0.6,0-1-0.4-1-1c0-1.7-1.3-3-3-3c-0.6,0-1-0.4-1-1s0.4-1,1-1c2.8,0,5,2.2,5,5C69,85.6,68.6,86,68,86z
			"/>
	</g>
	<g>
		<path class="st8" d="M68,85c-0.6,0-1-0.4-1-1c0-3.9,3.1-7,7-7c0.6,0,1,0.4,1,1s-0.4,1-1,1c-2.8,0-5,2.2-5,5C69,84.6,68.6,85,68,85
			z"/>
	</g>
</g>
<g>
	<path class="st8" d="M116,112h-4c-0.6,0-1-0.4-1-1s0.4-1,1-1h4c0.6,0,1,0.4,1,1S116.6,112,116,112z"/>
</g>
<g>
	<path class="st8" d="M92,112h-4c-0.6,0-1-0.4-1-1s0.4-1,1-1h4c0.6,0,1,0.4,1,1S92.6,112,92,112z"/>
</g>
<g>
	<path class="st11" d="M108,108v-6h-1h-0.5H96v2h8.5c1.1,0,2,0.9,2,2v2c0,0.7,0.2,1.4,0.5,2h1.5C108.2,109.4,108,108.7,108,108z"/>
</g>
<g>
	<path class="st12" d="M74,111H32c-1.1,0-2-0.9-2-2V81c0-1.1,0.9-2,2-2h42c1.1,0,2,0.9,2,2v28C76,110.1,75.1,111,74,111z"/>
	<path class="st8" d="M74,112H32c-1.7,0-3-1.3-3-3V81c0-1.7,1.3-3,3-3h42c1.7,0,3,1.3,3,3v28C77,110.7,75.7,112,74,112z M32,80
		c-0.6,0-1,0.4-1,1v28c0,0.6,0.4,1,1,1h42c0.6,0,1-0.4,1-1V81c0-0.6-0.4-1-1-1H32z"/>
</g>
<g>
	<rect x="41" y="84" class="st13" width="30" height="22"/>
	<path class="st8" d="M72,108H40c-0.6,0-1-0.4-1-1V83c0-0.6,0.4-1,1-1h32c0.6,0,1,0.4,1,1v24C73,107.6,72.6,108,72,108z M41,106h30
		V84H41V106z"/>
</g>
<g>
	<circle class="st8" cx="35" cy="95" r="2"/>
</g>
<g>
	<path class="st8" d="M36,101h-2c-0.6,0-1-0.4-1-1s0.4-1,1-1h2c0.6,0,1,0.4,1,1S36.6,101,36,101z"/>
</g>
<g>
	<path class="st8" d="M36,104h-2c-0.6,0-1-0.4-1-1s0.4-1,1-1h2c0.6,0,1,0.4,1,1S36.6,104,36,104z"/>
</g>
<g>
	<path class="st8" d="M36,107h-2c-0.6,0-1-0.4-1-1s0.4-1,1-1h2c0.6,0,1,0.4,1,1S36.6,107,36,107z"/>
</g>
<g>
	<path class="st8" d="M36,85h-2c-0.6,0-1-0.4-1-1s0.4-1,1-1h2c0.6,0,1,0.4,1,1S36.6,85,36,85z"/>
</g>
<g>
	<path class="st8" d="M36,88h-2c-0.6,0-1-0.4-1-1s0.4-1,1-1h2c0.6,0,1,0.4,1,1S36.6,88,36,88z"/>
</g>
<g>
	<path class="st8" d="M36,91h-2c-0.6,0-1-0.4-1-1s0.4-1,1-1h2c0.6,0,1,0.4,1,1S36.6,91,36,91z"/>
</g>
<g>
	<rect x="77" y="92" class="st11" width="2" height="8"/>
</g>
<g>
	<polygon class="st7" points="98,39 102,30 106,39 	"/>
	<path class="st8" d="M106,40h-8c-0.3,0-0.7-0.2-0.8-0.5s-0.2-0.6-0.1-1l4-9c0.2-0.4,0.5-0.6,0.9-0.6s0.8,0.2,0.9,0.6l4,9
		c0.1,0.3,0.1,0.7-0.1,1S106.3,40,106,40z M99.5,38h4.9l-2.5-5.5L99.5,38z"/>
</g>
<g>
	<polygon class="st14" points="102,32.5 101.9,32.6 102,38 104.5,38 	"/>
</g>
<g>
	<path class="st8" d="M103,34h-2c-0.6,0-1-0.4-1-1s0.4-1,1-1h2c0.6,0,1,0.4,1,1S103.6,34,103,34z"/>
</g>
<g>
	<path class="st15" d="M104,67h-4c-1.1,0-2-0.9-2-2v-2h8v2C106,66.1,105.1,67,104,67z"/>
	<path class="st8" d="M104,68h-4c-1.7,0-3-1.3-3-3v-2c0-0.6,0.4-1,1-1h8c0.6,0,1,0.4,1,1v2C107,66.7,105.7,68,104,68z M99,64v1
		c0,0.6,0.4,1,1,1h4c0.6,0,1-0.4,1-1v-1H99z"/>
</g>
<g>
	<path class="st16" d="M104,66v-2h1v1C105,65.6,104.6,66,104,66z"/>
</g>
<g>
	<path class="st8" d="M102,60c-0.6,0-1-0.4-1-1v-1c0-0.6,0.4-1,1-1s1,0.4,1,1v1C103,59.6,102.6,60,102,60z"/>
</g>
<g>
	<path class="st8" d="M110,50c-0.6,0-1-0.4-1-1c0-3.9,3.1-7,7-7c0.6,0,1,0.4,1,1s-0.4,1-1,1c-2.8,0-5,2.2-5,5
		C111,49.6,110.6,50,110,50z"/>
</g>
<g>
	<path class="st8" d="M94,50c-0.6,0-1-0.4-1-1c0-2.8-2.2-5-5-5c-0.6,0-1-0.4-1-1s0.4-1,1-1c3.9,0,7,3.1,7,7C95,49.6,94.6,50,94,50z"
		/>
</g>
<g>
	<path class="st8" d="M110,58c-0.6,0-1-0.4-1-1v-5c0-0.6,0.4-1,1-1s1,0.4,1,1v5C111,57.6,110.6,58,110,58z"/>
</g>
<g>
	<path class="st8" d="M94,58c-0.6,0-1-0.4-1-1v-5c0-0.6,0.4-1,1-1s1,0.4,1,1v5C95,57.6,94.6,58,94,58z"/>
</g>
<g>
	<g>
		<path class="st12" d="M131,111h-12c-1.1,0-2-0.9-2-2V85c0-1.1,0.9-2,2-2h12c1.1,0,2,0.9,2,2v24C133,110.1,132.1,111,131,111z"/>
		<path class="st8" d="M131,112h-12c-1.7,0-3-1.3-3-3V85c0-1.7,1.3-3,3-3h12c1.7,0,3,1.3,3,3v24C134,110.7,132.7,112,131,112z
			 M119,84c-0.6,0-1,0.4-1,1v24c0,0.6,0.4,1,1,1h12c0.6,0,1-0.4,1-1V85c0-0.6-0.4-1-1-1H119z"/>
	</g>
	<g>
		<rect x="118" y="89" class="st13" width="14" height="15"/>
		<path class="st8" d="M133,106h-16c-0.6,0-1-0.4-1-1V88c0-0.6,0.4-1,1-1h16c0.6,0,1,0.4,1,1v17C134,105.6,133.6,106,133,106z
			 M118,104h14V89h-14V104z"/>
	</g>
	<g>
		<circle class="st8" cx="125" cy="108" r="1"/>
	</g>
	<g>
		<polygon class="st17" points="125,104 122,104 132,94 132,97 		"/>
	</g>
	<g>
		<polygon class="st17" points="132,104 127,104 132,99 		"/>
	</g>
</g>
<g>
	<rect x="63" y="108" class="st18" width="3" height="2"/>
</g>
<g>
	<path class="st19" d="M66,106v-9c0-0.2-0.1-0.4-0.2-0.6l-2-3c-0.4-0.6-1.3-0.6-1.7,0l-2,3C60.1,96.6,60,96.8,60,97v9H66z"/>
</g>
<g>
	<path class="st12" d="M61,111L61,111c-1.1,0-2-0.9-2-2V95l2-3l2,3v14C63,110.1,62.1,111,61,111z"/>
	<path class="st8" d="M61,112c-1.7,0-3-1.3-3-3V95c0-0.2,0.1-0.4,0.2-0.6l2-3c0.4-0.6,1.3-0.6,1.7,0l2,3c0.1,0.2,0.2,0.4,0.2,0.6v14
		C64,110.7,62.7,112,61,112z M60,95.3V109c0,0.6,0.4,1,1,1s1-0.4,1-1V95.3l-1-1.5L60,95.3z"/>
</g>
<g>
	<rect x="102" y="64" class="st16" width="2" height="2"/>
</g>
<g>
	<path class="st20" d="M106,39v24h-8V39c1.3,0,2.7-0.5,4-1C103.3,38.5,104.7,39,106,39z"/>
	<path class="st8" d="M106,64h-8c-0.6,0-1-0.4-1-1V39c0-0.6,0.4-1,1-1c1.2,0,2.4-0.5,3.6-0.9c0.2-0.1,0.5-0.1,0.7,0
		c1.2,0.5,2.5,0.9,3.6,0.9c0.6,0,1,0.4,1,1v24C107,63.6,106.6,64,106,64z M99,62h6V39.9c-1-0.1-2-0.5-3-0.9c-1,0.4-2,0.7-3,0.9V62z"
		/>
</g>
<g>
	<path class="st21" d="M105,62V39.9c-1-0.1-2-0.5-3-0.9V62H105z"/>
</g>
<g>
	<g>
		<g>
			<rect x="148" y="91" transform="matrix(-1.836970e-16 1 -1 -1.836970e-16 258 -48)" class="st1" width="10" height="28"/>
			<path class="st8" d="M168,112h-30c-0.6,0-1-0.4-1-1V99c0-0.6,0.4-1,1-1h30c0.6,0,1,0.4,1,1v12C169,111.6,168.6,112,168,112z
				 M139,110h28v-10h-28V110z"/>
		</g>
		<g>
			<rect x="155" y="103" transform="matrix(-1.836970e-16 1 -1 -1.836970e-16 265 -55)" class="st22" width="10" height="4"/>
		</g>
		<g>
			<rect x="160" y="103" transform="matrix(-1.836970e-16 1 -1 -1.836970e-16 270 -60)" class="st20" width="10" height="4"/>
		</g>
		<g>
			<rect x="145" y="103" transform="matrix(-1.836970e-16 1 -1 -1.836970e-16 255 -45)" class="st5" width="10" height="4"/>
		</g>
		<g>
			<rect x="150" y="103" transform="matrix(-1.836970e-16 1 -1 -1.836970e-16 260 -50)" class="st23" width="10" height="4"/>
		</g>
		<g>
			<circle class="st8" cx="143" cy="105" r="1"/>
		</g>
	</g>
	<g>
		<g>
			
				<rect x="146.6" y="84.5" transform="matrix(0.7071 0.7071 -0.7071 0.7071 113.5558 -79.4054)" class="st1" width="12" height="25.8"/>
			<path class="st8" d="M147.7,111.7c-0.3,0-0.5-0.1-0.7-0.3l-8.5-8.5c-0.4-0.4-0.4-1,0-1.4l18.3-18.3c0.4-0.4,1-0.4,1.4,0l8.5,8.5
				c0.2,0.2,0.3,0.4,0.3,0.7s-0.1,0.5-0.3,0.7l-18.3,18.3C148.3,111.6,148,111.7,147.7,111.7z M140.7,102.3l7.1,7.1l16.8-16.8
				l-7.1-7.1L140.7,102.3z"/>
		</g>
		<g>
			
				<rect x="151.1" y="91.9" transform="matrix(0.7071 0.7071 -0.7071 0.7071 112.1178 -82.8772)" class="st24" width="10" height="4"/>
		</g>
		<g>
			
				<rect x="154.6" y="88.4" transform="matrix(0.7071 0.7071 -0.7071 0.7071 110.6533 -86.4127)" class="st25" width="10" height="4"/>
		</g>
		<g>
			<rect x="144" y="99" transform="matrix(0.7071 0.7071 -0.7071 0.7071 115.0467 -75.8061)" class="st26" width="10" height="4"/>
		</g>
		<g>
			
				<rect x="147.6" y="95.4" transform="matrix(0.7071 0.7071 -0.7071 0.7071 113.5822 -79.3417)" class="st27" width="10" height="4"/>
		</g>
		<g>
			<ellipse transform="matrix(0.7071 -0.7071 0.7071 0.7071 -32.697 132.9031)" class="st8" cx="144.1" cy="105.9" rx="1" ry="1"/>
		</g>
	</g>
	<g>
		<rect x="139" y="82" class="st1" width="10" height="28"/>
		<path class="st8" d="M150,112h-12c-0.6,0-1-0.4-1-1V81c0-0.6,0.4-1,1-1h12c0.6,0,1,0.4,1,1v30C151,111.6,150.6,112,150,112z
			 M139,110h10V82h-10V110z"/>
	</g>
	<g>
		<rect x="139" y="87" class="st28" width="10" height="4"/>
	</g>
	<g>
		<rect x="139" y="82" class="st29" width="10" height="4"/>
	</g>
	<g>
		<rect x="139" y="97" class="st30" width="10" height="4"/>
	</g>
	<g>
		<rect x="139" y="92" class="st31" width="10" height="4"/>
	</g>
	<g>
		<circle class="st8" cx="144" cy="106" r="1"/>
	</g>
</g>
<g>
	<path class="st8" d="M29,96h-0.5C21.6,96,16,90.4,16,83.5S21.6,71,28.5,71h19c1.4,0,2.5-1.1,2.5-2.5c0-0.7-0.3-1.3-0.7-1.8
		S48.2,66,47.5,66h-6c-1.9,0-3.5-1.6-3.5-3.5s1.6-3.5,3.5-3.5H60c0.6,0,1,0.4,1,1s-0.4,1-1,1H41.5c-0.8,0-1.5,0.7-1.5,1.5
		s0.7,1.5,1.5,1.5h6c1.2,0,2.3,0.5,3.2,1.3c0.9,0.9,1.3,2,1.3,3.2c0,2.5-2,4.5-4.5,4.5h-19C22.7,73,18,77.7,18,83.5S22.7,94,28.5,94
		H29c0.6,0,1,0.4,1,1S29.6,96,29,96z"/>
</g>
<g>
	<path class="st8" d="M107.7,33.7c-0.3,0-0.5-0.1-0.7-0.3c-0.4-0.4-0.4-1,0-1.4c2.7-2.7,2.7-7.2,0-9.9c-1.3-1.3-3.1-2.1-5-2.1
		c-1.9,0-3.6,0.7-4.9,2.1S95,25.1,95,27s0.7,3.6,2.1,4.9c0.4,0.4,0.4,1,0,1.4s-1,0.4-1.4,0c-1.7-1.7-2.6-4-2.6-6.4s0.9-4.7,2.6-6.4
		c1.7-1.7,4-2.6,6.4-2.6c2.4,0,4.7,0.9,6.4,2.6c3.5,3.5,3.5,9.2,0,12.7C108.2,33.6,107.9,33.7,107.7,33.7z"/>
</g>
<g>
	<path class="st8" d="M104.8,30.8c-0.3,0-0.5-0.1-0.7-0.3c-0.4-0.4-0.4-1,0-1.4c1.2-1.2,1.2-3.1,0-4.2c-1.1-1.1-3.1-1.1-4.2,0
		c-1.2,1.2-1.2,3.1,0,4.2c0.4,0.4,0.4,1,0,1.4c-0.4,0.4-1,0.4-1.4,0c-1.9-1.9-1.9-5.1,0-7.1c0.9-0.9,2.2-1.5,3.5-1.5
		s2.6,0.5,3.5,1.5c1.9,1.9,1.9,5.1,0,7.1C105.3,30.7,105.1,30.8,104.8,30.8z"/>
</g>
<g>
	<path class="st8" d="M116,28h-3c-0.6,0-1-0.4-1-1s0.4-1,1-1h3c0.6,0,1,0.4,1,1S116.6,28,116,28z"/>
</g>
<g>
	<path class="st8" d="M91,28h-3c-0.6,0-1-0.4-1-1s0.4-1,1-1h3c0.6,0,1,0.4,1,1S91.6,28,91,28z"/>
</g>
<g>
	<path class="st8" d="M111.9,37.9c-0.3,0-0.5-0.1-0.7-0.3l-2.1-2.1c-0.4-0.4-0.4-1,0-1.4s1-0.4,1.4,0l2.1,2.1c0.4,0.4,0.4,1,0,1.4
		C112.4,37.8,112.2,37.9,111.9,37.9z"/>
</g>
<g>
	<path class="st8" d="M94.2,20.2c-0.3,0-0.5-0.1-0.7-0.3l-2.1-2.1c-0.4-0.4-0.4-1,0-1.4s1-0.4,1.4,0l2.1,2.1c0.4,0.4,0.4,1,0,1.4
		C94.7,20.1,94.5,20.2,94.2,20.2z"/>
</g>
<g>
	<path class="st8" d="M109.8,20.2c-0.3,0-0.5-0.1-0.7-0.3c-0.4-0.4-0.4-1,0-1.4l2.1-2.1c0.4-0.4,1-0.4,1.4,0s0.4,1,0,1.4l-2.1,2.1
		C110.3,20.1,110,20.2,109.8,20.2z"/>
</g>
<g>
	<path class="st8" d="M92.1,37.9c-0.3,0-0.5-0.1-0.7-0.3c-0.4-0.4-0.4-1,0-1.4l2.1-2.1c0.4-0.4,1-0.4,1.4,0s0.4,1,0,1.4l-2.1,2.1
		C92.6,37.8,92.4,37.9,92.1,37.9z"/>
</g>
<g>
	<path class="st8" d="M102,17c-0.6,0-1-0.4-1-1v-3c0-0.6,0.4-1,1-1s1,0.4,1,1v3C103,16.6,102.6,17,102,17z"/>
</g>
<g>
	<path class="st8" d="M184,112H14c-0.6,0-1-0.4-1-1s0.4-1,1-1h170c0.6,0,1,0.4,1,1S184.6,112,184,112z"/>
</g>
<g>
	<circle class="st8" cx="197" cy="111" r="1"/>
</g>
<g>
	<circle class="st21" cx="10" cy="93" r="1"/>
</g>
<g>
	<circle class="st21" cx="76" cy="32" r="1"/>
</g>
<g>
	<circle class="st21" cx="96" cy="3" r="1"/>
</g>
<g>
	<circle class="st32" cx="185" cy="57" r="1"/>
</g>
<g>
	<circle class="st32" cx="48" cy="20" r="1"/>
</g>
<g>
	<circle class="st22" cx="165" cy="43" r="1"/>
</g>
<g>
	<circle class="st22" cx="138" cy="27" r="1"/>
</g>
<g>
	<circle class="st22" cx="113" cy="1" r="1"/>
</g>
<g>
	<circle class="st32" cx="178" cy="44" r="1"/>
</g>
<g>
	<circle class="st22" cx="18" cy="60" r="1"/>
</g>
<g>
	<circle class="st32" cx="128" cy="29" r="1"/>
</g>
<g>
	<path class="st20" d="M64,25c-1.7,0-3-1.3-3-3s1.3-3,3-3s3,1.3,3,3S65.7,25,64,25z M64,21c-0.6,0-1,0.4-1,1s0.4,1,1,1s1-0.4,1-1
		S64.6,21,64,21z"/>
</g>
<g>
	<path class="st20" d="M169,36c-1.7,0-3-1.3-3-3s1.3-3,3-3s3,1.3,3,3S170.7,36,169,36z M169,32c-0.6,0-1,0.4-1,1s0.4,1,1,1
		s1-0.4,1-1S169.6,32,169,32z"/>
</g>
<g>
	<path class="st20" d="M142,18c-1.7,0-3-1.3-3-3s1.3-3,3-3s3,1.3,3,3S143.7,18,142,18z M142,14c-0.6,0-1,0.4-1,1s0.4,1,1,1
		s1-0.4,1-1S142.6,14,142,14z"/>
</g>
<g>
	<path class="st32" d="M152,34c-1.7,0-3-1.3-3-3s1.3-3,3-3s3,1.3,3,3S153.7,34,152,34z M152,30c-0.6,0-1,0.4-1,1s0.4,1,1,1
		s1-0.4,1-1S152.6,30,152,30z"/>
</g>
<g>
	<path class="st32" d="M38,35c-1.7,0-3-1.3-3-3s1.3-3,3-3s3,1.3,3,3S39.7,35,38,35z M38,31c-0.6,0-1,0.4-1,1s0.4,1,1,1s1-0.4,1-1
		S38.6,31,38,31z"/>
</g>
<path class="st20" d="M177.9,51.5l0.8-0.8c0.4-0.4,0.4-1,0-1.4s-1-0.4-1.4,0l-0.8,0.8l-0.8-0.8c-0.4-0.4-1-0.4-1.4,0s-0.4,1,0,1.4
	l0.8,0.8l-0.8,0.8c-0.4,0.4-0.4,1,0,1.4c0.2,0.2,0.5,0.3,0.7,0.3s0.5-0.1,0.7-0.3l0.8-0.8l0.8,0.8c0.2,0.2,0.5,0.3,0.7,0.3
	s0.5-0.1,0.7-0.3c0.4-0.4,0.4-1,0-1.4L177.9,51.5z"/>
<path class="st32" d="M123.9,14.5l0.8-0.8c0.4-0.4,0.4-1,0-1.4s-1-0.4-1.4,0l-0.8,0.8l-0.8-0.8c-0.4-0.4-1-0.4-1.4,0s-0.4,1,0,1.4
	l0.8,0.8l-0.8,0.8c-0.4,0.4-0.4,1,0,1.4c0.2,0.2,0.5,0.3,0.7,0.3s0.5-0.1,0.7-0.3l0.8-0.8l0.8,0.8c0.2,0.2,0.5,0.3,0.7,0.3
	s0.5-0.1,0.7-0.3c0.4-0.4,0.4-1,0-1.4L123.9,14.5z"/>
<path class="st20" d="M81.9,8.5l0.8-0.8c0.4-0.4,0.4-1,0-1.4s-1-0.4-1.4,0l-0.8,0.8l-0.8-0.8c-0.4-0.4-1-0.4-1.4,0s-0.4,1,0,1.4
	l0.8,0.8l-0.8,0.8c-0.4,0.4-0.4,1,0,1.4c0.2,0.2,0.5,0.3,0.7,0.3s0.5-0.1,0.7-0.3l0.8-0.8l0.8,0.8c0.2,0.2,0.5,0.3,0.7,0.3
	s0.5-0.1,0.7-0.3c0.4-0.4,0.4-1,0-1.4L81.9,8.5z"/>
<g>
	<g>
		<path class="st32" d="M30,54c-0.3,0-0.5-0.1-0.7-0.3l-3-3c-0.4-0.4-0.4-1,0-1.4s1-0.4,1.4,0l3,3c0.4,0.4,0.4,1,0,1.4
			C30.5,53.9,30.3,54,30,54z"/>
	</g>
	<g>
		<path class="st32" d="M27,54c-0.3,0-0.5-0.1-0.7-0.3c-0.4-0.4-0.4-1,0-1.4l3-3c0.4-0.4,1-0.4,1.4,0s0.4,1,0,1.4l-3,3
			C27.5,53.9,27.3,54,27,54z"/>
	</g>
</g>
<g>
	<circle class="st33" cx="64" cy="72" r="7"/>
	<path class="st8" d="M64,81c-5,0-9-4-9-9s4-9,9-9s9,4,9,9S69,81,64,81z M64,65c-3.9,0-7,3.1-7,7s3.1,7,7,7s7-3.1,7-7S67.9,65,64,65
		z"/>
</g>
<g>
	<path class="st1" d="M63,75c-0.3,0-0.5-0.1-0.7-0.3l-2-2c-0.4-0.4-0.4-1,0-1.4s1-0.4,1.4,0l1.3,1.3l3.3-3.3c0.4-0.4,1-0.4,1.4,0
		s0.4,1,0,1.4l-4,4C63.5,74.9,63.3,75,63,75z"/>
</g>
<g>
	<path class="st8" d="M193,112h-5c-0.6,0-1-0.4-1-1s0.4-1,1-1h5c0.6,0,1,0.4,1,1S193.6,112,193,112z"/>
</g>
<g>
	<circle class="st8" cx="1" cy="111" r="1"/>
</g>
<g>
	<path class="st8" d="M10,112H5c-0.6,0-1-0.4-1-1s0.4-1,1-1h5c0.6,0,1,0.4,1,1S10.6,112,10,112z"/>
</g>
<g>
	<g>
		<path class="st10" d="M137,36c1.1,0,2,0.9,2,2v8v3l-2.9-2.2c-0.7-0.5-1.5-0.8-2.4-0.8H127c-1.1,0-2-0.9-2-2v-6c0-1.1,0.9-2,2-2
			H137z"/>
		<path class="st8" d="M139,50c-0.2,0-0.4-0.1-0.6-0.2l-2.9-2.2c-0.5-0.4-1.2-0.6-1.8-0.6H127c-1.7,0-3-1.3-3-3v-6c0-1.7,1.3-3,3-3
			h10c1.7,0,3,1.3,3,3v11c0,0.4-0.2,0.7-0.6,0.9C139.3,50,139.2,50,139,50z M127,37c-0.6,0-1,0.4-1,1v6c0,0.6,0.4,1,1,1h6.7
			c1.1,0,2.1,0.4,3,1l1.3,1v-9c0-0.6-0.4-1-1-1H127z"/>
	</g>
	<g>
		<path class="st10" d="M132,40c-1.1,0-2,0.9-2,2v8v3l2.9-2.2c0.7-0.5,1.5-0.8,2.4-0.8h6.7c1.1,0,2-0.9,2-2v-6c0-1.1-0.9-2-2-2H132z
			"/>
		<path class="st8" d="M130,54c-0.2,0-0.3,0-0.4-0.1c-0.3-0.2-0.6-0.5-0.6-0.9V42c0-1.7,1.3-3,3-3h10c1.7,0,3,1.3,3,3v6
			c0,1.7-1.3,3-3,3h-6.7c-0.6,0-1.3,0.2-1.8,0.6l-2.9,2.2C130.4,53.9,130.2,54,130,54z M132,41c-0.6,0-1,0.4-1,1v9l1.3-1
			c0.9-0.6,1.9-1,3-1h6.7c0.6,0,1-0.4,1-1v-6c0-0.6-0.4-1-1-1H132z"/>
	</g>
	<g>
		<circle class="st8" cx="137" cy="45" r="1"/>
	</g>
	<g>
		<circle class="st8" cx="140" cy="45" r="1"/>
	</g>
	<g>
		<circle class="st8" cx="134" cy="45" r="1"/>
	</g>
</g>
<g>
	<rect x="134" y="92" class="st11" width="2" height="8"/>
</g>
</svg>
