<?xml version="1.0" encoding="utf-8"?>
<!-- Generator: Adobe Illustrator 21.0.0, SVG Export Plug-In . SVG Version: 6.00 Build 0)  -->
<svg version="1.1" id="Layer_1" xmlns="http://www.w3.org/2000/svg" xmlns:xlink="http://www.w3.org/1999/xlink" x="0px" y="0px"
	 viewBox="0 0 198 114" style="enable-background:new 0 0 198 114;" xml:space="preserve">
<style type="text/css">
	.st0{fill:#F5B445;}
	.st1{fill:#0E395A;}
	.st2{fill:#FFCA5D;}
	.st3{fill:#D5E3EE;}
	.st4{fill:#A7B0C4;}
	.st5{fill:#FFFFFF;}
	.st6{fill:#FAC0B8;}
	.st7{fill:#F8AB9E;}
	.st8{fill:#E2E7EF;}
	.st9{fill:#CAD5E3;}
	.st10{fill:#FEE2CB;}
	.st11{fill:#F3CDB1;}
	.st12{fill:#AED9EC;}
	.st13{fill:#949EB2;}
	.st14{fill:#66869B;}
	.st15{fill:#4F6A7C;}
	.st16{fill:#0F395A;}
	.st17{fill:#577280;}
	.st18{fill:#FFCB5D;}
	.st19{fill:#71B8E5;}
	.st20{fill:#F16B56;}
	.st21{fill:#F6B545;}
	.st22{fill:#EDF1F9;}
	.st23{fill:#F04E4F;}
	.st24{fill:#9AB5CD;}
	.st25{fill:#567789;}
	.st26{fill:#EBEEF7;}
	.st27{fill:#ADD7F3;}
	.st28{fill:#DC3640;}
	.st29{fill:#D3EEFB;}
	.st30{fill:#F04D4E;}
	.st31{fill:#D3E2EB;}
	.st32{fill:#8E9AB2;}
	.st33{fill:#89C764;}
	.st34{fill:#72AF49;}
	.st35{fill:#368ACA;}
	.st36{fill:#B0C4D8;}
	.st37{fill:#E58824;}
	.st38{fill:#EDDCD3;}
	.st39{fill:#E2CEC4;}
	.st40{fill:#4E9CD5;}
	.st41{fill:#AFC3D7;}
</style>
<g>
	<g>
		<circle class="st0" cx="103" cy="36" r="4"/>
		<path class="st1" d="M103,42c-3.3,0-6-2.7-6-6s2.7-6,6-6s6,2.7,6,6S106.3,42,103,42z M103,32c-2.2,0-4,1.8-4,4s1.8,4,4,4
			s4-1.8,4-4S105.2,32,103,32z"/>
	</g>
	<g>
		<path class="st2" d="M105.1,33.9c-0.5-0.5-1.3-0.9-2.1-0.9c-1.7,0-3,1.3-3,3c0,0.8,0.3,1.6,0.9,2.1L105.1,33.9z"/>
	</g>
</g>
<g>
	<g>
		<path class="st3" d="M157,36c2.2,0,4,1.8,4,4s-1.8,4-4,4V36z"/>
		<path class="st4" d="M157,45c-0.6,0-1-0.4-1-1s0.4-1,1-1c1.7,0,3-1.3,3-3s-1.3-3-3-3c-0.6,0-1-0.4-1-1s0.4-1,1-1c2.8,0,5,2.2,5,5
			S159.8,45,157,45z"/>
	</g>
	<path class="st5" d="M142,45.6l8.2,7.4c0.5,0.5,1.1,0.8,1.8,1V26.1c-0.7,0.2-1.3,0.5-1.8,1l-8.2,7.4V45.6z"/>
	<rect x="154" y="26" class="st6" width="2" height="28"/>
	<path class="st4" d="M156,24h-3c0,0,0,0,0,0s0,0,0,0c-1.5,0-3,0.6-4.1,1.6l-8.5,7.7c-0.2,0.2-0.3,0.5-0.3,0.7v12
		c0,0.3,0.1,0.6,0.3,0.7l8.5,7.7c1.1,1,2.6,1.6,4.1,1.6h3c1.1,0,2-0.9,2-2V26C158,24.9,157.1,24,156,24z M142,45.6V34.4l8.2-7.4
		c0.5-0.5,1.1-0.8,1.8-1v27.8c-0.7-0.2-1.3-0.5-1.8-1L142,45.6z M154,54V26h2l0,28H154z"/>
	<path class="st6" d="M125,47h14c0.6,0,1-0.4,1-1V34c0-0.6-0.4-1-1-1h-14c-0.6,0-1,0.4-1,1v12C124,46.6,124.4,47,125,47z"/>
	<path class="st5" d="M121,43h1v-6h-1c-0.6,0-1,0.4-1,1v4C120,42.6,120.4,43,121,43z"/>
	<path class="st4" d="M139,31h-14c-1.7,0-3,1.3-3,3v1h-1c-1.7,0-3,1.3-3,3v4c0,1.7,1.3,3,3,3h1v1c0,1.7,1.3,3,3,3h14
		c1.7,0,3-1.3,3-3V34C142,32.3,140.7,31,139,31z M121,43c-0.6,0-1-0.4-1-1v-4c0-0.6,0.4-1,1-1h1v6H121z M140,46c0,0.6-0.4,1-1,1h-14
		c-0.6,0-1-0.4-1-1v-2v-8v-2c0-0.6,0.4-1,1-1h14c0.6,0,1,0.4,1,1V46z"/>
	<g>
		<path class="st5" d="M133,51.3V48h-4v7c0,1.1,0.9,2,2,2h2h0.6c0.8,0,1.4-0.6,1.4-1.4v0c0-0.4-0.1-0.7-0.4-1l-0.4-0.4
			C133.4,53.4,133,52.4,133,51.3z"/>
		<path class="st4" d="M133.6,58H131c-1.7,0-3-1.3-3-3v-7c0-0.6,0.4-1,1-1h4c0.6,0,1,0.4,1,1v3.3c0,0.9,0.3,1.7,0.9,2.3l0.4,0.4
			c0.4,0.5,0.7,1.1,0.7,1.7C136,56.9,134.9,58,133.6,58z M130,49v6c0,0.6,0.4,1,1,1h2.6c0.2,0,0.4-0.2,0.4-0.4c0-0.1,0-0.2-0.1-0.3
			l-0.4-0.4c-1-1-1.5-2.3-1.5-3.7V49H130z"/>
	</g>
	<g>
		<circle class="st4" cx="128" cy="37" r="1"/>
	</g>
	<g>
		<circle class="st4" cx="132" cy="37" r="1"/>
	</g>
	<g>
		<path class="st7" d="M139,33v11c0,0.6-0.4,1-1,1h-14v1c0,0.6,0.4,1,1,1h14c0.6,0,1-0.4,1-1V34C140,33.4,139.6,33,139,33z"/>
	</g>
	<g>
		<path class="st8" d="M150.2,48l-4.3-2.8c-1.2-0.8-1.8-2-1.8-3.4v-9.1l-2,1.8v8.2v2.9l8.2,7.4c0.5,0.5,1.1,0.8,1.8,1V49
			C151.3,48.8,150.7,48.5,150.2,48z"/>
	</g>
	<g>
		<rect x="154" y="49" class="st7" width="2" height="5"/>
	</g>
	<g>
		<polygon class="st8" points="132,51 130,50 130,49 132,49 		"/>
	</g>
	<g>
		<path class="st8" d="M122,43h-1c-0.6,0-1-0.4-1-1v-1h2V43z"/>
	</g>
</g>
<g>
	<g>
		<path class="st3" d="M11.9,70.4c0.7,0.1,1.3,0.7,1.5,1.4c0.2,0.5,0.3,0.9,0.6,1.4c0.3,0.6,0.3,1.4-0.1,2l-0.5,0.8
			c-0.3,0.5-0.3,1.1,0.2,1.5h0c0.4,0.4,1.1,0.5,1.5,0.2l0.8-0.5c0.6-0.4,1.4-0.4,2-0.1c0.4,0.2,0.9,0.4,1.4,0.6
			c0.7,0.2,1.2,0.8,1.4,1.5l0.2,0.9c0.1,0.6,0.6,1,1.2,1h0c0.6,0,1.1-0.4,1.2-1l0.2-0.9c0.1-0.7,0.7-1.3,1.4-1.5
			c0.5-0.2,0.9-0.3,1.4-0.6c0.6-0.3,1.4-0.3,2,0.1l0.8,0.5c0.5,0.3,1.1,0.3,1.5-0.2h0c0.4-0.4,0.5-1.1,0.2-1.5l-0.5-0.8
			c-0.4-0.6-0.4-1.4-0.1-2c0.2-0.4,0.4-0.9,0.6-1.4c0.2-0.7,0.8-1.2,1.5-1.4l0.9-0.2c0.6-0.1,1-0.6,1-1.2v0c0-0.6-0.4-1.1-1-1.2
			l-0.9-0.2c-0.7-0.1-1.3-0.7-1.5-1.4c-0.2-0.5-0.3-0.9-0.6-1.4c-0.3-0.6-0.3-1.4,0.1-2l0.5-0.8c0.3-0.5,0.3-1.1-0.2-1.5l0,0
			c-0.4-0.4-1.1-0.5-1.5-0.2l-0.8,0.5c-0.6,0.4-1.4,0.4-2,0.1c-0.4-0.2-0.9-0.4-1.4-0.6c-0.7-0.2-1.2-0.8-1.4-1.5L23.2,58
			c-0.1-0.6-0.6-1-1.2-1h0c-0.6,0-1.1,0.4-1.2,1l-0.2,0.9c-0.1,0.7-0.7,1.3-1.4,1.5c-0.5,0.2-0.9,0.3-1.4,0.6
			c-0.6,0.3-1.4,0.3-2-0.1l-0.8-0.5c-0.5-0.3-1.1-0.3-1.5,0.2h0c-0.4,0.4-0.5,1.1-0.2,1.5l0.5,0.8c0.4,0.6,0.4,1.4,0.1,2
			c-0.2,0.4-0.4,0.9-0.6,1.4c-0.2,0.7-0.8,1.2-1.5,1.4L11,67.8c-0.6,0.1-1,0.6-1,1.2v0c0,0.6,0.4,1.1,1,1.2L11.9,70.4z M22,64
			c2.8,0,5,2.2,5,5s-2.2,5-5,5s-5-2.2-5-5S19.2,64,22,64z"/>
		<path class="st4" d="M22,82c-1.1,0-2-0.8-2.2-1.8l-0.2-0.9c-0.1-0.4-0.3-0.6-0.7-0.7c-0.5-0.2-1-0.4-1.5-0.6c-0.3-0.2-0.7-0.2-1,0
			l-0.8,0.5c-0.9,0.6-2.1,0.5-2.8-0.3c-0.7-0.7-0.9-1.9-0.3-2.8l0.5-0.8c0.2-0.3,0.2-0.7,0-1c-0.3-0.5-0.5-1-0.6-1.5
			c-0.1-0.3-0.4-0.6-0.7-0.7l0,0l-0.9-0.2C9.8,71,9,70.1,9,69s0.8-2,1.8-2.2l0.9-0.2c0.4-0.1,0.6-0.3,0.7-0.7c0.2-0.5,0.4-1,0.6-1.5
			c0.2-0.3,0.1-0.7,0-1l-0.5-0.8c-0.6-0.9-0.5-2.1,0.3-2.8c0.7-0.7,1.9-0.9,2.8-0.3l0.8,0.5c0.3,0.2,0.7,0.2,1,0
			c0.5-0.3,1-0.5,1.5-0.6c0.3-0.1,0.6-0.4,0.7-0.7l0.2-0.9c0.2-1,1.1-1.8,2.2-1.8c1.1,0,2,0.8,2.2,1.8l0.2,0.9
			c0.1,0.4,0.3,0.6,0.7,0.7c0.5,0.2,1,0.4,1.5,0.6c0.3,0.2,0.7,0.1,1,0l0.8-0.5c0.9-0.6,2.1-0.5,2.8,0.3c0.7,0.7,0.9,1.9,0.3,2.8
			l-0.5,0.8c-0.2,0.3-0.2,0.7,0,1c0.3,0.5,0.5,1,0.6,1.5c0.1,0.3,0.4,0.6,0.7,0.7l0.9,0.2c1,0.2,1.8,1.1,1.8,2.2s-0.8,2-1.8,2.2
			l-0.9,0.2c-0.4,0.1-0.6,0.3-0.7,0.7c-0.2,0.5-0.4,1-0.6,1.5c-0.2,0.3-0.1,0.7,0,1l0.5,0.8c0.6,0.9,0.5,2.1-0.3,2.8
			s-1.9,0.9-2.8,0.3l-0.8-0.5c-0.3-0.2-0.7-0.2-1,0c-0.5,0.3-1,0.5-1.5,0.6c-0.3,0.1-0.6,0.4-0.7,0.7l-0.2,0.9
			C24,81.2,23.1,82,22,82z M17,75.8c0.5,0,0.9,0.1,1.4,0.3c0.4,0.2,0.8,0.4,1.2,0.5c1,0.3,1.8,1.2,2,2.3l0.2,0.9
			c0,0.2,0.4,0.2,0.4,0l0.2-0.9c0.2-1.1,1-1.9,2-2.3c0.4-0.1,0.8-0.3,1.2-0.5c1-0.5,2.1-0.4,3,0.2l0.8,0.5c0.1,0.1,0.2,0,0.3,0
			c0.1-0.1,0.1-0.2,0-0.3l-0.5-0.8c-0.6-0.9-0.7-2.1-0.2-3c0.2-0.4,0.4-0.8,0.5-1.2c0.3-1,1.2-1.8,2.3-2l0.9-0.2
			c0.1,0,0.2-0.1,0.2-0.2s-0.1-0.2-0.2-0.2l-0.9-0.2c-1.1-0.2-1.9-1-2.3-2c-0.1-0.4-0.3-0.8-0.5-1.2c-0.5-1-0.4-2.1,0.2-3l0.5-0.8
			c0.1-0.1,0-0.2,0-0.3c-0.1-0.1-0.2-0.1-0.3,0l-0.8,0.5c-0.9,0.6-2.1,0.7-3,0.2c-0.4-0.2-0.8-0.4-1.2-0.5c-1-0.3-1.8-1.2-2-2.3
			l-0.2-0.9c0-0.2-0.4-0.2-0.4,0l-0.2,0.9c-0.2,1.1-1,1.9-2,2.3c-0.4,0.1-0.8,0.3-1.2,0.5c-1,0.5-2.1,0.4-3-0.2l-0.8-0.5
			c-0.1-0.1-0.2,0-0.3,0c-0.1,0.1-0.1,0.2,0,0.3l0.5,0.8c0.6,0.9,0.7,2.1,0.2,3c-0.2,0.4-0.4,0.8-0.5,1.2c-0.3,1-1.2,1.8-2.3,2
			l-0.9,0.2c-0.1,0-0.2,0.1-0.2,0.2s0.1,0.2,0.2,0.2l0.9,0.2c1.1,0.2,1.9,1,2.3,2c0.1,0.4,0.3,0.8,0.5,1.2c0.5,1,0.4,2.1-0.2,3
			l-0.5,0.8c-0.1,0.1,0,0.2,0,0.3c0.1,0.1,0.2,0.1,0.3,0l0.8-0.5C15.8,75.9,16.4,75.8,17,75.8z M22,75c-3.3,0-6-2.7-6-6s2.7-6,6-6
			s6,2.7,6,6S25.3,75,22,75z M22,65c-2.2,0-4,1.8-4,4s1.8,4,4,4s4-1.8,4-4S24.2,65,22,65z"/>
	</g>
	<g>
		<path class="st9" d="M32.8,68.8l-0.9-0.2c-1.1-0.2-1.9-1-2.3-2.1c-0.1-0.4-0.3-0.8-0.5-1.2c-0.5-1-0.4-2.1,0.2-3l0.5-0.8
			c0.1-0.1,0-0.2,0-0.3l-2.2,2.2c-0.4,0.4-0.4,0.9-0.1,1.3c1.2,1.5,1.7,3.5,1.3,5.7c-0.5,2.8-2.7,5-5.5,5.5
			c-2.1,0.4-4.2-0.2-5.7-1.3c-0.4-0.3-1-0.3-1.3,0.1l-2.2,2.2c0.1,0.1,0.2,0.1,0.3,0l0.8-0.5c0.5-0.3,1.1-0.5,1.7-0.5
			c0.5,0,0.9,0.1,1.4,0.3c0.4,0.2,0.8,0.4,1.2,0.5c1.1,0.3,1.9,1.2,2.1,2.3l0.2,0.9c0,0.2,0.4,0.2,0.4,0l0.2-0.9
			c0.2-1.1,1-1.9,2.1-2.3c0.4-0.1,0.8-0.3,1.2-0.5c1-0.5,2.1-0.4,3,0.2l0.8,0.5c0.1,0.1,0.2,0,0.3,0c0.1-0.1,0.1-0.2,0-0.3l-0.5-0.8
			c-0.6-0.9-0.7-2.1-0.2-3c0.2-0.4,0.4-0.8,0.5-1.2c0.3-1.1,1.2-1.9,2.3-2.1l0.9-0.2c0.1,0,0.2-0.1,0.2-0.2S32.9,68.8,32.8,68.8z"/>
	</g>
	<g>
		<path class="st9" d="M16,69c0-3.3,2.7-6,6-6c1.7,0,3.2,0.7,4.2,1.8c0,0,0.8-0.8-0.2-1.5c-1.1-0.8-2.5-1.3-4-1.3c-3.9,0-7,3.1-7,7
			c0,1.5,0.4,2.9,1.3,4c0.7,1,1.5,0.2,1.5,0.2C16.7,72.2,16,70.7,16,69z"/>
	</g>
</g>
<g>
	<g>
		<path class="st5" d="M153,73v27.3c0,1.1-0.4,2.1-1.2,2.8l-4.7,4.7c-0.8,0.8-1.8,1.2-2.8,1.2H127V73h7.3c0.3,0.6,1,1,1.7,1h8
			c0.7,0,1.4-0.4,1.7-1H153z"/>
	</g>
	<path class="st10" d="M157,71v40c0,1.1-0.9,2-2,2h-30c-1.1,0-2-0.9-2-2V71c0-1.1,0.9-2,2-2h9v3c0,0.4,0.1,0.7,0.3,1H127v36h17.3
		c1.1,0,2.1-0.4,2.8-1.2l4.7-4.7c0.8-0.8,1.2-1.8,1.2-2.8V73h-7.3c0.2-0.3,0.3-0.6,0.3-1v-3h9C156.1,69,157,69.9,157,71z"/>
	<path class="st4" d="M155,68h-9c-0.6,0-1,0.4-1,1v3c0,0.2,0,0.3-0.1,0.5c-0.2,0.3-0.2,0.7,0,1c0.2,0.3,0.5,0.5,0.9,0.5h6.3v25
		c0,1.1-0.9,2-2,2h-4c-0.6,0-1,0.4-1,1v4c0,1.1-0.9,2-2,2h-15V74h6.3c0.4,0,0.7-0.2,0.9-0.5c0.2-0.3,0.2-0.7,0-1
		c-0.1-0.1-0.1-0.3-0.1-0.5v-3c0-0.6-0.4-1-1-1h-9c-1.7,0-3,1.3-3,3v40c0,1.7,1.3,3,3,3h30c1.7,0,3-1.3,3-3V71
		C158,69.3,156.7,68,155,68z M147,103h3.6l-3.6,3.6V103z M156,111c0,0.6-0.4,1-1,1h-30c-0.6,0-1-0.4-1-1V71c0-0.6,0.4-1,1-1h8v2h-6
		c-0.6,0-1,0.4-1,1v36c0,0.6,0.4,1,1,1h17.3c1.3,0,2.6-0.5,3.5-1.5l4.7-4.7c0.9-0.9,1.5-2.2,1.5-3.5V73c0-0.6-0.4-1-1-1h-6v-2h8
		c0.6,0,1,0.4,1,1V111z"/>
	<g>
		<path class="st3" d="M146,69v3c0,0.4-0.1,0.7-0.3,1c-0.3,0.6-1,1-1.7,1h-8c-0.7,0-1.4-0.4-1.7-1c-0.2-0.3-0.3-0.6-0.3-1v-3h4
			c0-0.5,0.2-1,0.6-1.4c0.4-0.4,0.9-0.6,1.4-0.6c1.1,0,2,0.9,2,2H146z"/>
		<path class="st4" d="M144,75h-8c-1.1,0-2-0.6-2.6-1.5c-0.3-0.5-0.4-1-0.4-1.5v-3c0-0.6,0.4-1,1-1h3.2c0.1-0.4,0.4-0.8,0.7-1.1
			c0.5-0.6,1.3-0.9,2.1-0.9c1.3,0,2.4,0.8,2.8,2h3.2c0.6,0,1,0.4,1,1v3c0,0.5-0.1,1.1-0.4,1.5C146,74.4,145.1,75,144,75z M135,70v2
			c0,0.2,0,0.3,0.1,0.5c0.2,0.3,0.5,0.5,0.9,0.5h8c0.4,0,0.7-0.2,0.9-0.5c0.1-0.1,0.1-0.3,0.1-0.5v-2h-3c-0.6,0-1-0.4-1-1
			c0-0.6-0.4-1-1-1c-0.3,0-0.5,0.1-0.7,0.3c-0.2,0.2-0.3,0.4-0.3,0.7c0,0.6-0.4,1-1,1H135z"/>
	</g>
	<g>
		<path class="st11" d="M147.9,108.5c-0.9,0.9-2.2,1.5-3.5,1.5h3.8c0.5,0,1-0.2,1.4-0.6l3.8-3.8c0.4-0.4,0.6-0.9,0.6-1.4v-3.8
			c0,1.3-0.5,2.6-1.5,3.5L147.9,108.5z"/>
	</g>
	<g>
		<rect x="147" y="70" class="st11" width="1" height="2"/>
	</g>
	<g>
		<path class="st7" d="M140,79v6h6C146,81.7,143.3,79,140,79z"/>
	</g>
	<g>
		<circle class="st12" cx="134" cy="99" r="1"/>
	</g>
	<g>
		<circle class="st7" cx="134" cy="102" r="1"/>
	</g>
	<g>
		<path class="st8" d="M135,106h-7V75h11v27C139,104.2,137.2,106,135,106z"/>
	</g>
	<g>
		<path class="st12" d="M139,80c-3.3,0-6,2.7-6,6s2.7,6,6,6s6-2.7,6-6h-6V80z"/>
	</g>
	<g>
		<path class="st9" d="M137,73h2v-4c0,0.6-0.4,1-1,1h-1V73z"/>
	</g>
	<g>
		<g>
			<path class="st4" d="M143,100h-6c-0.6,0-1-0.4-1-1s0.4-1,1-1h6c0.6,0,1,0.4,1,1S143.6,100,143,100z"/>
		</g>
	</g>
	<g>
		<g>
			<path class="st4" d="M141,103h-4c-0.6,0-1-0.4-1-1s0.4-1,1-1h4c0.6,0,1,0.4,1,1S141.6,103,141,103z"/>
		</g>
	</g>
	<g>
		<path class="st13" d="M139,98h-2c-0.6,0-1,0.4-1,1s0.4,1,1,1h2V98z"/>
	</g>
	<g>
		<path class="st13" d="M137,101c-0.6,0-1,0.4-1,1s0.4,1,1,1h1.9c0.1-0.3,0.1-0.7,0.1-1v-1H137z"/>
	</g>
</g>
<g>
	<path class="st14" d="M41,112h22c0.6,0,1-0.4,1-1V77c0-0.6-0.4-1-1-1H41c-0.6,0-1,0.4-1,1v34C40,111.6,40.4,112,41,112z"/>
	<g>
		<rect x="40" y="81" class="st15" width="24" height="25"/>
		<path class="st16" d="M63,74H41c-1.7,0-3,1.3-3,3v3v27v4c0,1.7,1.3,3,3,3h22c1.7,0,3-1.3,3-3v-4V80v-3C66,75.3,64.7,74,63,74z
			 M41,76h22c0.6,0,1,0.4,1,1v2H40v-2C40,76.4,40.4,76,41,76z M64,106H40V81h24V106z M63,112H41c-0.6,0-1-0.4-1-1v-3h24v3
			C64,111.6,63.6,112,63,112z"/>
	</g>
	<g>
		<circle class="st16" cx="52" cy="110" r="1"/>
	</g>
	<g>
		<polygon class="st17" points="57,106 54,106 64,96 64,99 		"/>
	</g>
	<g>
		<polygon class="st17" points="64,106 59,106 64,101 		"/>
	</g>
	<g>
		<path class="st16" d="M49.9,89.6l-3-6c-0.3-0.7-1.5-0.7-1.8,0l-3,6c-0.2,0.5,0,1.1,0.4,1.3c0.5,0.2,1.1,0,1.3-0.4l0.2-0.4h3.8
			l0.2,0.4c0.2,0.4,0.5,0.6,0.9,0.6c0.1,0,0.3,0,0.4-0.1C49.9,90.6,50.1,90,49.9,89.6z M45.1,88l0.9-1.8l0.9,1.8H45.1z"/>
		<g>
			<path class="st16" d="M44,100c-0.3,0-0.5-0.1-0.7-0.3c-0.4-0.4-0.4-1,0-1.4l13-13c0.4-0.4,1-0.4,1.4,0s0.4,1,0,1.4l-13,13
				C44.5,99.9,44.3,100,44,100z"/>
		</g>
		<path class="st16" d="M57.8,96.4c0.1-0.3,0.2-0.6,0.2-0.9c0-1.4-1.1-2.5-2.5-2.5H53c-0.6,0-1,0.4-1,1v3v3c0,0.6,0.4,1,1,1h3.5
			c1.4,0,2.5-1.1,2.5-2.5C59,97.6,58.5,96.8,57.8,96.4z M54,95h1.5c0.3,0,0.5,0.2,0.5,0.5S55.8,96,55.5,96H54V95z M56.5,99H54v-1
			h1.5h1c0.3,0,0.5,0.2,0.5,0.5S56.8,99,56.5,99z"/>
	</g>
</g>
<g>
	<g>
		<path class="st5" d="M79,23.3c-0.4,0-0.8,0-1.1,0.1c0.1-0.4,0.1-0.7,0.1-1.1c0-2.8-2.2-5-5-5c-2.3,0-4.1,1.5-4.8,3.6
			c-0.7-0.3-1.4-0.6-2.2-0.6c-2.8,0-5,2.2-5,5c0,0,0,0.1,0,0.1c-0.3-0.1-0.7-0.1-1-0.1c-2.8,0-5,2.2-5,5s2.2,5,5,5h19
			c3.3,0,6-2.7,6-6S82.3,23.3,79,23.3z"/>
		<path class="st4" d="M79,36.3H60c-3.3,0-6-2.7-6-6c0-3.3,2.8-6,6.1-6c0.5-2.8,2.9-5,5.9-5c0.6,0,1.1,0.1,1.7,0.3
			c1-2,3-3.3,5.3-3.3c3.3,0,6,2.7,6,6c3.9,0,7,3.1,7,7S82.9,36.3,79,36.3z M60,26.3c-2.2,0-4,1.8-4,4s1.8,4,4,4h19c2.8,0,5-2.2,5-5
			c0-3.1-2.7-5.5-5.9-4.9c-0.3,0.1-0.7,0-0.9-0.3c-0.2-0.2-0.3-0.6-0.3-0.9c0.1-0.3,0.1-0.6,0.1-0.9c0-2.2-1.8-4-4-4
			c-1.8,0-3.3,1.1-3.8,2.8c-0.1,0.3-0.3,0.5-0.6,0.6c-0.3,0.1-0.6,0.1-0.8,0c-0.6-0.3-1.2-0.4-1.8-0.4c-2.2,0-4,1.8-4,4
			c0-0.1,0,0,0,0.1c0,0.3-0.1,0.6-0.4,0.8c-0.2,0.2-0.5,0.3-0.8,0.2C60.5,26.3,60.3,26.3,60,26.3z"/>
	</g>
	<g>
		<path class="st8" d="M82,25.3c0.6,0.8,1,1.9,1,3c0,2.8-2.2,5-5,5h-2H57.4c0.7,0.6,1.6,1,2.6,1h18c0.2,0,0.8,0,1,0c2.8,0,5-2.2,5-5
			C84,27.7,83.2,26.2,82,25.3z"/>
	</g>
	<g>
		<path class="st4" d="M85,30.3c-0.6,0-1-0.4-1-1c0-2.8-2.2-5-5-5c-1.7,0-3.2,0.8-4.2,2.2c-0.3,0.5-0.9,0.6-1.4,0.3
			c-0.5-0.3-0.6-0.9-0.3-1.4c1.3-2,3.5-3.1,5.8-3.1c3.9,0,7,3.1,7,7C86,29.9,85.6,30.3,85,30.3z"/>
	</g>
	<g>
		<path class="st4" d="M70.6,24.3c-0.4,0-0.8-0.2-0.9-0.6c-0.6-1.5-2.1-2.4-3.7-2.4c-0.6,0-1-0.4-1-1s0.4-1,1-1
			c2.4,0,4.5,1.4,5.5,3.6c0.2,0.5,0,1.1-0.5,1.3C70.9,24.3,70.7,24.3,70.6,24.3z"/>
	</g>
	<g>
		<path class="st4" d="M64.6,29.3c-0.4,0-0.8-0.2-0.9-0.6c-0.6-1.5-2.1-2.4-3.7-2.4c-0.6,0-1-0.4-1-1s0.4-1,1-1
			c2.4,0,4.5,1.4,5.5,3.6c0.2,0.5,0,1.1-0.5,1.3C64.9,29.3,64.7,29.3,64.6,29.3z"/>
	</g>
	<g>
		<path class="st4" d="M73,36.3c-2.2,0-4-1.8-4-4c0-0.6,0.4-1,1-1s1,0.4,1,1c0,1.1,0.9,2,2,2c0.6,0,1,0.4,1,1S73.6,36.3,73,36.3z"/>
	</g>
</g>
<g>
	<circle class="st18" cx="62" cy="6" r="1"/>
</g>
<g>
	<circle class="st18" cx="185" cy="73" r="1"/>
</g>
<g>
	<circle class="st18" cx="152" cy="10" r="1"/>
</g>
<g>
	<circle class="st18" cx="128" cy="9" r="1"/>
</g>
<g>
	<circle class="st18" cx="93" cy="2" r="1"/>
</g>
<g>
	<circle class="st18" cx="193" cy="101" r="1"/>
</g>
<g>
	<circle class="st19" cx="70" cy="7" r="1"/>
</g>
<g>
	<circle class="st19" cx="47" cy="4" r="1"/>
</g>
<g>
	<circle class="st19" cx="3" cy="63" r="1"/>
</g>
<g>
	<circle class="st20" cx="23" cy="19" r="1"/>
</g>
<g>
	<circle class="st20" cx="192" cy="59" r="1"/>
</g>
<g>
	<circle class="st20" cx="111" cy="8" r="1"/>
</g>
<g>
	<circle class="st20" cx="114" cy="23" r="1"/>
</g>
<g>
	<path class="st21" d="M191,87c-1.7,0-3-1.3-3-3s1.3-3,3-3s3,1.3,3,3S192.7,87,191,87z M191,83c-0.6,0-1,0.4-1,1s0.4,1,1,1
		s1-0.4,1-1S191.6,83,191,83z"/>
</g>
<g>
	<path class="st21" d="M119,6c-1.7,0-3-1.3-3-3s1.3-3,3-3s3,1.3,3,3S120.7,6,119,6z M119,2c-0.6,0-1,0.4-1,1s0.4,1,1,1s1-0.4,1-1
		S119.6,2,119,2z"/>
</g>
<g>
	<path class="st20" d="M7,56c-1.7,0-3-1.3-3-3s1.3-3,3-3s3,1.3,3,3S8.7,56,7,56z M7,52c-0.6,0-1,0.4-1,1s0.4,1,1,1s1-0.4,1-1
		S7.6,52,7,52z"/>
</g>
<g>
	<path class="st20" d="M184,50c-1.7,0-3-1.3-3-3s1.3-3,3-3s3,1.3,3,3S185.7,50,184,50z M184,46c-0.6,0-1,0.4-1,1s0.4,1,1,1
		s1-0.4,1-1S184.6,46,184,46z"/>
</g>
<g>
	<path class="st19" d="M101,10c-1.7,0-3-1.3-3-3s1.3-3,3-3s3,1.3,3,3S102.7,10,101,10z M101,6c-0.6,0-1,0.4-1,1s0.4,1,1,1s1-0.4,1-1
		S101.6,6,101,6z"/>
</g>
<path class="st21" d="M166.9,19.5l0.8-0.8c0.4-0.4,0.4-1,0-1.4s-1-0.4-1.4,0l-0.8,0.8l-0.8-0.8c-0.4-0.4-1-0.4-1.4,0s-0.4,1,0,1.4
	l0.8,0.8l-0.8,0.8c-0.4,0.4-0.4,1,0,1.4c0.2,0.2,0.5,0.3,0.7,0.3s0.5-0.1,0.7-0.3l0.8-0.8l0.8,0.8c0.2,0.2,0.5,0.3,0.7,0.3
	s0.5-0.1,0.7-0.3c0.4-0.4,0.4-1,0-1.4L166.9,19.5z"/>
<path class="st21" d="M92.9,13.5l0.8-0.8c0.4-0.4,0.4-1,0-1.4s-1-0.4-1.4,0l-0.8,0.8l-0.8-0.8c-0.4-0.4-1-0.4-1.4,0s-0.4,1,0,1.4
	l0.8,0.8l-0.8,0.8c-0.4,0.4-0.4,1,0,1.4c0.2,0.2,0.5,0.3,0.7,0.3s0.5-0.1,0.7-0.3l0.8-0.8l0.8,0.8c0.2,0.2,0.5,0.3,0.7,0.3
	s0.5-0.1,0.7-0.3c0.4-0.4,0.4-1,0-1.4L92.9,13.5z"/>
<path class="st20" d="M83.9,4.5l0.8-0.8c0.4-0.4,0.4-1,0-1.4s-1-0.4-1.4,0l-0.8,0.8l-0.8-0.8c-0.4-0.4-1-0.4-1.4,0s-0.4,1,0,1.4
	l0.8,0.8l-0.8,0.8c-0.4,0.4-0.4,1,0,1.4C80.5,6.9,80.7,7,81,7s0.5-0.1,0.7-0.3l0.8-0.8l0.8,0.8C83.5,6.9,83.7,7,84,7
	s0.5-0.1,0.7-0.3c0.4-0.4,0.4-1,0-1.4L83.9,4.5z"/>
<path class="st20" d="M144.9,11.5l0.8-0.8c0.4-0.4,0.4-1,0-1.4s-1-0.4-1.4,0l-0.8,0.8l-0.8-0.8c-0.4-0.4-1-0.4-1.4,0s-0.4,1,0,1.4
	l0.8,0.8l-0.8,0.8c-0.4,0.4-0.4,1,0,1.4c0.2,0.2,0.5,0.3,0.7,0.3s0.5-0.1,0.7-0.3l0.8-0.8l0.8,0.8c0.2,0.2,0.5,0.3,0.7,0.3
	s0.5-0.1,0.7-0.3c0.4-0.4,0.4-1,0-1.4L144.9,11.5z"/>
<g>
	<path class="st16" d="M184,114H14c-0.6,0-1-0.4-1-1s0.4-1,1-1h170c0.6,0,1,0.4,1,1S184.6,114,184,114z"/>
</g>
<g>
	<circle class="st16" cx="197" cy="113" r="1"/>
</g>
<g>
	<path class="st16" d="M193,114h-5c-0.6,0-1-0.4-1-1s0.4-1,1-1h5c0.6,0,1,0.4,1,1S193.6,114,193,114z"/>
</g>
<g>
	<circle class="st16" cx="1" cy="113" r="1"/>
</g>
<g>
	<path class="st16" d="M10,114H5c-0.6,0-1-0.4-1-1s0.4-1,1-1h5c0.6,0,1,0.4,1,1S10.6,114,10,114z"/>
</g>
<g>
	<circle class="st16" cx="156" cy="64" r="1"/>
</g>
<g>
	<circle class="st16" cx="153" cy="64" r="1"/>
</g>
<g>
	<circle class="st16" cx="150" cy="64" r="1"/>
</g>
<g>
	<circle class="st16" cx="144" cy="64" r="1"/>
</g>
<g>
	<circle class="st16" cx="141" cy="64" r="1"/>
</g>
<g>
	<circle class="st16" cx="147" cy="64" r="1"/>
</g>
<g>
	<circle class="st16" cx="26" cy="105" r="1"/>
</g>
<g>
	<circle class="st16" cx="26" cy="108" r="1"/>
</g>
<g>
	<circle class="st16" cx="29" cy="108" r="1"/>
</g>
<g>
	<circle class="st16" cx="32" cy="108" r="1"/>
</g>
<g>
	<circle class="st16" cx="35" cy="108" r="1"/>
</g>
<g>
	<path class="st22" d="M30,87H8v13c0,0.6,0.4,1,1,1h20c0.6,0,1-0.4,1-1V87z"/>
	<path class="st23" d="M30,83c0-0.6-0.4-1-1-1H9c-0.6,0-1,0.4-1,1v2h22V83z"/>
	<path class="st16" d="M29,80h-4v-1c0-0.6-0.4-1-1-1s-1,0.4-1,1v1h-8v-1c0-0.6-0.4-1-1-1s-1,0.4-1,1v1H9c-1.7,0-3,1.3-3,3v3v14
		c0,1.7,1.3,3,3,3h20c1.7,0,3-1.3,3-3V86v-3C32,81.3,30.7,80,29,80z M8,83c0-0.6,0.4-1,1-1h4v1c0,0.6,0.4,1,1,1s1-0.4,1-1v-1h8v1
		c0,0.6,0.4,1,1,1s1-0.4,1-1v-1h4c0.6,0,1,0.4,1,1v2H8V83z M30,100c0,0.6-0.4,1-1,1H9c-0.6,0-1-0.4-1-1V87h22V100z"/>
	<g>
		<path class="st24" d="M13,93L13,93c-1.1,0-2-0.9-2-2l0,0c0-1.1,0.9-2,2-2h0c1.1,0,2,0.9,2,2l0,0C15,92.1,14.1,93,13,93z"/>
	</g>
	<g>
		<path class="st24" d="M19,93L19,93c-1.1,0-2-0.9-2-2l0,0c0-1.1,0.9-2,2-2h0c1.1,0,2,0.9,2,2l0,0C21,92.1,20.1,93,19,93z"/>
	</g>
	<g>
		<path class="st24" d="M25,93L25,93c-1.1,0-2-0.9-2-2l0,0c0-1.1,0.9-2,2-2h0c1.1,0,2,0.9,2,2l0,0C27,92.1,26.1,93,25,93z"/>
	</g>
	<g>
		<path class="st24" d="M13,99L13,99c-1.1,0-2-0.9-2-2l0,0c0-1.1,0.9-2,2-2h0c1.1,0,2,0.9,2,2l0,0C15,98.1,14.1,99,13,99z"/>
	</g>
	<g>
		<path class="st24" d="M19,99L19,99c-1.1,0-2-0.9-2-2l0,0c0-1.1,0.9-2,2-2h0c1.1,0,2,0.9,2,2l0,0C21,98.1,20.1,99,19,99z"/>
	</g>
	<g>
		<path class="st24" d="M25,99L25,99c-1.1,0-2-0.9-2-2l0,0c0-1.1,0.9-2,2-2h0c1.1,0,2,0.9,2,2l0,0C27,98.1,26.1,99,25,99z"/>
	</g>
	<g>
		<rect x="8" y="87" class="st3" width="22" height="1"/>
	</g>
</g>
<g>
	<path class="st14" d="M133,51h-22l-1,3H88l-1-3H65c-2.2,0-4,1.8-4,4v38v6c0,2.2,1.8,4,4,4h68c2.2,0,4-1.8,4-4v-6V55
		C137,52.8,135.2,51,133,51z"/>
	<path class="st5" d="M111,54h21c1.1,0,2,0.9,2,2v35c0,1.1-0.9,2-2,2H66c-1.1,0-2-0.9-2-2V56c0-1.1,0.9-2,2-2h21H111z"/>
	<g>
		<circle class="st16" cx="99" cy="98" r="2"/>
	</g>
	<g>
		<path class="st14" d="M109,113H89c1.7,0,3-1.3,3-3v-7h14v7C106,111.7,107.3,113,109,113z"/>
		<path class="st16" d="M109,114H89c-0.6,0-1-0.4-1-1s0.4-1,1-1c1.1,0,2-0.9,2-2v-7c0-0.6,0.4-1,1-1h14c0.6,0,1,0.4,1,1v7
			c0,1.1,0.9,2,2,2c0.6,0,1,0.4,1,1S109.6,114,109,114z M92.5,112h13.1c-0.3-0.6-0.5-1.3-0.5-2v-6H93v6
			C93,110.7,92.8,111.4,92.5,112z"/>
	</g>
	<g>
		<path class="st25" d="M105,110v-6h-1h-0.5H93v2h8.5c1.1,0,2,0.9,2,2v2c0,0.7,0.2,1.4,0.5,2h1.5C105.2,111.4,105,110.7,105,110z"/>
	</g>
	<path class="st4" d="M130,57H68c-0.6,0-1,0.4-1,1v30c0,0.6,0.4,1,1,1h62c0.6,0,1-0.4,1-1V58C131,57.4,130.6,57,130,57z M129,59v4
		H69v-4H129z M69,87V65h60v22H69z"/>
	<g>
		<rect x="69" y="59" class="st8" width="60" height="4"/>
	</g>
	<g>
		<circle class="st4" cx="72" cy="61" r="1"/>
	</g>
	<g>
		<circle class="st4" cx="76" cy="61" r="1"/>
	</g>
	<g>
		<circle class="st4" cx="80" cy="61" r="1"/>
	</g>
	<g>
		<g>
			<path class="st4" d="M98,72h-9c-0.6,0-1-0.4-1-1s0.4-1,1-1h9c0.6,0,1,0.4,1,1S98.6,72,98,72z"/>
		</g>
	</g>
	<g>
		<g>
			<path class="st4" d="M101,84H89c-0.6,0-1-0.4-1-1s0.4-1,1-1h12c0.6,0,1,0.4,1,1S101.6,84,101,84z"/>
		</g>
	</g>
	<g>
		<g>
			<path class="st4" d="M98,80h-9c-0.6,0-1-0.4-1-1s0.4-1,1-1h9c0.6,0,1,0.4,1,1S98.6,80,98,80z"/>
		</g>
	</g>
	<g>
		<g>
			<path class="st4" d="M107,72h-6c-0.6,0-1-0.4-1-1s0.4-1,1-1h6c0.6,0,1,0.4,1,1S107.6,72,107,72z"/>
		</g>
	</g>
	<g>
		<g>
			<path class="st4" d="M95,76h-6c-0.6,0-1-0.4-1-1s0.4-1,1-1h6c0.6,0,1,0.4,1,1S95.6,76,95,76z"/>
		</g>
	</g>
	<g>
		<g>
			<path class="st4" d="M102,76h-4c-0.6,0-1-0.4-1-1s0.4-1,1-1h4c0.6,0,1,0.4,1,1S102.6,76,102,76z"/>
		</g>
	</g>
	<g>
		<g>
			<path class="st4" d="M104,80h-3c-0.6,0-1-0.4-1-1s0.4-1,1-1h3c0.6,0,1,0.4,1,1S104.6,80,104,80z"/>
		</g>
	</g>
	<g>
		<g>
			<rect x="73" y="69" class="st7" width="3" height="12"/>
		</g>
		<g>
			<rect x="77" y="75" class="st7" width="3" height="6"/>
		</g>
		<g>
			<rect x="81" y="71" class="st7" width="3" height="10"/>
		</g>
		<g>
			<circle class="st7" cx="74.5" cy="82.5" r="0.5"/>
		</g>
		<g>
			<circle class="st7" cx="78.5" cy="82.5" r="0.5"/>
		</g>
		<g>
			<circle class="st7" cx="82.5" cy="82.5" r="0.5"/>
		</g>
	</g>
	<g>
		<path class="st16" d="M133,50h-22c-0.2,0-0.4,0.1-0.6,0.2c0,0-0.1,0.1-0.1,0.1c0,0.1-0.1,0.1-0.1,0.2c-0.1,0.2-0.2,0.3-0.2,0.5
			c0,0.1,0,0.3,0.1,0.4c0,0,0,0.1,0.1,0.1c0,0.1,0.1,0.2,0.2,0.2c0,0,0.1,0.1,0.2,0.1c0.2,0.1,0.3,0.2,0.5,0.2h22c1.7,0,3,1.3,3,3
			v44c0,1.7-1.3,3-3,3H65c-1.7,0-3-1.3-3-3V55c0-1.7,1.3-3,3-3h22c0.2,0,0.4-0.1,0.5-0.2c0.1,0,0.1-0.1,0.2-0.1
			c0-0.1,0.1-0.1,0.1-0.1c0,0,0-0.1,0.1-0.1c0,0,0,0,0-0.1c0-0.1,0-0.1,0.1-0.2c0-0.1,0-0.1,0-0.2c0-0.2-0.1-0.4-0.2-0.5
			c0-0.1-0.1-0.1-0.1-0.2c0,0-0.1-0.1-0.1-0.1C87.4,50.1,87.2,50,87,50H65c-2.8,0-5,2.2-5,5v44c0,2.8,2.2,5,5,5h68c2.8,0,5-2.2,5-5
			V55C138,52.2,135.8,50,133,50z"/>
		<path class="st16" d="M66,53c-1.7,0-3,1.3-3,3v35c0,1.7,1.3,3,3,3h66c1.7,0,3-1.3,3-3V56c0-1.7-1.3-3-3-3h-21h-2c-0.6,0-1,0.4-1,1
			s0.4,1,1,1h2h21c0.6,0,1,0.4,1,1v35c0,0.6-0.4,1-1,1H66c-0.6,0-1-0.4-1-1V56c0-0.6,0.4-1,1-1h21h2c0.6,0,1-0.4,1-1s-0.4-1-1-1h-2
			H66z"/>
	</g>
</g>
<g>
	<g>
		<path class="st26" d="M138,87l-2.5-2.5c-1.3-1.3-1.5-3.3-0.6-4.9c1.7-2.8,2.5-6.2,1.9-9.9c-1-6.6-6.3-11.8-12.9-12.6
			c-9.8-1.2-18.1,7-16.8,16.8c0.8,6.6,6.1,11.9,12.6,12.9c3.6,0.5,7-0.3,9.9-1.9c1.6-0.9,3.6-0.7,4.9,0.6L137,88L138,87z"/>
		<path class="st16" d="M137,89c-0.3,0-0.5-0.1-0.7-0.3l-2.5-2.5c-1-1-2.5-1.1-3.7-0.4c-3.2,1.9-6.8,2.6-10.5,2.1
			c-7.1-1-12.6-6.7-13.5-13.8c-0.6-5,1-9.9,4.6-13.4s8.4-5.2,13.4-4.6c7.1,0.9,12.7,6.4,13.8,13.5c0.5,3.7-0.2,7.3-2.1,10.5
			c-0.7,1.2-0.5,2.7,0.4,3.7l2.5,2.5c0.4,0.4,0.4,1,0,1.4l-1,1C137.5,88.9,137.3,89,137,89z M122,58c-3.7,0-7.3,1.4-9.9,4.1
			c-3.1,3.1-4.5,7.4-4,11.7c0.8,6.2,5.6,11.1,11.8,12c3.2,0.5,6.4-0.2,9.2-1.8c1.5-0.9,3.2-0.9,4.7-0.2c-0.7-1.5-0.6-3.2,0.2-4.7
			c1.6-2.8,2.3-6,1.8-9.2c-0.9-6.2-5.8-11-12-11.8C123.2,58,122.6,58,122,58z"/>
	</g>
	<g>
		<circle class="st27" cx="122" cy="72" r="10"/>
		<path class="st16" d="M122,84c-6.6,0-12-5.4-12-12s5.4-12,12-12s12,5.4,12,12S128.6,84,122,84z M122,62c-5.5,0-10,4.5-10,10
			s4.5,10,10,10s10-4.5,10-10S127.5,62,122,62z"/>
	</g>
	<g>
		<path class="st23" d="M149,95L149,95c0,0.6-0.3,1.3-0.7,1.7l-1.6,1.6c-0.5,0.5-1.1,0.7-1.7,0.7l0,0c-0.6,0-1.3-0.3-1.7-0.7
			l-8.8-8.8l5-5l8.8,8.8C148.7,93.7,149,94.4,149,95z"/>
		<path class="st16" d="M145,100c-0.9,0-1.8-0.4-2.4-1l-8.8-8.8c-0.4-0.4-0.4-1,0-1.4l5-5c0.4-0.4,1-0.4,1.4,0l8.8,8.8
			c0.6,0.6,1,1.5,1,2.4s-0.4,1.8-1,2.4l-1.6,1.6C146.8,99.6,145.9,100,145,100z M135.9,89.5l8.1,8.1c0.5,0.5,1.5,0.5,2,0l1.6-1.6
			c0.3-0.3,0.4-0.6,0.4-1s-0.1-0.7-0.4-1l-8.1-8.1L135.9,89.5z"/>
	</g>
	<g>
		<path class="st28" d="M147.6,94.1l-1.6,1.6c-0.5,0.5-1.5,0.5-2,0l-7.1-7.1l-1,1l8.1,8.1c0.5,0.5,1.5,0.5,2,0l1.6-1.6
			c0.3-0.3,0.4-0.6,0.4-1C148,94.6,147.9,94.3,147.6,94.1C147.6,94.1,147.6,94.1,147.6,94.1z"/>
	</g>
	<g>
		<rect x="115" y="63" class="st19" width="14" height="2"/>
	</g>
	<g>
		<rect x="129" y="64" class="st19" width="2" height="16"/>
	</g>
	<g>
		<path class="st29" d="M114,73c-0.6,0-1-0.4-1-1c0-5,4-9,9-9c0.6,0,1,0.4,1,1s-0.4,1-1,1c-3.9,0-7,3.1-7,7
			C115,72.6,114.6,73,114,73z"/>
	</g>
	<g>
		<path class="st16" d="M122,84c-6.6,0-12-5.4-12-12s5.4-12,12-12s12,5.4,12,12S128.6,84,122,84z M122,62c-5.5,0-10,4.5-10,10
			s4.5,10,10,10s10-4.5,10-10S127.5,62,122,62z"/>
	</g>
	<g>
		<path class="st27" d="M123,64c0-0.6-0.4-1-1-1c-2.1,0-4.1,0.8-5.6,2h5.6C122.6,65,123,64.6,123,64z"/>
	</g>
</g>
<g>
	<path class="st20" d="M85,39v2.3c0,1.1,0.4,2.1,1.2,2.8l8.7,8.7c0.8,0.8,1.2,1.8,1.2,2.8V70l6-4V55.7c0-1.1,0.4-2.1,1.2-2.8
		l8.7-8.7c0.8-0.8,1.2-1.8,1.2-2.8V39H85z"/>
	<path class="st16" d="M96,71c-0.2,0-0.3,0-0.5-0.1C95.2,70.7,95,70.4,95,70V55.7c0-0.8-0.3-1.6-0.9-2.1l-8.7-8.7
		c-0.9-0.9-1.5-2.2-1.5-3.5V39c0-0.6,0.4-1,1-1h28c0.6,0,1,0.4,1,1v2.3c0,1.3-0.5,2.6-1.5,3.5l-8.7,8.7c-0.6,0.6-0.9,1.3-0.9,2.1V66
		c0,0.3-0.2,0.6-0.4,0.8l-6,4C96.4,70.9,96.2,71,96,71z M86,40v1.3c0,0.8,0.3,1.6,0.9,2.1l8.7,8.7c0.9,0.9,1.5,2.2,1.5,3.5v12.5
		l4-2.7v-9.8c0-1.3,0.5-2.6,1.5-3.5l8.7-8.7c0.6-0.6,0.9-1.3,0.9-2.1V40H86z"/>
</g>
<g>
	<path class="st30" d="M108,40v1.2c0,0.9-0.3,1.8-0.9,2.5l-6.7,8.2C99.5,53,99,54.3,99,55.7v11.1l2-1.3v-9.8c0-1.3,0.5-2.6,1.5-3.5
		l8.7-8.7c0.6-0.6,0.9-1.3,0.9-2.1V40H108z"/>
</g>
<g>
	<circle class="st0" cx="95" cy="26" r="3"/>
	<path class="st1" d="M95,31c-2.8,0-5-2.2-5-5s2.2-5,5-5s5,2.2,5,5S97.8,31,95,31z M95,23c-1.7,0-3,1.3-3,3s1.3,3,3,3s3-1.3,3-3
		S96.7,23,95,23z"/>
</g>
<g>
	<circle class="st0" cx="105" cy="19" r="2"/>
	<path class="st1" d="M105,23c-2.2,0-4-1.8-4-4s1.8-4,4-4s4,1.8,4,4S107.2,23,105,23z M105,17c-1.1,0-2,0.9-2,2s0.9,2,2,2s2-0.9,2-2
		S106.1,17,105,17z"/>
</g>
<g>
	<path class="st16" d="M112,44H93c-0.6,0-1-0.4-1-1s0.4-1,1-1h19c0.6,0,1,0.4,1,1S112.6,44,112,44z"/>
</g>
<g>
	<path class="st14" d="M72,112h12c0.6,0,1-0.4,1-1V87c0-0.6-0.4-1-1-1H72c-0.6,0-1,0.4-1,1v24C71,111.6,71.4,112,72,112z"/>
	<g>
		<rect x="71" y="91" class="st15" width="14" height="15"/>
		<path class="st16" d="M84,84H72c-1.7,0-3,1.3-3,3v3v17v4c0,1.7,1.3,3,3,3h12c1.7,0,3-1.3,3-3v-4V90v-3C87,85.3,85.7,84,84,84z
			 M72,86h12c0.6,0,1,0.4,1,1v2H71v-2C71,86.4,71.4,86,72,86z M85,106H71V91h14V106z M84,112H72c-0.6,0-1-0.4-1-1v-3h14v3
			C85,111.6,84.6,112,84,112z"/>
	</g>
	<g>
		<circle class="st16" cx="78" cy="110" r="1"/>
	</g>
	<g>
		<polygon class="st17" points="78,106 75,106 85,96 85,99 		"/>
	</g>
	<g>
		<polygon class="st17" points="85,106 80,106 85,101 		"/>
	</g>
</g>
<g>
	<rect x="87" y="94" class="st25" width="2" height="8"/>
</g>
<g>
	<path class="st8" d="M89,92h-2v-5l0,0c1.1,0,2,0.9,2,2V92z"/>
</g>
<path class="st5" d="M26,69h28c0.6,0,1-0.4,1-1V44c0-0.6-0.4-1-1-1H26c-0.6,0-1,0.4-1,1v24C25,68.6,25.4,69,26,69z"/>
<path class="st31" d="M55,44c0-0.6-0.4-1-1-1H26c-0.6,0-1,0.4-1,1v3h30V44z"/>
<g>
	<circle class="st16" cx="27" cy="45" r="1"/>
</g>
<g>
	<circle class="st16" cx="30" cy="45" r="1"/>
</g>
<g>
	<circle class="st16" cx="33" cy="45" r="1"/>
</g>
<g>
	<path class="st32" d="M87,87v2h2C89,87.9,88.1,87,87,87z"/>
</g>
<g>
	<path class="st9" d="M71,37c-0.6,0-1,0.4-1,1v10c0,0.6,0.4,1,1,1s1-0.4,1-1V38C72,37.4,71.6,37,71,37z"/>
	<path class="st9" d="M67,37h-3c-0.6,0-1,0.4-1,1s0.4,1,1,1h2v9c0,0.6,0.4,1,1,1s1-0.4,1-1V38C68,37.4,67.6,37,67,37z"/>
	<path class="st9" d="M78,37h-3c-0.6,0-1,0.4-1,1v10c0,0.6,0.4,1,1,1s1-0.4,1-1v-9h2c0.6,0,1-0.4,1-1S78.6,37,78,37z"/>
</g>
<g>
	<g>
		<path class="st33" d="M163.3,99c0.4-1.4,0.7-3,0.7-4.6c0-4.8-2-8.9-5-11c0.8-0.3,1.6-0.4,2.4-0.4c5.3,0,9.6,5.6,9.6,12.6
			c0,1.2-0.1,2.3-0.4,3.4H163.3z"/>
		<path class="st16" d="M170.6,100h-7.3c-0.3,0-0.6-0.1-0.8-0.4c-0.2-0.3-0.2-0.6-0.2-0.9c0.4-1.4,0.6-2.8,0.6-4.3
			c0-4.3-1.8-8.2-4.6-10.2c-0.3-0.2-0.5-0.6-0.4-1c0.1-0.4,0.3-0.7,0.7-0.8c0.9-0.3,1.8-0.5,2.7-0.5c5.9,0,10.6,6.1,10.6,13.6
			c0,1.2-0.1,2.4-0.4,3.6C171.5,99.7,171.1,100,170.6,100z M164.6,98h5.2c0.1-0.8,0.2-1.6,0.2-2.4c0-6.4-3.9-11.6-8.6-11.6
			c-0.1,0-0.1,0-0.2,0c2.4,2.6,3.8,6.4,3.8,10.4C165,95.6,164.9,96.8,164.6,98z"/>
	</g>
	<g>
		<path class="st34" d="M169.8,98c0.1-0.8,0.2-1.6,0.2-2.4c0-2.7-0.7-5.1-1.8-7.1c-0.5,0.8-0.9,1.7-1.3,2.6c-0.2,0.6-1,0.7-1.4,0.2
			c-0.3-0.5-0.7-1-1.2-1.4c0.4,1.4,0.6,3,0.6,4.6c0,1.2-0.1,2.4-0.4,3.6h2.2c0,0,0,0,0,0H169.8z"/>
	</g>
	<path class="st5" d="M179,100h-22v9c0,1.7,1.3,3,3,3h16c1.7,0,3-1.3,3-3V100z"/>
	<path class="st16" d="M176,114h-16c-2.8,0-5-2.2-5-5V99c0-0.6,0.4-1,1-1h24c0.6,0,1,0.4,1,1v10C181,111.8,178.8,114,176,114z
		 M157,100v9c0,1.7,1.3,3,3,3h16c1.7,0,3-1.3,3-3v-9H157z"/>
	<g>
		<path class="st3" d="M175,102v6c0,1.7-1.3,3-3,3h-14.2c0.5,0.6,1.3,1,2.2,1h16c1.7,0,3-1.3,3-3v-9h-2C175.9,100,175,100.9,175,102
			z"/>
	</g>
	<g>
		<path class="st33" d="M175,99c-0.4-1.2-0.6-2.6-0.6-4c0-4.2,1.9-7.8,4.6-9.6c-0.7-0.2-1.4-0.4-2.2-0.4c-4.9,0-8.8,4.9-8.8,11
			c0,1,0.1,2,0.3,3H175z"/>
		<path class="st16" d="M175,100h-6.7c-0.5,0-0.9-0.3-1-0.8c-0.2-1.1-0.4-2.2-0.4-3.2c0-6.6,4.4-12,9.8-12c0.8,0,1.6,0.1,2.5,0.4
			c0.4,0.1,0.6,0.4,0.7,0.8c0.1,0.4-0.1,0.8-0.4,1c-2.6,1.8-4.1,5.1-4.1,8.8c0,1.3,0.2,2.5,0.6,3.7c0.1,0.3,0,0.6-0.1,0.9
			C175.6,99.8,175.3,100,175,100z M169.2,98h4.6c-0.2-1-0.3-2-0.3-3c0-3.5,1.2-6.7,3.3-9c-4.3,0.1-7.7,4.5-7.7,10
			C169,96.7,169.1,97.3,169.2,98z"/>
	</g>
	<g>
		<path class="st34" d="M176.7,86c-0.3,0-4.7,3-5.1,9c-0.1,1,0.1,2,0.4,3h1.7c-0.2-1-0.3-2-0.3-3C173.4,91.5,174.7,88.3,176.7,86z"
			/>
	</g>
	<g>
		<path class="st33" d="M157.3,99c0.4-1.1,0.7-2.2,0.7-3.4c0-3.6-2-6.7-5-8.3c0.8-0.2,1.6-0.3,2.4-0.3c5.3,0,9.6,4.2,9.6,9.4
			c0,0.9-0.1,1.8-0.4,2.6H157.3z"/>
		<path class="st16" d="M164.6,100h-7.3c-0.3,0-0.6-0.2-0.8-0.4c-0.2-0.3-0.2-0.6-0.1-0.9c0.4-1,0.6-2,0.6-3.1
			c0-3.1-1.7-5.9-4.5-7.4c-0.4-0.2-0.6-0.6-0.5-1c0.1-0.4,0.3-0.7,0.8-0.8c0.9-0.2,1.8-0.3,2.6-0.3c5.9,0,10.6,4.7,10.6,10.4
			c0,0.9-0.1,1.9-0.4,2.8C165.5,99.7,165.1,100,164.6,100z M158.7,98h5.1c0.1-0.5,0.2-1.1,0.2-1.6c0-4.5-3.7-8.3-8.3-8.4
			c2.1,1.9,3.3,4.7,3.3,7.6C159,96.4,158.9,97.2,158.7,98z"/>
	</g>
	<g>
		<path class="st34" d="M161,98c0-0.2,0-0.4,0-0.6c0-2.6-1.2-4.9-3.1-6.5c0.7,1.4,1.1,3,1.1,4.6c0,0.8-0.1,1.6-0.3,2.4H161z"/>
	</g>
	<g>
		<path class="st33" d="M179.1,99c-0.3-0.6-0.4-1.3-0.4-2c0-2.1,1.3-3.9,3.3-4.8c-0.5-0.1-1-0.2-1.6-0.2c-3.5,0-6.4,2.5-6.4,5.5
			c0,0.5,0.1,1,0.2,1.5H179.1z"/>
		<path class="st16" d="M179.1,100h-4.9c-0.4,0-0.8-0.3-0.9-0.7c-0.2-0.6-0.3-1.2-0.3-1.8c0-4.1,4.4-7.4,9.2-6.3
			c0.4,0.1,0.7,0.4,0.8,0.9c0,0.4-0.2,0.8-0.6,1c-1.7,0.8-2.8,2.3-2.8,3.9c0,0.5,0.1,1.1,0.4,1.6c0.1,0.3,0.1,0.7-0.1,1
			C179.8,99.8,179.5,100,179.1,100z M175,98h2.7c-0.1-0.3-0.1-0.7-0.1-1c0-1.4,0.5-2.8,1.5-3.9c-2.4,0.5-4.1,2.3-4.1,4.4
			C175,97.7,175,97.8,175,98z"/>
	</g>
	<g>
		<path class="st34" d="M179.1,93.1C179.1,93.1,179.1,93.1,179.1,93.1c-0.9,0.2-1.7,0.9-2,1.8c-0.3,0.7-0.4,1.4-0.4,2.1
			c0,0.3,0,0.7,0.1,1h1c-0.1-0.3-0.1-0.7-0.1-1C177.7,95.6,178.2,94.2,179.1,93.1z"/>
	</g>
</g>
<g>
	<path class="st35" d="M122,76L122,76c-0.6,0-1-0.4-1-1v-8c0-0.6,0.4-1,1-1l0,0c0.6,0,1,0.4,1,1v8C123,75.6,122.6,76,122,76z"/>
</g>
<g>
	<path class="st35" d="M125,76L125,76c-0.6,0-1-0.4-1-1v-5c0-0.6,0.4-1,1-1l0,0c0.6,0,1,0.4,1,1v5C126,75.6,125.6,76,125,76z"/>
</g>
<g>
	<path class="st35" d="M119,76L119,76c-0.6,0-1-0.4-1-1v-3c0-0.6,0.4-1,1-1l0,0c0.6,0,1,0.4,1,1v3C120,75.6,119.6,76,119,76z"/>
</g>
<g>
	<path class="st8" d="M164.2,46c-0.2,0-0.5-0.1-0.7-0.3c-0.4-0.4-0.4-1,0-1.4c2.3-2.4,2.3-6.2,0-8.6c-0.4-0.4-0.4-1,0-1.4
		c0.4-0.4,1-0.4,1.4,0c3,3.1,3,8.2,0,11.4C164.7,45.9,164.4,46,164.2,46z"/>
</g>
<g>
	<path class="st8" d="M168,49c-0.2,0-0.5-0.1-0.7-0.3c-0.4-0.4-0.4-1-0.1-1.4c3.7-4,3.7-10.6,0-14.7c-0.4-0.4-0.3-1,0.1-1.4
		s1-0.3,1.4,0.1c4.3,4.8,4.3,12.6,0,17.3C168.5,48.9,168.3,49,168,49z"/>
</g>
<g>
	<path class="st8" d="M172,52c-0.2,0-0.5-0.1-0.7-0.2c-0.4-0.4-0.5-1-0.1-1.4c5-5.7,5-15,0-20.7c-0.4-0.4-0.3-1,0.1-1.4
		c0.4-0.4,1-0.3,1.4,0.1c5.6,6.4,5.6,16.9,0,23.3C172.6,51.9,172.3,52,172,52z"/>
</g>
<g>
	<path class="st19" d="M54,69H26c-0.6,0-1-0.4-1-1v-7l5-2l10,5l9-7l6,2v9C55,68.6,54.6,69,54,69z"/>
</g>
<g>
	<path class="st9" d="M40,60c-0.6,0-1-0.4-1-1v-8c0-0.6,0.4-1,1-1s1,0.4,1,1v8C41,59.6,40.6,60,40,60z"/>
</g>
<g>
	<path class="st9" d="M30,55c-0.6,0-1-0.4-1-1v-3c0-0.6,0.4-1,1-1s1,0.4,1,1v3C31,54.6,30.6,55,30,55z"/>
</g>
<g>
	<path class="st9" d="M49,53c-0.6,0-1-0.4-1-1v-1c0-0.6,0.4-1,1-1s1,0.4,1,1v1C50,52.6,49.6,53,49,53z"/>
</g>
<g>
	<rect x="124" y="104" class="st11" width="2" height="2"/>
</g>
<g>
	<circle class="st35" cx="122" cy="78" r="1"/>
</g>
<g>
	<circle class="st35" cx="119" cy="78" r="1"/>
</g>
<g>
	<circle class="st35" cx="125" cy="78" r="1"/>
</g>
<g>
	<g>
		<g>
			<circle class="st5" cx="55" cy="24" r="10"/>
			<path class="st16" d="M55,36c-6.6,0-12-5.4-12-12s5.4-12,12-12s12,5.4,12,12S61.6,36,55,36z M55,14c-5.5,0-10,4.5-10,10
				s4.5,10,10,10s10-4.5,10-10S60.5,14,55,14z"/>
		</g>
	</g>
	<g>
		<g>
			<path class="st33" d="M50,24c0-1,0.3-1.9,0.8-2.8L48,18.4c-2.6,3.3-2.6,8,0,11.2l2.9-2.9C50.3,25.9,50,25,50,24z"/>
		</g>
		<g>
			<path class="st20" d="M62,18.4l-2.9,2.9C59.7,22.1,60,23,60,24s-0.3,1.9-0.8,2.8l2.9,2.9C64.6,26.3,64.6,21.7,62,18.4z"/>
		</g>
		<g>
			<path class="st18" d="M52.2,19.8c1.7-1.1,3.8-1.1,5.5,0l2.9-2.9c-3.3-2.6-8-2.6-11.2,0L52.2,19.8z"/>
		</g>
	</g>
	<g>
		<path class="st16" d="M55.7,22.1L63,24l-7.3,1.9c-1.1,0.3-2.3-0.3-2.7-1.4c-0.3-1.1,0.3-2.2,1.5-2.5C55,22,55.4,22,55.7,22.1z"/>
	</g>
	<g>
		<circle class="st5" cx="55" cy="24" r="1"/>
	</g>
	<g>
		<path class="st36" d="M57,31h-4c-0.6,0-1-0.4-1-1s0.4-1,1-1h4c0.6,0,1,0.4,1,1S57.6,31,57,31z"/>
	</g>
</g>
<circle class="st19" cx="130" cy="30" r="7"/>
<g>
	<g>
		<g>
			<path class="st31" d="M127,15L127,15c2.2,0,4,1.8,4,4v0c0,0.7-0.1,1.3-0.4,1.9L127,29l-3.6-8.1c-0.3-0.6-0.4-1.3-0.4-1.9v0
				C123,16.8,124.8,15,127,15z"/>
			<path class="st16" d="M127,30c-0.4,0-0.8-0.2-0.9-0.6l-3.6-8.1c-0.3-0.7-0.5-1.5-0.5-2.3c0-2.8,2.2-5,5-5s5,2.2,5,5
				c0,0.8-0.2,1.6-0.5,2.3l-3.6,8.1C127.8,29.8,127.4,30,127,30z M127,16c-1.7,0-3,1.3-3,3c0,0.5,0.1,1,0.3,1.5l2.7,6l2.7-6
				c0.2-0.5,0.3-1,0.3-1.5C130,17.3,128.7,16,127,16z"/>
		</g>
	</g>
	<g>
		<circle class="st16" cx="127" cy="19" r="1"/>
	</g>
</g>
<g>
	<g>
		<path class="st21" d="M150.7,41.1c-2.7,0.5-5,2.6-5.5,5.4c-0.2,0.9-0.2,1.8-0.1,2.7c0.3,1.7,0,3.5-0.5,5.2L144,56l1.7-0.6
			c1.7-0.6,3.4-0.8,5.2-0.5c0.8,0.1,1.7,0.1,2.7-0.1c2.7-0.6,4.9-2.8,5.4-5.6C159.7,44.4,155.6,40.3,150.7,41.1z"/>
		<path class="st16" d="M144,57c-0.3,0-0.5-0.1-0.7-0.3c-0.3-0.3-0.4-0.7-0.2-1l0.6-1.7c0.6-1.7,0.7-3.3,0.5-4.7c-0.2-1-0.1-2,0.1-3
			c0.7-3.1,3.2-5.6,6.4-6.1l0,0c2.6-0.5,5.2,0.3,7.1,2.2s2.7,4.5,2.2,7.1c-0.6,3.1-3,5.7-6.1,6.4c-1,0.2-2,0.3-3,0.1
			c-1.4-0.2-3-0.1-4.7,0.5l-1.7,0.6C144.2,57,144.1,57,144,57z M150.9,42.1c-2.3,0.4-4.2,2.3-4.7,4.6c-0.2,0.8-0.2,1.5-0.1,2.3
			c0.3,1.7,0.1,3.5-0.5,5.4c1.9-0.6,3.8-0.8,5.5-0.5c0.8,0.1,1.5,0.1,2.3-0.1c2.3-0.5,4.2-2.4,4.6-4.7c0.4-2-0.3-3.9-1.7-5.4
			C154.8,42.3,152.9,41.7,150.9,42.1L150.9,42.1z"/>
	</g>
	<g>
		<path class="st37" d="M156.2,43.8c-0.2-0.2-0.3-0.3-0.5-0.5c1.1,1.3,1.5,3.1,1.2,4.8c-0.4,2.3-2.3,4.2-4.6,4.7
			c-0.8,0.2-1.5,0.2-2.3,0.1c-1.3-0.2-4.3,1-4.5,1.5c1.9-0.6,3.8-0.8,5.5-0.5c0.8,0.1,1.5,0.1,2.3-0.1c2.3-0.5,4.2-2.4,4.6-4.7
			C158.3,47.1,157.7,45.2,156.2,43.8z"/>
	</g>
	<g>
		<circle class="st16" cx="152" cy="48" r="1"/>
	</g>
	<g>
		<circle class="st16" cx="155" cy="48" r="1"/>
	</g>
	<g>
		<circle class="st16" cx="149" cy="48" r="1"/>
	</g>
</g>
<g>
	<g>
		<path class="st14" d="M160.9,65.4c0.7,0.1,1.3,0.7,1.5,1.4c0.2,0.5,0.3,0.9,0.6,1.4c0.3,0.6,0.3,1.4-0.1,2l-0.5,0.8
			c-0.3,0.5-0.3,1.1,0.2,1.5l0,0c0.4,0.4,1.1,0.5,1.5,0.2l0.8-0.5c0.6-0.4,1.4-0.4,2-0.1c0.4,0.2,0.9,0.4,1.4,0.6
			c0.7,0.2,1.2,0.8,1.4,1.5l0.2,0.9c0.1,0.6,0.6,1,1.2,1l0,0c0.6,0,1.1-0.4,1.2-1l0.2-0.9c0.1-0.7,0.7-1.3,1.4-1.5
			c0.5-0.2,0.9-0.3,1.4-0.6c0.6-0.3,1.4-0.3,2,0.1l0.8,0.5c0.5,0.3,1.1,0.3,1.5-0.2l0,0c0.4-0.4,0.5-1.1,0.2-1.5l-0.5-0.8
			c-0.4-0.6-0.4-1.4-0.1-2c0.2-0.4,0.4-0.9,0.6-1.4c0.2-0.7,0.8-1.2,1.5-1.4l0.9-0.2c0.6-0.1,1-0.6,1-1.2v0c0-0.6-0.4-1.1-1-1.2
			l-0.9-0.2c-0.7-0.1-1.3-0.7-1.5-1.4c-0.2-0.5-0.3-0.9-0.6-1.4c-0.3-0.6-0.3-1.4,0.1-2l0.5-0.8c0.3-0.5,0.3-1.1-0.2-1.5l0,0
			c-0.4-0.4-1.1-0.5-1.5-0.2l-0.8,0.5c-0.6,0.4-1.4,0.4-2,0.1c-0.4-0.2-0.9-0.4-1.4-0.6c-0.7-0.2-1.2-0.8-1.4-1.5l-0.2-0.9
			c-0.1-0.6-0.6-1-1.2-1l0,0c-0.6,0-1.1,0.4-1.2,1l-0.2,0.9c-0.1,0.7-0.7,1.3-1.4,1.5c-0.5,0.2-0.9,0.3-1.4,0.6
			c-0.6,0.3-1.4,0.3-2-0.1l-0.8-0.5c-0.5-0.3-1.1-0.3-1.5,0.2l0,0c-0.4,0.4-0.5,1.1-0.2,1.5l0.5,0.8c0.4,0.6,0.4,1.4,0.1,2
			c-0.2,0.4-0.4,0.9-0.6,1.4c-0.2,0.7-0.8,1.2-1.5,1.4l-0.9,0.2c-0.6,0.1-1,0.6-1,1.2v0c0,0.6,0.4,1.1,1,1.2L160.9,65.4z M171,59
			c2.8,0,5,2.2,5,5s-2.2,5-5,5s-5-2.2-5-5S168.2,59,171,59z"/>
		<path class="st16" d="M171,77c-1.1,0-2-0.8-2.2-1.8l-0.2-0.9c-0.1-0.4-0.3-0.6-0.7-0.7c-0.5-0.2-1-0.4-1.5-0.6
			c-0.3-0.2-0.7-0.2-1,0l-0.8,0.5c-0.9,0.6-2.1,0.5-2.8-0.3c-0.7-0.7-0.9-1.9-0.3-2.8l0.5-0.8c0.2-0.3,0.2-0.7,0-1
			c-0.2-0.5-0.5-1-0.6-1.5c-0.1-0.3-0.4-0.6-0.7-0.7l0,0l-0.9-0.2c-1-0.2-1.8-1.1-1.8-2.2s0.8-2,1.8-2.2l0.9-0.2
			c0.4-0.1,0.6-0.3,0.7-0.7c0.2-0.5,0.4-1,0.6-1.5c0.2-0.3,0.2-0.7,0-1l-0.5-0.8c-0.6-0.9-0.5-2.1,0.3-2.8c0.7-0.7,1.9-0.9,2.8-0.3
			l0.8,0.5c0.3,0.2,0.7,0.2,1,0c0.5-0.3,1-0.5,1.5-0.6c0.3-0.1,0.6-0.4,0.7-0.7l0.2-0.9c0.2-1,1.1-1.8,2.2-1.8s2,0.8,2.2,1.8
			l0.2,0.9c0.1,0.4,0.3,0.6,0.7,0.7c0.5,0.2,1,0.4,1.5,0.6c0.3,0.2,0.7,0.2,1,0l0.8-0.5c0.9-0.6,2.1-0.5,2.8,0.3
			c0.7,0.7,0.9,1.9,0.3,2.8l-0.5,0.8c-0.2,0.3-0.2,0.7,0,1c0.3,0.5,0.5,1,0.6,1.5c0.1,0.3,0.4,0.6,0.7,0.7l0.9,0.2
			c1,0.2,1.8,1.1,1.8,2.2s-0.8,2-1.8,2.2l-0.9,0.2c-0.4,0.1-0.6,0.3-0.7,0.7c-0.2,0.5-0.4,1-0.6,1.5c-0.2,0.3-0.2,0.7,0,1l0.5,0.8
			c0.6,0.9,0.5,2.1-0.3,2.8c-0.7,0.7-1.9,0.9-2.8,0.3l-0.8-0.5c-0.3-0.2-0.7-0.2-1,0c-0.5,0.3-1,0.5-1.5,0.6
			c-0.3,0.1-0.6,0.4-0.7,0.7l-0.2,0.9C173,76.2,172.1,77,171,77z M166,70.8c0.5,0,0.9,0.1,1.4,0.3c0.4,0.2,0.8,0.4,1.2,0.5
			c1,0.3,1.8,1.2,2,2.3l0.2,0.9c0,0.2,0.4,0.2,0.4,0l0.2-0.9c0.2-1.1,1-1.9,2-2.3c0.4-0.1,0.8-0.3,1.2-0.5c1-0.5,2.1-0.4,3,0.2
			l0.8,0.5c0.1,0.1,0.2,0,0.3,0c0.1-0.1,0.1-0.2,0-0.3l-0.5-0.8c-0.6-0.9-0.7-2.1-0.2-3c0.2-0.4,0.4-0.8,0.5-1.2
			c0.3-1,1.2-1.8,2.3-2l0.9-0.2c0.1,0,0.2-0.1,0.2-0.2s-0.1-0.2-0.2-0.2l-0.9-0.2c-1.1-0.2-1.9-1-2.3-2c-0.1-0.4-0.3-0.8-0.5-1.2
			c-0.5-1-0.4-2.1,0.2-3l0.5-0.8c0.1-0.1,0-0.2,0-0.3c-0.1-0.1-0.2-0.1-0.3,0l-0.8,0.5c-0.9,0.6-2.1,0.7-3,0.2
			c-0.4-0.2-0.8-0.4-1.2-0.5c-1-0.3-1.8-1.2-2-2.3l-0.2-0.9c0-0.2-0.4-0.2-0.4,0l-0.2,0.9c-0.2,1.1-1,1.9-2,2.3
			c-0.4,0.1-0.8,0.3-1.2,0.5c-1,0.5-2.1,0.4-3-0.2l-0.8-0.5c-0.1-0.1-0.2,0-0.3,0c-0.1,0.1-0.1,0.2,0,0.3l0.5,0.8
			c0.6,0.9,0.7,2.1,0.2,3c-0.2,0.4-0.4,0.8-0.5,1.2c-0.3,1-1.2,1.8-2.3,2l-0.9,0.2c-0.1,0-0.2,0.1-0.2,0.2s0.1,0.2,0.2,0.2l0.9,0.2
			c1.1,0.2,1.9,1,2.3,2c0.1,0.4,0.3,0.8,0.5,1.2c0.5,1,0.4,2.1-0.2,3l-0.5,0.8c-0.1,0.1,0,0.2,0,0.3c0.1,0.1,0.2,0.1,0.3,0l0.8-0.5
			C164.8,70.9,165.4,70.8,166,70.8z M171,70c-3.3,0-6-2.7-6-6s2.7-6,6-6s6,2.7,6,6S174.3,70,171,70z M171,60c-2.2,0-4,1.8-4,4
			s1.8,4,4,4s4-1.8,4-4S173.2,60,171,60z"/>
	</g>
	<g>
		<path class="st25" d="M181.8,63.8l-0.9-0.2c-1.1-0.2-1.9-1-2.3-2.1c-0.1-0.4-0.3-0.8-0.5-1.2c-0.5-1-0.4-2.1,0.2-3l0.5-0.8
			c0.1-0.1,0-0.2,0-0.3l-2.2,2.2c-0.4,0.4-0.4,0.9-0.1,1.3c1.2,1.5,1.7,3.5,1.3,5.7c-0.5,2.8-2.7,5-5.5,5.5
			c-2.1,0.4-4.2-0.2-5.7-1.3c-0.4-0.3-1-0.3-1.3,0.1l-2.2,2.2c0.1,0.1,0.2,0.1,0.3,0l0.8-0.5c0.5-0.3,1.1-0.5,1.7-0.5
			c0.5,0,0.9,0.1,1.4,0.3c0.4,0.2,0.8,0.4,1.2,0.5c1.1,0.3,1.9,1.2,2.1,2.3l0.2,0.9c0,0.2,0.4,0.2,0.4,0l0.2-0.9
			c0.2-1.1,1-1.9,2.1-2.3c0.4-0.1,0.8-0.3,1.2-0.5c1-0.5,2.1-0.4,3,0.2l0.8,0.5c0.1,0.1,0.2,0,0.3,0c0.1-0.1,0.1-0.2,0-0.3l-0.5-0.8
			c-0.6-0.9-0.7-2.1-0.2-3c0.2-0.4,0.4-0.8,0.5-1.2c0.3-1.1,1.2-1.9,2.3-2.1l0.9-0.2c0.1,0,0.2-0.1,0.2-0.2S181.9,63.8,181.8,63.8z"
			/>
	</g>
	<g>
		<path class="st25" d="M165,64c0-3.3,2.7-6,6-6c1.7,0,3.2,0.7,4.2,1.8c0,0,0.8-0.8-0.2-1.5c-1.1-0.8-2.5-1.3-4-1.3
			c-3.9,0-7,3.1-7,7c0,1.5,0.4,2.9,1.3,4c0.7,1,1.5,0.2,1.5,0.2C165.7,67.2,165,65.7,165,64z"/>
	</g>
</g>
<g>
	<path class="st38" d="M37,27h-5l1-3.9c0-0.1,0-0.2,0-0.3v-0.6c0-0.7-0.6-1.2-1.2-1.2c-0.5,0-0.9,0.3-1.1,0.7l-1,2.1
		c-0.9,1.7-2.1,3.2-3.6,4.5v5.9c0.3,0.1,0.6,0.2,0.9,0.4l0.9,0.6c0.7,0.5,1.6,0.8,2.5,0.8h5.3c0.8,0,1.6-0.5,1.9-1.3l0.8-1.9
		c0.5-1.2,0.7-2.5,0.7-3.9C39,27.9,38.1,27,37,27z"/>
	<path class="st4" d="M37,26h-3.7l0.7-2.6c0-0.2,0.1-0.4,0.1-0.5v-0.6c0-1.2-1-2.2-2.2-2.2c-0.9,0-1.6,0.5-2,1.2l-1,2.1
		c-0.7,1.4-1.6,2.6-2.7,3.6v2.6c1.9-1.4,3.5-3.2,4.5-5.3l1-2.1c0.1-0.2,0.4-0.1,0.4,0.1l0,0.7l-1,3.9c-0.1,0.3,0,0.6,0.2,0.9
		S31.7,28,32,28h5c0.6,0,1,0.4,1,1c0,1.2-0.2,2.4-0.7,3.5l-0.8,1.9c-0.2,0.4-0.5,0.6-0.9,0.6h-5.3c-0.7,0-1.4-0.2-2-0.6l-0.9-0.6
		c-0.5-0.3-1-0.5-1.5-0.6v2.1c0.1,0.1,0.3,0.1,0.4,0.2l0.9,0.6c0.9,0.6,2,0.9,3.1,0.9h5.3c1.2,0,2.3-0.7,2.8-1.9l0.8-1.9
		c0.5-1.4,0.8-2.8,0.8-4.2C40,27.3,38.7,26,37,26z"/>
</g>
<g>
	<g>
		<path class="st39" d="M30,26.7c-0.1,0.3,0,0.6,0.2,0.9S30.7,28,31,28h0.9c-0.3,0-0.5-0.1-0.7-0.4C31,27.4,31,27.1,31,26.8l1-3.9
			l0-0.7c0-0.2-0.3-0.3-0.4-0.1v0c-0.5,1-0.9,2-1.1,3.1L30,26.7z"/>
	</g>
	<g>
		<path class="st39" d="M37,28h-1.6c0.5,0.1,0.9,0.5,0.9,1c0,1.2-0.2,2.4-0.7,3.5l-0.8,1.9C34.8,34.7,34.4,35,34,35l1.6,0
			c0.4,0,0.8-0.2,0.9-0.6l0.8-1.9c0.4-1.1,0.7-2.3,0.7-3.5C38,28.4,37.6,28,37,28z"/>
	</g>
</g>
<g>
	<rect x="22" y="28" class="st3" width="2" height="7"/>
	<path class="st4" d="M25,37h-4c-0.6,0-1-0.4-1-1v-9c0-0.6,0.4-1,1-1h4c0.6,0,1,0.4,1,1v9C26,36.6,25.6,37,25,37z M22,35h2v-7h-2V35
		z"/>
</g>
<g>
	<rect x="23" y="28" class="st9" width="1" height="7"/>
</g>
<g>
	<path class="st8" d="M21,49h-3c-5,0-9-4-9-9s4-9,9-9c0.6,0,1,0.4,1,1s-0.4,1-1,1c-3.9,0-7,3.1-7,7s3.1,7,7,7h3c0.6,0,1,0.4,1,1
		S21.6,49,21,49z"/>
</g>
<g>
	<path class="st40" d="M130,23c-1.1,0-2.1,0.2-3,0.7V30l5.7-6.5C131.8,23.2,130.9,23,130,23z"/>
</g>
<path class="st16" d="M130,21c-5,0-9,4-9,9s4,9,9,9s9-4,9-9S135,21,130,21z M136.9,29H134c-0.1-2-0.5-3.9-1.1-5.4
	C135,24.6,136.6,26.6,136.9,29z M130,37c-0.5,0-1.8-2.1-2-6h3.9C131.8,34.9,130.5,37,130,37z M128,29c0.2-3.9,1.4-6,2-6s1.8,2.1,2,6
	H128z M127.1,23.6c-0.6,1.5-1,3.4-1.1,5.4h-2.9C123.4,26.6,125,24.6,127.1,23.6z M123.1,31h2.9c0.1,2,0.5,3.9,1.1,5.4
	C125,35.4,123.4,33.4,123.1,31z M132.9,36.4c0.6-1.5,1-3.4,1.1-5.4h2.9C136.6,33.4,135,35.4,132.9,36.4z"/>
<g>
	<g>
		<g>
			<path class="st31" d="M127,15L127,15c2.2,0,4,1.8,4,4v0c0,0.7-0.1,1.3-0.4,1.9L127,29l-3.6-8.1c-0.3-0.6-0.4-1.3-0.4-1.9v0
				C123,16.8,124.8,15,127,15z"/>
			<path class="st16" d="M127,30c-0.4,0-0.8-0.2-0.9-0.6l-3.6-8.1c-0.3-0.7-0.5-1.5-0.5-2.3c0-2.8,2.2-5,5-5s5,2.2,5,5
				c0,0.8-0.2,1.6-0.5,2.3l-3.6,8.1C127.8,29.8,127.4,30,127,30z M127,16c-1.7,0-3,1.3-3,3c0,0.5,0.1,1,0.3,1.5l2.7,6l2.7-6
				c0.2-0.5,0.3-1,0.3-1.5C130,17.3,128.7,16,127,16z"/>
		</g>
	</g>
	<g>
		<path class="st41" d="M129.7,20.5c0.2-0.5,0.3-1,0.3-1.5c0-0.3,0-0.6-0.1-0.9c-0.5-1.6-2.9-1.2-2.9,0.5v7.9L129.7,20.5z"/>
	</g>
	<g>
		<circle class="st16" cx="127" cy="19" r="1"/>
	</g>
</g>
<path class="st19" d="M38.9,9.5l0.8-0.8c0.4-0.4,0.4-1,0-1.4s-1-0.4-1.4,0l-0.8,0.8l-0.8-0.8c-0.4-0.4-1-0.4-1.4,0s-0.4,1,0,1.4
	l0.8,0.8l-0.8,0.8c-0.4,0.4-0.4,1,0,1.4c0.2,0.2,0.5,0.3,0.7,0.3s0.5-0.1,0.7-0.3l0.8-0.8l0.8,0.8c0.2,0.2,0.5,0.3,0.7,0.3
	s0.5-0.1,0.7-0.3c0.4-0.4,0.4-1,0-1.4L38.9,9.5z"/>
<path class="st19" d="M3.9,75.5l0.8-0.8c0.4-0.4,0.4-1,0-1.4s-1-0.4-1.4,0l-0.8,0.8l-0.8-0.8c-0.4-0.4-1-0.4-1.4,0s-0.4,1,0,1.4
	l0.8,0.8l-0.8,0.8c-0.4,0.4-0.4,1,0,1.4C0.5,77.9,0.7,78,1,78s0.5-0.1,0.7-0.3l0.8-0.8l0.8,0.8C3.5,77.9,3.7,78,4,78
	s0.5-0.1,0.7-0.3c0.4-0.4,0.4-1,0-1.4L3.9,75.5z"/>
<g>
	<path class="st2" d="M96.4,24.6C96.1,24.2,95.6,24,95,24c-1.1,0-2,0.9-2,2c0,0.6,0.2,1.1,0.6,1.4L96.4,24.6z"/>
</g>
<g>
	<path class="st2" d="M105.7,18.3c-0.2-0.2-0.4-0.3-0.7-0.3c-0.6,0-1,0.4-1,1c0,0.3,0.1,0.5,0.3,0.7L105.7,18.3z"/>
</g>
<path class="st16" d="M54,41H26c-1.7,0-3,1.3-3,3v3v1v20c0,1.7,1.3,3,3,3h28c1.7,0,3-1.3,3-3V48v-1v-3C57,42.3,55.7,41,54,41z
	 M55,57.7L49.3,56c-0.3-0.1-0.6,0-0.9,0.2l-8.5,6.6l-9.4-4.7c-0.2-0.1-0.5-0.1-0.8-0.1L25,59.6V49h30V57.7z M54,69H26
	c-0.6,0-1-0.4-1-1v-6.3l4.9-1.6l9.6,4.8C39.7,65,39.8,65,40,65c0.2,0,0.4-0.1,0.6-0.2l8.6-6.7l5.8,1.7V68C55,68.6,54.6,69,54,69z
	 M25,47v-3c0-0.6,0.4-1,1-1h28c0.6,0,1,0.4,1,1v3H25z"/>
<g>
	<circle class="st31" cx="40" cy="64" r="1"/>
	<path class="st16" d="M40,67c-1.7,0-3-1.3-3-3s1.3-3,3-3s3,1.3,3,3S41.7,67,40,67z M40,63c-0.6,0-1,0.4-1,1s0.4,1,1,1s1-0.4,1-1
		S40.6,63,40,63z"/>
</g>
<g>
	<circle class="st31" cx="49" cy="57" r="1"/>
	<path class="st16" d="M49,60c-1.7,0-3-1.3-3-3s1.3-3,3-3s3,1.3,3,3S50.7,60,49,60z M49,56c-0.6,0-1,0.4-1,1s0.4,1,1,1s1-0.4,1-1
		S49.6,56,49,56z"/>
</g>
<g>
	<circle class="st31" cx="30" cy="59" r="1"/>
	<path class="st16" d="M30,62c-1.7,0-3-1.3-3-3s1.3-3,3-3s3,1.3,3,3S31.7,62,30,62z M30,58c-0.6,0-1,0.4-1,1s0.4,1,1,1s1-0.4,1-1
		S30.6,58,30,58z"/>
</g>
</svg>
